<svg xmlns="http://www.w3.org/2000/svg" width="19.126" height="20" viewBox="0 0 19.126 20">
  <g id="Group_207" data-name="Group 207" transform="translate(-1121.999 -285)">
    <g id="Group_206" data-name="Group 206" transform="translate(1122 282)">
      <path id="Union_8" data-name="Union 8" d="M-1085,2137a10.012,10.012,0,0,1,10-10,10.029,10.029,0,0,1,9.124,5.908l-3.651,1.638A6.014,6.014,0,0,0-1075,2131a6.007,6.007,0,0,0-6,6,6.007,6.007,0,0,0,6,6,6.014,6.014,0,0,0,5.474-3.543l.011,0,2.635-1,1,2.635h0l0,.007,0,0A10.025,10.025,0,0,1-1075,2147,10.011,10.011,0,0,1-1085,2137Z" transform="translate(1084.999 -2124)" fill="#fff"/>
    </g>
    <path id="Path_207" data-name="Path 207" d="M3.5,0A3.5,3.5,0,1,1,0,3.5,3.5,3.5,0,0,1,3.5,0Z" transform="translate(1128.5 291.5)" fill="#fff"/>
  </g>
</svg>
