<svg id="new_logo" data-name="new logo" xmlns="http://www.w3.org/2000/svg" viewBox="0 0 83 31.001">
  <path id="Path_505" data-name="Path 505" d="M15.135-5.87A2.989,2.989,0,0,1,12.163-3.5,3.172,3.172,0,0,1,8.927-6.87a3.187,3.187,0,0,1,3.236-3.368,2.875,2.875,0,0,1,2.894,2.394l3.92-.947a6.769,6.769,0,0,0-6.814-5.078,7,7,0,0,0-7.287,7,6.98,6.98,0,0,0,7.287,7A6.754,6.754,0,0,0,19-5.028Zm18.9,2c-.5.026-.789.053-.973.053-.289,0-.474-.263-.474-.737v-4.21c0-3.368-2.341-5.236-5.893-5.236-3.183,0-5.367,1.526-5.972,4.157l3.893.816a1.9,1.9,0,0,1,2-1.71,1.775,1.775,0,0,1,1.92,1.895v.158L25.3-8.422c-3.525.263-5.446,1.684-5.446,4.342C19.854-1.66,21.748,0,24.563,0a5.731,5.731,0,0,0,4.393-1.763,3.1,3.1,0,0,0,3,1.605,4.421,4.421,0,0,0,2.368-.684Zm-8.182.71c-.973,0-1.631-.447-1.631-1.263,0-.789.552-1.316,1.763-1.447l2.552-.289v.553A2.487,2.487,0,0,1,25.852-3.16ZM41.706-13.369a3.39,3.39,0,0,0-2.163,2.157V-13.5H35.334V-.293h4.207l0-4.131c0-4.863,2.321-4.836,2.321-4.836a7.089,7.089,0,0,1,1.3-.1l.232-4.281A5.121,5.121,0,0,0,41.706-13.369ZM51.3-10.378h4.683V-13.72H51.3v-5.736l-4.209,1.237v4.5h-2.5v3.342h2.5v5.263c0,3.131,1.868,5,5,5a7.168,7.168,0,0,0,3.6-.974L54.72-4.405a4.3,4.3,0,0,1-1.92.526c-.947,0-1.5-.605-1.5-1.658Zm7.764-9.972a2.37,2.37,0,0,0-2.42,2.368,2.323,2.323,0,0,0,2.42,2.368,2.345,2.345,0,0,0,2.447-2.368A2.393,2.393,0,0,0,59.063-20.351Zm2.1,19.84V-13.72H56.959V-.511Zm12.1-9.867V-13.72h-4.42v-2.815a1.667,1.667,0,0,1,1.684-1.816,2.878,2.878,0,0,1,1.21.263L72.9-21.14a5.068,5.068,0,0,0-2.841-.816,5.144,5.144,0,0,0-5.393,5.42v2.815H62.38v3.342h2.289V-.511h4.183v-9.867Zm14.6-3.391H83.667v6.131c0,2.552-1.079,3.684-2.736,3.684a2.329,2.329,0,0,1-2.262-2.6v-7.21H74.485v8.1c0,3.315,2.052,5.5,5.13,5.5a5.445,5.445,0,0,0,4.051-1.658V.6a2.824,2.824,0,0,1-3.052,2.763,4.088,4.088,0,0,1-3.6-2.026L73.959,3.887c1.263,2.131,3.6,3.184,6.656,3.184,4.341,0,7.261-2.552,7.261-6.131Z" transform="translate(-4.876 21.956)"/>
  <path id="Path_503" data-name="Path 503" d="M.39,0H39.6c.215,0,.39.269.39.6V2.4c0,.331-.175.6-.39.6H.39C.175,3,0,2.731,0,2.4V.6C0,.269.175,0,.39,0Z" transform="translate(20.007 28.001)"/>
</svg>
