<svg id="Layer_1" height="512" viewBox="0 0 128 128" width="512" xmlns="http://www.w3.org/2000/svg" data-name="Layer 1"><path d="m61.821 54.311a8.127 8.127 0 0 1 -4.113-7.058v-13.845a9.6 9.6 0 0 0 -5.265-17.961 6.67 6.67 0 0 0 -5.982-3.674 6.74 6.74 0 0 0 -6 3.7 8 8 0 0 0 -3.919 15.338v16.442a8.128 8.128 0 0 1 -4.112 7.058 11.629 11.629 0 0 0 -5.888 10.1v46.339a5.483 5.483 0 0 0 5.477 5.477h30.212a5.483 5.483 0 0 0 5.477-5.477v-46.336a11.631 11.631 0 0 0 -5.887-10.103zm-31.779 24.772h6.458a5.656 5.656 0 0 0 4.824-2.7c1.526-2.526 3.64-3.976 5.8-3.976s4.273 1.449 5.8 3.975a5.655 5.655 0 0 0 4.824 2.7h6.459v11.65h-6.458a5.656 5.656 0 0 0 -4.824 2.7c-1.526 2.526-3.64 3.975-5.8 3.975s-4.273-1.449-5.8-3.975a5.655 5.655 0 0 0 -4.824-2.7h-6.459zm5.077-55.655a4.49 4.49 0 0 1 5.922-4.266 1.751 1.751 0 0 0 2.269-1.314 3.211 3.211 0 0 1 6.277-.078 1.751 1.751 0 0 0 2.092 1.314 6.1 6.1 0 1 1 1.351 12.047 6.167 6.167 0 0 1 -1.093-.1 1.75 1.75 0 0 0 -2.062 1.722v17a1.5 1.5 0 0 1 -3 0v-23.408a1.75 1.75 0 0 0 -3.3-.82 4.486 4.486 0 0 1 -8.46-2.1zm-.964 33.928a11.634 11.634 0 0 0 5.887-10.1v-15.856a7.927 7.927 0 0 0 3.333-.917v19.267a5 5 0 0 0 10 0v-15.125c.281-.01.558-.037.833-.071v12.7a11.633 11.633 0 0 0 5.888 10.1 8.126 8.126 0 0 1 4.112 7.058v11.17h-6.459a2.136 2.136 0 0 1 -1.828-1.01c-2.175-3.6-5.381-5.666-8.8-5.666s-6.621 2.065-8.8 5.667a2.136 2.136 0 0 1 -1.821 1.01h-6.458v-11.169a8.125 8.125 0 0 1 4.113-7.058zm28.076 55.371h-30.212a1.979 1.979 0 0 1 -1.977-1.977v-16.518h6.458a2.136 2.136 0 0 1 1.828 1.01c2.175 3.6 5.381 5.666 8.8 5.666s6.621-2.065 8.8-5.666a2.136 2.136 0 0 1 1.828-1.009h6.459v16.517a1.979 1.979 0 0 1 -1.984 1.977z"/><path d="m101.023 81.346a1.749 1.749 0 0 0 -1.315-.6h-27.083a1.751 1.751 0 0 0 -1.735 1.979l4.221 31.977a1.751 1.751 0 0 0 1.735 1.521h18.641a1.751 1.751 0 0 0 1.735-1.521l4.221-31.977a1.751 1.751 0 0 0 -.42-1.379zm-3.312 2.9-2.74 20.758h-17.61l-2.74-20.754zm-19.331 28.481-.557-4.219h16.687l-.557 4.219z"/></svg>