<svg xmlns="http://www.w3.org/2000/svg" width="88" height="88" data-name="Layer 1" viewBox="0 0 88 88"><path d="M69.85,65.5a1,1,0,0,0-.12-.41,50.47,50.47,0,0,1-5.61-22.76A46.77,46.77,0,0,1,68.93,21.1a4.4,4.4,0,0,0,.85-1.71,1,1,0,0,0,.06-.43s0-.05,0-.08c0-5.12-15.48-7-25.88-7s-25.89,1.86-25.89,7c0,0,0,.06,0,.09a1.07,1.07,0,0,0,.06.47,3,3,0,0,0,.57,1.17,50.4,50.4,0,0,1,5.09,22.52A46.91,46.91,0,0,1,22.15,55.3a47.78,47.78,0,0,1-3.47,8.9,2.78,2.78,0,0,0-.49,1l0,.06a1,1,0,0,0-.06.51.5.5,0,0,0,0,.12,3.19,3.19,0,0,0,1.29,2.41h0c3,2.53,11.53,4.28,22,4.53L41.3,75h0v0s0,.07,0,.1a.28.28,0,0,1,0,.09.56.56,0,0,0,0,.12.64.64,0,0,0,0,.07l.06.13,0,0,.09.11,0,0a.81.81,0,0,0,.1.09l.06,0,.11.06.07,0,.12,0,.07,0,.14,0h.1A55.54,55.54,0,0,0,57.2,74c9.72-2.81,12.72-6.73,12.72-7.84A3.77,3.77,0,0,0,69.85,65.5ZM47.78,57.83s0,0,0-.06v-.1s0,0,0,0,0-.06,0-.08a.5.5,0,0,0,0-.13l0-.06-.06-.13,0,0-.1-.12,0,0a.63.63,0,0,0-.12-.1l0,0-.13-.07-.06,0-.13,0-.08,0h-.31c-.9.12-1.8.22-2.69.29v-5.3c1.27-.06,2.55-.18,3.81-.36h.07a1,1,0,0,0,.83-1.12l.12-5A44.33,44.33,0,0,0,62,41.57c0,.25,0,.51,0,.77a52.36,52.36,0,0,0,1.56,12.37c-3.41,1.68-8.49,4.15-14.38,4.77l-.17,0-1.24.12ZM41.72,44.4s0,.05,0,.08a1.07,1.07,0,0,0,.85,1.07h0l.18,0h1c.87,0,1.76,0,2.66-.08h.16l-.09,3.92c-1.27.15-2.55.24-3.83.27a41,41,0,0,1-6.83-.4,41.91,41.91,0,0,1-10-2.77c.08-1.11.13-2.23.14-3.36a54.06,54.06,0,0,0-.28-5.8A44.5,44.5,0,0,0,35.52,40a43.67,43.67,0,0,0,6.16.43h.07ZM25.58,48.72a43.72,43.72,0,0,0,10,2.66,43.4,43.4,0,0,0,6.14.44h.09v5.34a41.07,41.07,0,0,1-14-2.08c-1.06-.35-2.09-.74-3.06-1.15A44.62,44.62,0,0,0,25.58,48.72Zm36.49-9.54a42.24,42.24,0,0,1-14.46,4.1l-1.33.1c-.81,0-1.62.07-2.42.07l0-3.1c1.37-.07,2.74-.19,4.09-.39h0l.13,0,.07,0,.11-.06.08,0,.09-.06.07-.06a.6.6,0,0,1,.08-.08.18.18,0,0,1,0-.07l.06-.1a.3.3,0,0,0,0-.08.42.42,0,0,0,0-.1.32.32,0,0,0,0-.09.43.43,0,0,0,0-.11s0-.06,0-.1v0l.23-9.42A34.18,34.18,0,0,0,65.18,24.4,48.67,48.67,0,0,0,62.07,39.18ZM44,14c15.14,0,23.5,3.11,23.74,4.77-.19.37-.41.8-.65,1.29-2.1,2.42-9,6.69-17.89,7.29l.06-2.56a1.07,1.07,0,0,0-1-1.09,1,1,0,0,0-.43-.07c-1.25.05-2.54.07-3.81.07-12.11,0-20.84-2-23.22-4.06h0l-.23-.22-.3-.61C20.34,17.19,28.71,14,44,14ZM22,22.79c4.53,1.88,12.71,3.06,21.94,3.06,1,0,2.08,0,3.11-.05L46.78,38a41.37,41.37,0,0,1-11-.1,41.49,41.49,0,0,1-10.48-2.95A52.75,52.75,0,0,0,22,22.79ZM24.16,56c.93.38,1.9.75,2.91,1.08a44.07,44.07,0,0,0,7.49,1.77,43.61,43.61,0,0,0,6.14.44h0c1.08,0,2.16,0,3.24-.13.57,0,1.14-.09,1.71-.16V60L45.48,70.7c-1,0-2,0-3,0-11.85-.17-19.57-2.21-21.73-4h0a1.35,1.35,0,0,1-.54-.78c.11-.2.21-.4.32-.62v0h0A50,50,0,0,0,24.16,56ZM56.6,71.91a52.85,52.85,0,0,1-13.14,2l0-1.11H44c.82,0,1.67,0,2.59,0h.2l.09,0,.1,0,.09,0,.09,0,.07-.06.09-.07.06-.07.07-.09s0,0,0-.08a.47.47,0,0,0,0-.1l0-.09,0-.11a.28.28,0,0,0,0-.09.38.38,0,0,0,0-.1l.15-10,1.49-.15h.16c6.06-.65,11.2-3.06,14.75-4.8a51.85,51.85,0,0,0,3.32,8.51.91.91,0,0,0,.19.41,1.08,1.08,0,0,1,.11.21C67.31,66.58,64.88,69.52,56.6,71.91Z"/></svg>