<svg xmlns="http://www.w3.org/2000/svg" width="88" height="88" data-name="Layer 1" viewBox="0 0 88 88"><path d="M33.1 42c-1.83 0-2.93.62-2.93 1.65s1.1 1.66 2.93 1.66S36 44.66 36 43.62 34.93 42 33.1 42zM56.23 42c-1.83 0-2.92.62-2.92 1.65s1.09 1.66 2.92 1.66 2.93-.62 2.93-1.66S58.07 42 56.23 42zM29.64 37a1.05 1.05 0 0 0 .8-.36 5.86 5.86 0 0 1 4.12-1.9A6 6 0 0 1 39 36.64a1.06 1.06 0 1 0 1.6-1.4 7.92 7.92 0 0 0-11.78 0 1.07 1.07 0 0 0 .1 1.5A1 1 0 0 0 29.64 37zM50.64 37a1.07 1.07 0 0 0 .8-.36 5.76 5.76 0 0 1 4.08-1.9 5.86 5.86 0 0 1 4.42 1.9 1.06 1.06 0 0 0 1.6-1.4 8 8 0 0 0-6.08-2.62 7.9 7.9 0 0 0-5.63 2.62 1.07 1.07 0 0 0 .11 1.5A1 1 0 0 0 50.64 37zM38.13 51.46a1.07 1.07 0 0 0 .15 1.5 9.94 9.94 0 0 0 5.93 2.12h.25A9.87 9.87 0 0 0 50.63 53a1.06 1.06 0 1 0-1.33-1.65 7.89 7.89 0 0 1-5 1.64 7.77 7.77 0 0 1-4.64-1.64A1.06 1.06 0 0 0 38.13 51.46z"/><path d="M74.54,32.89a5.83,5.83,0,0,0-4.55.43C67.05,21,56.72,11.9,44.46,11.9S21.75,21.13,18.89,33.54a6.7,6.7,0,0,0-5.26-.75c-1.55.54-3.42,2.08-3.42,6.42,0,2.75.81,4.81,2.43,6.14a7.7,7.7,0,0,0,4.86,1.54,9.76,9.76,0,0,0,1.27-.08,28.78,28.78,0,0,0,1.52,5,1.09,1.09,0,0,0-.05.17A15.1,15.1,0,0,0,22,60.75c2.19,4.35,7.41,10.47,19.81,15a8.24,8.24,0,0,0,2.61.4,8.72,8.72,0,0,0,2.41-.35l.22,0,.15-.06h0c12.27-4.48,17.44-10.56,19.62-14.88A15.1,15.1,0,0,0,68.68,52a1,1,0,0,0,0-.17,29.89,29.89,0,0,0,1.53-5.11,8.19,8.19,0,0,0,1.3.1h0a6.24,6.24,0,0,0,3.67-1.07c1.66-1.18,2.56-3.23,2.65-6.09C77.93,35.09,76.1,33.46,74.54,32.89ZM51.19,15.07l-.22,1c-1.5,6.68-4,11-7.26,12.52a6.65,6.65,0,0,1-4.33.43c4.82-6.68,1.15-12.23-.6-14.26a22.24,22.24,0,0,1,12.41.3ZM14,43.69c-1.1-.9-1.65-2.4-1.65-4.47,0-2.48.67-4,2-4.41a4.67,4.67,0,0,1,3.94.87.89.89,0,0,0,.2.19,30.24,30.24,0,0,0-.35,4.59,29.88,29.88,0,0,0,.3,4.26A6.18,6.18,0,0,1,14,43.69Zm22.56-28.2s0,0,.05,0c.27.24,6.59,5.92.23,13.29a1.1,1.1,0,0,0-.24.89,1,1,0,0,0,.55.74,8.81,8.81,0,0,0,7.44.09c3.94-1.81,6.79-6.52,8.47-14l.16-.73c9.06,3.84,15.49,13.44,15.49,24.65,0,14.57-10.87,26.43-24.23,26.43S20.23,55,20.23,40.46C20.23,28.91,27.06,19.07,36.54,15.49Zm10,58.15a6.66,6.66,0,0,1-4,.06C33.35,70.37,26.93,65.61,24,59.93a15.76,15.76,0,0,1-1.29-3.36A25.84,25.84,0,0,0,44.46,69,25.84,25.84,0,0,0,66.2,56.58C65,61.13,60.8,68.43,46.53,73.64ZM75.66,39.58c-.07,2.15-.66,3.64-1.75,4.42a4.72,4.72,0,0,1-3.37.62,31.71,31.71,0,0,0,.28-4.16,30.79,30.79,0,0,0-.39-4.84,1.85,1.85,0,0,0,.14-.14,3.7,3.7,0,0,1,3.27-.58C75.45,35.51,75.72,37.79,75.66,39.58Z"/></svg>