<svg xmlns="http://www.w3.org/2000/svg" width="88" height="88" data-name="Layer 1" viewBox="0 0 88 88"><path d="M36.23 9.43c-7.3 0-13.25 8.08-13.25 18 0 7.18 3.47 11.79 9.79 13.08v9.41a5.72 5.72 0 0 0-2.07 4.42V73A5.44 5.44 0 0 0 36 78.57h.52A5.43 5.43 0 0 0 41.75 73V54.35a5.75 5.75 0 0 0-2.06-4.42V40.67c6.49-1 9.79-5.45 9.79-13.23C49.48 17.51 43.53 9.43 36.23 9.43zM39.63 73a3.32 3.32 0 0 1-3.14 3.46H36A3.32 3.32 0 0 1 32.83 73V54.35a3.58 3.58 0 0 1 1.57-3A3 3 0 0 1 36 50.89h.52a2.88 2.88 0 0 1 1.57.47 3.55 3.55 0 0 1 1.57 3zM34.89 48.71V40.82H35l.34 0 .37 0 .37 0h1.48v7.83a4.83 4.83 0 0 0-1.08-.12H36A4.83 4.83 0 0 0 34.89 48.71zm3.64-10a17.57 17.57 0 0 1-1.84.08A18 18 0 0 1 34 38.58h0c-5.89-.87-8.87-4.62-8.87-11.14 0-8.76 5-15.89 11.12-15.89s11.13 7.13 11.13 15.89C47.36 34.42 44.47 38.1 38.53 38.69zM64 26A1.07 1.07 0 0 0 62.89 27v.78H61.72l.33-17.28a1.07 1.07 0 0 0-2.13 0L59.6 27.79H56.86l-.33-17.32a1.06 1.06 0 0 0-1.06-1h0a1.05 1.05 0 0 0-1 1.08l1.27 67a1.06 1.06 0 0 0 1.06 1h0a1.05 1.05 0 0 0 1-1.08L57 33.12h2.53l-.84 44.37a1.06 1.06 0 0 0 1 1.08h0a1.06 1.06 0 0 0 1.06-1l.85-44.41h1.27v.78a1.07 1.07 0 0 0 2.13 0V27A1.07 1.07 0 0 0 64 26zM59.53 31H56.92l0-1.09h2.66zm3.36 0H61.66l0-1.09h1.21z"/></svg>