<svg xmlns="http://www.w3.org/2000/svg" width="88" height="88" data-name="Layer 1" viewBox="0 0 88 88"><path d="M78.51,34C76.81,23.67,58.79,15.36,58,15l-.08,0L53.48,13.4h0l-.18-.05a1,1,0,0,0-.91.33A11.44,11.44,0,0,1,44.2,17.3,11.35,11.35,0,0,1,36,13.68l-.06,0-.09-.08-.08-.05-.08-.05-.1,0-.09,0-.1,0h-.29l-.11,0H35L30.08,15,30,15c-.77.34-18.79,8.65-20.49,19a1.5,1.5,0,0,0,0,.3,7.63,7.63,0,0,0,4.22,5.53,1,1,0,0,0,1.09-.14c3.5-2.91,9.18-7.29,12.35-9C25.59,36,22.06,50.82,24.79,71c.05.31.09.61.13.91a1.14,1.14,0,0,0,.19.47,6.9,6.9,0,0,0,5.3,2.33,11.7,11.7,0,0,0,6.21-2.08,1,1,0,0,0,.47-.8c0-.11.82-11,6.91-13.9,6.09,2.93,6.9,13.8,6.91,13.91a1,1,0,0,0,.47.79,11.7,11.7,0,0,0,6.21,2.08h0a6.9,6.9,0,0,0,5.3-2.33,1.14,1.14,0,0,0,.19-.47c0-.3.08-.6.13-.91,2.73-20.13-.8-35-2.36-40.26,3.17,1.68,8.85,6.06,12.35,9a1,1,0,0,0,1.09.14,7.65,7.65,0,0,0,4.22-5.53A1.5,1.5,0,0,0,78.51,34ZM74,37.66c-2.49-2-11.48-9.29-14.62-9.67a1,1,0,0,0-1.07,1.36c.06.17,6.21,17.07,2.91,41.33,0,.2,0,.4-.08.6-.63.64-3.25,2.77-8.22-.16-.26-2.47-1.69-12.5-8.51-15.29a1,1,0,0,0-.85,0l-.11,0c-6.65,2.9-8.06,12.77-8.31,15.21-5,2.93-7.59.81-8.22.16,0-.2-.06-.4-.08-.6-3.3-24.26,2.85-41.16,2.91-41.33A1,1,0,0,0,28.65,28c-3.14.38-12.13,7.62-14.62,9.67a5.67,5.67,0,0,1-2.51-3.52c1.66-8.93,18.21-16.77,19.25-17.25L35,15.52a13.21,13.21,0,0,0,9.22,3.81,13.36,13.36,0,0,0,9.21-3.8l3.81,1.35c.91.42,17.59,8.29,19.25,17.26A5.6,5.6,0,0,1,74,37.66Z"/></svg>