<svg xmlns="http://www.w3.org/2000/svg" width="88" height="88" data-name="Layer 1" viewBox="0 0 88 88"><path d="M55.3 27.23h4.55a1 1 0 1 0 0-2.06H55.3a1 1 0 1 0 0 2.06zM23.4 25.17H18.84a1 1 0 0 0 0 2.06H23.4a1 1 0 0 0 0-2.06zM64.41 27.23H69a1 1 0 1 0 0-2.06H64.41a1 1 0 1 0 0 2.06zM32.51 25.17H28a1 1 0 1 0 0 2.06h4.55a1 1 0 1 0 0-2.06zM41.63 25.17H37.07a1 1 0 0 0 0 2.06h4.56a1 1 0 0 0 0-2.06zM51.77 26.2a1 1 0 0 0-1-1H46.18a1 1 0 1 0 0 2.06h4.56A1 1 0 0 0 51.77 26.2z"/><path d="M77.88,14a1.59,1.59,0,0,0-1.35-1H11.28a1,1,0,0,0-.86.44,1,1,0,0,0-.3.61,77.52,77.52,0,0,0-.57,9.43C9.55,51.89,25,75,44,75S78.46,51.89,78.45,23.45A77.64,77.64,0,0,0,77.88,14ZM17.12,51a.84.84,0,0,0,.33-.16,11.74,11.74,0,0,1,7.06-2.37c6.87,0,12.46,6,12.46,13.5a14.17,14.17,0,0,1-2.28,7.78,1,1,0,0,0,0,1.13C27.44,67.5,21.25,60.37,17.12,51ZM35.71,71.28a1,1,0,0,0,.7-.45A16.15,16.15,0,0,0,39,61.91c0-8.57-6.51-15.55-14.52-15.55a13.76,13.76,0,0,0-8.18,2.7,68.7,68.7,0,0,1-4.58-21.84h2.53a1,1,0,1,0,0-2.06H11.67c0-.58,0-1.15,0-1.73a75.25,75.25,0,0,1,.48-8.38H75.87a75.25,75.25,0,0,1,.48,8.38c0,.59,0,1.18,0,1.77a1.26,1.26,0,0,0-.33,0H73.52a1,1,0,0,0,0,2.06H76a1.17,1.17,0,0,0,.26,0,68.76,68.76,0,0,1-4.64,22,13.71,13.71,0,0,0-8.35-2.83c-8,0-14.52,7-14.52,15.55a16.17,16.17,0,0,0,2.67,9,1,1,0,0,0,.69.44,21.63,21.63,0,0,1-16.4-.07Zm17.43-.37a1,1,0,0,0,0-1.14,14.15,14.15,0,0,1-2.33-7.85c0-7.45,5.59-13.5,12.46-13.5a11.72,11.72,0,0,1,7.21,2.49,1,1,0,0,0,.34.17C66.66,60.51,60.43,67.62,53.14,70.91Z"/></svg>