<svg xmlns="http://www.w3.org/2000/svg" width="88" height="88" data-name="Layer 1" viewBox="0 0 88 88"><path d="M51.45 45.92h4.68a1.07 1.07 0 1 0 0-2.13H51.45a1.07 1.07 0 0 0 0 2.13zM60.81 45.92H65.5a1.07 1.07 0 0 0 0-2.13H60.81a1.07 1.07 0 0 0 0 2.13zM42.08 45.92h4.69a1.07 1.07 0 0 0 0-2.13H42.08a1.07 1.07 0 0 0 0 2.13zM32.72 45.92H37.4a1.07 1.07 0 1 0 0-2.13H32.72a1.07 1.07 0 0 0 0 2.13zM23.35 45.92H28a1.07 1.07 0 0 0 0-2.13H23.35a1.07 1.07 0 0 0 0 2.13z"/><path d="M76.35,36.69a1.11,1.11,0,0,0,0-.19v0a.55.55,0,0,0-.06-.18v0l-.09-.16v0L76.05,36v0l-.13-.11,0,0-.12-.07-.07,0-.1,0-.1,0H59.26L74.88,13.54a1.07,1.07,0,0,0-1.74-1.23L56.65,35.63H35.71V13.34a.37.37,0,0,0,0-.11s0-.07,0-.1l0-.1,0-.1a.59.59,0,0,0,0-.08l-.06-.1-.06-.07-.07-.08-.08-.06-.08-.07-.09,0-.1,0-.09,0-.11,0h0a20.08,20.08,0,0,0-22.47,25c.06.31.11.62.18.93v0h0c1.83,9.08,5.73,17.24,11,23.18A7.83,7.83,0,1,0,35,69.76a24.52,24.52,0,0,0,9.28,1.83h0a24.53,24.53,0,0,0,9.36-1.86,7.82,7.82,0,1,0,11.41-8.29c5.58-6.26,9.57-14.91,11.28-24.56a.76.76,0,0,0,0-.15v0ZM33.58,14.31v16.8L26.94,14.85A18.08,18.08,0,0,1,33.58,14.31ZM13.78,32.15A17.94,17.94,0,0,1,24.93,15.54l8.19,20.09h-19A17.62,17.62,0,0,1,13.78,32.15ZM27.32,74a5.7,5.7,0,0,1-2.25-10.93l.29.27.47.45.55.5c.15.14.3.28.46.41s.41.35.62.52.27.23.41.33c.34.27.69.54,1,.79l.26.18c.27.2.55.39.82.57l.4.26.71.44.44.26.68.38c.15.09.31.16.46.24l.32.18A5.7,5.7,0,0,1,27.32,74ZM67,68.31a5.7,5.7,0,0,1-11.37.5l.28-.15c.18-.09.36-.18.53-.28l.59-.33.52-.31.59-.37.5-.32.65-.46.6-.43.81-.62.48-.4.55-.45.5-.45.5-.45.5-.49.26-.24A5.72,5.72,0,0,1,67,68.31Zm5.4-24.52H70.18a1.07,1.07,0,0,0,0,2.13h1.53a43.25,43.25,0,0,1-9.22,15.16h0a29,29,0,0,1-8.35,6.11h0a22.47,22.47,0,0,1-19.6,0,29.29,29.29,0,0,1-8.41-6.13,43.24,43.24,0,0,1-9.24-15.19h1.79a1.07,1.07,0,1,0,0-2.13H16.15a54.08,54.08,0,0,1-1.45-5.5,1.19,1.19,0,0,0,0-.46.19.19,0,0,1,0-.07H74A56.06,56.06,0,0,1,72.44,43.79Z"/></svg>