<svg id="Layer_1" height="512" viewBox="0 0 128 128" width="512" xmlns="http://www.w3.org/2000/svg" data-name="Layer 1"><path d="m13.523 42.976a1.75 1.75 0 0 0 1.75-1.75v-14.893h14.894a1.75 1.75 0 0 0 0-3.5h-16.644a1.75 1.75 0 0 0 -1.75 1.75v16.643a1.75 1.75 0 0 0 1.75 1.75z"/><path d="m114.477 22.833h-16.644a1.75 1.75 0 0 0 0 3.5h14.894v14.893a1.75 1.75 0 0 0 3.5 0v-16.643a1.75 1.75 0 0 0 -1.75-1.75z"/><path d="m114.477 85.024a1.75 1.75 0 0 0 -1.75 1.75v14.893h-14.894a1.75 1.75 0 0 0 0 3.5h16.644a1.75 1.75 0 0 0 1.75-1.75v-16.643a1.75 1.75 0 0 0 -1.75-1.75z"/><path d="m30.167 101.667h-14.894v-14.893a1.75 1.75 0 0 0 -3.5 0v16.643a1.75 1.75 0 0 0 1.75 1.75h16.644a1.75 1.75 0 1 0 0-3.5z"/><path d="m38 31.155h-16.155a1.75 1.75 0 0 0 -1.745 1.745v51a1.75 1.75 0 0 0 1.75 1.75h16.15a1.75 1.75 0 0 0 1.75-1.75v-51a1.75 1.75 0 0 0 -1.75-1.745zm-1.75 51h-12.65v-47.5h12.65z"/><path d="m82.494 31.155h-11.494a1.75 1.75 0 0 0 -1.75 1.75v51a1.75 1.75 0 0 0 1.75 1.751h11.494a1.75 1.75 0 0 0 1.75-1.75v-51a1.75 1.75 0 0 0 -1.75-1.751zm-1.75 51h-7.989v-47.5h7.989z"/><path d="m100.41 85.656h5.745a1.75 1.75 0 0 0 1.75-1.75v-51a1.75 1.75 0 0 0 -1.75-1.75h-5.745a1.75 1.75 0 0 0 -1.75 1.75v51a1.75 1.75 0 0 0 1.75 1.75zm1.75-51h2.245v47.5h-2.245z"/><path d="m54.97 31.155h-8.077a1.75 1.75 0 0 0 -1.75 1.75v51a1.75 1.75 0 0 0 1.75 1.75h8.077a1.75 1.75 0 0 0 1.75-1.75v-51a1.75 1.75 0 0 0 -1.75-1.75zm-1.75 51h-4.577v-47.5h4.577z"/><path d="m61.922 31.155a1.75 1.75 0 0 0 -1.75 1.75v51a1.75 1.75 0 0 0 3.5 0v-51a1.75 1.75 0 0 0 -1.75-1.75z"/><path d="m91.452 31.155a1.75 1.75 0 0 0 -1.752 1.745v51a1.75 1.75 0 1 0 3.5 0v-51a1.75 1.75 0 0 0 -1.748-1.745z"/><path d="m38 93.345h-16.155a1.75 1.75 0 1 0 0 3.5h16.155a1.75 1.75 0 0 0 0-3.5z"/><path d="m54.97 93.345h-8.077a1.75 1.75 0 1 0 0 3.5h8.077a1.75 1.75 0 0 0 0-3.5z"/><path d="m63.54 94.43a1.827 1.827 0 0 0 -.16-.31 2.737 2.737 0 0 0 -.22-.26 1.808 1.808 0 0 0 -2.47 0 1.319 1.319 0 0 0 -.22.26 1.3 1.3 0 0 0 -.16.31 1.181 1.181 0 0 0 -.1.32 1.378 1.378 0 0 0 -.04.35 1.358 1.358 0 0 0 .04.34 1.183 1.183 0 0 0 .1.32 1.517 1.517 0 0 0 .38.57 1.725 1.725 0 0 0 1.23.52 1.765 1.765 0 0 0 1.24-.52 2.678 2.678 0 0 0 .22-.26 1.827 1.827 0 0 0 .16-.31 1.739 1.739 0 0 0 .1-.32 1.98 1.98 0 0 0 0-.69 1.733 1.733 0 0 0 -.1-.32z"/><path d="m82.494 93.345h-11.494a1.75 1.75 0 0 0 0 3.5h11.494a1.75 1.75 0 0 0 0-3.5z"/><path d="m93.069 94.43a3.082 3.082 0 0 0 -.159-.31 2.816 2.816 0 0 0 -.221-.26 1.82 1.82 0 0 0 -2.479 0 1.687 1.687 0 0 0 -.21.26 1.3 1.3 0 0 0 -.16.31 1.18 1.18 0 0 0 -.1.32 1.378 1.378 0 0 0 -.04.35 1.307 1.307 0 0 0 .04.34 1.182 1.182 0 0 0 .1.32 1.3 1.3 0 0 0 .16.31 1.665 1.665 0 0 0 .21.26 1.455 1.455 0 0 0 .27.22 2.193 2.193 0 0 0 .3.16 2.063 2.063 0 0 0 .329.1 2.026 2.026 0 0 0 .341.04 1.915 1.915 0 0 0 .34-.04 1.6 1.6 0 0 0 .33-.1 1.438 1.438 0 0 0 .3-.16 1.455 1.455 0 0 0 .27-.22 1.715 1.715 0 0 0 .51-1.23 2.113 2.113 0 0 0 -.03-.35 1.735 1.735 0 0 0 -.101-.32z"/><path d="m100.41 96.845h5.745a1.75 1.75 0 0 0 0-3.5h-5.745a1.75 1.75 0 1 0 0 3.5z"/></svg>