<?xml version="1.0" encoding="iso-8859-1"?>
<!-- Generator: Adobe Illustrator 19.0.0, SVG Export Plug-In . SVG Version: 6.00 Build 0)  -->
<svg version="1.1" id="Layer_1" xmlns="http://www.w3.org/2000/svg" xmlns:xlink="http://www.w3.org/1999/xlink" x="0px" y="0px"
	 viewBox="0 0 512 512" style="enable-background:new 0 0 512 512;" xml:space="preserve">
<g>
	<g>
		<path d="M379.259,37.926H322.37V9.482c0-5.236-4.241-9.482-9.481-9.482H199.111c-5.241,0-9.482,4.245-9.482,9.482v28.444h-56.889
			c-5.241,0-9.481,4.245-9.481,9.482v455.111c0,5.236,4.241,9.482,9.481,9.482h246.519c5.241,0,9.481-4.245,9.481-9.482V47.407
			C388.741,42.171,384.5,37.926,379.259,37.926z M208.593,18.963h94.815v18.963h-94.815V18.963z M369.778,493.037H142.222v-322.37
			h170.667c5.241,0,9.481-4.245,9.481-9.482s-4.241-9.482-9.481-9.482H142.222V56.889h56.889h113.778h56.889V493.037z"/>
	</g>
</g>
</svg>
