<?xml version="1.0" encoding="iso-8859-1"?>
<!-- Generator: Adobe Illustrator 19.0.0, SVG Export Plug-In . SVG Version: 6.00 Build 0)  -->
<svg version="1.1" id="Layer_1" xmlns="http://www.w3.org/2000/svg" xmlns:xlink="http://www.w3.org/1999/xlink" x="0px" y="0px"
	 viewBox="0 0 512 512" style="enable-background:new 0 0 512 512;" xml:space="preserve">
<g>
	<g>
		<path d="M369.778,37.926H322.37V9.482c0-5.236-4.241-9.482-9.481-9.482H199.111c-5.241,0-9.481,4.245-9.481,9.482v28.444h-47.407
			c-5.241,0-9.482,4.245-9.482,9.482v455.111c0,5.236,4.241,9.482,9.482,9.482h227.556c5.241,0,9.482-4.245,9.482-9.482V47.407
			C379.259,42.171,375.018,37.926,369.778,37.926z M208.593,18.963h94.815v18.963h-94.815V18.963z M360.296,493.037H151.704V56.889
			h47.407h113.778h47.407V493.037z"/>
	</g>
</g>
<g>
	<g>
		<path d="M300.907,249.588c-2.111-2.305-5.204-3.449-8.324-2.972l-51.685,7.38l24.185-80.607c1.5-5.014-1.343-10.301-6.361-11.805
			c-5.055-1.509-10.305,1.343-11.805,6.361l-28.444,94.815c-0.926,3.097-0.213,6.454,1.898,8.907
			c2.111,2.449,5.278,3.653,8.528,3.199l52.676-7.523l-25.333,109.782c-1.176,5.107,2.009,10.194,7.111,11.375
			c0.713,0.162,1.435,0.241,2.139,0.241c4.315,0,8.213-2.963,9.231-7.347l28.444-123.259
			C303.87,255.088,303.028,251.889,300.907,249.588z"/>
	</g>
</g>
</svg>
