<?xml version="1.0"?>
<svg xmlns="http://www.w3.org/2000/svg" id="Layer_1" data-name="Layer 1" viewBox="0 0 128 128" width="512" height="512"><title>BEVERAGES</title><path d="M71.271,48.25A4.755,4.755,0,0,0,66.521,53V94.833a4.75,4.75,0,0,0,9.5,0V53A4.755,4.755,0,0,0,71.271,48.25Zm1.25,46.583a1.25,1.25,0,0,1-2.5,0V53a1.25,1.25,0,0,1,2.5,0Z"/><path d="M99.395,51.9c-4.017-7.23-11.127-7.441-15.831-6.172V39.35a9.9,9.9,0,0,0-5.521-18.276,8.112,8.112,0,0,0-13.587-4.061,10.793,10.793,0,0,0-8-.216,10.227,10.227,0,0,0-18.334,1.491,8.753,8.753,0,0,0-6.394,16.174v71.653a5.315,5.315,0,0,0,4,5.134v3.227a1.75,1.75,0,0,0,1.75,1.75H77.813a1.75,1.75,0,0,0,1.75-1.75v-3.227a5.315,5.315,0,0,0,4-5.134v-8.77c.156.082.3.174.47.246a8.038,8.038,0,0,0,3.2.643,8.476,8.476,0,0,0,5.712-2.14,6.424,6.424,0,0,0,1.569-7.135c-1-2.847.866-8.579,2.677-14.123C99.787,66.895,102.727,57.893,99.395,51.9ZM35.86,21.489a5.245,5.245,0,0,1,2.569.675,1.751,1.751,0,0,0,2.587-1.243,6.726,6.726,0,0,1,12.967-1.2,1.751,1.751,0,0,0,2.533.912,7.312,7.312,0,0,1,7.453.067,1.752,1.752,0,0,0,2.354-.5,4.612,4.612,0,0,1,8.408,2.611c0,.025-.009.142-.009.167a1.749,1.749,0,0,0,2.136,1.755,6.41,6.41,0,1,1-.916,12.21,1.751,1.751,0,0,0-2.131.714,6.4,6.4,0,0,1-11.753-2.111,1.75,1.75,0,0,0-1.718-1.417h-.033l-.12.007a7.242,7.242,0,0,1-5.572-2.61,1.75,1.75,0,0,0-3.094,1.122V54.125a1.5,1.5,0,0,1-3,0V35.369A1.75,1.75,0,0,0,45.8,33.915,4.106,4.106,0,0,1,39.9,32.45a1.75,1.75,0,0,0-2.166-.8,5.254,5.254,0,1,1-1.877-10.16Zm9.411,34.119V94.833a1.25,1.25,0,0,1-2.5,0V53a1.251,1.251,0,0,1,1.25-1.25,1.235,1.235,0,0,1,1,.518v1.857A4.931,4.931,0,0,0,45.271,55.608Zm-6.042,57.119v-1.291H76.063v1.291Zm40.834-6.611a1.823,1.823,0,0,1-1.821,1.82H37.051a1.823,1.823,0,0,1-1.821-1.82V35.469c.209.015.418.032.631.032a8.645,8.645,0,0,0,1.771-.184,7.612,7.612,0,0,0,7.39,2.639V48.366A4.709,4.709,0,0,0,39.271,53V94.833a4.75,4.75,0,0,0,9.5,0V58.947A4.8,4.8,0,0,0,52.9,58.2V94.833a4.75,4.75,0,0,0,9.5,0V53a4.744,4.744,0,0,0-7.375-3.953V36.319a10.727,10.727,0,0,0,3.966,1.253,9.927,9.927,0,0,0,9.361,6.659,9.825,9.825,0,0,0,7.642-3.61,9.786,9.786,0,0,0,2.288.271,9.9,9.9,0,0,0,1.785-.17ZM56.4,94.833V53a1.25,1.25,0,0,1,2.5,0V94.833a1.25,1.25,0,0,1-2.5,0ZM93.867,73.75c-2.174,6.657-4.051,12.405-2.65,16.374a2.958,2.958,0,0,1-.653,3.409,5.08,5.08,0,0,1-5.134.849,3.137,3.137,0,0,1-1.866-3.175V49.41a14.908,14.908,0,0,1,4.317-.765,8.906,8.906,0,0,1,8.453,4.949C98.925,58.258,96.238,66.489,93.867,73.75Z"/></svg>
