<?xml version="1.0" encoding="iso-8859-1"?>
<!-- Generator: Adobe Illustrator 19.0.0, SVG Export Plug-In . SVG Version: 6.00 Build 0)  -->
<svg version="1.1" xmlns="http://www.w3.org/2000/svg" xmlns:xlink="http://www.w3.org/1999/xlink" x="0px" y="0px"
	 viewBox="0 0 512 512" style="enable-background:new 0 0 512 512;" xml:space="preserve">
<g>
	<g>
		<path d="M504,352h-67.664l54.944-54.944c3.123-3.124,3.123-8.188,0-11.312L310.256,104.72c-3.174-3.001-8.138-3.001-11.312,0
			L240,163.664V104c0-4.418-3.582-8-8-8H24c-4.418,0-8,3.582-8,8v248H8c-4.418,0-8,3.582-8,8v48c0,4.418,3.582,8,8,8h496
			c4.418,0,8-3.582,8-8v-48C512,355.582,508.418,352,504,352z M304.6,121.688L474.312,291.4L423.4,342.312L253.688,172.6
			L304.6,121.688z M240,181.536L410.464,352H240V181.536z M176,112h48v240h-48V112z M88,112h72v240H88V112z M32,112h40v240H32V112z
			 M496,400H16v-32h480V400z"/>
	</g>
</g>
</svg>
