<?xml version="1.0" encoding="iso-8859-1"?>
<!-- Generator: Adobe Illustrator 19.0.0, SVG Export Plug-In . SVG Version: 6.00 Build 0)  -->
<svg version="1.1" xmlns="http://www.w3.org/2000/svg" xmlns:xlink="http://www.w3.org/1999/xlink" x="0px" y="0px"
	 viewBox="0 0 512 512" style="enable-background:new 0 0 512 512;" xml:space="preserve">
<g>
	<g>
		<path d="M424,0H88c-4.418,0-8,3.582-8,8v496c0,4.418,3.582,8,8,8h336c4.418,0,8-3.582,8-8V8C432,3.582,428.418,0,424,0z M248,496
			H96v-96h152V496z M136,368v-48h8v48H136z M160,368v-48h8v48H160z M184,368v-48h8v48H184z M208,368v-48h8v48H208z M248,384h-24
			c4.418,0,8-3.582,8-8v-64c0-4.418-3.582-8-8-8h-96c-4.418,0-8,3.582-8,8v64c0,4.418,3.582,8,8,8H96V264h152V384z M248,248H96V128
			h152V248z M136,96V48h8v48H136z M160,96V48h8v48H160z M184,96V48h8v48H184z M208,96V48h8v48H208z M376,480h-88v-48h24
			c-4.418,0-8,3.582-8,8s3.582,8,8,8h40c4.418,0,8-3.582,8-8s-3.582-8-8-8h24V480z M416,496h-32c4.418,0,8-3.582,8-8v-64
			c0-4.418-3.582-8-8-8H280c-4.418,0-8,3.582-8,8v64c0,4.418,3.582,8,8,8h-16v-96h152V496z M416,384H264V264h152V384z M296,232v-48
			h8v48H296z M320,232v-48h8v48H320z M344,232v-48h8v48H344z M368,232v-48h8v48H368z M416,248h-32c4.418,0,8-3.582,8-8v-64
			c0-4.418-3.582-8-8-8h-96c-4.418,0-8,3.582-8,8v64c0,4.418,3.582,8,8,8h-24V128h152V248z M312,64h40c4.418,0,8-3.582,8-8
			s-3.582-8-8-8h24v48h-88V48h24c-4.418,0-8,3.582-8,8S307.582,64,312,64z M416,112h-32c4.418,0,8-3.582,8-8V40c0-4.418-3.582-8-8-8
			H280c-4.418,0-8,3.582-8,8v64c0,4.418,3.582,8,8,8h-56c4.418,0,8-3.582,8-8V40c0-4.418-3.582-8-8-8h-96c-4.418,0-8,3.582-8,8v64
			c0,4.418,3.582,8,8,8H96V16h320V112z"/>
	</g>
</g>
</svg>
