<svg xmlns="http://www.w3.org/2000/svg" width="88" height="88" data-name="Layer 1" viewBox="0 0 88 88"><path d="M78.37,46.91c.44-6.14-1.89-8.73-4.23-9.81l2.3-17.19h0a2.8,2.8,0,0,0-.56-2.12,2.9,2.9,0,0,0-1.94-1.11l-.34,0a2.89,2.89,0,0,0-2.85,2.49L68.42,36.53a6.18,6.18,0,0,0-.62.13c-11.22,2.5-21.11,14.41-23.67,17.7-2.55-3.29-12.44-15.2-23.67-17.7a9.24,9.24,0,0,0-1-.2L17.12,19.15a2.89,2.89,0,0,0-2.85-2.49l-.38,0a2.88,2.88,0,0,0-2.46,3.23l2.33,17.38C11.61,38.44,9.48,41,9.89,46.87a22.68,22.68,0,0,0,9.28,23.7l.13.07a10,10,0,0,0,4.25.7,23.37,23.37,0,0,0,2.36-.13c4.33-.48,10.35-3.7,10.6-3.84l.07,0,7.58-4.91,7.52,4.91.07,0c.26.14,6.27,3.36,10.6,3.84a20.93,20.93,0,0,0,2.37.13h0a10,10,0,0,0,4.25-.7.71.71,0,0,0,.18-.12,25.46,25.46,0,0,0,9.22-23.61Zm-5.6-27.49a.86.86,0,0,1,.83-.73h.11a.84.84,0,0,1,.55.33.82.82,0,0,1,.16.61L72.16,36.5l-.49-.08h-.13c-.13,0-.25,0-.38,0H71l-.36,0H70.5ZM13.61,19a.79.79,0,0,1,.54-.32l.12,0a.86.86,0,0,1,.83.73l2.27,16.94h-.23l-.3,0-.19,0-.34,0-.15,0-.44.09L13.45,19.64A.82.82,0,0,1,13.61,19ZM35.51,65.6c-.49.25-6,3.16-9.82,3.58a12,12,0,0,1-5.43-.34,20.82,20.82,0,0,1-7-8.37,21,21,0,0,1-1.33-13.3,1,1,0,0,0,0-.3c-.33-4.33.78-7,3.31-8a7.49,7.49,0,0,1,3.23-.43,8.82,8.82,0,0,1,1.47.22H20c11.16,2.48,21.41,15.49,22.91,17.48v4.69Zm40-7.8a24,24,0,0,1-7.53,11,12,12,0,0,1-5.4.33c-3.78-.42-9.32-3.32-9.82-3.58L45,60.51h0V56.58a.8.8,0,0,0,.21-.2c.11-.15,11.08-15.07,23.11-17.74h0a7.69,7.69,0,0,1,1.11-.19,7.88,7.88,0,0,1,3.27.29c2.76.9,4,3.64,3.63,8.14a.89.89,0,0,0,0,.23A23.66,23.66,0,0,1,75.51,57.8Z"/><path d="M23.69 42.68q-2.18-1.23-4.45-2.25a1 1 0 0 0-.83 1.87q2.19 1 4.28 2.15a1 1 0 1 0 1-1.77zM60 45.33c-.59.4-1.18.83-1.75 1.27-.75.56-1.49 1.15-2.21 1.76a1 1 0 1 0 1.32 1.55c.69-.58 1.4-1.14 2.12-1.69.55-.42 1.11-.82 1.68-1.22A1 1 0 1 0 60 45.33zM68.63 40.43q-2.28 1-4.46 2.25a1 1 0 1 0 1 1.77q2.08-1.17 4.28-2.15a1 1 0 0 0-.83-1.87zM52.33 51.74Q50.59 53.53 49 55.45a1 1 0 0 0 .14 1.44 1 1 0 0 0 .64.23 1 1 0 0 0 .79-.38c1-1.24 2.08-2.43 3.21-3.57a1 1 0 0 0 0-1.44A1 1 0 0 0 52.33 51.74zM29.67 46.6c-.57-.44-1.16-.86-1.75-1.27A1 1 0 0 0 26.75 47c.57.39 1.14.81 1.69 1.22.72.55 1.43 1.11 2.12 1.7a1 1 0 0 0 .66.24h0a1 1 0 0 0 .78-.37 1 1 0 0 0-.13-1.43C31.16 47.75 30.41 47.16 29.67 46.6zM38.86 55.45c-1-1.28-2.17-2.53-3.33-3.71a1 1 0 0 0-1.45 1.43q1.68 1.71 3.2 3.57a1 1 0 0 0 .79.38 1.05 1.05 0 0 0 .65-.23A1 1 0 0 0 38.86 55.45z"/></svg>