<svg id="Layer_1" height="512" viewBox="0 0 128 128" width="512" xmlns="http://www.w3.org/2000/svg" data-name="Layer 1"><path d="m98.937 63.529a1.734 1.734 0 0 0 -.3-.107c-9.158-3.276-21.228-5.244-34.637-5.244s-25.479 1.968-34.635 5.245a1.735 1.735 0 0 0 -.3.107c-10.665 3.877-17.292 9.548-17.292 15.97v15.246c0 1.912 1.207 3.476 16.387 4.758 9.581.809 22.31 1.254 35.84 1.254s26.259-.445 35.84-1.254c15.18-1.282 16.387-2.846 16.387-4.758v-15.246c0-6.422-6.627-12.093-17.29-15.971zm-9.364.859c2.365.552 4.579 1.172 6.624 1.853-1.6 7.736-4.195 11.242-4.985 11.332-.812-.327-2.407-4.84-1.638-13.185zm-22.081-2.66c0 .186.012.365.012.553 0 10.1-2.553 15.2-3.485 15.439-.97-.237-3.522-5.343-3.522-15.439 0-.188.01-.367.012-.553 1.15-.03 2.31-.05 3.492-.05s2.341.022 3.491.05zm-30.667 15.84c-.825-.085-3.418-3.591-5.025-11.327 2.044-.681 4.259-1.3 6.624-1.853.776 8.345-.817 12.858-1.599 13.18zm75.9 16.464c-3.316 1.415-21.12 3.226-48.725 3.226s-45.409-1.812-48.727-3.227v-14.531c0-4.266 4.814-8.679 13.213-12.048 1.478 6.758 4.354 13.617 8.317 13.617a3.525 3.525 0 0 0 .488-.035c4.349-.609 5.419-8.924 4.58-17.383a111.794 111.794 0 0 1 15.133-1.786c0 .14-.009.274-.009.415 0 9.121 2.191 18.938 7 18.938s7-9.816 7-18.937c0-.141-.008-.275-.009-.415a111.794 111.794 0 0 1 15.133 1.786c-.839 8.459.231 16.773 4.58 17.383a3.462 3.462 0 0 0 .488.035c3.963 0 6.839-6.859 8.317-13.617 8.4 3.369 13.213 7.782 13.213 12.048z"/><path d="m51.292 50.029a1.75 1.75 0 0 0 2.568 2.378c2.5-2.7 5.895-9.042.851-13.722-.407-.378-3.864-3.831.139-8.556a1.75 1.75 0 0 0 -2.655-2.28c-2.2 2.552-5 8.638.136 13.4 3.742 3.475-.845 8.568-1.039 8.78z"/><path d="m61.917 50.029a1.75 1.75 0 0 0 2.568 2.378c2.5-2.7 5.895-9.042.851-13.722-.407-.378-3.864-3.831.139-8.556a1.75 1.75 0 0 0 -2.655-2.28c-2.2 2.552-5 8.638.136 13.4 3.744 3.475-.845 8.568-1.039 8.78z"/><path d="m72.542 50.029a1.75 1.75 0 0 0 2.568 2.378c2.5-2.7 5.895-9.042.851-13.722-.407-.378-3.864-3.831.139-8.556a1.75 1.75 0 0 0 -2.655-2.28c-2.2 2.552-5 8.638.136 13.4 3.742 3.475-.845 8.568-1.039 8.78z"/></svg>