<?xml version="1.0" encoding="iso-8859-1"?>
<!-- Generator: Adobe Illustrator 19.0.0, SVG Export Plug-In . SVG Version: 6.00 Build 0)  -->
<svg version="1.1" xmlns="http://www.w3.org/2000/svg" xmlns:xlink="http://www.w3.org/1999/xlink" x="0px" y="0px"
	 viewBox="0 0 512 512" style="enable-background:new 0 0 512 512;" xml:space="preserve">
<g>
	<g>
		<g>
			<path d="M400,0H112c-4.418,0-8,3.582-8,8v496c0,4.418,3.582,8,8,8h32c4.418,0,8-3.582,8-8v-56h208v56c0,4.418,3.582,8,8,8h32
				c4.418,0,8-3.582,8-8V8C408,3.582,404.418,0,400,0z M136,496h-16v-48h16V496z M248,432H120V328h128V432z M392,496h-16v-48h16V496
				z M392,432H264V328h128V432z M392,312H120v-88h272V312z M392,208H120v-88h272V208z M392,104H120V16h272V104z"/>
			<path d="M136,304h240c4.418,0,8-3.582,8-8v-56c0-4.418-3.582-8-8-8H136c-4.418,0-8,3.582-8,8v56C128,300.418,131.582,304,136,304
				z M144,248h72c0,4.418,3.582,8,8,8h64c4.418,0,8-3.582,8-8h72v40H144V248z"/>
			<path d="M136,96h240c4.418,0,8-3.582,8-8V32c0-4.418-3.582-8-8-8H136c-4.418,0-8,3.582-8,8v56C128,92.418,131.582,96,136,96z
				 M144,40h72c0,4.418,3.582,8,8,8h64c4.418,0,8-3.582,8-8h72v40H144V40z"/>
			<path d="M136,200h240c4.418,0,8-3.582,8-8v-56c0-4.418-3.582-8-8-8H136c-4.418,0-8,3.582-8,8v56C128,196.418,131.582,200,136,200
				z M144,144h72c0,4.418,3.582,8,8,8h64c4.418,0,8-3.582,8-8h72v40H144V144z"/>
			<path d="M136,424h96c4.418,0,8-3.582,8-8v-72c0-4.418-3.582-8-8-8h-96c-4.418,0-8,3.582-8,8v72C128,420.418,131.582,424,136,424z
				 M144,352h80v56h-80V352z"/>
			<path d="M280,424h96c4.418,0,8-3.582,8-8v-72c0-4.418-3.582-8-8-8h-96c-4.418,0-8,3.582-8,8v72C272,420.418,275.582,424,280,424z
				 M288,352h80v56h-80V352z"/>
		</g>
	</g>
</g>
</svg>
