<?xml version="1.0" encoding="iso-8859-1"?>
<!-- Generator: Adobe Illustrator 19.0.0, SVG Export Plug-In . SVG Version: 6.00 Build 0)  -->
<svg version="1.1" xmlns="http://www.w3.org/2000/svg" xmlns:xlink="http://www.w3.org/1999/xlink" x="0px" y="0px"
	 viewBox="0 0 512 512" style="enable-background:new 0 0 512 512;" xml:space="preserve">
<g>
	<g>
		<g>
			<path d="M400,0H112c-4.418,0-8,3.582-8,8v480c0,4.418,3.582,8,8,8h8c-4.418,0-8,3.582-8,8s3.582,8,8,8h48c4.418,0,8-3.582,8-8
				s-3.582-8-8-8h176c-4.418,0-8,3.582-8,8s3.582,8,8,8h48c4.418,0,8-3.582,8-8s-3.582-8-8-8h8c4.418,0,8-3.582,8-8V8
				C408,3.582,404.418,0,400,0z M248,480H120V368h128V480z M248,352H120v-72h128V352z M248,264H120v-72h128V264z M248,176H120v-72
				h128V176z M248,88H120V16h128V88z M392,480H264V368h128V480z M392,352H264v-72h128V352z M392,264H264v-72h128V264z M392,176H264
				v-72h128V176z M392,88H264V16h128V88z"/>
			<path d="M136,80h96c4.418,0,8-3.582,8-8V32c0-4.418-3.582-8-8-8h-96c-4.418,0-8,3.582-8,8v40C128,76.418,131.582,80,136,80z
				 M144,40h80v24h-80V40z"/>
			<path d="M136,168h96c4.418,0,8-3.582,8-8v-40c0-4.418-3.582-8-8-8h-96c-4.418,0-8,3.582-8,8v40C128,164.418,131.582,168,136,168z
				 M144,128h80v24h-80V128z"/>
			<path d="M136,256h96c4.418,0,8-3.582,8-8v-40c0-4.418-3.582-8-8-8h-96c-4.418,0-8,3.582-8,8v40C128,252.418,131.582,256,136,256z
				 M144,216h80v24h-80V216z"/>
			<path d="M136,344h96c4.418,0,8-3.582,8-8v-40c0-4.418-3.582-8-8-8h-96c-4.418,0-8,3.582-8,8v40C128,340.418,131.582,344,136,344z
				 M144,304h80v24h-80V304z"/>
			<path d="M136,472h96c4.418,0,8-3.582,8-8v-80c0-4.418-3.582-8-8-8h-96c-4.418,0-8,3.582-8,8v80C128,468.418,131.582,472,136,472z
				 M144,392h80v64h-80V392z"/>
			<path d="M280,80h96c4.418,0,8-3.582,8-8V32c0-4.418-3.582-8-8-8h-96c-4.418,0-8,3.582-8,8v40C272,76.418,275.582,80,280,80z
				 M288,40h80v24h-80V40z"/>
			<path d="M280,168h96c4.418,0,8-3.582,8-8v-40c0-4.418-3.582-8-8-8h-96c-4.418,0-8,3.582-8,8v40C272,164.418,275.582,168,280,168z
				 M288,128h80v24h-80V128z"/>
			<path d="M280,256h96c4.418,0,8-3.582,8-8v-40c0-4.418-3.582-8-8-8h-96c-4.418,0-8,3.582-8,8v40C272,252.418,275.582,256,280,256z
				 M288,216h80v24h-80V216z"/>
			<path d="M280,344h96c4.418,0,8-3.582,8-8v-40c0-4.418-3.582-8-8-8h-96c-4.418,0-8,3.582-8,8v40C272,340.418,275.582,344,280,344z
				 M288,304h80v24h-80V304z"/>
			<path d="M280,472h96c4.418,0,8-3.582,8-8v-80c0-4.418-3.582-8-8-8h-96c-4.418,0-8,3.582-8,8v80C272,468.418,275.582,472,280,472z
				 M288,392h80v64h-80V392z"/>
		</g>
	</g>
</g>
</svg>
