<?xml version="1.0" encoding="iso-8859-1"?>
<!-- Generator: Adobe Illustrator 19.0.0, SVG Export Plug-In . SVG Version: 6.00 Build 0)  -->
<svg version="1.1" xmlns="http://www.w3.org/2000/svg" xmlns:xlink="http://www.w3.org/1999/xlink" x="0px" y="0px"
	 viewBox="0 0 512 512" style="enable-background:new 0 0 512 512;" xml:space="preserve">
<g>
	<g>
		<g>
			<rect x="216" y="56" width="16" height="16"/>
			<rect x="240" y="136" width="16" height="16"/>
			<rect x="288" y="96" width="16" height="16"/>
			<path d="M440,216v-40c0-22.091-17.909-40-40-40c-22.091,0-40,17.909-40,40v8h-24v-32h8v-16h-8V88h8V72h-8
				c-0.044-39.746-32.254-71.956-72-72h-16c-39.746,0.044-71.956,32.254-72,72v16h-8v16h8v40h-24V96c0-22.091-17.909-40-40-40
				S72,73.909,72,96h-8v16h8v24h-8v16h8v32c0.026,22.08,17.92,39.974,40,40h64v16h-8v16h8v32h-24
				c-4.418-0.003-8.003,3.576-8.006,7.994c0,0.103,0.002,0.207,0.006,0.31l8,208c0.164,4.299,3.698,7.699,8,7.696h192
				c4.302,0.003,7.837-3.397,8-7.696l8-208c0.168-4.415-3.275-8.13-7.69-8.298c-0.103-0.004-0.206-0.006-0.31-0.006h-24v-24h64
				c16.723,0.006,31.665-10.448,37.392-26.16c1.652-1.493,2.598-3.613,2.608-5.84h8v-16H440z M344.304,496H167.696l-4.92-128
				h186.448L344.304,496z M351.688,304l-1.848,48H162.16l-1.848-48H351.688z M424,224c0.018,1.923-0.227,3.839-0.728,5.696
				c0,0.112,0,0.224-0.064,0.336C420.495,240.626,410.936,248.027,400,248h-72c-4.418,0-8,3.582-8,8v32H192v-72c0-4.418-3.582-8-8-8
				h-72c-13.255,0-24-10.745-24-24V96c0-13.255,10.745-24,24-24s24,10.745,24,24v56c0,4.418,3.582,8,8,8h40c4.418,0,8-3.582,8-8V72
				c0.035-30.913,25.087-55.965,56-56h16c30.913,0.035,55.965,25.087,56,56v120c0,4.418,3.582,8,8,8h40c4.418,0,8-3.582,8-8v-16
				c0-13.255,10.745-24,24-24s24,10.745,24,24V224z"/>
			<rect x="120" y="176" width="16" height="16"/>
			<rect x="96" y="96" width="16" height="16"/>
			<rect x="400" y="168" width="16" height="16"/>
			<rect x="376" y="208" width="16" height="16"/>
			<rect x="216" y="224" width="16" height="16"/>
		</g>
	</g>
</g>
</svg>
