<?xml version="1.0" encoding="iso-8859-1"?>
<!-- Generator: Adobe Illustrator 19.0.0, SVG Export Plug-In . SVG Version: 6.00 Build 0)  -->
<svg version="1.1" xmlns="http://www.w3.org/2000/svg" xmlns:xlink="http://www.w3.org/1999/xlink" x="0px" y="0px"
	 viewBox="0 0 512.004 512.004" style="enable-background:new 0 0 512.004 512.004;" xml:space="preserve">
<g>
	<g>
		<path d="M510.306,319.074c-1.517-1.94-3.842-3.073-6.304-3.072h-64v-64h16c4.418,0,8-3.582,8-8s-3.582-8-8-8h-16v-64h16
			c4.418,0,8-3.582,8-8s-3.582-8-8-8h-16v-16c-0.035-30.913-25.087-55.965-56-56h-16c-30.913,0.035-55.965,25.087-56,56v16h-16
			c-4.418,0-8,3.582-8,8s3.582,8,8,8h16v40v24h-16c-4.418,0-8,3.582-8,8s3.582,8,8,8h16v32v32h-24v-24h16c4.418,0,8-3.582,8-8
			s-3.582-8-8-8h-16v-32v-24h16c4.418,0,8-3.582,8-8s-3.582-8-8-8h-16v-8c-0.035-30.913-25.087-55.965-56-56h-48v-40h16
			c4.418,0,8-3.582,8-8s-3.582-8-8-8h-16v-8c-0.035-30.913-25.087-55.965-56-56h-8c-30.913,0.035-55.965,25.087-56,56v8h-16
			c-4.418,0-8,3.582-8,8s3.582,8,8,8h16v64h-16c-4.418,0-8,3.582-8,8s3.582,8,8,8h16v64h-16c-4.418,0-8,3.582-8,8s3.582,8,8,8h16v56
			h-56C3.584,316.001,0.001,319.582,0,324c0,0.648,0.078,1.293,0.234,1.922l39.68,160c0.883,3.572,4.089,6.081,7.768,6.08h416.64
			c3.679,0.001,6.885-2.508,7.768-6.08l39.68-160C512.36,323.536,511.82,321.01,510.306,319.074z M328.002,140.002
			c0.026-22.08,17.92-39.974,40-40h16c22.08,0.026,39.974,17.92,40,40v176h-96V140.002z M232.002,156.002
			c22.08,0.026,39.974,17.92,40,40v120h-144v-120c0.026-22.08,17.92-39.974,40-40H232.002z M80.002,76.002
			c0.06-1.786,0.24-3.566,0.536-5.328c1.108,3.178,4.099,5.312,7.464,5.328h24c4.418,0,8-3.582,8-8s-3.582-8-8-8h-24
			c-2.003,0.014-3.927,0.786-5.384,2.16c5.778-15.669,20.683-26.099,37.384-26.16h8c22.08,0.026,39.974,17.92,40,40v64
			c-30.913,0.035-55.965,25.087-56,56v8h-16c-4.418,0-8,3.582-8,8s3.582,8,8,8h16v56h-16c-4.418,0-8,3.582-8,8s3.582,8,8,8h16v24
			h-32V76.002z M458.066,476.002H53.938l-35.712-144h475.552L458.066,476.002z"/>
	</g>
</g>
<g>
	<g>
		<path d="M184.002,188.002h-24c-4.418,0-8,3.582-8,8s3.582,8,8,8h24c4.418,0,8-3.582,8-8S188.42,188.002,184.002,188.002z"/>
	</g>
</g>
<g>
	<g>
		<path d="M208.002,252.002h-24c-4.418,0-8,3.582-8,8s3.582,8,8,8h24c4.418,0,8-3.582,8-8S212.42,252.002,208.002,252.002z"/>
	</g>
</g>
<g>
	<g>
		<path d="M248.002,220.002h-24c-4.418,0-8,3.582-8,8s3.582,8,8,8h24c4.418,0,8-3.582,8-8S252.42,220.002,248.002,220.002z"/>
	</g>
</g>
<g>
	<g>
		<path d="M408.002,220.002h-24c-4.418,0-8,3.582-8,8s3.582,8,8,8h24c4.418,0,8-3.582,8-8S412.42,220.002,408.002,220.002z"/>
	</g>
</g>
<g>
	<g>
		<path d="M368.002,140.002h-24c-4.418,0-8,3.582-8,8s3.582,8,8,8h24c4.418,0,8-3.582,8-8S372.42,140.002,368.002,140.002z"/>
	</g>
</g>
<g>
	<g>
		<path d="M368.002,252.002h-24c-4.418,0-8,3.582-8,8s3.582,8,8,8h24c4.418,0,8-3.582,8-8S372.42,252.002,368.002,252.002z"/>
	</g>
</g>
<g>
	<g>
		<path d="M152.002,116.002h-24c-4.418,0-8,3.582-8,8s3.582,8,8,8h24c4.418,0,8-3.582,8-8S156.42,116.002,152.002,116.002z"/>
	</g>
</g>
</svg>
