<svg id="Layer_1" height="512" viewBox="0 0 128 128" width="512" xmlns="http://www.w3.org/2000/svg" data-name="Layer 1"><path d="m95.337 11.773h-62.674a5.753 5.753 0 0 0 -5.746 5.747v92.959a5.753 5.753 0 0 0 5.746 5.747h62.674a5.753 5.753 0 0 0 5.746-5.747v-92.958a5.753 5.753 0 0 0 -5.746-5.748zm2.246 98.706a2.249 2.249 0 0 1 -2.246 2.247h-62.674a2.249 2.249 0 0 1 -2.246-2.247v-92.958a2.249 2.249 0 0 1 2.246-2.247h62.674a2.249 2.249 0 0 1 2.246 2.247z"/><path d="m89.75 20.619h-51.5a1.75 1.75 0 0 0 -1.75 1.75v14.34a1.75 1.75 0 0 0 1.75 1.75h51.5a1.75 1.75 0 0 0 1.75-1.75v-14.34a1.75 1.75 0 0 0 -1.75-1.75zm-1.75 14.34h-48v-10.84h48z"/><path d="m50.25 47.75h-12a1.75 1.75 0 0 0 -1.75 1.75v12a1.75 1.75 0 0 0 1.75 1.75h12a1.75 1.75 0 0 0 1.75-1.75v-12a1.75 1.75 0 0 0 -1.75-1.75zm-1.75 12h-8.5v-8.5h8.5z"/><path d="m70 47.75h-12a1.75 1.75 0 0 0 -1.75 1.75v12a1.75 1.75 0 0 0 1.75 1.75h12a1.75 1.75 0 0 0 1.75-1.75v-12a1.75 1.75 0 0 0 -1.75-1.75zm-1.75 12h-8.5v-8.5h8.5z"/><path d="m89.75 47.75h-12a1.75 1.75 0 0 0 -1.75 1.75v12a1.75 1.75 0 0 0 1.75 1.75h12a1.75 1.75 0 0 0 1.75-1.75v-12a1.75 1.75 0 0 0 -1.75-1.75zm-1.75 12h-8.5v-8.5h8.5z"/><path d="m50.25 67.083h-12a1.75 1.75 0 0 0 -1.75 1.75v31.334a1.75 1.75 0 0 0 1.75 1.75h12a1.75 1.75 0 0 0 1.75-1.75v-31.334a1.75 1.75 0 0 0 -1.75-1.75zm-1.75 31.334h-8.5v-27.834h8.5z"/><path d="m70 67.083h-12a1.75 1.75 0 0 0 -1.75 1.75v12a1.75 1.75 0 0 0 1.75 1.75h12a1.75 1.75 0 0 0 1.75-1.75v-12a1.75 1.75 0 0 0 -1.75-1.75zm-1.75 12h-8.5v-8.5h8.5z"/><path d="m89.75 67.083h-12a1.75 1.75 0 0 0 -1.75 1.75v12a1.75 1.75 0 0 0 1.75 1.75h12a1.75 1.75 0 0 0 1.75-1.75v-12a1.75 1.75 0 0 0 -1.75-1.75zm-1.75 12h-8.5v-8.5h8.5z"/><path d="m70 86.417h-12a1.75 1.75 0 0 0 -1.75 1.75v12a1.75 1.75 0 0 0 1.75 1.75h12a1.75 1.75 0 0 0 1.75-1.75v-12a1.75 1.75 0 0 0 -1.75-1.75zm-1.75 12h-8.5v-8.5h8.5z"/><path d="m89.75 86.417h-12a1.75 1.75 0 0 0 -1.75 1.75v12a1.75 1.75 0 0 0 1.75 1.75h12a1.75 1.75 0 0 0 1.75-1.75v-12a1.75 1.75 0 0 0 -1.75-1.75zm-1.75 12h-8.5v-8.5h8.5z"/></svg>