<svg id="Layer_1" height="512" viewBox="0 0 128 128" width="512" xmlns="http://www.w3.org/2000/svg" data-name="Layer 1"><path d="m100.049 32.557c-9.649-2.007-22.449-3.113-36.049-3.113s-26.4 1.106-36.049 3.113c-10.886 2.265-16.178 5.253-16.178 9.138v44.611c0 3.885 5.292 6.873 16.178 9.138 9.649 2.006 22.449 3.112 36.049 3.112s26.4-1.105 36.049-3.112c10.886-2.265 16.178-5.253 16.178-9.138v-44.612c0-3.884-5.292-6.873-16.178-9.137zm-36.049.387c31.992 0 48.727 5.7 48.727 8.75s-16.735 8.75-48.727 8.75-48.727-5.7-48.727-8.75 16.735-8.75 48.727-8.75zm0 62.111c-18.542 0-31.947-1.914-39.951-4.118v-30.9a197.7 197.7 0 0 0 38.536 3.513h2.83c21.119 0 33.709-2.321 38.536-3.437v30.825c-8.004 2.204-21.409 4.118-39.951 4.118zm43.451-5.217v-31.978a1.75 1.75 0 0 0 -2.256-1.675c-.128.038-13.1 3.864-39.78 3.864h-2.83c-23.728 0-39.71-3.851-39.869-3.889a1.749 1.749 0 0 0 -2.167 1.7v31.978c-3.492-1.266-5.275-2.539-5.275-3.533v-39.745c2.669 1.647 6.869 3.063 12.678 4.272 9.648 2.007 22.448 3.112 36.048 3.112s26.4-1.105 36.049-3.112c5.809-1.208 10.009-2.625 12.678-4.272v39.746c0 .994-1.784 2.267-5.276 3.532z"/><path d="m64 46.705a7.242 7.242 0 0 0 6.136-2.838 4.085 4.085 0 0 0 .336-3.947l-1.292-2.92a5.48 5.48 0 0 0 -5.18-2.815 5.479 5.479 0 0 0 -5.18 2.815l-1.293 2.915a4.086 4.086 0 0 0 .336 3.948 7.242 7.242 0 0 0 6.137 2.842zm-3.273-5.367 1.293-2.916a3.028 3.028 0 0 1 3.96 0l1.293 2.917a.577.577 0 0 1 -.071.62 3.922 3.922 0 0 1 -3.202 1.246 3.922 3.922 0 0 1 -3.2-1.246.578.578 0 0 1 -.073-.621z"/><path d="m85.178 70.327a1.755 1.755 0 0 0 -1.78.054l-10.114 6.4h-3.721v-4.921a1.75 1.75 0 0 0 -3.5 0v4.917h-3.48v-4.917a1.75 1.75 0 0 0 -3.5 0v4.917h-3.916v-4.917a1.75 1.75 0 0 0 -1.75-1.75c-6.449 0-11.5 3.7-11.5 8.417s5.051 8.417 11.5 8.417a1.75 1.75 0 0 0 1.75-1.75v-4.917h3.917v4.917a1.75 1.75 0 0 0 3.5 0v-4.917h3.479v4.917a1.75 1.75 0 0 0 3.5 0v-4.917h3.721l10.114 6.4a1.75 1.75 0 0 0 2.686-1.479v-13.338a1.751 1.751 0 0 0 -.906-1.533zm-33.511 12.993c-3.528-.506-6.25-2.5-6.25-4.793s2.722-4.287 6.25-4.793zm30.917-1.3-5.518-3.489 5.518-3.489z"/></svg>