<svg id="Layer_1" height="512" viewBox="0 0 128 128" width="512" xmlns="http://www.w3.org/2000/svg" data-name="Layer 1"><path d="m64 11.773c-18.866 0-38.917 4.994-38.917 14.25v75.953c0 9.256 20.051 14.25 38.917 14.25s38.917-4.994 38.917-14.25v-75.953c0-9.255-20.051-14.25-38.917-14.25zm35.417 70.127c0 4.411-10.95 9.256-27.477 10.464 3.072-3.3 5.06-8.454 5.06-14.249 0-6.121-2.214-11.53-5.584-14.793 11.6-.8 22.59-3.457 28-7.807zm-70.834-26.38c5.411 4.35 16.4 7.009 28 7.807-3.369 3.262-5.583 8.673-5.583 14.792 0 5.8 1.989 10.947 5.06 14.249-16.526-1.207-27.477-6.052-27.477-10.468zm25.917 22.599c0-8.015 4.262-14.536 9.5-14.536s9.5 6.521 9.5 14.536-4.262 14.536-9.5 14.536-9.5-6.521-9.5-14.536zm44.917-28.786c0 5.084-14.545 10.75-35.417 10.75s-35.417-5.666-35.417-10.75v-17.123c6.559 5.273 21.317 8.063 35.417 8.063s28.858-2.791 35.417-8.064zm-35.417-34.06c20.872 0 35.417 5.666 35.417 10.75s-14.545 10.75-35.417 10.75-35.417-5.666-35.417-10.75 14.545-10.75 35.417-10.75zm0 97.453c-20.872 0-35.417-5.666-35.417-10.75v-13.885c6.559 5.273 21.317 8.064 35.417 8.064s28.858-2.791 35.417-8.064v13.886c0 5.084-14.545 10.75-35.417 10.75z"/><path d="m64 33.875a6.935 6.935 0 0 0 5.588-2.775 6.264 6.264 0 0 0 .955-5.631l-1.293-4.136a5.551 5.551 0 0 0 -10.5 0l-1.293 4.135a6.264 6.264 0 0 0 .955 5.631 6.935 6.935 0 0 0 5.588 2.776zm-3.2-7.363 1.293-4.135a2.056 2.056 0 0 1 3.819 0l1.288 4.135a2.762 2.762 0 0 1 -.434 2.513 3.514 3.514 0 0 1 -5.537 0 2.762 2.762 0 0 1 -.429-2.513z"/><path d="m37.4 24.789a1.742 1.742 0 0 0 .817-.2c2.883-1.526 8.364-2.708 14.662-3.162a1.75 1.75 0 1 0 -.251-3.491c-6.859.494-12.709 1.792-16.049 3.56a1.75 1.75 0 0 0 .82 3.3z"/></svg>