<svg id="Layer_1" height="512" viewBox="0 0 128 128" width="512" xmlns="http://www.w3.org/2000/svg" data-name="Layer 1"><path d="m114.785 30.2-.005-.014-12.822-17.686a1.75 1.75 0 0 0 -1.417-.723h-73.082a1.75 1.75 0 0 0 -1.417.723l-12.821 17.687v.013a1.737 1.737 0 0 0 -.328 1.015v83.263a1.75 1.75 0 0 0 1.75 1.75h98.725a1.75 1.75 0 0 0 1.75-1.75v-83.264a1.737 1.737 0 0 0 -.333-1.014zm-4.852-.737h-37.581l-2.057-14.19h29.353zm-43.174-14.19 2.057 14.19h-8.778l2.062-14.19zm-6.993 17.69h9.321v8.175l-3.846-2.021a1.751 1.751 0 0 0 -1.628 0l-3.848 2.021zm-31.414-17.69h30.208l-2.06 14.191h-38.433zm83.261 97.453h-95.225v-79.762h39.879v11.071a1.749 1.749 0 0 0 2.563 1.549l5.6-2.94 5.6 2.94a1.75 1.75 0 0 0 2.564-1.549v-11.071h39.024z"/><path d="m45.729 50.268a1.75 1.75 0 0 0 -1.75 1.75v9.937a1.75 1.75 0 0 0 1.75 1.75h36.542a1.75 1.75 0 0 0 1.75-1.75v-9.937a1.75 1.75 0 0 0 -1.75-1.75zm34.792 9.932h-33.042v-6.432h33.042z"/></svg>