<svg id="Layer_1" height="512" viewBox="0 0 128 128" width="512" xmlns="http://www.w3.org/2000/svg" data-name="Layer 1"><path d="m114.477 19.679h-100.954a1.75 1.75 0 0 0 -1.75 1.75v12.666a1.75 1.75 0 0 0 1.75 1.75h3.24v70.727a1.75 1.75 0 0 0 1.75 1.75h90.973a1.75 1.75 0 0 0 1.75-1.75v-70.727h3.24a1.75 1.75 0 0 0 1.75-1.75v-12.666a1.75 1.75 0 0 0 -1.749-1.75zm-58.409 16.166h15.864v10.6l-6.918-4.913a1.749 1.749 0 0 0 -2.027 0l-6.918 4.913zm15.863-3.5h-15.863v-9.166h15.864zm-56.658-9.166h37.295v9.166h-37.295zm92.463 81.643h-87.472v-68.977h32.3v13.988a1.75 1.75 0 0 0 2.764 1.427l8.672-6.16 8.668 6.155a1.75 1.75 0 0 0 2.764-1.427v-13.983h32.3zm4.99-72.477h-37.294v-9.166h37.295z"/><path d="m48 60a1.75 1.75 0 0 0 -1.75 1.75v8.583a1.75 1.75 0 0 0 1.75 1.75h32a1.75 1.75 0 0 0 1.75-1.75v-8.583a1.75 1.75 0 0 0 -1.75-1.75zm30.25 8.583h-28.5v-5.083h28.5z"/></svg>