<svg id="Layer_1" height="512" viewBox="0 0 128 128" width="512" xmlns="http://www.w3.org/2000/svg" data-name="Layer 1"><path d="m114.477 57.6h-2.6v-15.35a1.75 1.75 0 0 0 -1.75-1.75h-21.314v-2.7h8.25a1.75 1.75 0 0 0 1.75-1.75v-10.566a1.75 1.75 0 0 0 -1.75-1.75h-20a1.75 1.75 0 0 0 -1.75 1.75v10.57a1.75 1.75 0 0 0 1.75 1.75h8.25v2.7h-21.313a1.75 1.75 0 0 0 -1.75 1.75v15.346h-9.672v-7.154a18.192 18.192 0 0 0 -11.369-16.839 12 12 0 1 0 -13.714 0 18.192 18.192 0 0 0 -11.37 16.839v7.154h-2.6a1.75 1.75 0 0 0 -1.75 1.75v10.15a1.75 1.75 0 0 0 1.75 1.75h2.6v43.227a1.75 1.75 0 0 0 1.75 1.75h92.25a1.75 1.75 0 0 0 1.75-1.75v-43.227h2.6a1.75 1.75 0 0 0 1.75-1.75v-10.146a1.75 1.75 0 0 0 -1.748-1.754zm-35.664-30.366h16.5v7.066h-16.5zm-13.063 16.766h42.625v13.6h-42.625zm-39.9-20.227a8.5 8.5 0 1 1 8.5 8.5 8.51 8.51 0 0 1 -8.498-8.5zm-6.225 26.673a14.689 14.689 0 0 1 14.675-14.673h.108a14.689 14.689 0 0 1 14.67 14.673v7.154h-29.453zm88.75 62.281h-88.75v-41.477h88.75zm4.352-44.977h-97.454v-6.65h97.453z"/></svg>