<svg id="Layer_1" height="512" viewBox="0 0 128 128" width="512" xmlns="http://www.w3.org/2000/svg" data-name="Layer 1"><path d="m116.218 93.3a1.73 1.73 0 0 0 -.021-.288l-10-54.181a1.749 1.749 0 0 0 -1.721-1.432h-14.276v-2.964h14.28a1.75 1.75 0 0 0 1.75-1.75v-19.162a1.75 1.75 0 0 0 -1.75-1.75h-37.48a1.75 1.75 0 0 0 -1.75 1.75v19.162a1.75 1.75 0 0 0 1.75 1.75h14.28v2.965h-23.78v-11.916a1.75 1.75 0 0 0 -2.924-1.3l-5.139 4.647-4.573-4.585a1.8 1.8 0 0 0 -2.479 0l-4.573 4.585-5.139-4.647a1.75 1.75 0 0 0 -2.924 1.3v11.916h-6.226a1.749 1.749 0 0 0 -1.723 1.434l-10 54.181a1.737 1.737 0 0 0 -.02.28.381.381 0 0 0 -.009.038v21.143a1.75 1.75 0 0 0 1.75 1.75h100.956a1.75 1.75 0 0 0 1.75-1.75v-21.143c0-.01-.008-.019-.009-.033zm-47.468-78.027h33.977v15.662h-33.977zm17.95 19.162v14.589h-1.92v-14.589zm-53.45-5.008 3.45 3.121a1.749 1.749 0 0 0 2.413-.062l4.511-4.523 4.511 4.523a1.75 1.75 0 0 0 2.413.062l3.452-3.121v31.323h-20.75zm-8.27 11.473h4.77v19.85h-3.625a1.75 1.75 0 0 0 0 3.5h35a1.75 1.75 0 0 0 0-3.5h-3.625v-19.85h23.78v8.122h-4.625a1.75 1.75 0 0 0 0 3.5h18.167a1.75 1.75 0 0 0 0-3.5h-4.622v-8.122h12.82l9.354 50.681h-96.748zm-9.707 71.824v-17.641h97.453v17.643z"/><path d="m83.833 99.583h-39.666a1.75 1.75 0 0 0 -1.75 1.75v6a1.75 1.75 0 0 0 1.75 1.75h39.666a1.75 1.75 0 0 0 1.75-1.75v-6a1.75 1.75 0 0 0 -1.75-1.75zm-1.75 6h-36.166v-2.5h36.166z"/><path d="m37.708 40.75h11.834a1.75 1.75 0 0 0 0-3.5h-11.834a1.75 1.75 0 0 0 0 3.5z"/><path d="m37.708 48.313h11.834a1.75 1.75 0 0 0 0-3.5h-11.834a1.75 1.75 0 0 0 0 3.5z"/><path d="m37.708 55.875h11.834a1.75 1.75 0 0 0 0-3.5h-11.834a1.75 1.75 0 0 0 0 3.5z"/><path d="m94.151 70.92a1.75 1.75 0 0 0 -1.651-1.17h-57a1.75 1.75 0 0 0 -1.651 1.17l-5 14.25a1.75 1.75 0 0 0 1.651 2.33h67a1.75 1.75 0 0 0 1.651-2.33zm-61.182 13.08 3.772-10.75h54.518l3.772 10.75z"/></svg>