<?xml version="1.0" encoding="iso-8859-1"?>
<!-- Generator: Adobe Illustrator 19.0.0, SVG Export Plug-In . SVG Version: 6.00 Build 0)  -->
<svg version="1.1" xmlns="http://www.w3.org/2000/svg" xmlns:xlink="http://www.w3.org/1999/xlink" x="0px" y="0px"
	 viewBox="0 0 512 512" style="enable-background:new 0 0 512 512;" xml:space="preserve">
<g>
	<g>
		<path d="M384,0h-48c-4.418,0-8,3.582-8,8v240H128c-4.418,0-8,3.582-8,8v248c0,4.418,3.582,8,8,8h48c4.418,0,8-3.582,8-8V312h144
			v192c0,4.418,3.582,8,8,8h48c4.418,0,8-3.582,8-8V8C392,3.582,388.418,0,384,0z M376,496h-32V304c0-4.418-3.582-8-8-8H176
			c-4.418,0-8,3.582-8,8v192h-32V264h200c4.418,0,8-3.582,8-8V16h32V496z"/>
	</g>
</g>
</svg>
