<svg id="Layer_1" height="512" viewBox="0 0 128 128" width="512" xmlns="http://www.w3.org/2000/svg" data-name="Layer 1"><path d="m114.477 58.823h-9.977l-34.992-33.511a5.566 5.566 0 0 0 -11.015 0l-34.993 33.511h-9.977a1.75 1.75 0 0 0 -1.75 1.75v45.127a1.75 1.75 0 0 0 1.75 1.75h100.954a1.75 1.75 0 0 0 1.75-1.75v-45.127a1.75 1.75 0 0 0 -1.75-1.75zm-50.477-34.775a2.073 2.073 0 1 1 -2.073 2.073 2.075 2.075 0 0 1 2.073-2.073zm-4.589 5.229a5.564 5.564 0 0 0 9.178 0l30.853 29.546h-70.884zm53.315 74.675h-97.453v-41.629h97.453z"/><path d="m24.2 64.558a1.75 1.75 0 0 0 -1.75 1.75 3.129 3.129 0 0 1 -3.125 3.125 1.75 1.75 0 0 0 -1.75 1.75v23.909a1.75 1.75 0 0 0 1.75 1.75 3.129 3.129 0 0 1 3.125 3.125 1.75 1.75 0 0 0 1.75 1.75h79.6a1.75 1.75 0 0 0 1.75-1.75 3.129 3.129 0 0 1 3.125-3.125 1.75 1.75 0 0 0 1.75-1.75v-23.909a1.75 1.75 0 0 0 -1.75-1.75 3.129 3.129 0 0 1 -3.125-3.125 1.75 1.75 0 0 0 -1.75-1.75zm82.724 8.142v20.876a6.654 6.654 0 0 0 -4.641 4.641h-76.566a6.654 6.654 0 0 0 -4.641-4.641v-20.876a6.654 6.654 0 0 0 4.641-4.641h76.566a6.654 6.654 0 0 0 4.641 4.641z"/><path d="m36.86 86.758a2.867 2.867 0 0 1 -3.969-.171 5.393 5.393 0 0 1 -.725-3.278 5.157 5.157 0 0 1 .607-2.832 2.809 2.809 0 0 1 3.523-.94 2.563 2.563 0 0 1 .912.785 3.355 3.355 0 0 1 .432.961l3.924-.873a6.453 6.453 0 0 0 -2.311-3.375 7.3 7.3 0 0 0 -4.273-1.1 7.222 7.222 0 0 0 -5.371 1.917 7.465 7.465 0 0 0 -1.9 5.485 8.118 8.118 0 0 0 1.08 4.394 6.069 6.069 0 0 0 2.564 2.4 9.241 9.241 0 0 0 3.832.682 7.829 7.829 0 0 0 3.184-.56 5.36 5.36 0 0 0 2.1-1.657 7.191 7.191 0 0 0 1.231-2.742l-3.9-1.177a4.416 4.416 0 0 1 -.94 2.081z"/><path d="m48.306 76.181h-4.444v14.383h11.381v-3.542h-6.937z"/><path d="m63.79 75.936a6.81 6.81 0 0 0 -7.428 7.447 8.151 8.151 0 0 0 .99 4.2 6.075 6.075 0 0 0 2.586 2.452 9.189 9.189 0 0 0 4.027.775 8.093 8.093 0 0 0 4-.9 6.049 6.049 0 0 0 2.452-2.51 8.849 8.849 0 0 0 .85-4.136 7.271 7.271 0 0 0 -1.943-5.4 7.518 7.518 0 0 0 -5.534-1.928zm2.246 10.616a3.065 3.065 0 0 1 -4.42-.02 4.827 4.827 0 0 1 -.809-3.13 4.835 4.835 0 0 1 .814-3.149 2.7 2.7 0 0 1 2.159-.953 2.8 2.8 0 0 1 2.22.937 4.454 4.454 0 0 1 .818 2.969 5.323 5.323 0 0 1 -.782 3.346z"/><path d="m83.524 82.161a18.573 18.573 0 0 0 -4.174-1.271 3.666 3.666 0 0 1 -1.492-.53.8.8 0 0 1 -.322-.618 1.009 1.009 0 0 1 .393-.8 1.778 1.778 0 0 1 1.166-.328 1.96 1.96 0 0 1 2.18 1.854l4.189-.246a4.427 4.427 0 0 0 -1.723-3.262 7.236 7.236 0 0 0 -4.205-1.025 9.032 9.032 0 0 0 -3.536.565 4.267 4.267 0 0 0 -1.932 1.551 3.761 3.761 0 0 0 -.643 2.095 3.509 3.509 0 0 0 1.256 2.776 9.668 9.668 0 0 0 4.17 1.747 5.668 5.668 0 0 1 2.275.834 1.316 1.316 0 0 1 .49 1 1.339 1.339 0 0 1 -.514 1.034 2.175 2.175 0 0 1 -1.467.447 2.347 2.347 0 0 1 -1.963-.874 3.206 3.206 0 0 1 -.559-1.569l-4.23.265a5.577 5.577 0 0 0 1.6 3.591q1.417 1.413 5.082 1.413a8.645 8.645 0 0 0 3.465-.6 4.784 4.784 0 0 0 2.139-1.771 4.564 4.564 0 0 0 .766-2.551 4.044 4.044 0 0 0 -.574-2.13 4.384 4.384 0 0 0 -1.837-1.597z"/><path d="m92.616 84.472h6.918v-2.934h-6.918v-2.286h7.457v-3.071h-11.912v14.383h12.127v-3.257h-7.672z"/></svg>