<?xml version="1.0" encoding="iso-8859-1"?>
<!-- Generator: Adobe Illustrator 19.0.0, SVG Export Plug-In . SVG Version: 6.00 Build 0)  -->
<svg version="1.1" xmlns="http://www.w3.org/2000/svg" xmlns:xlink="http://www.w3.org/1999/xlink" x="0px" y="0px"
	 viewBox="0 0 512 512" style="enable-background:new 0 0 512 512;" xml:space="preserve">
<g>
	<g>
		<g>
			<path d="M504,464h-72V8c0-4.418-3.582-8-8-8H88c-4.418,0-8,3.582-8,8v456H8c-4.418,0-8,3.582-8,8v32c0,4.418,3.582,8,8,8h496
				c4.418,0,8-3.582,8-8v-32C512,467.582,508.418,464,504,464z M264,16h152v448H264V16z M96,16h152v448H96V16z M496,496H16v-16h480
				V496z"/>
			<path d="M232,24H112c-4.418,0-8,3.582-8,8v416c0,4.418,3.582,8,8,8h120c4.418,0,8-3.582,8-8V32C240,27.582,236.418,24,232,24z
				 M224,440H120V40h104V440z"/>
			<path d="M400,24H280c-4.418,0-8,3.582-8,8v416c0,4.418,3.582,8,8,8h120c4.418,0,8-3.582,8-8V32C408,27.582,404.418,24,400,24z
				 M392,440H288V40h104V440z"/>
			<path d="M200,296c4.418,0,8-3.582,8-8v-64c0-4.418-3.582-8-8-8s-8,3.582-8,8v64C192,292.418,195.582,296,200,296z"/>
			<path d="M312,296c4.418,0,8-3.582,8-8v-64c0-4.418-3.582-8-8-8s-8,3.582-8,8v64C304,292.418,307.582,296,312,296z"/>
		</g>
	</g>
</g>
</svg>
