<?xml version="1.0" encoding="iso-8859-1"?>
<!-- Generator: Adobe Illustrator 19.0.0, SVG Export Plug-In . SVG Version: 6.00 Build 0)  -->
<svg version="1.1" xmlns="http://www.w3.org/2000/svg" xmlns:xlink="http://www.w3.org/1999/xlink" x="0px" y="0px"
	 viewBox="0 0 512 512" style="enable-background:new 0 0 512 512;" xml:space="preserve">
<g>
	<g>
		<path d="M504,224H328v-16h72c4.418,0,8-3.582,8-8V56c0-4.418-3.582-8-8-8H112c-4.418,0-8,3.582-8,8v144c0,4.418,3.582,8,8,8h72v16
			H8c-4.418,0-8,3.582-8,8v32c0,4.418,3.582,8,8,8h8v184c0,4.418,3.582,8,8,8h24c4.418,0,8-3.582,8-8V272h192v32h-88
			c-4.418,0-8,3.582-8,8v32c0,4.418,3.582,8,8,8h88v64h-88c-4.418,0-8,3.582-8,8v32c0,4.418,3.582,8,8,8h192c4.418,0,8-3.582,8-8
			v-32c0-4.418-3.582-8-8-8h-88v-64h88c4.418,0,8-3.582,8-8v-32c0-4.418-3.582-8-8-8h-88v-32h192v184c0,4.418,3.582,8,8,8h24
			c4.418,0,8-3.582,8-8V272h8c4.418,0,8-3.582,8-8v-32C512,227.582,508.418,224,504,224z M40,448h-8V272h8V448z M184,256H16v-16h168
			V256z M392,192h-64v-16h64V192z M184,192h-64v-16h64V192z M344,432v16H168v-16H344z M344,320v16H168v-16H344z M312,256H200V120
			h112V256z M320,104H192c-4.418,0-8,3.582-8,8v48h-64V64h272v96h-64v-48C328,107.582,324.418,104,320,104z M480,448h-8V272h8V448z
			 M496,256H328v-16h168V256z"/>
	</g>
</g>
</svg>
