<?xml version="1.0" encoding="iso-8859-1"?>
<!-- Generator: Adobe Illustrator 19.0.0, SVG Export Plug-In . SVG Version: 6.00 Build 0)  -->
<svg version="1.1" id="Layer_1" xmlns="http://www.w3.org/2000/svg" xmlns:xlink="http://www.w3.org/1999/xlink" x="0px" y="0px"
	 viewBox="0 0 512 512" style="enable-background:new 0 0 512 512;" xml:space="preserve">
<g>
	<g>
		<rect x="121.018" y="116.364" width="111.709" height="18.618"/>
	</g>
</g>
<g>
	<g>
		<path d="M260.655,339.782H93.091c-5.145,0-9.309,4.168-9.309,9.309v37.236c0,5.141,4.164,9.309,9.309,9.309h167.564
			c5.145,0,9.309-4.168,9.309-9.309v-37.236C269.964,343.95,265.8,339.782,260.655,339.782z M251.345,377.018H102.4V358.4h148.945
			V377.018z"/>
	</g>
</g>
<g>
	<g>
		<path d="M176.873,200.145c-30.8,0-55.855,25.055-55.855,55.855s25.055,55.855,55.855,55.855S232.727,286.8,232.727,256
			S207.673,200.145,176.873,200.145z M176.873,293.236c-20.536,0-37.236-16.704-37.236-37.236c0-20.532,16.7-37.236,37.236-37.236
			s37.236,16.704,37.236,37.236S197.409,293.236,176.873,293.236z"/>
	</g>
</g>
<g>
	<g>
		<rect x="102.4" y="153.6" width="148.945" height="18.618"/>
	</g>
</g>
<g>
	<g>
		<path d="M352.145,88.826c-3.75-11.014-14.07-19.008-26.327-19.008H27.927C12.527,69.818,0,82.359,0,97.773v316.455
			c0,15.414,12.527,27.955,27.927,27.955h297.891c12.257,0,22.577-7.994,26.327-19.008C440.946,419.103,512,345.793,512,256
			S440.946,92.897,352.145,88.826z M335.127,414.227c0,5.15-4.173,9.336-9.309,9.336H27.927c-5.136,0-9.309-4.186-9.309-9.336
			V97.773c0-5.15,4.173-9.336,9.309-9.336h297.891c5.136,0,9.309,4.186,9.309,9.336V414.227z M353.745,200.986
			c26.373,4.453,46.545,27.392,46.545,55.014s-20.173,50.56-46.545,55.014V200.986z M353.745,404.474v-74.648
			c36.677-4.605,65.164-35.922,65.164-73.826s-28.486-69.222-65.164-73.826v-74.648C431.532,112.37,493.382,177.015,493.382,256
			S431.532,399.63,353.745,404.474z"/>
	</g>
</g>
</svg>
