<svg id="Layer_1" height="512" viewBox="0 0 128 128" width="512" xmlns="http://www.w3.org/2000/svg" data-name="Layer 1"><path d="m115.48 44.021-8.111-8.111a1.749 1.749 0 0 0 -2.475 0 9.054 9.054 0 0 1 -12.8-12.8 1.749 1.749 0 0 0 0-2.475l-8.111-8.11a1.749 1.749 0 0 0 -2.475 0l-68.988 68.975a1.749 1.749 0 0 0 0 2.475l8.111 8.111a1.749 1.749 0 0 0 2.475 0 9.054 9.054 0 0 1 12.8 12.8 1.749 1.749 0 0 0 0 2.475l8.111 8.11a1.749 1.749 0 0 0 2.475 0l22.152-22.14 46.836-46.831a1.749 1.749 0 0 0 0-2.479zm-48.073 45.6-2.652-2.652a1.75 1.75 0 0 0 -2.475 2.475l2.652 2.652-19.675 19.672-5.721-5.721a12.555 12.555 0 0 0 -17.582-17.582l-5.722-5.723 19.675-19.675 2.652 2.652a1.75 1.75 0 1 0 2.475-2.475l-2.652-2.652 44.361-44.36 5.721 5.721a12.555 12.555 0 0 0 17.582 17.582l5.722 5.723z"/><path d="m48.941 71.151a1.75 1.75 0 1 0 -2.475 2.475l7.907 7.907a1.75 1.75 0 0 0 2.475-2.475z"/><path d="m59.84 67.247 1.315-4.229 4.23-1.315a1.75 1.75 0 0 0 .491-3.1l-3.616-2.558.057-4.43a1.75 1.75 0 0 0 -2.8-1.425l-3.55 2.648-4.2-1.422a1.75 1.75 0 0 0 -2.219 2.219l1.422 4.2-2.649 3.551a1.75 1.75 0 0 0 -.157 1.842 1.707 1.707 0 0 0 1.582.955l4.43-.057 2.558 3.616a1.75 1.75 0 0 0 3.1-.491zm-1.754-6.147-.536 1.723-1.041-1.473a1.75 1.75 0 0 0 -1.429-.739h-.022l-1.8.023 1.079-1.446a1.749 1.749 0 0 0 .255-1.608l-.579-1.709 1.708.579a1.75 1.75 0 0 0 1.608-.255l1.446-1.079-.023 1.8a1.748 1.748 0 0 0 .74 1.451l1.473 1.042-1.723.535a1.75 1.75 0 0 0 -1.156 1.156z"/><path d="m63.437 46.475a1.743 1.743 0 0 0 1.237-.513l12.439-12.44a1.75 1.75 0 1 0 -2.475-2.475l-12.438 12.44a1.75 1.75 0 0 0 1.237 2.987z"/><path d="m68.812 52.575a1.749 1.749 0 0 0 2.475 0l12.439-12.439a1.75 1.75 0 0 0 -2.475-2.475l-12.439 12.439a1.749 1.749 0 0 0 0 2.475z"/><path d="m90.339 44.274a1.749 1.749 0 0 0 -2.475 0l-28.572 28.572a1.75 1.75 0 1 0 2.475 2.475l28.572-28.572a1.749 1.749 0 0 0 0-2.475z"/><path d="m94.477 50.887-28.571 28.572a1.75 1.75 0 1 0 2.475 2.475l28.571-28.573a1.75 1.75 0 0 0 -2.475-2.475z"/></svg>