<svg id="Layer_1" height="512" viewBox="0 0 128 128" width="512" xmlns="http://www.w3.org/2000/svg" data-name="Layer 1"><path d="m114.477 20.917h-100.954a1.75 1.75 0 0 0 -1.75 1.75v13.771a1.75 1.75 0 0 0 1.75 1.75h24.227v67.146a1.75 1.75 0 0 0 1.75 1.75h49a1.75 1.75 0 0 0 1.75-1.75v-67.146h24.227a1.75 1.75 0 0 0 1.75-1.75v-13.771a1.75 1.75 0 0 0 -1.75-1.75zm-73.227 10.383h4.5v72.281h-4.5zm8 72.281v-72.281h6.5v72.281zm37.5 0h-27.5v-72.281h27.5zm25.977-68.9h-22.477v-3.381h5.75a1.75 1.75 0 0 0 0-3.5h-64a1.75 1.75 0 0 0 0 3.5h5.75v3.386h-22.477v-10.269h97.453z"/><path d="m81.5 34.25h-7.833a1.75 1.75 0 0 0 -1.75 1.75v9.5a1.75 1.75 0 0 0 1.75 1.75h7.833a1.75 1.75 0 0 0 1.75-1.75v-9.5a1.75 1.75 0 0 0 -1.75-1.75zm-1.75 9.5h-4.333v-6h4.333z"/><path d="m75.25 78.733a8 8 0 0 0 -7.364 11.125 8 8 0 1 0 14.727 0 8 8 0 0 0 -7.363-11.125zm0 3.5a4.491 4.491 0 0 1 4.461 4.113 7.982 7.982 0 0 0 -8.922 0 4.491 4.491 0 0 1 4.461-4.113zm3.226 7.625a4.473 4.473 0 0 1 -6.453 0 4.473 4.473 0 0 1 6.453 0zm-3.226 7.625a4.491 4.491 0 0 1 -4.461-4.113 7.982 7.982 0 0 0 8.922 0 4.491 4.491 0 0 1 -4.461 4.113z"/></svg>