<?xml version="1.0" encoding="iso-8859-1"?>
<!-- Generator: Adobe Illustrator 19.0.0, SVG Export Plug-In . SVG Version: 6.00 Build 0)  -->
<svg version="1.1" xmlns="http://www.w3.org/2000/svg" xmlns:xlink="http://www.w3.org/1999/xlink" x="0px" y="0px"
	 viewBox="0 0 512 512" style="enable-background:new 0 0 512 512;" xml:space="preserve">
<g>
	<g>
		<path d="M504,288h-40v-16c0-4.418-3.582-8-8-8h-48v-80h56c4.418,0,8-3.581,8.001-7.999c0-0.294-0.016-0.588-0.049-0.881l-16-144
			C455.503,27.067,452.078,24,448,24h-96c-4.078,0-7.503,3.067-7.952,7.12l-16,144c-0.486,4.391,2.68,8.345,7.071,8.831
			c0.292,0.032,0.586,0.049,0.881,0.049h56v80h-48c-4.418,0-8,3.582-8,8v16H8c-4.418,0-8,3.582-8,8v144c0,4.418,3.582,8,8,8h24v32
			c0,4.418,3.582,8,8,8h24c4.418,0,8-3.582,8-8v-32h368v32c0,4.418,3.582,8,8,8h24c4.418,0,8-3.582,8-8v-32h24c4.418,0,8-3.582,8-8
			V296C512,291.582,508.418,288,504,288z M344.936,168L359.2,40h81.68l14.224,128H344.936z M352,280h96v8h-96V280z M56,472h-8v-24h8
			V472z M464,472h-8v-24h8V472z M496,432h-24H16v-56h200c0,4.418,3.582,8,8,8h64c4.418,0,8-3.582,8-8h200V432z M496,360H16v-56h200
			c0,4.418,3.582,8,8,8h64c4.418,0,8-3.582,8-8h200V360z"/>
	</g>
</g>
</svg>
