<?xml version="1.0" encoding="iso-8859-1"?>
<!-- Generator: Adobe Illustrator 19.0.0, SVG Export Plug-In . SVG Version: 6.00 Build 0)  -->
<svg version="1.1" xmlns="http://www.w3.org/2000/svg" xmlns:xlink="http://www.w3.org/1999/xlink" x="0px" y="0px"
	 viewBox="0 0 512 512" style="enable-background:new 0 0 512 512;" xml:space="preserve">
<g>
	<g>
		<path d="M504,12H8c-4.418,0-8,3.582-8,8v472c0,4.418,3.582,8,8,8h112c4.418,0,8-3.582,8-8v-48
			c-0.024-19.001-13.389-35.373-32-39.2v-43.048C160.75,350.091,207.893,293.791,208,228v-22.568
			c22.097-2.991,41.397-16.451,51.84-36.152c9.18,17.245,25.219,29.808,44.16,34.592V204v24c0.107,65.791,47.25,122.091,112,133.752
			V404.8c-18.611,3.827-31.976,20.199-32,39.2v48c0,4.418,3.582,8,8,8h112c4.418,0,8-3.582,8-8V20C512,15.582,508.418,12,504,12z
			 M16,364h64v40H16V364z M112,444v40H16v-64h72C101.255,420,112,430.745,112,444z M192,228c-0.075,66.243-53.757,119.925-120,120
			H16V181.168c24.343,29.314,67.84,33.343,97.153,9.001c9.418-7.821,16.585-18.007,20.767-29.513
			c9.153,24.861,31.715,42.298,58.08,44.888V228z M496,484h-96v-40c0-13.255,10.745-24,24-24h72V484z M496,404h-64v-40h64V404z
			 M496,348h-56c-66.243-0.075-119.925-53.757-120-120v-21.984c0.296,0,0.584,0.064,0.88,0.064
			c25.592-0.016,49.078-14.176,61.04-36.8c17.769,33.696,59.491,46.607,93.187,28.838c8.009-4.224,15.109-9.983,20.893-16.95V348z
			 M496,130.048c-0.223,0.891-0.29,1.814-0.2,2.728c0.136,1.424,0.2,2.84,0.2,4.264c0,29.293-23.747,53.04-53.04,53.04
			c-29.293,0-53.04-23.747-53.04-53.04c0-1.432,0.072-2.872,0.208-4.296c0.115-2.272-0.716-4.491-2.296-6.128
			c-1.61-1.671-3.831-2.616-6.152-2.616c-4.418,0-8,3.582-8,8c0,0.267,0.013,0.534,0.04,0.8c0.136,1.424,0.2,2.84,0.2,4.264
			c0.016,29.293-23.718,53.053-53.012,53.068c-29.293,0.016-53.053-23.718-53.068-53.011c0-0.019,0-0.038,0-0.057v-0.024
			c0-1.432,0.072-2.872,0.208-4.296c0.115-2.272-0.716-4.491-2.296-6.128c-3.333-3.328-8.731-3.328-12.064,0
			c-1.517,1.663-2.263,3.887-2.056,6.128c0.136,1.424,0.208,2.864,0.208,4.296c-0.001,29.293-23.748,53.039-53.041,53.039
			c-29.292-0.001-53.038-23.747-53.039-53.039c0-1.432,0.072-2.872,0.208-4.296c0.411-4.399-2.822-8.298-7.221-8.709
			c-0.259-0.024-0.519-0.036-0.779-0.035h-8.128c-4.418-0.019-8.016,3.547-8.035,7.965c-0.001,0.26,0.01,0.52,0.035,0.779
			c0.136,1.424,0.208,2.864,0.208,4.296c0.72,29.284-22.437,53.607-51.721,54.327C41.042,192.086,16.72,168.93,16,139.646
			c-0.021-0.868-0.021-1.737,0-2.606c0-1.424,0.064-2.84,0.2-4.264c0.082-0.858,0.015-1.725-0.2-2.56V28h480V130.048z"/>
	</g>
</g>
</svg>
