<svg id="Layer_1" height="512" viewBox="0 0 128 128" width="512" xmlns="http://www.w3.org/2000/svg" data-name="Layer 1"><path d="m75.436 11.773a16.2 16.2 0 0 0 -16.251 15.679l-1.5 41.818a1.75 1.75 0 0 0 1.749 1.813h2.408l-1.332 38.772a5.774 5.774 0 0 0 1.674 4.228 7.5 7.5 0 0 0 10.5 0 5.774 5.774 0 0 0 1.674-4.228l-1.331-38.772h2.409a1.75 1.75 0 0 0 1.75-1.75v-55.81a1.75 1.75 0 0 0 -1.75-1.75zm-5.266 99.878a4.014 4.014 0 0 1 -5.47 0 2.3 2.3 0 0 1 -.692-1.674l1.745-50.747c.021-.63.792-1.161 1.683-1.161s1.66.531 1.682 1.161l1.745 50.746a2.3 2.3 0 0 1 -.693 1.675zm3.516-44.068h-.779l-.291-8.474a5.225 5.225 0 0 0 -10.36 0l-.291 8.474h-.714l1.434-40.006a12.711 12.711 0 0 1 11-12.187z"/><path d="m108.258 11.783a1.741 1.741 0 0 0 -1.895 1.38l-4.2 19.967-4.2-19.967a1.75 1.75 0 0 0 -3.426 0l-4.2 19.967-4.2-19.967a1.75 1.75 0 0 0 -3.463.36v37.357a7.2 7.2 0 0 0 7.189 7.189h.969l-1.5 51.024a6.929 6.929 0 1 0 13.852 0l-1.5-51.024h.969a7.2 7.2 0 0 0 7.189-7.189v-37.357a1.75 1.75 0 0 0 -1.584-1.74zm-9.555 99.9a3.51 3.51 0 0 1 -4.92 0 3.4 3.4 0 0 1 -.968-2.489l1.745-59.313a1.683 1.683 0 0 1 3.365 0l1.746 59.319a3.4 3.4 0 0 1 -.971 2.487zm7.623-60.807a3.694 3.694 0 0 1 -3.689 3.689h-1.072l-.141-4.789a5.183 5.183 0 0 0 -10.361 0l-.141 4.789h-1.072a3.694 3.694 0 0 1 -3.69-3.685v-20.551l1.045 4.964a3.166 3.166 0 0 0 3.12 2.534 3.167 3.167 0 0 0 3.122-2.533l2.795-13.276 2.8 13.277a3.164 3.164 0 0 0 3.121 2.532 3.166 3.166 0 0 0 3.12-2.533l1.045-4.965z"/><path d="m35.428 11.773c-10.378 0-17.254 20.666-17.254 29.042a17.187 17.187 0 0 0 11.855 16.392l-1.529 51.887a6.928 6.928 0 1 0 13.851 0l-1.525-51.887a17.185 17.185 0 0 0 11.856-16.392c0-8.376-6.876-29.042-17.254-29.042zm2.459 99.913a3.509 3.509 0 0 1 -4.919 0 3.4 3.4 0 0 1 -.968-2.486l1.745-59.313a1.683 1.683 0 0 1 3.364 0l1.745 59.313a3.4 3.4 0 0 1 -.967 2.487zm2.831-58.173-.11-3.733a5.182 5.182 0 0 0 -10.36 0l-.11 3.734a13.7 13.7 0 0 1 -8.463-12.7c0-7.979 6.649-25.542 13.754-25.542s13.753 17.565 13.753 25.543a13.7 13.7 0 0 1 -8.465 12.699z"/></svg>