<svg id="Layer_1" height="512" viewBox="0 0 128 128" width="512" xmlns="http://www.w3.org/2000/svg" data-name="Layer 1"><path d="m91.627 40.99-12.877-14.65v-6.673a1.75 1.75 0 0 0 -1.75-1.75h-2.917v-4.394a1.75 1.75 0 0 0 -1.75-1.75h-16.666a1.75 1.75 0 0 0 -1.75 1.75v4.394h-2.917a1.75 1.75 0 0 0 -1.75 1.75v6.673l-12.877 14.65a6.527 6.527 0 0 0 -1.626 4.31v64.388a6.542 6.542 0 0 0 6.534 6.535h45.438a6.542 6.542 0 0 0 6.534-6.535v-64.388a6.527 6.527 0 0 0 -1.626-4.31zm-53.38 37.51h51.506v22.75h-51.506zm19.17-63.227h13.166v2.644h-13.166zm17.833 6.144v3.833h-22.5v-3.833zm-36.25 21.883 12.792-14.55h24.416l12.792 14.55a3.028 3.028 0 0 1 .755 2v29.7h-51.508v-29.7a3.028 3.028 0 0 1 .753-2zm47.717 69.426h-45.436a3.038 3.038 0 0 1 -3.034-3.035v-4.941h51.506v4.941a3.038 3.038 0 0 1 -3.034 3.036z"/><path d="m72.333 69.5h9.417a1.75 1.75 0 0 0 1.75-1.75v-20.125a1.753 1.753 0 0 0 -.434-1.153l-9.417-10.75a1.75 1.75 0 0 0 -3.066 1.153v30.875a1.75 1.75 0 0 0 1.75 1.75zm1.75-27.972 5.917 6.755v17.717h-5.917z"/></svg>