<?xml version="1.0" encoding="iso-8859-1"?>
<!-- Generator: Adobe Illustrator 19.0.0, SVG Export Plug-In . SVG Version: 6.00 Build 0)  -->
<svg xmlns="http://www.w3.org/2000/svg" xmlns:xlink="http://www.w3.org/1999/xlink" version="1.1" x="0px" y="0px" viewBox="0 0 348.16 348.16" style="enable-background:new 0 0 348.16 348.16;" xml:space="preserve">
<g>
	<g>
		<path d="M54.784,24.064h-10.24V15.36c0-3.072-2.048-5.12-5.12-5.12c-3.072,0-5.12,2.048-5.12,5.12v8.704h-10.24    c-3.072,0-5.12,2.048-5.12,5.12c0,2.56,2.56,5.12,5.12,5.12h10.24v8.704c0,3.072,2.048,5.12,5.12,5.12    c3.072,0,5.12-2.048,5.12-5.12v-8.704h10.24c3.072,0,5.12-2.048,5.12-5.12C59.904,26.112,57.856,24.064,54.784,24.064z"/>
	</g>
</g>
<g>
	<g>
		<path d="M343.04,51.712H332.8v-8.704c0-3.072-2.048-5.12-5.12-5.12c-3.072,0-5.12,2.048-5.12,5.12v8.704h-10.24    c-3.072,0-5.12,2.048-5.12,5.12c0,3.072,2.048,5.12,5.12,5.12h10.24v8.704c0,3.072,2.048,5.12,5.12,5.12    c3.072,0,5.12-2.048,5.12-5.12v-8.704h10.24c3.072,0,5.12-2.048,5.12-5.12C348.16,53.76,345.6,51.712,343.04,51.712z"/>
	</g>
</g>
<g>
	<g>
		<path d="M27.648,61.952h-6.144v-5.12c0-3.072-2.048-5.12-5.12-5.12s-5.12,2.048-5.12,5.12v5.12H5.12C2.048,61.952,0,64,0,67.072    c0,3.072,2.048,5.12,5.12,5.12h6.144v5.12c0,3.072,2.048,5.12,5.12,5.12s5.12-2.56,5.12-5.12v-5.12h6.144    c3.072,0,5.12-2.048,5.12-5.12C32.768,64,30.72,61.952,27.648,61.952z"/>
	</g>
</g>
<g>
	<g>
		<path d="M332.288,116.224c0-0.512-0.512-0.512-0.512-1.024c0-0.512-0.512-0.512-0.512-1.024L242.176,25.6    c0,0-0.512-0.512-1.024-0.512l-0.512-0.512c-0.512,0-0.512,0-1.024,0s-0.512,0-1.024,0h-125.44c-0.512,0-1.024,0-1.024,0    c-0.512,0-0.512,0-1.024,0c-0.512,0-1.024,0.512-1.536,1.024c0,0,0,0-0.512,0L20.48,114.176l-0.512,0.512    c0,0.512-0.512,0.512-0.512,1.024s0,0.512,0,1.024c0,0.512,0,0.512,0,1.024v125.952c0,0.512,0,0.512,0,1.024    c0,0.512,0,0.512,0,1.024c0,0.512,0.512,1.024,1.024,1.536l89.088,89.088c0,0,0.512,0.512,1.024,0.512    c0.512,0,0.512,0.512,1.024,0.512c0.512,0,1.024,0.512,1.536,0.512h125.44h0.512c0.512,0,1.024,0,1.024,0l0.512-0.512    c0.512,0,0.512-0.512,1.024-0.512l89.088-89.088c0.512-0.512,0.512-1.024,1.024-1.536c0-0.512,0-0.512,0-1.024s0-0.512,0-1.024    V117.76c0-0.512,0-0.512,0-1.024C332.8,116.736,332.8,116.736,332.288,116.224z M240.128,37.888l77.824,77.824l-69.12,24.576    l-38.4-38.4L240.128,37.888z M242.688,148.48v56.832L202.24,245.76h-56.832l-40.448-40.448V148.48l40.448-40.448h56.832    L242.688,148.48z M230.912,34.304l-29.696,64h-54.784l-25.6-64H230.912z M111.104,38.4l26.112,64l-38.4,38.4L33.28,116.224    L111.104,38.4z M29.184,125.44l65.536,24.576V204.8l-65.536,31.232V125.44z M111.104,323.584l-78.336-78.336l66.048-31.232    l38.4,38.4L111.104,323.584z M120.32,327.68l26.624-71.168h54.272l29.696,71.168H120.32z M240.64,323.584l-29.696-71.168    l38.4-38.4l69.632,31.232L240.64,323.584z M322.56,236.032L252.928,204.8v-54.784l69.632-25.088V236.032z"/>
	</g>
</g>
<g>
	<g>
		<path d="M158.72,123.392c-2.048-2.048-5.12-2.048-7.168,0l-31.232,29.696c-1.024,1.024-1.536,2.56-1.536,3.584v38.4    c0,3.072,2.048,5.12,5.12,5.12c3.072,0,5.12-2.048,5.12-5.12V158.72l29.696-28.16C160.768,128.512,160.768,125.44,158.72,123.392z    "/>
	</g>
</g>
</svg>
