<?xml version="1.0" encoding="iso-8859-1"?>
<!-- Generator: Adobe Illustrator 19.0.0, SVG Export Plug-In . SVG Version: 6.00 Build 0)  -->
<svg xmlns="http://www.w3.org/2000/svg" xmlns:xlink="http://www.w3.org/1999/xlink" version="1.1" x="0px" y="0px" viewBox="0 0 362.496 362.496" style="enable-background:new 0 0 362.496 362.496;" xml:space="preserve">
<g>
	<g>
		<path d="M354.048,31.744h-10.24V23.04c0-3.072-2.048-5.12-5.12-5.12c-3.072,0-5.12,2.048-5.12,5.12v8.704h-10.24    c-3.072,0-5.12,2.048-5.12,5.12c0,2.56,2.048,5.12,5.12,5.12h10.24v8.704c0,3.072,2.048,5.12,5.12,5.12    c3.072,0,5.12-2.048,5.12-5.12v-8.704h10.24c3.072,0,5.12-2.048,5.12-5.12S357.12,31.744,354.048,31.744z"/>
	</g>
</g>
<g>
	<g>
		<path d="M65.792,338.432h-10.24v-8.704c0-3.072-2.048-5.12-5.12-5.12c-3.072,0-5.12,2.048-5.12,5.12v8.704h-10.24    c-3.072,0-5.12,2.048-5.12,5.12s2.048,5.12,5.12,5.12h10.24v8.704c0,3.072,2.048,5.12,5.12,5.12c3.072,0,5.12-2.048,5.12-5.12    v-8.704h10.24c3.072,0,5.12-2.048,5.12-5.12S68.352,338.432,65.792,338.432z"/>
	</g>
</g>
<g>
	<g>
		<path d="M28.928,290.816h-6.144v-5.12c0-3.072-2.048-5.12-5.12-5.12c-3.072,0-5.12,2.048-5.12,5.12v5.12H6.4    c-3.072,0-5.12,2.048-5.12,5.12c0,3.072,2.048,5.12,5.12,5.12h6.144v5.12c0,3.072,2.048,5.12,5.12,5.12    c3.072,0,5.12-2.048,5.12-5.12v-5.12h6.144c3.072,0,5.12-2.048,5.12-5.12C34.048,292.864,32,290.816,28.928,290.816z"/>
	</g>
</g>
<g>
	<g>
		<path d="M310.016,51.2C277.248,18.432,233.216,0,186.624,0C140.032,0,96.512,17.92,63.232,51.2    c-32.768,32.768-51.2,76.8-51.2,123.392c0,46.592,17.92,90.112,51.2,123.392c32.768,32.768,76.8,51.2,123.392,51.2    c46.592,0,90.112-17.92,123.392-51.2c32.768-32.768,51.2-76.8,51.2-123.392C361.216,128,342.784,83.968,310.016,51.2z     M302.848,58.368c14.336,14.336,25.6,30.72,33.792,48.64l-80.384,29.184c-3.584-6.144-8.192-12.288-13.312-17.408    c-6.656-6.656-14.336-11.776-23.04-15.872l34.304-77.824C272.128,32.768,288.512,44.032,302.848,58.368z M255.744,174.592    c0,18.432-7.168,35.84-19.968,48.64s-30.72,19.968-49.152,19.968s-35.84-7.168-48.64-19.968    c-12.8-12.8-19.968-30.208-19.968-48.64c0-18.432,7.168-35.84,19.968-48.64c12.8-12.8,30.208-19.968,48.64-19.968    s35.84,7.168,48.64,19.968C248.064,138.752,255.744,156.16,255.744,174.592z M186.624,10.24c19.968,0,39.936,3.584,57.856,10.752    l-34.304,77.824c-7.68-2.56-15.36-3.584-23.552-3.584c-8.704,0-17.408,1.536-25.6,4.096L128.768,20.48    C147.2,13.824,166.656,10.24,186.624,10.24z M70.912,58.368c14.336-14.336,30.72-25.6,48.64-33.792l32.256,78.848    c-7.68,3.584-14.848,8.704-20.992,14.848c-5.632,5.632-10.24,11.776-13.824,18.432L37.12,106.496    C45.312,89.088,56.576,72.704,70.912,58.368z M22.784,174.592c0-19.968,3.584-39.936,10.752-57.856l79.36,29.696    c-3.584,8.704-5.12,18.432-5.12,28.16c0,7.168,1.024,14.336,3.072,20.992l-77.312,36.864    C26.368,214.016,22.784,194.56,22.784,174.592z M70.912,290.304c-14.336-14.336-25.6-30.72-33.792-48.64l76.8-36.864    c4.096,9.216,9.728,17.92,16.896,25.088c5.632,5.632,11.776,9.728,17.92,13.312l-29.696,79.872    C101.632,315.904,85.248,304.64,70.912,290.304z M186.624,338.432c-19.968,0-39.936-3.584-57.856-10.752l29.696-79.36    c9.216,3.584,18.432,5.12,28.672,5.12c8.704,0,16.896-1.536,25.088-4.096l32.768,78.336    C226.56,334.848,207.104,338.432,186.624,338.432z M302.848,290.304c-14.336,14.336-30.72,25.6-48.64,33.792L221.44,245.76    c7.68-3.584,14.848-8.704,21.504-15.36s12.288-14.848,15.872-23.552l77.312,34.816    C328.448,259.584,317.184,275.968,302.848,290.304z M262.4,197.632c2.048-7.168,3.584-15.36,3.584-23.04    c0-10.24-2.048-19.968-5.632-29.184l79.872-29.184c7.168,18.432,10.752,37.888,10.752,57.856c0,19.968-3.584,39.936-10.752,57.856    L262.4,197.632z"/>
	</g>
</g>
<g>
	<g>
		<path d="M185.088,119.808c-30.208,0-54.784,24.576-54.784,54.784c0,3.072,2.048,5.12,5.12,5.12c3.072,0,5.12-2.048,5.12-5.12    c0-24.576,19.968-44.544,44.544-44.544c3.072,0,5.12-2.048,5.12-5.12C190.208,122.368,188.16,119.808,185.088,119.808z"/>
	</g>
</g>
</svg>
