<?xml version="1.0" encoding="iso-8859-1"?>
<!-- Generator: Adobe Illustrator 19.0.0, SVG Export Plug-In . SVG Version: 6.00 Build 0)  -->
<svg xmlns="http://www.w3.org/2000/svg" xmlns:xlink="http://www.w3.org/1999/xlink" version="1.1" x="0px" y="0px" viewBox="0 0 354.816 354.816" style="enable-background:new 0 0 354.816 354.816;" xml:space="preserve">
<g>
	<g>
		<path d="M299.264,139.776h-10.24v-8.704c0-3.072-2.048-5.12-5.12-5.12c-3.072,0-5.12,2.048-5.12,5.12v8.704h-10.24    c-3.072,0-5.12,2.048-5.12,5.12c0,3.072,2.048,5.12,5.12,5.12h10.24v8.704c0,3.072,2.048,5.12,5.12,5.12    c3.072,0,5.12-2.048,5.12-5.12v-8.704h10.24c3.072,0,5.12-2.048,5.12-5.12C304.384,141.824,302.336,139.776,299.264,139.776z"/>
	</g>
</g>
<g>
	<g>
		<path d="M96,13.824H85.76V5.12c0-3.072-2.048-5.12-5.12-5.12c-3.072,0-5.12,2.048-5.12,5.12v8.704H65.28    c-3.072,0-5.12,2.048-5.12,5.12c0,3.072,2.048,5.12,5.12,5.12h10.24v8.704c0,3.072,2.048,5.12,5.12,5.12    c3.072,0,5.12-2.048,5.12-5.12v-8.704H96c3.072,0,5.12-2.048,5.12-5.12C101.12,15.872,99.072,13.824,96,13.824z"/>
	</g>
</g>
<g>
	<g>
		<path d="M38.144,65.536H32v-5.12c0-3.072-2.048-5.12-5.12-5.12c-3.072,0-5.12,2.048-5.12,5.12v5.12h-6.144    c-3.072,0-5.12,2.048-5.12,5.12s2.56,5.12,5.12,5.12h6.144v5.12c0,3.072,2.048,5.12,5.12,5.12c3.072,0,5.12-2.048,5.12-5.12v-5.12    h6.144c3.072,0,5.12-2.048,5.12-5.12S41.216,65.536,38.144,65.536z"/>
	</g>
</g>
<g>
	<g>
		<path d="M348.928,180.736c0-0.512,0-1.024,0-1.024V179.2c0,0,0,0,0-0.512L284.416,64c-1.024-1.536-2.56-2.56-4.608-2.56H73.472    c-2.048,0-3.584,1.024-4.608,2.56L5.376,178.688c0,0,0,0,0,0.512v0.512c0,0.512,0,1.024,0,1.024s0,0,0,0.512c0,0,0,0,0,0.512    c0,0.512,0,1.024,0.512,1.536v0.512c0,0.512,0.512,1.024,1.024,1.536L173.824,353.28c1.024,1.024,2.048,1.536,3.584,1.536    c1.536,0,2.56-0.512,3.584-1.536l166.912-167.936c0.512-0.512,0.512-1.024,1.024-1.536v-0.512c0-0.512,0-1.024,0.512-1.536    C348.928,181.248,348.928,181.248,348.928,180.736z M76.544,71.68h90.624l-57.344,103.936H18.688L76.544,71.68z M174.848,78.848    l53.248,97.28H121.6L174.848,78.848z M22.272,185.856h87.04l53.76,141.312L22.272,185.856z M174.848,331.264l-54.784-145.408    h110.08L174.848,331.264z M185.088,333.312l55.808-147.456h90.624L185.088,333.312z M239.872,175.616L183.04,71.68h94.208    l57.856,103.936H239.872z"/>
	</g>
</g>
<g>
	<g>
		<path d="M92.416,87.04c-2.56-1.536-5.632-0.512-7.168,2.048l-32.256,55.808c-1.536,2.56-0.512,5.632,2.048,7.168    c1.024,0.512,1.536,0.512,2.56,0.512c1.536,0,3.584-1.024,4.608-2.56l32.256-55.808C95.488,91.648,94.464,88.576,92.416,87.04z"/>
	</g>
</g>
</svg>
