<?xml version="1.0" encoding="iso-8859-1"?>
<!-- Generator: Adobe Illustrator 19.0.0, SVG Export Plug-In . SVG Version: 6.00 Build 0)  -->
<svg xmlns="http://www.w3.org/2000/svg" xmlns:xlink="http://www.w3.org/1999/xlink" version="1.1" x="0px" y="0px" viewBox="0 0 386.56 386.56" style="enable-background:new 0 0 386.56 386.56;" xml:space="preserve">
<g>
	<g>
		<path d="M203.518,85.504l43.52-43.52c0.512-0.512,0.512-1.024,1.024-1.536v-0.512c0-0.512,0-1.024,0.512-1.536c0,0,0,0,0-0.512    c0,0,0,0,0-0.512c0-0.512,0-1.024,0-1.024V35.84c0,0,0,0,0-0.512L230.142,2.56c-1.024-1.536-2.56-2.56-4.608-2.56H165.63    c-2.048,0-3.584,1.024-4.608,2.56L142.59,35.328c0,0,0,0,0,0.512v0.512c0,0.512,0,1.024,0,1.024s0,0,0,0.512c0,0,0,0,0,0.512    c0,0.512,0,1.024,0.512,1.536v0.512c0,0.512,0.512,1.024,1.024,1.536l43.008,43.52C106.75,89.088,42.75,155.136,42.75,236.032    c0,82.944,67.584,150.528,150.528,150.528s150.528-67.584,150.528-150.528C344.318,156.16,281.854,90.624,203.518,85.504z     M207.102,67.072l9.216-24.064h14.336L207.102,67.072z M221.95,10.24l12.288,22.528h-18.432L203.518,10.24H221.95z M204.03,32.768    h-18.432l9.216-16.384L204.03,32.768z M168.702,10.24h17.408l-12.288,22.528h-17.92L168.702,10.24z M159.486,43.008h13.824    l8.192,22.016L159.486,43.008z M184.574,43.008h20.48l-10.24,27.648L184.574,43.008z M193.278,376.32    c-77.312,0-140.288-62.976-140.288-140.288S115.966,95.744,193.278,95.744s140.288,62.976,140.288,140.288    C334.078,313.344,271.102,376.32,193.278,376.32z"/>
	</g>
</g>
</svg>
