<?xml version="1.0" encoding="iso-8859-1"?>
<!-- Generator: Adobe Illustrator 19.0.0, SVG Export Plug-In . SVG Version: 6.00 Build 0)  -->
<svg xmlns="http://www.w3.org/2000/svg" xmlns:xlink="http://www.w3.org/1999/xlink" version="1.1" x="0px" y="0px" viewBox="0 0 361.984 361.984" style="enable-background:new 0 0 361.984 361.984;" xml:space="preserve">
<g>
	<g>
		<path d="M329.984,168.96h-10.24v-8.704c0-3.072-2.048-5.12-5.12-5.12c-3.072,0-5.12,2.048-5.12,5.12v8.704h-10.24    c-3.072,0-5.12,2.048-5.12,5.12c0,3.072,2.048,5.12,5.12,5.12h10.24v8.704c0,3.072,2.048,5.12,5.12,5.12    c2.56,0,5.12-2.048,5.12-5.12V179.2h10.24c3.072,0,5.12-2.048,5.12-5.12C335.104,171.008,333.056,168.96,329.984,168.96z"/>
	</g>
</g>
<g>
	<g>
		<path d="M89.344,13.824h-10.24V5.12c0-3.072-2.048-5.12-5.12-5.12s-5.12,2.048-5.12,5.12v8.704h-10.24    c-3.072,0-5.12,2.048-5.12,5.12c0,3.072,2.048,5.12,5.12,5.12h10.24v8.704c0,3.072,2.048,5.12,5.12,5.12s5.12-2.048,5.12-5.12    v-8.704h10.24c3.072,0,5.12-2.048,5.12-5.12C94.464,15.872,92.416,13.824,89.344,13.824z"/>
	</g>
</g>
<g>
	<g>
		<path d="M41.216,41.472h-6.144v-5.12c0-3.072-2.048-5.12-5.12-5.12s-5.12,2.048-5.12,5.12v5.12h-6.144    c-3.072,0-5.12,2.048-5.12,5.12c0,3.072,2.048,5.12,5.12,5.12h6.144v5.12c0,3.072,2.048,5.12,5.12,5.12s5.12-2.048,5.12-5.12    v-5.12h6.144c3.072,0,5.12-2.56,5.12-5.12C46.336,43.52,44.288,41.472,41.216,41.472z"/>
	</g>
</g>
<g>
	<g>
		<path d="M343.296,219.136h-6.144v-5.12c0-3.072-2.048-5.12-5.12-5.12c-3.072,0-5.12,2.048-5.12,5.12v5.12h-6.144    c-3.072,0-5.12,2.048-5.12,5.12c0,3.072,2.048,5.12,5.12,5.12h6.144v5.12c0,3.072,2.048,5.12,5.12,5.12    c3.072,0,5.12-2.048,5.12-5.12v-5.12h6.144c3.072,0,5.12-2.048,5.12-5.12C348.416,221.696,345.856,219.136,343.296,219.136z"/>
	</g>
</g>
<g>
	<g>
		<path d="M279.296,81.408c0-0.512-0.512-1.024-0.512-1.536c-0.512-0.512-0.512-1.024-1.024-1.024L163.584,7.68h-0.512h-0.512    c-0.512,0-1.024-0.512-1.536-0.512c-0.512,0-1.024,0-1.536,0.512h-0.512h-0.512L45.312,78.336    c-0.512,0.512-1.024,0.512-1.024,1.024c-0.512,0.512-0.512,1.024-0.512,1.536v0.512v0.512v204.8v0.512v0.512    c0,0.512,0.512,1.024,0.512,1.536c0,0,0,0,0.512,0.512l0.512,0.512l0.512,0.512c0,0,0,0,0.512,0.512l113.152,70.144H160h0.512    c0.512,0,1.024,0.512,1.536,0.512c0.512,0,1.024,0,1.536-0.512h0.512h0.512l113.152-70.144c0,0,0,0,0.512-0.512l0.512-0.512    l0.512-0.512c0,0,0,0,0.512-0.512c0.512-0.512,0.512-1.024,0.512-1.536v-0.512v-0.512V82.432    C279.296,82.432,279.296,81.92,279.296,81.408z M166.144,21.504l98.816,60.928l-42.496,27.136l-56.32-32.256V21.504z     M155.904,21.504v55.808l-56.32,32.256L57.088,82.432L155.904,21.504z M52.992,92.16l41.472,26.624v131.584l-41.472,26.624    C52.992,276.992,52.992,92.16,52.992,92.16z M156.416,348.16h-0.512L57.6,286.72l42.496-27.136l56.32,32.256V348.16z     M161.024,283.136l-56.32-32.768V118.784l56.32-32.768l56.32,32.768v131.584L161.024,283.136z M166.144,348.16v-56.32    l56.32-32.256l42.496,27.136L166.144,348.16z M269.056,277.504l-41.472-26.624V118.784l41.472-26.624V277.504z"/>
	</g>
</g>
<g>
	<g>
		<path d="M165.632,104.96c-1.536-2.048-4.608-3.072-7.168-1.536l-38.4,22.016c-1.536,1.024-2.56,2.56-2.56,4.608v94.72    c0,3.072,2.048,5.12,5.12,5.12c3.072,0,5.12-2.048,5.12-5.12v-92.16l35.84-20.48C166.144,110.592,166.656,107.52,165.632,104.96z"/>
	</g>
</g>
</svg>
