<?xml version="1.0" encoding="iso-8859-1"?>
<!-- Generator: Adobe Illustrator 19.0.0, SVG Export Plug-In . SVG Version: 6.00 Build 0)  -->
<svg xmlns="http://www.w3.org/2000/svg" xmlns:xlink="http://www.w3.org/1999/xlink" version="1.1" x="0px" y="0px" viewBox="0 0 353.792 353.792" style="enable-background:new 0 0 353.792 353.792;" xml:space="preserve">
<g>
	<g>
		<path d="M343.552,237.056h-10.24v-8.704c0-3.072-2.048-5.12-5.12-5.12c-3.072,0-5.12,2.048-5.12,5.12v8.704h-10.24    c-3.072,0-5.12,2.048-5.12,5.12c0,3.072,2.048,5.12,5.12,5.12h10.24V256c0,3.072,2.048,5.12,5.12,5.12    c3.072,0,5.12-2.048,5.12-5.12v-8.704h10.24c3.072,0,5.12-2.048,5.12-5.12S346.112,237.056,343.552,237.056z"/>
	</g>
</g>
<g>
	<g>
		<path d="M284.672,311.296h-6.144v-5.12c0-3.072-2.048-5.12-5.12-5.12c-3.072,0-5.12,2.048-5.12,5.12v5.12h-6.144    c-3.072,0-5.12,2.048-5.12,5.12c0,3.072,2.048,5.12,5.12,5.12h6.144v5.12c0,3.072,2.048,5.12,5.12,5.12    c3.072,0,5.12-2.048,5.12-5.12v-5.12h6.144c3.072,0,5.12-2.048,5.12-5.12C289.792,313.344,287.232,311.296,284.672,311.296z"/>
	</g>
</g>
<g>
	<g>
		<path d="M63.488,13.824h-6.144v-5.12c0-3.072-2.048-5.12-5.12-5.12c-3.072,0-5.12,2.048-5.12,5.12v5.12H40.96    c-3.072,0-5.12,2.048-5.12,5.12s2.048,5.12,5.12,5.12h6.144v5.12c0,3.072,2.048,5.12,5.12,5.12c3.072,0,5.12-2.048,5.12-5.12    v-5.12h6.144c3.072,0,5.12-2.048,5.12-5.12S66.56,13.824,63.488,13.824z"/>
	</g>
</g>
<g>
	<g>
		<path d="M294.4,91.136c0-0.512-0.512-1.024-0.512-1.536c-0.512-0.512-0.512-1.024-1.024-1.024c0,0,0,0-0.512,0L152.064,0.512    h-0.512h-0.512c-0.512,0-1.024-0.512-1.536-0.512c-0.512,0-1.024,0-1.536,0.512h-0.512h-0.512L6.656,87.552    c-0.512,0.512-1.024,0.512-1.024,1.024C5.12,89.088,5.12,89.6,5.12,90.112v0.512v0.512v170.496v0.512v0.512    c0,0.512,0.512,1.024,0.512,1.536c0,0,0,0,0.512,0.512l0.512,0.512l0.512,0.512c0,0,0,0,0.512,0.512l140.288,87.04h0.512h0.512    c0.512,0,1.024,0.512,1.536,0.512c0.512,0,1.024,0,1.536-0.512h0.512h0.512l140.288-87.04c0,0,0,0,0.512-0.512l0.512-0.512    l0.512-0.512c0,0,0,0,0.512-0.512c0.512-0.512,0.512-1.024,0.512-1.536v-0.512v-0.512V92.16    C294.4,92.16,294.4,91.648,294.4,91.136z M154.112,14.336L280.064,92.16l-54.784,35.328l-71.168-40.96V14.336z M143.872,14.336    v72.192l-71.168,40.96L17.92,92.16L143.872,14.336z M13.824,101.376l53.76,34.816v81.92l-53.76,35.328V101.376z M144.384,340.992    h-0.512l-125.44-78.336l54.784-35.328l71.168,40.96V340.992z M148.992,259.584l-71.168-40.96v-81.92l71.168-40.96l71.168,40.96    v81.92L148.992,259.584z M154.112,340.992v-72.704l71.168-40.96l54.784,35.328L154.112,340.992z M284.16,253.44l-53.76-34.816    v-82.432l53.76-34.816V253.44z"/>
	</g>
</g>
<g>
	<g>
		<path d="M137.728,128.512c-1.536-2.56-4.608-3.584-7.168-2.048L94.72,145.92c-1.536,1.024-2.56,2.56-2.56,4.608v43.008    c0,3.072,2.048,5.12,5.12,5.12c3.072,0,5.12-2.048,5.12-5.12V153.6l33.28-17.92C138.24,134.144,139.264,131.072,137.728,128.512z"/>
	</g>
</g>
</svg>
