<?xml version="1.0" encoding="iso-8859-1"?>
<!-- Generator: Adobe Illustrator 19.0.0, SVG Export Plug-In . SVG Version: 6.00 Build 0)  -->
<svg version="1.1" xmlns="http://www.w3.org/2000/svg" xmlns:xlink="http://www.w3.org/1999/xlink" x="0px" y="0px"
	 viewBox="0 0 512 512" style="enable-background:new 0 0 512 512;" xml:space="preserve">
<g>
	<g>
		<path d="M504,456H376V8c0-4.418-3.582-8-8-8H144c-4.418,0-8,3.582-8,8v448H8c-4.418,0-8,3.582-8,8v40c0,4.418,3.582,8,8,8h496
			c4.418,0,8-3.582,8-8v-40C512,459.582,508.418,456,504,456z M152,16h208v440H152V16z M496,496H16v-24h480V496z"/>
	</g>
</g>
<g>
	<g>
		<path d="M344,24H168c-4.418,0-8,3.582-8,8v408c0,4.418,3.582,8,8,8h176c4.418,0,8-3.582,8-8V32C352,27.582,348.418,24,344,24z
			 M336,432H176V40h160V432z"/>
	</g>
</g>
<g>
	<g>
		<path d="M312,200c-4.418,0-8,3.582-8,8v80c0,4.418,3.582,8,8,8s8-3.582,8-8v-80C320,203.582,316.418,200,312,200z"/>
	</g>
</g>
</svg>
