<?xml version="1.0" encoding="iso-8859-1"?>
<!-- Generator: Adobe Illustrator 19.0.0, SVG Export Plug-In . SVG Version: 6.00 Build 0)  -->
<svg version="1.1" xmlns="http://www.w3.org/2000/svg" xmlns:xlink="http://www.w3.org/1999/xlink" x="0px" y="0px"
	 viewBox="0 0 512 512" style="enable-background:new 0 0 512 512;" xml:space="preserve">
<g>
	<g>
		<g>
			<path d="M384,0H128c-4.418,0-8,3.582-8,8v496c0,4.418,3.582,8,8,8h256c4.418,0,8-3.582,8-8V8C392,3.582,388.418,0,384,0z
				 M376,496H136V16h240V496z"/>
			<path d="M352,304c4.418,0,8-3.582,8-8v-80c0-4.418-3.582-8-8-8s-8,3.582-8,8v80C344,300.418,347.582,304,352,304z"/>
			<path d="M160,96c2.122,0,4.156-0.844,5.656-2.344l56-56c3.178-3.069,3.266-8.134,0.197-11.312s-8.134-3.266-11.312-0.197
				c-0.067,0.064-0.132,0.13-0.197,0.197l-56,56c-3.124,3.125-3.123,8.19,0.002,11.314C155.846,95.157,157.879,96,160,96z"/>
			<path d="M160,144c2.122,0,4.156-0.844,5.656-2.344l80-80c3.178-3.069,3.266-8.134,0.197-11.312s-8.134-3.266-11.312-0.197
				c-0.067,0.064-0.132,0.13-0.197,0.197l-80,80c-3.124,3.125-3.123,8.19,0.002,11.314C155.846,143.157,157.879,144,160,144z"/>
			<path d="M272,432c2.122,0,4.156-0.844,5.656-2.344l56-56c3.07-3.178,2.982-8.242-0.196-11.312c-3.1-2.995-8.016-2.995-11.116,0
				l-56,56c-3.124,3.125-3.123,8.19,0.002,11.314C267.846,431.157,269.879,432,272,432z"/>
			<path d="M272,480c2.122,0,4.156-0.844,5.656-2.344l80-80c3.07-3.178,2.982-8.242-0.196-11.312c-3.1-2.995-8.016-2.995-11.116,0
				l-80,80c-3.124,3.125-3.123,8.19,0.002,11.314C267.846,479.157,269.879,480,272,480z"/>
		</g>
	</g>
</g>
</svg>
