<?xml version="1.0" encoding="iso-8859-1"?>
<!-- Generator: Adobe Illustrator 19.0.0, SVG Export Plug-In . SVG Version: 6.00 Build 0)  -->
<svg version="1.1" id="Layer_1" xmlns="http://www.w3.org/2000/svg" xmlns:xlink="http://www.w3.org/1999/xlink" x="0px" y="0px"
	 viewBox="0 0 512 512" style="enable-background:new 0 0 512 512;" xml:space="preserve">
<g>
	<g>
		<path d="M511.947,322.111c-0.029-1.102-0.238-2.183-0.649-3.22c-0.094-0.236-0.234-0.432-0.345-0.66
			c-0.227-0.463-0.412-0.942-0.716-1.37L415.421,184.12c-1.782-2.496-4.658-3.972-7.718-3.972H274.963
			c-5.236,0-9.481,4.245-9.481,9.482s4.245,9.481,9.481,9.481h127.861l81.269,113.778H27.907l81.269-113.778h108.898
			c5.236,0,9.481-4.245,9.481-9.481s-4.245-9.482-9.481-9.482H104.296c-3.06,0-5.935,1.477-7.718,3.972L1.764,316.861
			c-0.304,0.428-0.49,0.907-0.716,1.37c-0.111,0.228-0.251,0.424-0.345,0.66c-0.411,1.037-0.62,2.118-0.649,3.22
			C0.05,322.203,0,322.279,0,322.37v151.704c0,5.236,4.245,9.481,9.482,9.481h493.037c5.236,0,9.482-4.245,9.482-9.481V322.37
			C512,322.279,511.95,322.203,511.947,322.111z M493.037,464.593H18.963V331.852h474.074V464.593z"/>
	</g>
</g>
<g>
	<g>
		<path d="M256,360.296c-20.912,0-37.926,17.014-37.926,37.926s17.014,37.926,37.926,37.926s37.926-17.014,37.926-37.926
			S276.912,360.296,256,360.296z M256,417.185c-10.458,0-18.963-8.505-18.963-18.963s8.505-18.963,18.963-18.963
			s18.963,8.505,18.963,18.963S266.458,417.185,256,417.185z"/>
	</g>
</g>
<g>
	<g>
		<path d="M292.028,212.384c-3.134-4.176-9.06-5.046-13.273-1.893L256,227.557V28.444h-18.963v199.112l-22.755-17.066
			c-4.199-3.153-10.134-2.282-13.273,1.893c-3.144,4.19-2.296,10.134,1.893,13.273l37.926,28.444c1.685,1.264,3.69,1.898,5.69,1.898
			c2,0,4.005-0.634,5.69-1.898l37.926-28.444C294.324,222.518,295.171,216.574,292.028,212.384z"/>
	</g>
</g>
<g>
	<g>
		<rect x="417.185" y="350.815" width="28.444" height="18.963"/>
	</g>
</g>
<g>
	<g>
		<rect x="417.185" y="388.741" width="28.444" height="18.963"/>
	</g>
</g>
<g>
	<g>
		<rect x="417.185" y="426.667" width="28.444" height="18.963"/>
	</g>
</g>
</svg>
