<svg xmlns="http://www.w3.org/2000/svg" width="88" height="88" data-name="Layer 1" viewBox="0 0 88 88"><path d="M78.57,57.05a.13.13,0,0,0,0-.06.51.51,0,0,0,0-.13l0-.07a.61.61,0,0,0-.05-.12l0-.06-.08-.11s0,0,0,0l0,0a.1.1,0,0,0,0-.05,24.94,24.94,0,0,1-4.09-5.17,30.36,30.36,0,0,1-2-4.12,9.27,9.27,0,0,0-9.21-7.48v-.15a2.14,2.14,0,0,0-1.09-1.89V28.8a2.15,2.15,0,0,0-2.14-2.16H51.42l.25-.57c1.07-2.3,2.36-4.48,3.51-6.73.27-.52.54-1.05.79-1.59A7.45,7.45,0,0,0,56.65,16,2.14,2.14,0,0,0,55,13.38a13.56,13.56,0,0,0-3.75-.44,7.83,7.83,0,0,0-3.35,1c-1.81.95-3.87,2.79-6,1.89-1.05-.44-2.16-1-3.14,0A5.53,5.53,0,0,0,37.49,19a17.22,17.22,0,0,0,1.16,7.34l.09.27H29.07a2.15,2.15,0,0,0-2.14,2.16v8.79a2.16,2.16,0,0,0-1.09,1.89v.14H25.2a9.38,9.38,0,0,0-9.35,7.52,29.89,29.89,0,0,1-2,4.09A24.94,24.94,0,0,1,9.74,56.4s0,0,0,0l0,0,0,0-.06.09-.05.09,0,.09,0,.09s0,.07,0,.1a.31.31,0,0,0,0,.1.28.28,0,0,0,0,.09.41.41,0,0,0,0,.11.28.28,0,0,0,0,.09.36.36,0,0,0,0,.1l0,.09a1,1,0,0,1,0,.1l.05.07.06.1,0,0,0,0,0,0a24.94,24.94,0,0,1,4.09,5.17A30.66,30.66,0,0,1,15.77,67a9.34,9.34,0,0,0,9.43,8.08H62.8A9.26,9.26,0,0,0,72.22,67a29.69,29.69,0,0,1,2-3.91,24.94,24.94,0,0,1,4.09-5.17l0,0,0,0s0,0,0-.05l0-.06a.3.3,0,0,0,.06-.11l0-.06a.93.93,0,0,0,0-.13s0,0,0-.06,0-.09,0-.13v-.07A.57.57,0,0,0,78.57,57.05ZM15.72,62.44,15.47,62a27.24,27.24,0,0,0-3.67-4.84,26.81,26.81,0,0,0,3.67-4.83l.25-.44Zm44-34.15a.56.56,0,0,1,.59.51v8.56H59.09V30.71a1.8,1.8,0,0,0-1.79-1.8H50.58a5.8,5.8,0,0,1,.2-.63h8.91Zm-1.76,2.42v6.65H50.38A21.54,21.54,0,0,1,50.14,31c0-.29.08-.58.13-.86h7A.61.61,0,0,1,57.93,30.71ZM39.27,18.88a5.24,5.24,0,0,1,.43-1.41c.23-.48.44-.44.9-.26a9.63,9.63,0,0,0,1.43.56,5,5,0,0,0,1.76.05,8.65,8.65,0,0,0,3-1.15,19,19,0,0,1,2.83-1.55,6.85,6.85,0,0,1,3.24-.24c.51.06,1,.15,1.52.26s.65.09.53.57a8,8,0,0,1-.61,1.44c-.27.57-.55,1.12-.84,1.67C52.34,21,51.13,23,50.13,25.22a18.33,18.33,0,0,0-1.72,5.62,23.37,23.37,0,0,0,.2,6.52H40.68A27.71,27.71,0,0,0,41.57,32a9.59,9.59,0,0,0-.26-2.88c-.58-2.38-1.58-4.64-2-7.06A9.05,9.05,0,0,1,39.27,18.88Zm.58,12.28a22.93,22.93,0,0,1-1,6.2h-8V30.71a.61.61,0,0,1,.63-.57h8.28v0l.06.36C39.82,30.74,39.84,31,39.85,31.16ZM28.48,28.8a.56.56,0,0,1,.59-.51H39a.85.85,0,0,0,.23,0c.07.22.13.44.19.66h-8a1.79,1.79,0,0,0-1.79,1.8v6.65H28.48ZM27.4,39.48a.46.46,0,0,1,.42-.48H60.94a.46.46,0,0,1,.42.48v.14h-34ZM70.34,66a5.17,5.17,0,0,1,0,.54s0,.06,0,.09A7.37,7.37,0,0,1,62.8,73H25.2a7.36,7.36,0,0,1-7.5-6.28v0c0-.22,0-.44,0-.66V48.65a6.79,6.79,0,0,1,.09-1h0a7.39,7.39,0,0,1,7.45-5.94H62.8a7.43,7.43,0,0,1,7.44,5.88.43.43,0,0,0,0,.11,6.17,6.17,0,0,1,.08,1Zm2.19-4c-.09.14-.17.29-.25.44V51.89l.25.44a26.81,26.81,0,0,0,3.67,4.83A27.24,27.24,0,0,0,72.53,62Z"/></svg>