<?xml version="1.0" encoding="iso-8859-1"?>
<!-- Generator: Adobe Illustrator 19.0.0, SVG Export Plug-In . SVG Version: 6.00 Build 0)  -->
<svg xmlns="http://www.w3.org/2000/svg" xmlns:xlink="http://www.w3.org/1999/xlink" version="1.1" x="0px" y="0px" viewBox="0 0 318.464 318.464" style="enable-background:new 0 0 318.464 318.464;" xml:space="preserve">
<g>
	<g>
		<path d="M116.48,185.344c12.288-3.072,20.992-14.336,20.992-27.136c0-13.312-19.968-53.76-23.552-60.416    c2.048-1.536,3.072-3.584,3.072-6.144s-1.024-4.608-2.56-6.144V68.608c3.072-0.512,7.68-2.56,11.776-6.144    c7.168-6.656,11.264-17.92,11.264-33.28v-2.048c0-14.848-11.776-26.624-26.624-26.624S84.224,12.288,84.224,27.136v1.024    c0,0-1.024,0.512-2.048,0.512c-3.072,0-5.12,2.56-4.608,5.632c0,3.072,2.56,5.12,5.632,4.608c5.12-0.512,8.192-2.56,9.728-4.096    c1.024-3.072,1.024-6.144,1.024-7.68c0-9.216,7.68-16.384,16.384-16.384c9.216,0,16.384,7.168,16.384,16.384v2.048    c0,11.776-2.56,20.48-7.68,25.6c-4.608,4.096-9.216,4.096-9.728,4.096c-1.536,0-3.072,0.512-4.096,1.536    c-0.512,1.024-1.024,2.048-1.024,3.584v21.504c-2.048,1.536-3.072,3.584-3.072,6.144s1.024,4.608,3.072,6.144    c-3.584,6.656-23.552,47.104-23.552,60.416c0,12.8,8.704,24.064,20.48,27.136c-9.216,19.456-34.816,72.192-34.816,90.624    c0,23.552,18.944,42.496,42.496,42.496c23.552,0,42.496-18.944,42.496-42.496C151.296,257.536,125.696,204.288,116.48,185.344z     M91.392,158.208c0-7.168,9.728-29.696,17.92-47.104c8.192,17.408,17.92,39.936,17.92,47.104c0,9.728-8.192,17.92-17.92,17.92    C99.072,176.128,91.392,168.448,91.392,158.208z M109.312,308.736c-17.92,0-32.256-14.336-32.256-32.256    c0-13.824,20.48-58.88,32.256-83.456c11.776,24.576,32.256,69.12,32.256,83.456C141.568,294.4,127.232,308.736,109.312,308.736z"/>
	</g>
</g>
<g>
	<g>
		<path d="M216.32,185.344c11.776-3.584,20.48-14.336,20.48-27.136c0-13.312-20.992-55.296-23.552-60.928    c1.536-1.536,2.56-3.584,2.56-6.144s-1.024-4.608-3.072-6.144V68.096c3.072-0.512,7.68-2.56,11.264-6.144    c7.168-6.656,10.752-17.92,10.752-33.28v-2.048c0-7.168-3.072-13.824-8.192-18.944C221.44,2.56,214.784,0,207.616,0    c-14.848,0-26.624,12.288-26.112,27.648c0,0.512,0,1.024-2.56,1.024c-3.072,0-5.12,2.56-4.608,5.632    c0,3.072,2.56,5.12,5.632,4.608c5.12-0.512,8.192-2.56,9.728-4.608c2.56-3.072,2.56-6.656,2.56-7.68    c0-9.216,7.168-16.384,16.384-16.384c4.608,0,8.704,1.536,11.776,4.608c3.072,3.072,5.12,7.168,5.12,11.776v2.048    c0,11.776-2.56,20.48-7.168,25.6c-4.608,4.096-9.216,4.096-9.216,4.096c-1.536,0-2.56,0.512-4.096,1.536    c-1.024,1.024-1.536,2.56-1.536,3.584l0.512,21.504c-1.536,1.536-3.072,3.584-3.072,6.144s1.536,5.12,3.584,6.656    c-4.096,7.68-23.04,47.104-23.04,59.904c0,12.8,8.704,24.064,20.48,27.136c-9.216,19.456-34.816,72.192-34.816,90.624    c0,23.552,18.944,42.496,42.496,42.496s42.496-18.944,42.496-42.496C251.136,258.048,226.048,204.8,216.32,185.344z     M190.72,158.208c0-7.168,9.728-29.696,17.92-47.104c8.192,17.408,17.92,39.936,17.92,47.104c0,9.728-8.192,17.92-17.92,17.92    S190.72,168.448,190.72,158.208z M208.64,308.736c-17.92,0-32.256-14.336-32.256-32.256c0-13.824,20.48-58.88,32.256-83.456    c11.776,24.576,32.256,69.12,32.256,83.456C240.896,293.888,226.56,308.736,208.64,308.736z"/>
	</g>
</g>
</svg>
