<?xml version="1.0" encoding="iso-8859-1"?>
<!-- Generator: Adobe Illustrator 19.0.0, SVG Export Plug-In . SVG Version: 6.00 Build 0)  -->
<svg xmlns="http://www.w3.org/2000/svg" xmlns:xlink="http://www.w3.org/1999/xlink" version="1.1" x="0px" y="0px" viewBox="0 0 358.912 358.912" style="enable-background:new 0 0 358.912 358.912;" xml:space="preserve">
<g>
	<g>
		<path d="M211.456,243.296l-12.288-44.544c0-0.512-0.512-0.512-0.512-1.024c0-0.512-0.512-0.512-0.512-1.024c0,0,0,0,0-0.512    c-0.512-0.512-0.512-0.512-1.024-0.512h-0.512c-0.512,0-1.024-0.512-1.536-0.512h-83.456l-29.184-28.672l27.648-27.648    c5.12-5.12,8.192-12.288,8.192-19.456c0-7.68-3.072-14.336-8.192-19.456s-12.288-8.192-19.456-8.192    c-7.68,0-14.336,3.072-19.456,8.192s-8.192,12.288-8.192,19.456c0,7.68,3.072,14.336,8.192,19.456c2.048,2.048,5.12,2.048,7.168,0    c2.048-2.048,2.048-5.12,0-7.168c-3.072-3.072-5.12-7.68-5.12-12.288s2.048-9.216,5.12-12.288c6.656-6.656,17.92-6.656,25.088,0    c6.656,6.656,6.656,17.92,0,25.088l-28.16,27.136L39.424,124c-2.048-2.048-5.12-2.048-7.168,0c-2.048,2.048-2.048,5.12,0,7.168    l35.84,35.328l-28.16,28.16c-6.656,6.656-17.92,6.656-25.088,0c-6.656-6.656-6.656-17.92,0-25.088    c6.656-6.656,18.432-6.656,25.088,0c2.048,2.048,5.12,2.048,7.168,0c2.048-2.048,2.048-5.12,0-7.168    c-5.12-5.12-12.288-8.192-19.456-8.192c-7.68,0-14.336,3.072-19.456,8.192S0,174.688,0,181.856c0,7.68,3.072,14.336,8.192,19.456    s12.288,8.192,19.456,8.192c7.68,0,14.336-3.072,19.456-8.192l28.16-28.16l28.16,28.16l0.512,83.968c0,0.512,0,1.024,0.512,1.536    v0.512c0,0.512,0.512,1.024,0.512,1.024s0,0,0.512,0c0.512,0.512,0.512,0.512,1.024,0.512c0,0,0.512,0,0.512,0.512    c0,0,0,0,0.512,0l45.056,12.8c0.512,0,1.024,0,1.536,0c1.536,0,2.56-0.512,3.584-1.536l52.224-52.224    C211.456,246.88,211.968,245.344,211.456,243.296z M181.248,205.408l-14.336,14.848l-33.792-14.848H181.248z M158.72,227.936    l-21.504,21.504l-16.896-38.912L158.72,227.936z M114.176,221.792l15.872,35.328l-15.872,15.872V221.792z M153.088,292.448    l-33.792-9.728l18.944-18.944l33.792,9.728L153.088,292.448z M145.92,256.096l19.456-19.968l7.68,27.648L145.92,256.096z     M183.296,261.728l-9.728-33.792l17.92-17.92l9.728,33.792L183.296,261.728z"/>
	</g>
</g>
<g>
	<g>
		<path d="M350.72,158.304c-11.264-11.264-28.672-11.264-39.424-0.512l-28.16,28.16l-28.16-28.16l-0.512-83.968    c0-0.512,0-1.024-0.512-1.536v-0.512c0-0.512-0.512-1.024-0.512-1.024s0,0-0.512,0c-0.512-0.512-0.512-0.512-1.024-0.512    c0,0-0.512,0-0.512-0.512c0,0,0,0-0.512,0l-45.056-12.8c-1.536-0.512-3.584,0-5.12,1.536l-52.736,51.712    c-1.536,1.536-2.048,3.072-1.536,5.12l12.8,45.056c0,0,0,0,0,0.512c0,0,0,0.512,0.512,0.512c0,0.512,0.512,0.512,0.512,1.024    c0,0,0,0,0,0.512c0.512,0.512,0.512,0.512,1.024,0.512h0.512c0.512,0,1.024,0.512,1.536,0.512l83.456,0.512l29.184,28.672    l-27.648,27.648c-5.12,5.12-8.192,12.288-8.192,19.456c0,7.68,3.072,14.336,8.192,19.456c5.12,5.12,12.288,8.192,19.456,8.192    c7.68,0,14.336-3.072,19.456-8.192c10.752-10.752,10.752-28.672,0-39.424c-2.048-2.048-5.12-2.048-7.168,0    c-2.048,2.048-2.048,5.12,0,7.168c3.072,3.072,5.12,7.68,5.12,12.288s-2.048,9.216-5.12,12.288c-6.656,6.656-17.92,6.656-25.088,0    c-6.656-6.656-6.656-17.92,0-25.088l28.16-26.624l35.84,35.328c1.024,1.024,2.048,1.536,3.584,1.536    c1.536,0,2.56-0.512,3.584-1.536c2.048-2.048,2.048-5.12,0-7.168l-35.84-35.328l28.16-28.16c6.656-6.656,17.92-6.656,25.088,0    c6.656,6.656,6.656,17.92,0,25.088c-6.656,6.656-18.432,6.656-25.088,0c-2.048-2.048-5.12-2.048-7.168,0    c-2.048,2.048-2.048,5.12,0,7.168c10.752,10.752,28.672,10.752,39.424,0c5.12-5.12,8.192-12.288,8.192-19.456    C358.912,170.08,355.84,163.424,350.72,158.304z M205.312,67.168l33.792,9.728L220.16,95.84l-33.792-9.728L205.312,67.168z     M212.48,103.52l-19.456,19.968l-7.68-27.648L212.48,103.52z M157.184,115.808l17.92-17.92l9.728,33.792l-17.92,17.92    L157.184,115.808z M176.64,154.208l14.848-14.848l33.28,14.848H176.64z M199.68,131.68l21.504-21.504l16.896,38.912L199.68,131.68    z M244.224,137.824l-15.872-35.328l15.872-15.872V137.824z"/>
	</g>
</g>
</svg>
