<?xml version="1.0" encoding="iso-8859-1"?>
<!-- Generator: Adobe Illustrator 19.0.0, SVG Export Plug-In . SVG Version: 6.00 Build 0)  -->
<svg xmlns="http://www.w3.org/2000/svg" xmlns:xlink="http://www.w3.org/1999/xlink" version="1.1" x="0px" y="0px" viewBox="0 0 318.464 318.464" style="enable-background:new 0 0 318.464 318.464;" xml:space="preserve">
<g>
	<g>
		<path d="M136.625,121.856c-9.216-13.824-23.552-23.552-40.448-26.624c-1.536-0.512-3.584-0.512-5.12-0.512    c0.512-1.024,0.512-2.048,0.512-3.584c0-2.56-1.024-4.608-2.56-6.144V68.096c3.072-0.512,7.68-2.56,11.776-6.144    c7.168-6.656,11.264-17.92,11.264-33.28v-2.048C112.049,11.776,100.273,0,85.425,0C70.577,0,58.801,11.776,58.801,27.136    c0,0.512,0,1.024-2.56,1.024c-3.072,0-5.12,2.56-4.608,5.632c0,3.072,2.56,5.12,5.632,4.608c5.12-0.512,8.192-2.56,9.728-4.096    c2.56-3.072,2.56-6.656,2.56-7.68c0-9.216,7.68-16.384,16.384-16.384c9.216,0,16.384,7.168,16.384,16.384v2.048    c0,11.776-2.56,20.48-7.68,25.6c-5.12,4.096-10.24,4.096-10.24,4.096c-1.536,0-3.072,0.512-4.096,1.536s-1.536,2.56-1.536,3.584    v21.504c-2.048,1.536-3.072,3.584-3.072,6.144c0,1.024,0.512,2.048,0.512,3.072c-10.24,1.024-19.968,4.608-28.672,10.752    c-14.336,9.728-24.064,24.064-27.136,40.96s0,33.792,9.728,48.128c9.728,14.336,24.064,24.064,40.96,27.136    c1.536,0.512,3.584,0.512,5.12,0.512c-7.168,14.336-24.576,51.2-24.576,64.512c0,17.408,14.336,31.744,31.744,31.744    s31.744-14.336,31.744-31.744c0-13.312-17.408-49.664-24.576-64.512c10.24-1.024,19.968-4.608,28.672-10.752    c14.336-9.728,24.064-24.064,27.136-40.96C149.425,153.088,146.353,136.192,136.625,121.856z M105.393,286.72    c0,11.776-9.728,21.504-21.504,21.504s-21.504-9.728-21.504-21.504c0-8.704,11.776-35.84,21.504-55.808    C93.617,250.88,105.393,278.016,105.393,286.72z M136.625,168.448c-2.56,14.336-10.752,26.624-23.04,34.304    c-11.776,8.192-26.624,10.752-40.448,8.192c-14.336-2.56-26.624-10.752-34.304-23.04c-8.192-11.776-10.752-26.624-8.192-40.448    c2.56-14.336,10.752-26.624,23.04-34.304c9.216-6.144,19.456-9.216,30.208-9.216c3.584,0,7.168,0.512,10.24,1.024    c14.336,2.56,26.624,10.752,34.304,23.04C136.625,140.288,139.697,154.624,136.625,168.448z"/>
	</g>
</g>
<g>
	<g>
		<path d="M119.729,134.144c-13.312-19.968-40.448-25.088-59.904-11.776c-19.968,13.312-25.088,40.448-11.776,59.904    c8.192,12.288,22.016,18.944,35.84,18.944c8.192,0,16.896-2.56,24.064-7.168C127.921,180.736,133.041,153.6,119.729,134.144z     M102.321,185.856c-15.36,10.24-35.84,6.144-46.08-9.216c-10.24-15.36-6.144-35.84,9.216-46.08    c5.632-3.584,12.288-5.632,18.432-5.632c10.752,0,20.992,5.12,27.648,14.336C121.265,155.136,117.169,175.616,102.321,185.856z"/>
	</g>
</g>
<g>
	<g>
		<path d="M270.769,134.144c-13.312-19.968-40.448-25.088-59.904-11.776c-9.728,6.656-15.872,16.384-18.432,27.648    c-2.048,11.264,0,23.04,6.656,32.256c8.192,12.288,22.016,18.944,35.84,18.944c8.192,0,16.896-2.56,24.064-7.168    c9.728-6.656,15.872-16.384,18.432-27.648C279.473,155.136,277.425,143.36,270.769,134.144z M267.185,164.352    c-1.536,8.704-6.656,16.384-13.824,20.992c-15.36,10.24-35.84,6.144-46.08-9.216c-10.24-15.36-6.144-35.84,9.216-46.08    c5.632-3.584,12.288-5.632,18.432-5.632c10.752,0,20.992,5.12,27.648,14.336C267.185,146.944,269.233,156.16,267.185,164.352z"/>
	</g>
</g>
<g>
	<g>
		<path d="M287.665,121.856c-11.264-16.384-28.672-25.6-46.592-27.136c0.512-1.024,0.512-2.048,0.512-3.584    c0-2.56-1.024-4.608-3.072-6.144V68.096c3.072-0.512,7.68-2.56,11.264-6.144c7.168-6.656,10.752-17.92,10.752-33.28v-2.048    c0-7.168-3.072-13.824-8.192-18.944S240.561,0,233.393,0s-13.824,3.072-18.944,8.192s-7.68,11.776-7.68,19.456    c0,0.512,0,1.024-2.56,1.024c-3.072,0-5.12,2.56-4.608,5.632c0,3.072,2.56,5.12,5.632,4.608c5.12-0.512,8.192-2.56,9.728-4.608    c2.56-3.072,2.56-6.656,2.56-7.68c0-4.096,1.536-8.192,4.608-11.264s7.168-5.12,11.776-5.12c4.608,0,8.704,1.536,11.776,4.608    c3.072,3.072,5.12,7.168,5.12,11.776v2.048c0,11.776-2.56,20.48-7.168,25.6c-4.608,4.096-9.216,4.096-9.216,4.096    c-1.536,0-3.072,0.512-4.096,1.536c-1.024,1.024-1.536,2.56-1.536,3.584l0.512,21.504c-1.536,1.536-3.072,3.584-3.072,6.144    c0,1.024,0.512,2.56,1.024,3.584c-9.728,1.024-19.456,4.608-28.16,10.752c-29.184,19.968-36.352,60.416-16.384,89.6    c10.752,15.872,27.648,25.088,45.568,27.136c-7.168,14.336-24.576,51.2-24.576,64.512c0,17.408,14.336,31.744,31.744,31.744    s31.744-14.336,31.744-31.744c0-13.312-17.408-50.176-24.576-64.512c10.24-1.024,20.48-4.608,29.184-10.752    C300.465,190.976,308.145,151.04,287.665,121.856z M256.433,286.72c0,11.776-9.728,21.504-21.504,21.504    c-11.776,0-21.504-9.728-21.504-21.504c0-8.704,11.776-35.84,21.504-55.808C244.657,250.88,256.433,278.016,256.433,286.72z     M265.649,202.752c-24.576,16.896-58.368,10.752-75.264-13.824s-10.752-58.368,13.824-75.264    c9.216-6.656,19.968-9.728,30.72-9.728c17.408,0,33.792,8.192,44.544,23.04C296.369,152.064,290.225,185.856,265.649,202.752z"/>
	</g>
</g>
</svg>
