<?xml version="1.0" encoding="iso-8859-1"?>
<!-- Generator: Adobe Illustrator 19.0.0, SVG Export Plug-In . SVG Version: 6.00 Build 0)  -->
<svg xmlns="http://www.w3.org/2000/svg" xmlns:xlink="http://www.w3.org/1999/xlink" version="1.1" x="0px" y="0px" viewBox="0 0 318.464 318.464" style="enable-background:new 0 0 318.464 318.464;" xml:space="preserve">
<g>
	<g>
		<path d="M98.557,146.432c3.072-0.512,5.632-1.536,8.192-3.072c6.144-4.096,10.24-10.24,11.264-16.896    c1.536-7.168,0-14.336-4.096-19.968c-3.584-5.632-9.216-9.216-15.36-10.752c0.512-1.024,1.024-2.56,1.024-4.096    c0-2.56-1.024-4.608-2.56-6.144V68.096c3.072-0.512,7.68-2.56,11.776-6.144c7.168-6.656,11.264-17.92,11.264-33.28v-2.048    C120.061,11.776,108.285,0,93.437,0S66.813,11.776,66.813,27.136c0,0.512,0,1.024-2.56,1.024c-3.072,0-5.12,2.56-4.608,5.632    c0,3.072,2.56,5.12,5.632,4.608c5.12-0.512,8.192-2.56,9.728-4.096c2.56-3.072,2.56-6.656,2.56-7.68    c0-9.216,7.68-16.384,16.384-16.384c9.216,0,16.384,7.168,16.384,16.384v2.048c0,11.776-2.56,20.48-7.68,25.6    c-5.12,4.608-10.24,4.096-10.24,4.096c-1.536,0-3.072,0.512-4.096,1.536s-1.536,2.56-1.536,3.584v21.504    c-2.048,1.536-3.072,3.584-3.072,6.144c0,1.536,0.512,2.56,1.024,4.096c-2.56,0.512-5.12,1.536-7.68,3.584    c-6.144,4.096-10.24,10.24-11.264,16.896c-1.536,7.168,0,14.336,4.096,19.968c3.584,5.632,9.216,9.216,15.36,10.752    c-9.728,19.968-46.08,94.72-46.08,118.784c0,29.184,23.552,52.736,52.736,52.736s52.736-23.552,52.736-52.736    C144.637,241.152,108.797,166.912,98.557,146.432z M78.077,130.048c-2.56-3.584-3.584-8.192-2.56-12.288    c1.024-4.608,3.584-8.192,7.168-10.752c2.56-2.048,6.144-3.072,9.216-3.072c1.024,0,2.048,0,3.072,0.512    c4.608,1.024,8.192,3.584,10.752,7.168s3.584,8.192,2.56,12.288c-1.024,4.608-3.584,8.192-7.168,10.752    c-3.584,2.56-8.192,3.584-12.288,2.56C84.221,136.192,80.637,133.632,78.077,130.048z M91.901,307.712    c-23.552,0-42.496-18.944-42.496-42.496c0-18.432,27.648-78.848,42.496-109.568c14.848,30.72,42.496,91.136,42.496,109.568    C134.397,288.768,115.453,307.712,91.901,307.712z"/>
	</g>
</g>
<g>
	<g>
		<path d="M233.725,146.944c3.072-1.024,5.632-2.048,8.192-3.584c12.288-8.192,15.36-25.088,6.656-37.376    c-3.584-5.632-9.216-9.216-15.36-10.752c0.512-1.024,1.024-2.56,1.024-4.096c0-2.56-1.024-4.608-3.072-6.144V68.096    c3.072-0.512,7.68-2.56,11.264-6.144c7.168-6.656,10.752-17.92,10.752-33.28v-2.048c0-7.168-3.072-13.824-8.192-18.944    S233.213,0,226.045,0s-13.824,3.072-18.944,8.192s-7.68,11.776-7.68,19.456c0,0.512,0,1.024-2.56,1.024    c-3.072,0-5.12,2.56-4.608,5.632c0,3.072,2.56,5.12,5.632,4.608c5.12-0.512,8.192-2.56,9.728-4.608    c2.56-3.072,2.56-6.656,2.56-7.68c0-4.096,1.536-8.192,4.608-11.264s7.168-5.12,11.776-5.12c4.608-0.512,8.704,1.536,11.776,4.608    c3.072,3.072,5.12,7.168,5.12,11.776v2.048c0,11.776-2.56,20.48-7.168,25.6c-4.608,4.096-9.216,4.096-9.216,4.096    c-1.536,0-3.072,0.512-4.096,1.536c-1.024,1.024-1.536,2.56-1.536,3.584l0.512,21.504c-1.536,1.536-3.072,3.584-3.072,6.144    c0,1.536,0.512,2.56,1.024,4.096c-2.56,1.024-5.632,2.048-8.192,3.584c-12.288,8.192-15.36,25.088-6.656,37.376    c3.584,5.632,9.216,9.216,14.848,10.752c-9.728,19.968-46.08,94.72-46.08,118.784c0,29.184,23.552,52.736,52.736,52.736    c29.184,0,52.736-23.552,52.736-52.736C279.805,241.152,243.965,166.912,233.725,146.944z M213.245,130.56    c-2.56-3.584-3.584-8.192-2.56-12.288c1.024-4.608,3.072-8.192,6.656-10.752c2.56-2.048,6.144-3.072,9.216-3.072    c1.024,0,2.048,0,3.072,0.512c4.608,1.024,8.192,3.072,10.752,6.656c5.12,7.68,3.584,17.92-4.096,23.04    C228.605,139.776,218.365,137.728,213.245,130.56z M227.069,308.224c-23.552,0-42.496-18.944-42.496-42.496    c0-18.432,27.648-78.848,42.496-109.568c15.36,30.72,42.496,91.136,42.496,109.568    C269.565,288.768,250.621,308.224,227.069,308.224z"/>
	</g>
</g>
</svg>
