<?xml version="1.0" encoding="iso-8859-1"?>
<!-- Generator: Adobe Illustrator 19.0.0, SVG Export Plug-In . SVG Version: 6.00 Build 0)  -->
<svg xmlns="http://www.w3.org/2000/svg" xmlns:xlink="http://www.w3.org/1999/xlink" version="1.1" x="0px" y="0px" viewBox="0 0 301.583 301.583" style="enable-background:new 0 0 301.583 301.583;" xml:space="preserve">
<g>
	<g>
		<path d="M117.248,225.543H77.312v-39.936l58.88-59.392c0.512-0.512,0.512-1.024,1.024-1.536v-0.512c0-0.512,0-1.024,0.512-1.536    c0,0,0,0,0-0.512c0,0,0,0,0-0.512c0-0.512,0-1.024,0-1.024v-0.512c0,0,0,0,0-0.512l-23.04-40.96    c-1.024-1.536-2.56-2.56-4.608-2.56H35.328c-2.048,0-3.584,1.024-4.608,2.56l-23.04,40.96c0,0,0,0,0,0.512v0.512    c0,0.512,0,1.024,0,1.024s0,0,0,0.512c0,0,0,0,0,0.512c0,0.512,0,1.024,0.512,1.536v0.512c0,0.512,0.512,1.024,1.024,1.536    l57.856,58.368v40.96H27.648C12.288,225.543,0,237.831,0,253.191s12.288,27.648,27.648,27.648s27.648-12.288,27.648-27.648    c0-3.072-2.048-5.12-5.12-5.12s-5.12,2.048-5.12,5.12c0,9.728-7.68,17.408-17.408,17.408c-9.728,0-17.408-7.68-17.408-17.408    c0-9.728,7.68-17.408,17.408-17.408h39.424v50.176c0,3.072,2.048,5.12,5.12,5.12c3.072,0,5.12-2.56,5.12-5.12v-50.176h39.936    c9.728,0,17.408,7.68,17.408,17.408c0,9.728-7.68,17.408-17.408,17.408c-9.728,0-17.408-7.68-17.408-17.408    c0-3.072-2.048-5.12-5.12-5.12c-3.072,0-5.12,2.048-5.12,5.12c0,15.36,12.288,27.648,27.648,27.648    c15.36,0,27.648-12.288,27.648-27.648S132.608,225.543,117.248,225.543z M83.968,164.103l13.824-36.352h22.528L83.968,164.103z     M106.496,86.791l17.408,30.72H97.28l-16.896-30.72H106.496z M85.504,117.511H57.856L71.68,92.423L85.504,117.511z M38.4,86.791    h25.088l-16.896,30.72H21.504L38.4,86.791z M24.064,127.751h21.504l12.8,34.304L24.064,127.751z M71.68,167.175l-14.848-39.424    h29.696L71.68,167.175z"/>
	</g>
</g>
<g>
	<g>
		<path d="M273.92,160.007h-39.936v-39.936l58.88-59.392c0.512-0.512,0.512-1.024,1.024-1.536v-0.512c0-0.512,0-1.024,0.512-1.536    c0,0,0,0,0-0.512c0,0,0,0,0-0.512c0-0.512,0-1.024,0-1.024v-0.512c0,0,0,0,0-0.512l-23.04-40.96    c-1.024-1.536-2.56-2.56-4.608-2.56H192c-2.048,0-3.584,1.024-4.608,2.56l-23.04,40.96c0,0,0,0,0,0.512v0.512    c0,0.512,0,1.024,0,1.024s0,0,0,0.512c0,0,0,0,0,0.512c0,0.512,0,1.024,0.512,1.536v0.512c0,0.512,0.512,1.024,1.024,1.536    l57.856,58.368v40.96H184.32c-15.36,0-27.648,12.288-27.648,27.648c0,15.36,12.288,27.648,27.648,27.648    c15.36,0,27.648-12.288,27.648-27.648c0-3.072-2.048-5.12-5.12-5.12c-3.072,0-5.12,2.048-5.12,5.12    c0,9.728-7.68,17.408-17.408,17.408c-9.728,0-17.408-7.68-17.408-17.408c0-9.728,7.68-17.408,17.408-17.408h39.424v50.176    c0,3.072,2.048,5.12,5.12,5.12c3.072,0,5.12-2.56,5.12-5.12v-50.176h39.936c9.728,0,17.408,7.68,17.408,17.408    s-7.68,17.408-17.408,17.408c-9.728,0-17.408-7.68-17.408-17.408c0-3.072-2.048-5.12-5.12-5.12c-3.072,0-5.12,2.048-5.12,5.12    c0,15.36,12.288,27.648,27.648,27.648c15.36,0,27.648-12.288,27.648-27.648C302.08,172.295,289.28,160.007,273.92,160.007z     M240.64,98.567l13.824-36.352h22.528L240.64,98.567z M263.168,21.255l17.408,30.72h-26.624l-16.896-30.72H263.168z     M242.688,51.975H215.04l13.824-25.088L242.688,51.975z M195.072,21.255h25.088l-16.896,30.72h-25.088L195.072,21.255z     M181.248,62.215h21.504l12.8,34.304L181.248,62.215z M228.864,101.639l-14.848-39.424h29.696L228.864,101.639z"/>
	</g>
</g>
</svg>
