<?xml version="1.0" encoding="iso-8859-1"?>
<!-- Generator: Adobe Illustrator 19.0.0, SVG Export Plug-In . SVG Version: 6.00 Build 0)  -->
<svg xmlns="http://www.w3.org/2000/svg" xmlns:xlink="http://www.w3.org/1999/xlink" version="1.1" x="0px" y="0px" viewBox="0 0 257.536 257.536" style="enable-background:new 0 0 257.536 257.536;" xml:space="preserve">
<g>
	<g>
		<path d="M101.888,138.752C94.72,128,83.968,120.32,71.168,117.248c-2.56-0.512-4.608-1.024-7.168-1.024V23.04    c4.096-2.048,6.656-6.144,6.656-10.752c0-6.656-5.12-11.776-11.776-11.776c-6.656,0-11.776,5.12-11.776,11.776    c0,4.608,3.072,8.704,7.168,10.752v93.696c-19.456,2.56-36.864,16.896-41.472,37.376c-3.072,12.8-0.512,25.6,6.144,36.864    c5.632,9.216,13.824,15.872,23.552,19.456c-4.608,3.584-7.68,8.704-9.216,14.336c-1.536,7.168-0.512,14.336,3.584,20.48    c3.584,6.144,9.728,10.24,16.896,11.776c2.048,0.512,4.096,0.512,6.144,0.512c5.12,0,9.728-1.536,14.336-4.096    c6.144-3.584,10.24-9.728,11.776-16.896c1.536-7.168,0.512-14.336-3.584-20.48c-1.536-2.048-3.072-4.096-5.12-6.144    c3.072-1.024,6.144-2.56,9.216-4.096c11.264-6.656,18.944-17.92,21.504-30.208C111.104,162.816,108.544,150.016,101.888,138.752z     M75.776,234.496c-1.024,4.096-3.584,8.192-7.168,10.24c-3.584,2.56-8.192,3.072-12.8,2.048c-4.096-1.024-8.192-3.584-10.24-7.168    c-2.56-3.584-3.072-8.192-2.048-12.8c2.048-8.704,11.264-14.336,19.968-12.288c4.096,1.024,8.192,3.584,10.24,7.168    C75.776,225.792,76.8,230.4,75.776,234.496z M97.792,173.568c-2.56,10.24-8.192,18.432-17.408,24.064    C71.68,203.264,61.44,204.8,51.2,202.24c-20.992-4.608-33.792-25.6-28.672-46.08c4.608-20.992,25.6-33.792,46.08-28.672    c10.24,2.56,18.432,8.192,24.064,17.408C98.304,153.088,100.352,163.328,97.792,173.568z"/>
	</g>
</g>
<g>
	<g>
		<path d="M238.592,138.24c-7.168-10.24-17.92-17.92-30.72-20.992c-2.048-0.512-3.584-0.512-5.632-1.024V22.528    c4.096-2.048,6.656-6.144,6.656-10.752C208.896,5.12,203.776,0,197.12,0c-6.656,0-11.776,5.12-11.776,11.776    c0,4.608,3.072,8.704,7.168,10.752v93.184c-20.48,2.048-37.888,16.384-43.008,37.376c-3.072,12.8-0.512,25.6,6.144,36.864    c5.632,9.216,14.336,16.384,24.576,19.968c-4.096,3.584-7.168,8.704-8.704,14.336c-1.536,7.168-0.512,14.336,3.584,20.48    c3.584,6.144,9.728,10.24,16.896,11.776c2.048,0.512,4.096,0.512,6.144,0.512c5.12,0,9.728-1.536,14.336-4.096    c6.144-3.584,10.24-9.728,11.776-16.896s0.512-14.336-3.584-20.48c-1.536-2.56-3.584-4.608-5.632-6.144    c2.56-1.024,5.632-2.56,8.192-4.096c11.264-6.656,18.944-17.92,21.504-30.208C247.808,162.304,245.248,149.504,238.592,138.24z     M213.504,234.496c-1.024,4.096-3.584,8.192-7.168,10.24c-3.584,2.56-8.192,3.072-12.8,2.048    c-4.096-1.024-8.192-3.584-10.24-7.168c-2.56-3.584-3.072-8.192-2.048-12.8c1.024-4.096,3.584-8.192,7.168-10.24    c2.56-1.536,5.632-2.56,8.704-2.56c1.024,0,2.56,0,3.584,0.512c4.096,1.024,8.192,3.584,10.24,7.168    C214.016,225.792,214.528,230.4,213.504,234.496z M234.496,173.568c-2.56,10.24-8.192,18.432-17.408,24.064    c-8.704,5.632-18.944,7.168-29.184,4.608c-20.992-4.608-33.792-25.6-28.672-46.08c4.608-20.992,25.6-33.792,46.08-28.672    c10.24,2.56,18.432,8.192,24.064,17.408C235.008,153.088,237.056,163.328,234.496,173.568z"/>
	</g>
</g>
</svg>
