<?xml version="1.0" encoding="iso-8859-1"?>
<!-- Generator: Adobe Illustrator 19.0.0, SVG Export Plug-In . SVG Version: 6.00 Build 0)  -->
<svg xmlns="http://www.w3.org/2000/svg" xmlns:xlink="http://www.w3.org/1999/xlink" version="1.1" x="0px" y="0px" viewBox="0 0 319.488 319.488" style="enable-background:new 0 0 319.488 319.488;" xml:space="preserve">
<g>
	<g>
		<path d="M288.502,218.624c-11.264-16.384-29.696-26.112-48.128-27.648v-11.264c6.656-1.024,13.312-3.072,18.944-7.168    c9.216-6.656,15.872-16.384,17.92-27.648c2.048-11.264-0.512-22.528-7.168-32.256c-7.168-10.24-17.408-15.872-28.672-17.92    c0.512-1.024,1.024-2.048,1.024-3.584c0-2.56-1.024-4.608-3.072-6.144V68.096c3.072-0.512,7.68-2.56,11.264-6.144    c7.168-6.656,10.752-17.92,10.752-33.28v-2.048c0-7.168-3.072-13.824-8.192-18.944C248.054,2.56,241.398,0,234.23,0    c-14.848,0-26.624,12.288-26.112,27.648c0,0.512,0,1.024-2.56,1.024c-3.072,0-5.12,2.56-4.608,5.632    c0,3.072,2.56,5.12,5.632,4.608c5.12-0.512,8.192-2.56,9.728-4.608c2.56-3.072,2.56-6.656,2.56-7.68    c0-9.216,7.168-16.384,16.384-16.384c4.608,0,8.704,1.536,11.776,4.608c3.072,3.072,5.12,7.168,5.12,11.776v2.048    c0,11.776-2.56,20.48-7.168,25.6c-4.608,4.096-9.216,4.096-9.216,4.096c-1.536,0-2.56,0.512-4.096,1.536    c-1.024,1.024-1.536,2.56-1.536,3.584l0.512,21.504c-1.536,1.536-3.072,3.584-3.072,6.144c0,1.024,0.512,2.56,1.024,3.584    c-6.144,1.024-11.776,3.072-16.896,7.168c-9.216,6.656-15.872,16.384-17.92,27.648c-2.048,11.264,0.512,22.528,7.168,32.256    c6.656,9.216,16.384,15.872,27.648,17.92c1.024,0,2.048,0.512,3.072,0.512v11.264c-10.752,1.024-21.504,4.608-31.232,11.264    c-29.184,19.968-36.352,60.416-16.384,89.6c11.264,17.408,31.232,27.136,51.712,27.136c12.8,0,25.6-3.584,36.352-11.264    c14.336-9.728,23.552-24.576,26.624-41.472C301.814,249.856,298.23,232.96,288.502,218.624z M229.11,169.472    c-8.704-1.536-15.872-6.144-20.992-13.312c-5.12-7.168-6.656-15.872-5.12-24.576c1.536-8.704,6.144-15.872,13.312-20.992    c5.632-4.096,12.288-5.632,18.432-5.632c10.24,0,20.48,5.12,27.136,13.824c5.12,7.168,6.656,15.872,5.12,24.576    s-6.144,15.872-13.312,20.992C246.518,169.472,237.814,171.008,229.11,169.472z M289.014,265.216    c-2.56,14.336-10.752,26.624-22.528,34.816c-24.576,16.896-58.368,10.752-75.264-13.824    c-16.896-24.576-10.752-58.368,13.824-75.264c9.216-6.656,19.968-9.728,30.72-9.728c17.408,0,34.304,8.192,44.544,23.552    C288.502,236.544,291.574,250.88,289.014,265.216z"/>
	</g>
</g>
<g>
	<g>
		<path d="M135.414,218.624c-11.264-16.384-29.696-26.112-48.128-27.648v-11.264c6.656-1.024,13.312-3.072,18.944-7.168    c9.216-6.656,15.872-16.384,17.92-27.648c2.048-11.264-0.512-22.528-7.168-32.256c-7.168-10.24-17.408-15.872-28.672-17.92    c0.512-1.024,1.024-2.048,1.024-3.584c0-2.56-1.024-4.608-3.072-6.144V68.096c3.072-0.512,7.68-2.56,11.264-6.144    c7.168-6.656,10.752-17.92,10.752-33.28v-2.048c0-7.168-3.072-13.824-8.192-18.944S88.31,0,81.142,0    C66.294,0,54.518,12.288,55.03,27.648c0,0.512,0,1.024-2.56,1.024c-3.072,0-5.12,2.56-4.608,5.632c0,3.072,2.56,5.12,5.632,4.608    c5.12-0.512,8.192-2.56,9.728-4.608c2.56-3.072,2.56-6.656,2.56-7.68c0-9.216,7.168-16.384,16.384-16.384    c4.608,0,8.704,1.536,11.776,4.608c3.072,3.072,5.12,7.168,5.12,11.776v2.048c0,11.776-2.56,20.48-7.168,25.6    c-4.608,4.096-9.216,4.096-9.216,4.096c-1.536,0-2.56,0.512-4.096,1.536c-1.024,1.024-1.536,2.56-1.536,3.584l0.512,21.504    c-1.536,1.536-3.072,3.584-3.072,6.144c0,1.024,0.512,2.56,1.024,3.584c-6.144,1.024-11.776,3.072-16.896,7.168    c-9.216,6.656-15.872,16.384-17.92,27.648c-2.048,11.264,0.512,22.528,7.168,32.256c6.656,9.216,16.384,15.872,27.648,17.92    c1.024,0,2.048,0.512,3.072,0.512v11.264c-10.752,1.024-21.504,4.608-31.232,11.264c-29.184,19.968-36.352,60.416-16.384,89.6    c10.752,17.408,31.232,27.136,51.712,27.136c12.8,0,25.6-3.584,36.352-11.264c14.336-9.728,23.552-24.576,26.624-41.472    C148.726,249.856,145.142,232.96,135.414,218.624z M75.51,169.472c-8.192-1.536-15.872-6.144-20.992-13.312    c-5.12-7.168-6.656-15.872-5.12-24.576c1.536-8.704,6.144-15.872,13.312-20.992c5.632-4.096,12.288-5.632,18.432-5.632    c10.24,0,20.48,5.12,27.136,13.824c5.12,7.168,6.656,15.872,5.12,24.576s-6.144,15.872-13.312,20.992    C92.918,169.472,84.214,171.008,75.51,169.472z M135.414,265.216c-2.56,14.336-10.752,26.624-22.528,34.816    c-24.064,16.896-57.856,10.752-75.264-13.824c-16.896-24.576-10.752-58.368,13.824-75.264c9.216-6.656,19.968-9.728,30.72-9.728    c17.408,0,34.304,8.192,44.544,23.552C134.902,236.544,137.974,250.88,135.414,265.216z"/>
	</g>
</g>
</svg>
