<?xml version="1.0" encoding="iso-8859-1"?>
<!-- Generator: Adobe Illustrator 19.0.0, SVG Export Plug-In . SVG Version: 6.00 Build 0)  -->
<svg xmlns="http://www.w3.org/2000/svg" xmlns:xlink="http://www.w3.org/1999/xlink" version="1.1" x="0px" y="0px" viewBox="0 0 317.952 317.952" style="enable-background:new 0 0 317.952 317.952;" xml:space="preserve">
<g>
	<g>
		<path d="M132.704,215.04c19.456-12.8,24.576-39.424,11.264-58.88c-4.608-6.656-10.752-11.776-17.92-14.848    c4.608-4.096,7.68-9.216,9.216-15.36c1.536-7.168,0-14.336-4.096-19.968c-3.584-5.632-9.216-9.216-15.36-10.752    c0.512-1.024,1.024-2.56,1.024-4.096c0-2.56-1.024-4.608-2.56-6.144V68.096c3.072-0.512,7.68-2.56,11.776-6.144    c7.168-6.656,11.264-17.92,11.264-33.28v-2.048C137.312,11.776,125.536,0,110.688,0S84.064,11.776,84.064,27.136    c0,0.512,0,1.024-2.56,1.024c-3.072,0-5.12,2.56-4.608,5.632c0,3.072,2.56,5.12,5.632,4.608c5.12-0.512,8.192-2.56,9.728-4.096    c2.56-3.072,2.56-6.656,2.56-7.68c0-9.216,7.68-16.384,16.384-16.384c9.216,0,16.384,7.168,16.384,16.384v2.048    c0,11.776-2.56,20.48-7.68,25.6c-4.608,4.096-9.216,4.096-9.728,4.096c-1.536,0-3.072,0.512-4.096,1.536    c-1.024,1.024-1.536,2.56-1.536,3.584v21.504c-2.048,1.536-3.072,3.584-3.072,6.144c0,1.536,0.512,2.56,1.024,4.096    c-3.584,0.512-6.144,1.536-8.704,3.584c-6.144,4.096-10.24,10.24-11.264,16.896c-1.536,7.168,0,14.336,4.096,19.968    c1.536,2.048,3.072,4.096,5.12,5.632c-2.048,1.024-4.096,2.048-6.144,3.584c-19.456,13.312-24.576,39.424-11.776,58.88    c6.656,10.24,16.896,16.384,28.16,17.92c-7.168,14.336-24.576,51.712-24.576,64.512c0,17.408,14.336,31.744,31.744,31.744    s31.744-14.336,31.744-31.744c0-13.312-17.408-50.176-24.576-64.512C121.952,220.672,127.584,218.624,132.704,215.04z     M92.768,117.76c1.024-4.608,3.584-8.192,7.168-10.752c2.56-2.048,6.144-3.072,9.216-3.072c1.024,0,2.048,0,3.072,0.512    c4.608,1.024,8.192,3.584,10.752,7.168c2.56,3.584,3.584,8.192,2.56,12.288c-1.024,4.608-3.584,8.192-7.168,10.752    c-7.68,5.12-17.92,3.072-23.04-4.608C92.768,126.464,91.744,121.856,92.768,117.76z M82.528,198.144    c-9.728-14.848-6.144-34.816,8.704-45.056c5.632-3.584,11.776-5.632,17.92-5.632c2.048,0,4.096,0,6.144,0.512    c8.704,1.536,15.872,6.656,20.48,13.824c9.728,14.848,6.144,35.328-8.704,45.056c-7.168,4.608-15.872,6.656-24.064,5.12    C94.304,210.432,87.136,205.312,82.528,198.144z M130.656,286.72c0,11.776-9.728,21.504-21.504,21.504    s-21.504-9.728-21.504-21.504c0-8.704,11.776-35.84,21.504-55.808C118.368,250.88,130.656,278.016,130.656,286.72z"/>
	</g>
</g>
<g>
	<g>
		<path d="M250.464,187.904c2.048-11.264-0.512-22.528-6.656-31.744c-4.608-6.656-10.752-11.776-17.92-14.848    c10.24-8.704,12.288-24.064,4.608-35.328c-3.584-5.632-9.216-9.216-15.36-10.752c0.512-1.024,1.024-2.56,1.024-4.096    c0-2.56-1.024-4.608-3.072-6.144V68.096c3.072-0.512,7.68-2.56,11.264-6.144c7.168-6.656,10.752-17.92,10.752-33.28v-2.048    c0-7.168-3.072-13.824-8.192-18.944S215.136,0,207.968,0c-14.848,0-26.624,12.288-26.112,27.648c0,0.512,0,1.024-2.56,1.024    c-3.072,0-5.12,2.56-4.608,5.632c0,3.072,2.56,5.12,5.632,4.608c5.12-0.512,8.192-2.56,9.728-4.608    c2.56-3.072,2.56-6.656,2.56-7.68c0-9.216,7.168-16.384,16.384-16.384c4.608-0.512,8.704,1.536,11.776,4.608    c3.072,3.072,5.12,7.168,5.12,11.776v2.048c0,11.776-2.56,20.48-7.168,25.6c-4.608,4.096-9.216,4.096-9.216,4.096    c-1.536,0-2.56,0.512-4.096,1.536c-1.024,1.024-1.536,2.56-1.536,3.584l0.512,21.504c-1.536,1.536-3.072,3.584-3.072,6.144    c0,1.536,0.512,2.56,1.024,4.096c-2.56,1.024-5.632,2.048-8.192,3.584c-6.144,4.096-9.728,10.24-11.264,17.408    c-1.536,7.168,0,14.336,4.096,19.968c1.536,2.048,3.072,3.584,5.12,5.12c-2.048,1.024-4.096,2.048-6.144,3.584    c-9.216,6.656-15.36,16.384-17.408,27.136c-2.048,11.264,0.512,22.528,6.656,31.744c6.656,9.728,16.896,15.872,27.648,17.408    c-7.168,14.336-24.576,51.712-24.576,64.512c0,17.408,14.336,31.744,31.744,31.744c17.408,0,31.744-14.336,31.744-31.744    c0-13.312-17.408-50.176-24.576-64.512c6.144-1.024,11.776-3.072,16.896-6.656C242.272,208.384,248.416,198.656,250.464,187.904z     M191.584,117.76c1.024-4.608,3.072-8.192,6.656-10.752c2.56-2.048,6.144-3.072,9.216-3.072c1.024,0,2.048,0,3.072,0.512    c4.608,1.024,8.192,3.072,10.752,6.656c5.12,7.68,3.072,17.92-4.096,23.04c-2.56,2.048-6.144,3.072-9.216,3.072    c-1.024,0-2.048,0-3.072-0.512c-4.608-1.024-8.192-3.072-10.752-6.656C191.584,126.464,191.072,122.368,191.584,117.76z     M230.496,286.72c0,11.776-9.728,21.504-21.504,21.504s-21.504-9.728-21.504-21.504c0-8.704,11.776-35.84,21.504-55.808    C218.72,250.88,230.496,278.016,230.496,286.72z M226.912,206.336c-14.848,10.24-34.816,6.656-45.056-8.192    c-5.12-7.168-6.656-15.872-5.12-24.064c1.536-8.704,6.144-15.872,13.312-20.992c5.632-3.584,11.776-5.632,18.432-5.632    c2.048,0,4.096,0,5.632,0.512c8.704,1.536,15.872,6.144,20.992,13.312c5.12,7.168,6.656,15.872,5.12,24.064    C239.2,194.048,234.08,201.728,226.912,206.336z"/>
	</g>
</g>
</svg>
