<?xml version="1.0" encoding="iso-8859-1"?>
<!-- Generator: Adobe Illustrator 19.0.0, SVG Export Plug-In . SVG Version: 6.00 Build 0)  -->
<svg version="1.1" id="Layer_1" xmlns="http://www.w3.org/2000/svg" xmlns:xlink="http://www.w3.org/1999/xlink" x="0px" y="0px"
	 viewBox="0 0 512 512" style="enable-background:new 0 0 512 512;" xml:space="preserve">
<g>
	<g>
		<path d="M260.571,36.571h-128c-5.049,0-9.143,4.094-9.143,9.143v109.714c0,5.049,4.094,9.143,9.143,9.143h128
			c5.049,0,9.143-4.094,9.143-9.143V45.714C269.714,40.665,265.621,36.571,260.571,36.571z M251.429,146.286H141.714V54.857h109.714
			V146.286z"/>
	</g>
</g>
<g>
	<g>
		<rect x="160" y="73.143" width="18.286" height="36.571"/>
	</g>
</g>
<g>
	<g>
		<rect x="187.429" y="73.143" width="18.286" height="36.571"/>
	</g>
</g>
<g>
	<g>
		<rect x="214.857" y="73.143" width="18.286" height="36.571"/>
	</g>
</g>
<g>
	<g>
		<path d="M231.955,324.638C230.335,321.772,227.295,320,224,320h-37.772l27.094-40.643c2.799-4.201,1.665-9.88-2.536-12.679
			c-4.21-2.808-9.884-1.67-12.678,2.536l-36.571,54.857c-1.871,2.803-2.045,6.411-0.455,9.384c1.594,2.973,4.692,4.83,8.062,4.83
			h38.71l-19.12,31.866c-2.598,4.33-1.196,9.947,3.134,12.545c1.473,0.884,3.094,1.304,4.696,1.304c3.107,0,6.134-1.58,7.848-4.438
			l27.429-45.714C233.536,331.022,233.58,327.504,231.955,324.638z"/>
	</g>
</g>
<g>
	<g>
		<path d="M434.286,493.714H233.143c-9.415,0-13.919-4.474-16.143-9.143h98.429c5.049,0,9.143-4.094,9.143-9.143V192
			c0-5.049-4.094-9.143-9.143-9.143h-9.143V45.705C306.286,20.504,285.737,0,260.482,0H132.661
			c-25.255,0-45.804,20.504-45.804,45.705v137.152h-9.143c-5.049,0-9.143,4.094-9.143,9.143v283.429
			c0,5.049,4.094,9.143,9.143,9.143h120.133C201.108,497.79,211.501,512,233.143,512h201.143c5.049,0,9.143-4.094,9.143-9.143
			S439.335,493.714,434.286,493.714z M105.143,45.705c0-15.12,12.344-27.42,27.518-27.42h127.821
			c15.174,0,27.518,12.299,27.518,27.42v137.152H105.143V45.705z M86.857,466.286V201.143H96h201.143h9.143v265.143H86.857z"/>
	</g>
</g>
</svg>
