<?xml version="1.0" encoding="iso-8859-1"?>
<!-- Generator: Adobe Illustrator 19.0.0, SVG Export Plug-In . SVG Version: 6.00 Build 0)  -->
<svg version="1.1" xmlns="http://www.w3.org/2000/svg" xmlns:xlink="http://www.w3.org/1999/xlink" x="0px" y="0px"
	 viewBox="0 0 507.394 507.394" style="enable-background:new 0 0 507.394 507.394;" xml:space="preserve">
<g>
	<g>
		<path d="M381.697,243.394h-32v-88.856c19.032-4.448,33.12-27.048,33.12-55.144c0-30.4-34.088-53.664-35.544-54.64
			c-1.508-0.99-3.308-1.436-5.104-1.264c-0.168-0.008-0.304-0.096-0.472-0.096c-2.69,0.033-5.177,1.439-6.592,3.728
			c-8.776,6.672-32.288,26.976-32.288,52.272c0,26.984,12.992,48.904,30.88,54.544v89.456h-29.536
			c5.808-40.8,6.752-107.608-35.248-157.168c-4.664-5.468-9.728-10.581-15.152-15.296c5.496-16.368-1.256-38.4-18.656-55.816
			C213.577-6.414,173.041,1.266,171.297,1.602c-0.318,0.095-0.63,0.207-0.936,0.336c-0.272,0.096-0.536,0.168-0.8,0.288
			c-1.745,0.793-3.143,2.191-3.936,3.936c-0.111,0.261-0.207,0.528-0.288,0.8c-0.132,0.302-0.244,0.612-0.336,0.928
			c-0.336,1.712-8,42.256,13.504,63.76c9.423,9.756,21.486,16.554,34.712,19.56c3.093,0.638,6.242,0.965,9.4,0.976
			c8.08,0.174,15.943-2.624,22.096-7.864c4.263,3.805,8.271,7.886,12,12.216c38.8,45.824,36.984,109.2,31.288,146.856h-28.336
			c13.328-31.16,10.68-62.664-7.704-78.12c-6.92-5.478-15.32-8.76-24.12-9.424c-6.192-17.256-27.744-29.752-54.144-29.752
			c-23.128,0-42.072,19.672-50.272,29.752c-3.373,0.963-5.706,4.036-5.728,7.544c0.045,0.387,0.122,0.77,0.232,1.144
			c-0.449,2.078-0.043,4.249,1.128,6.024c0.976,1.448,24.216,35.536,54.64,35.536c28.544,0,51.4-14.536,55.336-34.032
			c4.614,0.686,8.969,2.567,12.632,5.456c11.88,9.984,15.624,36.104,0.328,65.872h-36.296c-4.418,0-8,3.582-8,8v248
			c0,4.418,3.582,8,8,8h176c4.418,0,8-3.582,8-8v-248C389.697,246.976,386.115,243.394,381.697,243.394z M235.193,71.666
			c-5.265,4.275-12.279,5.725-18.808,3.888h0.032c-10.132-2.387-19.352-7.668-26.536-15.2c-7.508-9.302-11.223-21.098-10.4-33.024
			l10.4,10.4c3.069,3.178,8.134,3.266,11.312,0.197s3.266-8.134,0.197-11.312c-0.064-0.067-0.13-0.132-0.197-0.197l-10.4-10.4
			c11.929-0.744,23.709,2.962,33.064,10.4c7.536,7.182,12.818,16.402,15.2,26.536C240.86,59.45,239.422,66.416,235.193,71.666z
			 M173.697,190.098c-13.344,0-25.656-10.456-33.328-18.704h17.328c4.418,0,8-3.582,8-8s-3.582-8-8-8h-11.88
			c7.392-7.641,17.29-12.361,27.88-13.296c21.68,0,40,10.992,40,24S195.377,190.098,173.697,190.098z M318.817,99.394
			c1.129-11.351,6.431-21.879,14.88-29.544v13.544c0,4.418,3.582,8,8,8s8-3.582,8-8V67.546c9.568,8.037,15.695,19.434,17.12,31.848
			c0,21.68-10.992,40-24,40S318.817,121.074,318.817,99.394z M373.697,491.394h-160v-232h160V491.394z"/>
	</g>
</g>
</svg>
