<svg xmlns="http://www.w3.org/2000/svg" width="88" height="88" data-name="Layer 1" viewBox="0 0 88 88"><path d="M69.83,71.55c-.11-.21-10.63-21.49-12.29-26-1.48-4-.9-9.91-.8-10.78,1.47-4.17,5.93-17.4,4.61-20.46a3.75,3.75,0,0,0-2.23-2.21,4.73,4.73,0,0,0-3.53.44,1.06,1.06,0,0,0-.52.73L53,24.36a11.88,11.88,0,0,1-9,4H43.8a11.86,11.86,0,0,1-8.8-4L32.93,13.25a1.06,1.06,0,0,0-.52-.73,4.68,4.68,0,0,0-3.53-.43,3.73,3.73,0,0,0-2.23,2.2c-1.32,3.06,3.14,16.29,4.61,20.47.1.86.68,6.73-.8,10.77-1.66,4.53-12.18,25.81-12.29,26a1.05,1.05,0,0,0,.15,1.16,11,11,0,0,0,7.89,3.39,12.81,12.81,0,0,0,5.72-1.44c6.8-3.37,10.9.85,11.08,1A1.06,1.06,0,0,0,44,76a1,1,0,0,0,1-.32s4.22-4.43,11.08-1a12.81,12.81,0,0,0,5.72,1.44,11,11,0,0,0,7.89-3.39A1.05,1.05,0,0,0,69.83,71.55ZM57,72.76c-6.72-3.33-11.45-.31-13,1-1.57-1.29-6.3-4.31-13-1-5.53,2.75-9.28.19-10.56-.94,1.85-3.77,10.48-21.33,12-25.55,1.77-4.82.95-11.59.91-11.88a1.74,1.74,0,0,0,0-.22c-2.86-8.09-5.4-17.42-4.71-19a1.71,1.71,0,0,1,.95-1,2.33,2.33,0,0,1,1.39.09L33,25a1.16,1.16,0,0,0,.19.44A13.84,13.84,0,0,0,43.8,30.52h.4a13.81,13.81,0,0,0,10.64-5.06A1,1,0,0,0,55,25l2-10.83a2.21,2.21,0,0,1,1.38-.09,1.7,1.7,0,0,1,1,1c.69,1.61-1.85,10.94-4.71,19a1.74,1.74,0,0,0,0,.22c0,.29-.86,7.06.91,11.88C57.1,50.48,65.72,68,67.58,71.8,66.3,72.93,62.52,75.48,57,72.76Z"/></svg>