<?xml version="1.0" encoding="iso-8859-1"?>
<!-- Generator: Adobe Illustrator 19.0.0, SVG Export Plug-In . SVG Version: 6.00 Build 0)  -->
<svg version="1.1" id="Layer_1" xmlns="http://www.w3.org/2000/svg" xmlns:xlink="http://www.w3.org/1999/xlink" x="0px" y="0px"
	 viewBox="0 0 512 512" style="enable-background:new 0 0 512 512;" xml:space="preserve">
<g>
	<g>
		<path d="M510.855,299.246C501.34,156.515,423.585,90.021,374.032,90.021c-24.884,0-50.551,5.715-73.203,10.758
			c-17.293,3.853-33.628,7.488-45.397,7.488c-11.756,0-27.85-3.635-44.894-7.484c-22.344-5.043-47.673-10.762-72.57-10.762
			c-49.553,0-127.309,66.494-136.824,209.225c-4.624,69.323,4.686,107.116,29.293,118.934c5.256,2.521,11.007,3.8,17.337,3.8
			c26.429,0,62.797-22.309,113.914-69.216c0.338-0.254,34.742-25.543,93.743-25.543c55.594,0,90.798,22.776,94.638,25.382
			c63.781,58.391,104.34,78.593,131.491,65.577C506.169,406.361,515.479,368.568,510.855,299.246z M473.664,401.729
			c-18.7,9.011-56.302-12.192-111.713-62.988c-0.254-0.232-0.521-0.45-0.797-0.651c-1.635-1.189-40.778-29.115-105.721-29.115
			c-65.02,0-103.102,28.002-105.383,29.766c-55.398,50.787-92.968,71.991-111.713,62.988c-11.377-5.462-23.908-27.467-18.99-101.271
			c9.056-135.817,81.729-192.19,118.622-192.19c22.861,0,47.139,5.479,68.552,10.317c18.064,4.076,35.125,7.929,48.912,7.929
			c13.774,0,31.062-3.849,49.361-7.925c21.734-4.838,46.364-10.321,69.238-10.321c36.893,0,109.566,56.373,118.622,192.19
			C497.572,374.261,485.041,396.267,473.664,401.729z"/>
	</g>
</g>
<g>
	<g>
		<path d="M119.722,153.882c-20.122,0-36.492,16.371-36.492,36.492s16.371,36.492,36.492,36.492
			c20.122,0,36.492-16.371,36.492-36.492S139.844,153.882,119.722,153.882z M119.722,208.621c-10.063,0-18.246-8.183-18.246-18.246
			c0-10.063,8.183-18.246,18.246-18.246c10.063,0,18.246,8.183,18.246,18.246C137.968,200.438,129.785,208.621,119.722,208.621z"/>
	</g>
</g>
<g>
	<g>
		<path d="M320.429,226.867c-20.122,0-36.492,16.371-36.492,36.492s16.371,36.492,36.492,36.492s36.492-16.371,36.492-36.492
			S340.551,226.867,320.429,226.867z M320.429,281.605c-10.063,0-18.246-8.183-18.246-18.246s8.183-18.246,18.246-18.246
			c10.063,0,18.246,8.183,18.246,18.246S330.492,281.605,320.429,281.605z"/>
	</g>
</g>
<g>
	<g>
		<rect x="220.071" y="163.005" width="72.984" height="18.246"/>
	</g>
</g>
<g>
	<g>
		<path d="M201.83,208.621c-25.151,0-45.615,20.465-45.615,45.615c0,25.151,20.465,45.615,45.615,45.615
			c25.151,0,45.615-20.465,45.615-45.615C247.445,229.085,226.98,208.621,201.83,208.621z M201.83,281.605
			c-15.092,0-27.369-12.277-27.369-27.369s12.277-27.369,27.369-27.369s27.369,12.277,27.369,27.369S216.922,281.605,201.83,281.605
			z"/>
	</g>
</g>
<g>
	<g>
		<circle cx="384.286" cy="153.882" r="18.246"/>
	</g>
</g>
<g>
	<g>
		<circle cx="384.286" cy="208.621" r="18.246"/>
	</g>
</g>
<g>
	<g>
		<circle cx="420.778" cy="181.252" r="18.246"/>
	</g>
</g>
<g>
	<g>
		<circle cx="347.794" cy="181.252" r="18.246"/>
	</g>
</g>
</svg>
