<svg id="Layer_1" height="512" viewBox="0 0 128 128" width="512" xmlns="http://www.w3.org/2000/svg" data-name="Layer 1"><path d="m114.477 32.936h-32.011a10.739 10.739 0 0 0 -5.716-8.164c-5.459-2.556-13.455 1.067-17.667 3.406v-.193a1.75 1.75 0 0 0 -1.75-1.75h-15a1.75 1.75 0 0 0 -1.75 1.75v.153c-10.837-6.205-16.958-3.7-17.667-3.366a10.739 10.739 0 0 0 -5.716 8.164h-3.677a1.75 1.75 0 0 0 -1.75 1.75v58a1.744 1.744 0 0 0 1.562 1.731v.009l91.31 9.667a1.667 1.667 0 0 0 .184.01 1.75 1.75 0 0 0 1.75-1.75v-7.917h7.893a1.75 1.75 0 0 0 1.75-1.75v-58a1.75 1.75 0 0 0 -1.745-1.75zm-99.2 44h97.453v5.75h-97.457zm59.99-48.995c2.395 1.121 3.942 4.082 3.942 7.542s-1.547 6.422-3.941 7.543c-3.944 1.842-11.062-1.351-15.079-3.641-.041-.026-.082-.049-.125-.071-.352-.2-.683-.4-.98-.58v-1.5h11.035a1.75 1.75 0 0 0 0-3.5h-11.036v-1.5c3.665-2.258 11.843-6.322 16.184-4.293zm-34.408 15.978a1.745 1.745 0 0 0 1.475.815h3.81l-7.116 14.52-.607-1.085a1.75 1.75 0 0 0 -2.364-.684l-2.519 1.372zm16.475.815a1.745 1.745 0 0 0 1.475-.815l7.321 14.938-2.52-1.372a1.75 1.75 0 0 0 -2.364.684l-.607 1.085-7.115-14.52zm-13.25-15h11.5v11.5h-4.884c-.034 0-.068 0-.1 0h-6.517v-11.5zm-19.684-1.793c4.332-2.03 12.515 2.036 16.184 4.292v1.5h-11.037a1.75 1.75 0 0 0 0 3.5h11.036v1.5c-.29.179-.611.369-.954.566a1.746 1.746 0 0 0 -.173.1c-4.018 2.292-11.113 5.472-15.056 3.627-2.395-1.121-3.942-4.082-3.942-7.543s1.548-6.42 3.942-7.542zm-7.385 8.494c.279 4.46 2.471 8.154 5.9 9.761a10.134 10.134 0 0 0 4.325.876 24.58 24.58 0 0 0 9.295-2.286l-8.56 17.466a1.75 1.75 0 0 0 2.408 2.308l5.826-3.173 1.391 2.489a1.688 1.688 0 0 0 1.575.9 1.75 1.75 0 0 0 1.524-.979l9.133-18.635 9.133 18.635a1.75 1.75 0 0 0 1.524.979 1.7 1.7 0 0 0 1.575-.9l1.392-2.489 5.826 3.173a1.75 1.75 0 0 0 2.408-2.308l-8.515-17.375a23.465 23.465 0 0 0 9.136 2.1 10.843 10.843 0 0 0 4.439-.782c3.431-1.606 5.622-5.3 5.9-9.761h30.074v37h-97.451v-37zm86.069 63.972-56.408-5.971h56.408zm-87.81-9.472v-4.75h97.453v4.75z"/><path d="m84.5 51.936h20.333a1.75 1.75 0 0 0 0-3.5h-20.333a1.75 1.75 0 0 0 0 3.5z"/><path d="m84.5 61.936h20.333a1.75 1.75 0 0 0 0-3.5h-20.333a1.75 1.75 0 0 0 0 3.5z"/></svg>