<svg id="Layer_1" height="512" viewBox="0 0 128 128" width="512" xmlns="http://www.w3.org/2000/svg" data-name="Layer 1"><path d="m114.477 60.721h-19.618a9.578 9.578 0 0 0 4.457-4.558 7.27 7.27 0 0 0 7.741-5.986 7.293 7.293 0 0 0 -1.665-6.009 15.28 15.28 0 0 0 2.366-5.863 15.3 15.3 0 0 0 -24.526-14.7 20.174 20.174 0 0 0 -37.588 8.825c-.247-.192-.5-.379-.758-.555a8.546 8.546 0 0 0 -4.373-12.309 8.04 8.04 0 0 0 -.143-.861 8.374 8.374 0 0 0 -16.417 3.3 7.034 7.034 0 0 0 1 13.037 14.68 14.68 0 0 0 -2.438 13.206v.006.006c.013.045.021.09.035.135l3.821 12.325h-12.848a1.75 1.75 0 0 0 -1.75 1.75v8.679a1.75 1.75 0 0 0 1.75 1.75h1.989l5.765 35.378a9 9 0 0 0 8.917 7.582h67.612a9 9 0 0 0 8.917-7.582l5.765-35.377h1.989a1.75 1.75 0 0 0 1.75-1.75v-8.679a1.75 1.75 0 0 0 -1.75-1.75zm-33.533-6.829a12.451 12.451 0 0 0 -1.986-4.874 20.1 20.1 0 0 0 2.651-2.79c.243.255.493.5.754.742a9.649 9.649 0 0 0 3.914 13.752h-6.067a12.534 12.534 0 0 0 .734-6.83zm11.718-30.067a11.808 11.808 0 0 1 9.04 19.432 1.75 1.75 0 0 0 .339 2.566 3.782 3.782 0 0 1 1.568 3.747 3.768 3.768 0 0 1 -4.369 3.058 3.666 3.666 0 0 1 -.51-.133 1.749 1.749 0 0 0 -2.23 1.205 6.12 6.12 0 0 1 -5.193 4.489 99.039 99.039 0 0 0 3.393-17.276l6.393-4.874a1.75 1.75 0 0 0 -2.122-2.783l-3.886 2.963c.219-3.844.115-6.253.1-6.5a1.73 1.73 0 0 0 -1.833-1.662 1.75 1.75 0 0 0 -1.664 1.831 84 84 0 0 1 -.863 13.712l-3.062-5.485a1.75 1.75 0 1 0 -3.056 1.707l5.2 9.307c-.526 2.682-1.2 5.527-2.072 8.457a6.149 6.149 0 0 1 -1.772-9.713 1.75 1.75 0 0 0 -.26-2.617 11.814 11.814 0 0 1 6.863-21.432zm-29.78-6.525a16.624 16.624 0 0 1 17.759 8.859 15.242 15.242 0 0 0 -1.221 17.141 16.7 16.7 0 0 1 -3.947 4.01 1.751 1.751 0 0 0 -.26 2.617 8.978 8.978 0 0 1 1.115 10.794h-5.44c-.812-3.017-1.478-5.95-2.023-8.753l7.179-12.856a1.75 1.75 0 1 0 -3.057-1.712l-5.072 9.084a116.847 116.847 0 0 1 -1.444-20.6 1.75 1.75 0 0 0 -3.5-.17 94.276 94.276 0 0 0 .229 10.138l-6.377-4.861a1.75 1.75 0 0 0 -2.123 2.783l8.908 6.791a135.732 135.732 0 0 0 3.653 20.155h-6.325a8.9 8.9 0 0 1 -.979-2.283 1.75 1.75 0 0 0 -2.225-1.205 5.829 5.829 0 0 1 -.787.205 5.746 5.746 0 0 1 -4.268-10.385 1.75 1.75 0 0 0 .338-2.566 16.67 16.67 0 0 1 9.867-27.186zm-39.289 11.795a3.546 3.546 0 0 1 2.618-4.206c.067-.007.158-.018.2-.024a1.75 1.75 0 0 0 1.313-2.415 4.875 4.875 0 1 1 9.333-1.654 1.75 1.75 0 0 0 1.409 1.817 5.06 5.06 0 0 1 2.692 8.46c-.012.01-.022.024-.034.035a5.061 5.061 0 0 1 -8.008-.982 1.75 1.75 0 0 0 -1.509-.871 1.75 1.75 0 0 0 -1.508.862 3.5 3.5 0 0 1 -2.276 1.672 3.548 3.548 0 0 1 -4.23-2.694zm2.87 20.081 5.303-1.176a1.75 1.75 0 0 0 -.756-3.418l-5.464 1.208a11.173 11.173 0 0 1 6.206-11.864 8.512 8.512 0 0 0 5.722 2.217 8.648 8.648 0 0 0 1.866-.2 8.539 8.539 0 0 0 3.16-1.416 11.174 11.174 0 0 1 3.541 3.473 20.153 20.153 0 0 0 3.241 7.372 9.309 9.309 0 0 0 -2.137 3.606l-10.387 2.3a1.75 1.75 0 0 0 .756 3.418l9.242-2.044c.023.242.04.484.083.726a9.207 9.207 0 0 0 3.079 5.4l.264 1.945h-20.14zm-11.19 15.045h13.468.012.013 40.772.012.014 7.674.019.026 35.444v5.179h-97.454zm88 43.494a5.513 5.513 0 0 1 -5.463 4.645h-67.616a5.513 5.513 0 0 1 -5.463-4.645l-5.673-34.815h89.884z"/><path d="m64 106.519a1.75 1.75 0 0 0 1.75-1.75v-24.477a1.75 1.75 0 0 0 -3.5 0v24.477a1.75 1.75 0 0 0 1.75 1.75z"/><path d="m51.2 106.519c.048 0 .1 0 .145-.006a1.75 1.75 0 0 0 1.6-1.887l-2-24.477a1.75 1.75 0 1 0 -3.488.285l2 24.477a1.75 1.75 0 0 0 1.743 1.608z"/><path d="m35.895 105.051a1.75 1.75 0 1 0 3.454-.564l-4-24.477a1.75 1.75 0 1 0 -3.454.564z"/><path d="m76.653 106.513c.048 0 .1.006.145.006a1.75 1.75 0 0 0 1.742-1.607l2-24.477a1.75 1.75 0 0 0 -3.488-.285l-2 24.477a1.75 1.75 0 0 0 1.601 1.886z"/><path d="m90.1 106.5a1.753 1.753 0 0 0 2.009-1.445l4-24.477a1.75 1.75 0 1 0 -3.454-.564l-4 24.477a1.75 1.75 0 0 0 1.445 2.009z"/></svg>