<?xml version="1.0" encoding="iso-8859-1"?>
<!-- Generator: Adobe Illustrator 19.0.0, SVG Export Plug-In . SVG Version: 6.00 Build 0)  -->
<svg version="1.1" id="Layer_1" xmlns="http://www.w3.org/2000/svg" xmlns:xlink="http://www.w3.org/1999/xlink" x="0px" y="0px"
	 viewBox="0 0 512 512" style="enable-background:new 0 0 512 512;" xml:space="preserve">
<g>
	<g>
		<path d="M503.416,57.116l-13.889-13.885c-5.536-5.54-12.908-8.588-20.76-8.588c0,0-0.005,0-0.01,0
			c-7.856,0-15.239,3.053-20.784,8.603l-13.861,13.856L406.4,84.818l-83.145,83.145l-13.861-13.861
			c-3.674-3.674-10.182-3.674-13.856,0l-27.712,27.717L115.441,334.205c-12.98,12.976-20.133,30.214-20.138,48.539
			c-0.003,15.01,4.853,29.24,13.708,41.033l-28.248,28.252c-7.641,7.645-20.076,7.655-27.707,0.029l-27.76-27.755
			c-7.627-7.631-7.607-21.808,0.034-29.453l128.358-131.697c0,0.89,0,1.802,0,1.8c19.597-15.288,16.919-40.132,1.659-55.397
			L128.409,181.8c-15.263-15.268-39.717-15.248-55.01,0.029l-34.424,34.635c-3.828,3.828-3.725,10.033,0.103,13.856
			c3.828,3.828,10.08,3.828,13.907,0l34.657-34.635c7.646-7.646,20.092-7.655,27.719-0.029l27.767,27.755
			c7.625,7.631,7.61,20.061-0.031,27.707L11.473,382.739c-15.282,15.286-15.301,40.147-0.033,55.419L39.2,465.913
			c7.627,7.631,17.65,11.445,27.678,11.445c10.043,0,20.09-3.828,27.74-11.473l28.256-28.26
			c12.117,9.065,26.54,13.672,41.004,13.672c17.578,0,35.171-6.698,48.563-20.09L364.828,278.82l27.712-27.716
			c3.828-3.828,3.828-10.028,0-13.856l-13.856-13.856l83.145-83.145l27.712-27.717l13.865-13.856
			C514.861,87.21,514.865,68.565,503.416,57.116z M198.586,417.35c-19.138,19.119-50.237,19.143-69.337,0.043
			c-9.258-9.258-14.353-21.559-14.349-34.64c0.005-13.095,5.12-25.415,14.397-34.693l145.458-145.458l69.289,69.289L198.586,417.35z
			 M357.9,258.036l-69.289-69.289l13.856-13.861l13.861,13.861l41.573,41.573l13.856,13.856L357.9,258.036z M364.828,209.535
			l-27.716-27.716l76.217-76.217l27.717,27.716L364.828,209.535z M454.901,119.462l-27.716-27.717l13.856-13.861l27.717,27.717
			L454.901,119.462z M489.546,84.818l-6.933,6.928l-27.712-27.716l6.928-6.928c0,0,0,0,0.005,0c1.842-1.847,4.301-2.861,6.923-2.861
			c0,0,0,0,0.005,0c2.617,0,5.072,1.01,6.909,2.847l13.889,13.885C493.435,74.847,493.431,80.933,489.546,84.818z"/>
	</g>
</g>
</svg>
