<?xml version="1.0" encoding="iso-8859-1"?>
<!-- Generator: Adobe Illustrator 19.0.0, SVG Export Plug-In . SVG Version: 6.00 Build 0)  -->
<svg version="1.1" id="Layer_1" xmlns="http://www.w3.org/2000/svg" xmlns:xlink="http://www.w3.org/1999/xlink" x="0px" y="0px"
	 viewBox="0 0 512 512" style="enable-background:new 0 0 512 512;" xml:space="preserve">
<g>
	<g>
		<path d="M480,288h-10.667v-5.307c0-1.223-0.271-2.371-0.359-3.57c0.104-0.604,0.359-1.155,0.359-1.789v-64
			C469.333,95.703,373.635,0,256,0S42.667,95.703,42.667,213.333v64c0,0.634,0.255,1.183,0.359,1.788
			c-0.089,1.201-0.359,2.349-0.359,3.572V288H32c-17.646,0-32,14.385-32,32.062v106.542c0,17.677,14.354,32.062,32,32.062h10.667
			v5.307c0,26.479,21.531,48.026,48,48.026s48-21.547,48-48.026V282.693c0-26.479-21.531-48.026-48-48.026
			c-9.865,0-19.031,3.006-26.667,8.131v-29.465c0-105.87,86.135-192,192-192s192,86.13,192,192v29.465
			c-7.635-5.125-16.802-8.131-26.667-8.131c-26.469,0-48,21.547-48,48.026v181.281c0,26.479,21.531,48.026,48,48.026
			c26.469,0,48-21.547,48-48.026v-5.307H480c17.646,0,32-14.385,32-32.062V320.062C512,302.385,497.646,288,480,288z
			 M42.667,437.333H32c-5.885,0-10.667-4.813-10.667-10.729V320.062c0-6.015,4.688-10.729,10.667-10.729h10.667V437.333z
			 M90.667,256c14.708,0,26.667,11.974,26.667,26.693v181.281c0,14.719-11.958,26.693-26.667,26.693S64,478.693,64,463.974V448
			V298.667v-15.974C64,267.974,75.958,256,90.667,256z M448,298.667V448v15.974c0,14.719-11.958,26.693-26.667,26.693
			s-26.667-11.974-26.667-26.693V282.693c0-14.719,11.958-26.693,26.667-26.693S448,267.974,448,282.693V298.667z M490.667,426.604
			c0,6.016-4.687,10.729-10.667,10.729h-10.667v-128H480c5.885,0,10.667,4.813,10.667,10.729V426.604z"/>
	</g>
</g>
</svg>
