<?xml version="1.0" encoding="iso-8859-1"?>
<!-- Generator: Adobe Illustrator 19.0.0, SVG Export Plug-In . SVG Version: 6.00 Build 0)  -->
<svg version="1.1" id="Layer_1" xmlns="http://www.w3.org/2000/svg" xmlns:xlink="http://www.w3.org/1999/xlink" x="0px" y="0px"
	 viewBox="0 0 512 512" style="enable-background:new 0 0 512 512;" xml:space="preserve">
<g>
	<g>
		<path d="M402.889,0H109.111C93.389,0,80.593,12.787,80.593,28.509v454.982c0,15.722,12.796,28.509,28.519,28.509h293.778
			c15.722,0,28.518-12.787,28.518-28.509V28.509C431.407,12.787,418.611,0,402.889,0z M412.444,483.491
			c0,5.264-4.287,9.546-9.555,9.546H109.111c-5.269,0-9.556-4.282-9.556-9.546V28.509c0-5.264,4.287-9.546,9.556-9.546h293.778
			c5.268,0,9.555,4.282,9.555,9.546V483.491z"/>
	</g>
</g>
<g>
	<g>
		<path d="M384,37.926H128c-5.241,0-9.482,4.245-9.482,9.482v227.556c0,5.236,4.241,9.482,9.482,9.482h256
			c5.241,0,9.482-4.245,9.482-9.482V47.407C393.482,42.171,389.241,37.926,384,37.926z M374.518,265.482H137.482V56.889h237.037
			V265.482z"/>
	</g>
</g>
<g>
	<g>
		<path d="M256,293.926c-49.667,0-90.074,40.408-90.074,90.074c0,49.667,40.407,90.074,90.074,90.074s90.074-40.407,90.074-90.074
			C346.074,334.333,305.667,293.926,256,293.926z M256,455.111c-39.213,0-71.111-31.898-71.111-71.111s31.898-71.111,71.111-71.111
			s71.111,31.898,71.111,71.111S295.213,455.111,256,455.111z"/>
	</g>
</g>
<g>
	<g>
		<path d="M191.593,69.148c-3.704-3.704-9.704-3.704-13.407,0l-28.444,28.444c-3.704,3.704-3.704,9.704,0,13.407
			c1.852,1.852,4.278,2.778,6.704,2.778s4.852-0.926,6.704-2.778l28.444-28.444C195.296,78.852,195.296,72.852,191.593,69.148z"/>
	</g>
</g>
<g>
	<g>
		<path d="M248.481,78.63c-3.704-3.704-9.704-3.704-13.407,0l-75.852,75.852c-3.704,3.704-3.704,9.704,0,13.407
			c1.852,1.852,4.278,2.778,6.704,2.778s4.852-0.926,6.704-2.778l75.852-75.852C252.185,88.333,252.185,82.333,248.481,78.63z"/>
	</g>
</g>
</svg>
