<svg id="Layer_1" enable-background="new 0 0 128 128" height="512" viewBox="0 0 128 128" width="512" xmlns="http://www.w3.org/2000/svg"><path d="m72.5 78.8c-1.7-2.4-4.2-2.6-6.4-2.1.2-.6.7-1.1 1.2-1.3.9-.4 1.2-1.5.8-2.3s-1.4-1.2-2.2-.9c-1.8.9-3.1 2.6-3.5 4.7-2.3-.7-5.1-.6-6.9 2-1.9 2.8-.6 8 2 11.1 1.9 2.3 4.3 3.3 6.5 2.6.5.1.9.2 1.4.2 2-.1 3.9-1.2 5.1-2.8 2.5-3.1 3.9-8.3 2-11.2zm-4.7 8.9c-.8.9-1.9 1.9-3.1 1.4-.4-.2-.9-.2-1.4 0-1.2.5-2.4-.5-3.1-1.4-1.9-2.3-2.6-5.8-1.8-6.9.4-.6 1-.9 1.7-.8 1 .1 2.1.4 3 .9 0 0 .3.3.9.3.4 0 .9-.2.9-.3 0 0 3.4-2 4.7-.1.8 1.1.1 4.6-1.8 6.9z"/><path d="m88.3 31.5c-3.1-.6-5.3-3.3-5.4-6.4h1.1c1 0 1.8-.8 1.8-1.8v-9.8c0-1-.8-1.7-1.8-1.7h-40c-1 0-1.8.8-1.8 1.8v9.8c0 1 .8 1.8 1.8 1.8h1.1c-.1 3.1-2.3 5.8-5.4 6.4-4.8.9-8.3 5.1-8.3 10v67.8c0 3.9 3.1 7 7 7h51.2c3.9 0 7-3.1 7-7v-67.9c0-4.9-3.5-9.1-8.3-10zm-3.8 15.3c-.5-1.4-.8-3.3.6-4.6 1.6-1.2 3.6-1.4 5.4-.6 1.7.7 2.7 2.3 2.6 4.1v19.1h-58.2v-16.2c.5.3.9.5 1.4.7 2.8 1.1 7.5 1.6 14.3-2 4.2-2.2 7.6-2.8 10.4-1.8 4 1.3 6.5 5.6 8.2 9.2 1.3 3 4.3 5 7.6 5 1.1 0 2.1-.2 3.1-.6 3.8-1.5 6.8-6 4.6-12.3zm-49.6 21.5h58.2v27.7h-58.2zm47.4-46.7h-4.9v-6.3h4.9zm-12.7 0v-6.3h4.3v6.3zm-7.7 0v-6.3h4.3v6.3zm-7.8 0v-6.3h4.3v6.3zm-8.3-6.3h4.9v6.3h-4.9zm-5.5 19.6c4.7-.9 8.2-5 8.3-9.8h30.8c.1 4.8 3.5 8.9 8.3 9.8 2.1.4 3.9 1.8 4.8 3.7-.2-.1-.4-.2-.6-.3-3-1.4-6.6-.9-9.2 1.3-1.2 1.1-3.1 3.8-1.5 8.3 1.5 4.2-.2 7.1-2.6 8-2 .8-4.7.3-6.2-2.7-2-4.2-5-9.3-10.2-11-3.8-1.2-8.2-.5-13.2 2.1-8.9 4.7-13 1.2-14.1 0v-2.8c0-3.2 2.3-6 5.4-6.6zm49.3 77.8h-51.2c-1.9 0-3.5-1.6-3.5-3.5v-9.7h58.2v9.7c0 2-1.6 3.5-3.5 3.5z"/></svg>