<?xml version="1.0" encoding="iso-8859-1"?>
<!-- Generator: Adobe Illustrator 19.0.0, SVG Export Plug-In . SVG Version: 6.00 Build 0)  -->
<svg version="1.1" xmlns="http://www.w3.org/2000/svg" xmlns:xlink="http://www.w3.org/1999/xlink" x="0px" y="0px"
	 viewBox="0 0 512 512" style="enable-background:new 0 0 512 512;" xml:space="preserve">
<g>
	<g>
		<g>
			<path d="M504,200h-40V88c0-4.418-3.582-8-8-8s-8,3.582-8,8v16H312V88c0-4.418-3.582-8-8-8s-8,3.582-8,8v112h-64v-72
				c0-22.091-17.909-40-40-40s-40,17.909-40,40v8c0,4.418,3.582,8,8,8s8-3.582,8-8v-8c0-13.255,10.745-24,24-24s24,10.745,24,24v72
				h-16v-24c0-4.418-3.582-8-8-8H48c-4.418,0-8,3.582-8,8v24H8c-4.418,0-8,3.582-8,8v176c0,4.418,3.582,8,8,8h48v32
				c0,4.418,3.582,8,8,8h384c4.418,0,8-3.582,8-8v-32h48c4.418,0,8-3.582,8-8V208C512,203.582,508.418,200,504,200z M312,120h136v16
				H312V120z M312,152h136v16H312V152z M312,184h136v16H312V184z M56,184h128v16H56V184z M16,376V216h232v160H16z M440,416H72v-24
				h368V416z M496,376H264V216h232V376z"/>
			<path d="M208,264c-13.255,0-24,10.745-24,24s10.745,24,24,24s24-10.745,24-24S221.255,264,208,264z M208,296
				c-4.418,0-8-3.582-8-8s3.582-8,8-8s8,3.582,8,8S212.418,296,208,296z"/>
			<path d="M304,312c13.255,0,24-10.745,24-24s-10.745-24-24-24s-24,10.745-24,24S290.745,312,304,312z M304,280
				c4.418,0,8,3.582,8,8s-3.582,8-8,8s-8-3.582-8-8S299.582,280,304,280z"/>
		</g>
	</g>
</g>
</svg>
