<svg id="Layer_1" height="512" viewBox="0 0 128 128" width="512" xmlns="http://www.w3.org/2000/svg" data-name="Layer 1"><path d="m99.875 20.829h-19.458v-1.877a1.75 1.75 0 0 0 -1.75-1.75h-7.746a7.126 7.126 0 0 0 -13.842 0h-7.746a1.75 1.75 0 0 0 -1.75 1.75v1.877h-19.458a1.75 1.75 0 0 0 -1.75 1.75v91.9a1.75 1.75 0 0 0 1.75 1.75h71.75a1.75 1.75 0 0 0 1.75-1.75v-91.9a1.75 1.75 0 0 0 -1.75-1.75zm-48.792-.129h7.547a1.75 1.75 0 0 0 1.75-1.75c0-.038 0-.08 0-.123a3.625 3.625 0 0 1 7.249 0v.124a1.75 1.75 0 0 0 1.75 1.75h7.547v7.144h-25.843zm-1.75 10.644h29.334a1.75 1.75 0 0 0 1.75-1.75v-5.265h11.208v69.847h-10.625a1.75 1.75 0 0 0 -1.75 1.75v10.625h-42.875v-82.222h11.208v5.271a1.75 1.75 0 0 0 1.75 1.745zm39.816 66.332-6.4 6.4v-6.4zm8.976 15.05h-68.25v-88.4h3v83.974a1.75 1.75 0 0 0 1.75 1.75h46.375a1.75 1.75 0 0 0 1.237-.513l12.375-12.374a1.75 1.75 0 0 0 .513-1.237v-71.6h3z"/><path d="m41.167 42.5v7.333a1.75 1.75 0 0 0 1.75 1.75h7.333a1.75 1.75 0 0 0 1.75-1.75v-7.333a1.75 1.75 0 0 0 -1.75-1.75h-7.333a1.75 1.75 0 0 0 -1.75 1.75zm3.5 1.75h3.833v3.833h-3.833z"/><path d="m58.083 47.917h27a1.75 1.75 0 0 0 0-3.5h-27a1.75 1.75 0 0 0 0 3.5z"/><path d="m50.25 56.75h-7.333a1.75 1.75 0 0 0 -1.75 1.75v7.333a1.75 1.75 0 0 0 1.75 1.75h7.333a1.75 1.75 0 0 0 1.75-1.75v-7.333a1.75 1.75 0 0 0 -1.75-1.75zm-1.75 7.333h-3.833v-3.833h3.833z"/><path d="m58.083 63.917h27a1.75 1.75 0 0 0 0-3.5h-27a1.75 1.75 0 0 0 0 3.5z"/><path d="m50.25 72.75h-7.333a1.75 1.75 0 0 0 -1.75 1.75v7.333a1.75 1.75 0 0 0 1.75 1.75h7.333a1.75 1.75 0 0 0 1.75-1.75v-7.333a1.75 1.75 0 0 0 -1.75-1.75zm-1.75 7.333h-3.833v-3.833h3.833z"/><path d="m58.083 79.917h27a1.75 1.75 0 0 0 0-3.5h-27a1.75 1.75 0 0 0 0 3.5z"/></svg>