<?xml version="1.0" encoding="iso-8859-1"?>
<!-- Generator: Adobe Illustrator 19.0.0, SVG Export Plug-In . SVG Version: 6.00 Build 0)  -->
<svg version="1.1" id="Layer_1" xmlns="http://www.w3.org/2000/svg" xmlns:xlink="http://www.w3.org/1999/xlink" x="0px" y="0px"
	 viewBox="0 0 512 512" style="enable-background:new 0 0 512 512;" xml:space="preserve">
<g>
	<g>
		<path d="M434.087,66.783h-33.391V0h-22.261v66.783h-44.522V0h-22.261v66.783H267.13V0H244.87v66.783h-44.522V0h-22.261v66.783
			h-44.522V0h-22.261v66.783H77.913c-6.147,0-11.13,4.984-11.13,11.13v356.174c0,6.147,4.984,11.13,11.13,11.13h33.391V512h22.261
			v-66.783h44.522V512h22.261v-66.783h44.522V512h22.261v-66.783h44.522V512h22.261v-66.783h44.522V512h22.261v-66.783h33.391
			c6.147,0,11.13-4.984,11.13-11.13V77.913C445.217,71.766,440.234,66.783,434.087,66.783z M422.957,422.957h-22.261h-22.261
			h-44.522h-22.261H267.13H244.87h-44.522h-22.261h-44.522h-22.261H89.043V89.043h22.261h22.261h44.522h22.261h44.522h22.261h44.522
			h22.261h44.522h22.261h22.261V422.957z"/>
	</g>
</g>
<g>
	<g>
		<path d="M367.304,133.565H144.696c-6.147,0-11.13,4.984-11.13,11.13v222.609c0,6.147,4.984,11.13,11.13,11.13h222.609
			c6.147,0,11.13-4.984,11.13-11.13V144.696C378.435,138.549,373.451,133.565,367.304,133.565z M356.174,356.174H155.826V155.826
			h200.348V356.174z"/>
	</g>
</g>
<g>
	<g>
		<path d="M230.478,181.348c-4.348-4.348-11.391-4.348-15.739,0l-33.391,33.391c-4.348,4.348-4.348,11.391,0,15.739
			c2.174,2.174,5.022,3.261,7.87,3.261s5.696-1.087,7.87-3.261l33.391-33.391C234.826,192.739,234.826,185.696,230.478,181.348z"/>
	</g>
</g>
<g>
	<g>
		<path d="M308.946,180.794c-4.348-4.348-11.391-4.348-15.739,0L181.348,292.652c-4.348,4.348-4.348,11.391,0,15.739
			c2.174,2.174,5.022,3.261,7.87,3.261s5.696-1.087,7.87-3.261l111.859-111.859C313.293,192.185,313.293,185.141,308.946,180.794z"
			/>
	</g>
</g>
</svg>
