<?xml version="1.0" encoding="iso-8859-1"?>
<!-- Generator: Adobe Illustrator 19.0.0, SVG Export Plug-In . SVG Version: 6.00 Build 0)  -->
<svg version="1.1" id="Layer_1" xmlns="http://www.w3.org/2000/svg" xmlns:xlink="http://www.w3.org/1999/xlink" x="0px" y="0px"
	 viewBox="0 0 512 512" style="enable-background:new 0 0 512 512;" xml:space="preserve">
<g>
	<g>
		<path d="M264.888,0h-0.06h-17.655h-0.06c-77.845,0-141.181,63.362-141.181,141.246v17.651v17.655v17.655v17.655v17.655v17.655
			v17.655v17.655v8.823c0,77.884,63.336,141.246,141.181,141.246h17.776c77.845,0,141.181-63.362,141.181-141.246v-8.823v-17.655
			v-17.655v-17.655v-17.655v-17.655v-17.655v-17.655v-17.651C406.069,63.362,342.733,0,264.888,0z M388.414,158.897h-70.621v17.655
			h70.621v17.655h-70.621v17.655h70.621v17.655h-70.621v17.655h70.621v17.655h-70.621v17.655h70.621v8.823
			c0,68.147-55.414,123.591-123.526,123.591h-17.776c-68.112,0-123.526-55.444-123.526-123.591v-8.823h70.621v-17.655h-70.621
			v-17.655h70.621v-17.655h-70.621v-17.655h70.621v-17.655h-70.621v-17.655h70.621v-17.655h-70.621v-17.651
			c0-55.888,37.297-103.172,88.276-118.397v47.772h17.655V19.058c5.763-0.828,11.606-1.403,17.595-1.403h0.06v44.138h17.655V17.655
			h0.06c5.989,0,11.832,0.574,17.595,1.403v51.563h17.655V22.849c50.978,15.224,88.276,62.509,88.276,118.397V158.897z"/>
	</g>
</g>
<g>
	<g>
		<path d="M450.207,291.31c0-4.875-3.948-8.828-8.828-8.828c-4.879,0-8.828,3.953-8.828,8.828
			c0,92.483-75.241,167.724-167.733,167.724h-17.638c-92.491,0-167.733-75.241-167.733-167.724c0-4.875-3.948-8.828-8.828-8.828
			c-4.879,0-8.828,3.953-8.828,8.828c0,102.218,83.159,185.375,185.379,185.378v17.656h-44.138V512h105.931v-17.655h-44.138v-17.656
			C367.048,476.685,450.207,393.528,450.207,291.31z"/>
	</g>
</g>
</svg>
