<?xml version="1.0" encoding="iso-8859-1"?>
<!-- Generator: Adobe Illustrator 19.0.0, SVG Export Plug-In . SVG Version: 6.00 Build 0)  -->
<svg version="1.1" id="Layer_1" xmlns="http://www.w3.org/2000/svg" xmlns:xlink="http://www.w3.org/1999/xlink" x="0px" y="0px"
	 viewBox="0 0 512 512" style="enable-background:new 0 0 512 512;" xml:space="preserve">
<g>
	<g>
		<path d="M394.847,208.271h-26.034v-26.034v-78.064C368.814,46.733,322.102,0,264.686,0h-0.008h-17.356h-0.008
			c-57.415,0-104.127,46.733-104.127,104.174v78.064v26.034h-26.034c-4.792,0-8.678,3.886-8.678,8.678v112.763
			c0,65.901,49.234,120.387,112.814,128.923v36.009h-43.39V512h156.203v-17.356h-43.39v-36.009
			c63.58-8.536,112.814-63.021,112.814-128.923V216.949C403.525,212.157,399.64,208.271,394.847,208.271z M160.542,104.174
			c0-19.459,6.51-37.379,17.356-51.873v60.513h17.356V34.881c5.353-4.036,11.146-7.505,17.356-10.229v70.805h17.356V19.105
			c5.608-1.143,11.408-1.749,17.347-1.749h0.008v60.746h17.356V17.356h0.008c5.94,0,11.74,0.606,17.347,1.749v76.353h17.356V24.653
			c6.211,2.724,12.003,6.193,17.356,10.229v77.932h17.356V52.301c10.847,14.494,17.356,32.414,17.356,51.873v69.386h-41.263
			c-13.132-16.381-33.059-26.034-54.195-26.034s-41.063,9.652-54.195,26.034h-41.263V104.174z M160.542,190.915h45.602
			c2.839,0,5.496-1.386,7.119-3.716c9.746-13.975,25.725-22.318,42.737-22.318s32.991,8.343,42.737,22.318
			c1.623,2.33,4.28,3.716,7.119,3.716h45.602v52.068h-45.602c-2.839,0-5.496,1.386-7.119,3.716
			c-9.746,13.975-25.725,22.318-42.737,22.318s-32.991-8.343-42.737-22.318c-1.623-2.33-4.28-3.716-7.119-3.716h-45.602V190.915z
			 M160.542,260.339h41.263c13.132,16.381,33.059,26.034,54.195,26.034s41.063-9.652,54.195-26.034h41.263v60.708
			c0,19.459-6.508,37.379-17.356,51.873v-51.835h-17.356v69.254c-5.353,4.036-11.145,7.505-17.356,10.229v-70.805h-17.356v76.353
			c-5.607,1.143-11.408,1.749-17.347,1.749h-0.008v-60.746h-17.356v60.746h-0.008c-5.94,0-11.739-0.606-17.347-1.749v-76.353H212.61
			v70.805c-6.21-2.724-12.003-6.193-17.356-10.229v-69.254h-17.356v51.835c-10.846-14.494-17.356-32.414-17.356-51.873V260.339z
			 M273.356,494.644h-34.712v-34.713l0.008,0.001h34.695l0.008-0.001V494.644z M386.169,329.712
			c0,62.233-50.61,112.864-112.822,112.864h-34.695c-62.212,0-112.822-50.631-112.822-112.864V225.627h17.356v26.034v69.386
			c0,30.749,13.465,58.342,34.712,77.427v0.713h0.783c18.348,16.149,42.332,26.034,68.633,26.034h0.008h17.356h0.008
			c26.301,0,50.285-9.885,68.633-26.034h0.783v-0.713c21.248-19.085,34.712-46.678,34.712-77.427v-69.386v-26.034h17.356V329.712z"
			/>
	</g>
</g>
<g>
	<g>
		<path d="M256,182.237c-19.14,0-34.712,15.572-34.712,34.712S236.86,251.661,256,251.661s34.712-15.572,34.712-34.712
			S275.14,182.237,256,182.237z M256,234.305c-9.572,0-17.356-7.784-17.356-17.356s7.784-17.356,17.356-17.356
			s17.356,7.784,17.356,17.356S265.572,234.305,256,234.305z"/>
	</g>
</g>
</svg>
