<?xml version="1.0" encoding="iso-8859-1"?>
<!-- Generator: Adobe Illustrator 19.0.0, SVG Export Plug-In . SVG Version: 6.00 Build 0)  -->
<svg version="1.1" id="Layer_1" xmlns="http://www.w3.org/2000/svg" xmlns:xlink="http://www.w3.org/1999/xlink" x="0px" y="0px"
	 viewBox="0 0 512 512" style="enable-background:new 0 0 512 512;" xml:space="preserve">
<g>
	<g>
		<path d="M256,0c-60.496,0-109.714,49.232-109.714,109.746v219.366c0,60.513,49.219,109.746,109.714,109.746
			s109.714-49.232,109.714-109.746V109.746C365.714,49.232,316.496,0,256,0z M347.429,329.112c0,50.433-41.013,91.46-91.429,91.46
			s-91.429-41.027-91.429-91.46V109.746c0-50.433,41.013-91.46,91.429-91.46s91.429,41.027,91.429,91.46V329.112z"/>
	</g>
</g>
<g>
	<g>
		<path d="M393.143,210.286c-5.049,0-9.143,4.094-9.143,9.143v118.804c0,63.344-59.808,118.911-127.991,118.911
			C187.817,457.143,128,401.576,128,338.232V219.429c0-5.049-4.094-9.143-9.143-9.143s-9.143,4.094-9.143,9.143v118.804
			c0,70.2,63.102,131.95,137.143,136.73v18.752h-36.571V512h91.429v-18.286h-36.571v-18.751
			c74.04-4.772,137.143-66.527,137.143-136.731V219.429C402.286,214.379,398.192,210.286,393.143,210.286z"/>
	</g>
</g>
<g>
	<g>
		<path d="M191.817,126.263c-0.094-0.643-0.277-1.192-0.549-1.741c-0.183-0.545-0.46-1.094-0.826-1.643
			c-0.272-0.46-0.728-0.915-1.094-1.371c-0.46-0.366-0.915-0.826-1.37-1.098c-0.549-0.366-1.098-0.643-1.647-0.826
			c-0.549-0.272-1.098-0.456-1.647-0.545c-1.187-0.277-2.469-0.277-3.656,0c-0.549,0.089-1.098,0.272-1.647,0.545
			c-0.545,0.183-1.094,0.46-1.643,0.826c-0.46,0.272-0.915,0.732-1.371,1.098c-1.647,1.736-2.652,4.112-2.652,6.491
			c0,2.469,1.005,4.755,2.652,6.491c0.455,0.366,0.911,0.821,1.371,1.094c0.549,0.366,1.098,0.643,1.643,0.826
			c0.549,0.272,1.098,0.455,1.647,0.549c0.638,0.089,1.281,0.183,1.83,0.183c0.549,0,1.187-0.094,1.826-0.183
			c0.549-0.094,1.098-0.277,1.647-0.549c0.549-0.183,1.098-0.46,1.647-0.826c0.456-0.272,0.911-0.728,1.371-1.094
			c0.366-0.46,0.821-0.915,1.094-1.37c0.366-0.549,0.643-1.098,0.826-1.647c0.272-0.549,0.455-1.098,0.549-1.647
			c0.089-0.638,0.183-1.187,0.183-1.826C192,127.451,191.906,126.808,191.817,126.263z"/>
	</g>
</g>
<g>
	<g>
		<path d="M216.777,103.223c-2.196-2.103-5.304-3.018-8.321-2.469c-0.549,0.089-1.098,0.272-1.647,0.545
			c-0.545,0.183-1.094,0.46-1.643,0.826c-0.46,0.366-0.915,0.732-1.371,1.098c-1.647,1.736-2.652,4.112-2.652,6.491
			c0,1.187,0.272,2.375,0.728,3.473c0.46,1.188,1.098,2.103,1.924,3.018c0.455,0.366,0.911,0.821,1.371,1.094
			c0.549,0.366,1.098,0.643,1.643,0.826c0.549,0.272,1.098,0.455,1.647,0.549c0.638,0.089,1.281,0.183,1.83,0.183
			c2.375,0,4.755-1.009,6.491-2.652c1.643-1.736,2.652-4.116,2.652-6.491C219.429,107.335,218.42,104.96,216.777,103.223z"/>
	</g>
</g>
<g>
	<g>
		<path d="M191.817,162.741c-0.094-0.549-0.277-1.098-0.549-1.647c-0.183-0.545-0.46-1.094-0.826-1.643
			c-0.272-0.46-0.728-0.915-1.094-1.371c-3.384-3.384-9.602-3.384-12.982,0c-1.647,1.736-2.652,4.112-2.652,6.491
			c0,2.375,1.005,4.755,2.652,6.491c0.455,0.366,0.911,0.822,1.371,1.094c0.549,0.366,1.098,0.643,1.643,0.826
			c0.549,0.272,1.098,0.455,1.647,0.549c0.638,0.089,1.281,0.183,1.83,0.183c0.549,0,1.187-0.094,1.826-0.183
			c0.549-0.094,1.098-0.277,1.647-0.549c0.549-0.183,1.098-0.46,1.647-0.826c0.456-0.272,0.911-0.728,1.371-1.094
			c0.366-0.46,0.821-0.915,1.094-1.371c0.366-0.549,0.643-1.098,0.826-1.647c0.272-0.549,0.455-1.098,0.549-1.647
			c0.089-0.638,0.183-1.277,0.183-1.826C192,164.022,191.906,163.379,191.817,162.741z"/>
	</g>
</g>
<g>
	<g>
		<path d="M218.696,142.808c-0.46-1.187-1.098-2.103-1.92-3.013c-3.477-3.384-9.602-3.384-12.982,0
			c-0.826,0.911-1.464,1.826-1.924,3.013c-0.456,1.098-0.728,2.286-0.728,3.478c0,2.375,1.005,4.755,2.652,6.491
			c0.455,0.366,0.911,0.732,1.371,1.094c0.549,0.366,1.098,0.643,1.643,0.826c0.549,0.272,1.098,0.455,1.647,0.549
			c0.638,0.089,1.281,0.183,1.83,0.183c2.375,0,4.755-1.009,6.491-2.652c1.643-1.736,2.652-4.116,2.652-6.491
			C219.429,145.094,219.152,143.906,218.696,142.808z"/>
	</g>
</g>
<g>
	<g>
		<path d="M189.348,194.652c-3.384-3.384-9.603-3.384-12.982,0c-1.647,1.736-2.652,4.112-2.652,6.491
			c0,1.187,0.272,2.375,0.728,3.473c0.46,1.188,1.098,2.103,1.924,3.018c0.455,0.366,0.911,0.821,1.371,1.094
			c0.549,0.366,1.098,0.643,1.643,0.826c0.549,0.272,1.098,0.455,1.647,0.549c0.638,0.089,1.281,0.183,1.83,0.183
			c0.549,0,1.187-0.094,1.826-0.183c0.549-0.094,1.098-0.277,1.647-0.549c0.549-0.183,1.098-0.46,1.647-0.826
			c0.456-0.272,0.911-0.728,1.371-1.094c1.643-1.736,2.652-4.116,2.652-6.491C192,198.763,190.991,196.388,189.348,194.652z"/>
	</g>
</g>
<g>
	<g>
		<path d="M216.777,176.366c-2.196-2.103-5.304-3.018-8.321-2.469c-0.549,0.089-1.098,0.272-1.647,0.545
			c-0.545,0.183-1.094,0.46-1.643,0.826c-0.46,0.366-0.915,0.732-1.371,1.098c-1.647,1.737-2.652,4.112-2.652,6.491
			c0,1.187,0.272,2.375,0.728,3.473c0.46,1.188,1.098,2.103,1.924,3.018c0.455,0.366,0.911,0.821,1.371,1.094
			c0.549,0.366,1.098,0.643,1.643,0.826c0.549,0.272,1.098,0.455,1.647,0.549c0.638,0.089,1.281,0.183,1.83,0.183
			c2.375,0,4.755-1.009,6.491-2.652c1.643-1.736,2.652-4.116,2.652-6.491C219.429,180.478,218.42,178.103,216.777,176.366z"/>
	</g>
</g>
<g>
	<g>
		<path d="M191.817,235.884c-0.094-0.549-0.277-1.098-0.549-1.647c-0.183-0.545-0.46-1.094-0.826-1.643
			c-0.272-0.46-0.728-0.915-1.094-1.371c-3.384-3.384-9.602-3.384-12.982,0c-1.647,1.736-2.652,4.112-2.652,6.491
			c0,2.375,1.005,4.755,2.652,6.491c0.455,0.366,0.911,0.732,1.371,1.094c0.549,0.366,1.098,0.643,1.643,0.826
			c0.549,0.272,1.098,0.455,1.647,0.549c0.638,0.089,1.281,0.183,1.83,0.183c0.549,0,1.187-0.094,1.826-0.183
			c0.549-0.094,1.098-0.277,1.647-0.549c0.549-0.183,1.098-0.46,1.647-0.826c0.456-0.362,0.911-0.728,1.371-1.094
			c1.643-1.736,2.652-4.116,2.652-6.491C192,237.165,191.906,236.522,191.817,235.884z"/>
	</g>
</g>
<g>
	<g>
		<path d="M216.777,212.938c-2.196-2.103-5.304-3.112-8.321-2.469c-0.549,0.089-1.098,0.272-1.647,0.545
			c-0.545,0.183-1.094,0.46-1.643,0.826c-0.46,0.272-0.915,0.732-1.371,1.098c-0.826,0.911-1.464,1.826-1.924,3.013
			c-0.456,1.098-0.728,2.286-0.728,3.478c0,1.187,0.272,2.375,0.728,3.473c0.46,1.098,1.098,2.103,1.924,3.018
			c0.455,0.366,0.911,0.732,1.371,1.094c0.549,0.366,1.098,0.643,1.643,0.826c0.549,0.272,1.098,0.455,1.647,0.549
			c0.638,0.089,1.281,0.183,1.83,0.183c2.375,0,4.755-1.009,6.491-2.652c1.643-1.736,2.652-4.116,2.652-6.491
			C219.429,217.049,218.42,214.674,216.777,212.938z"/>
	</g>
</g>
<g>
	<g>
		<path d="M191.268,270.808c-0.46-1.187-1.098-2.103-1.92-3.013c-2.196-2.103-5.304-3.112-8.321-2.469
			c-0.549,0.089-1.098,0.272-1.647,0.545c-0.545,0.183-1.094,0.46-1.554,0.826c-0.549,0.272-1.004,0.732-1.46,1.098
			c-0.826,0.911-1.464,1.826-1.924,3.013c-0.456,1.098-0.728,2.286-0.728,3.478c0,2.375,1.005,4.755,2.652,6.491
			c0.455,0.366,0.911,0.822,1.46,1.094c0.46,0.366,1.009,0.643,1.554,0.826c0.549,0.272,1.098,0.455,1.647,0.549
			c0.638,0.089,1.281,0.183,1.83,0.183c2.375,0,4.755-1.009,6.491-2.652c1.643-1.736,2.652-4.116,2.652-6.491
			C192,273.094,191.723,271.906,191.268,270.808z"/>
	</g>
</g>
<g>
	<g>
		<path d="M216.777,249.509c-0.46-0.366-0.915-0.732-1.37-1.098c-0.549-0.366-1.098-0.643-1.647-0.826
			c-0.549-0.272-1.098-0.456-1.647-0.545c-3.018-0.549-6.125,0.366-8.317,2.469c-1.647,1.736-2.652,4.112-2.652,6.491
			c0,0.549,0.089,1.187,0.183,1.826c0.089,0.549,0.272,1.098,0.545,1.647c0.183,0.549,0.46,1.098,0.826,1.647
			c0.366,0.456,0.732,0.911,1.098,1.37c1.736,1.643,4.112,2.652,6.491,2.652c2.375,0,4.755-1.009,6.491-2.652
			c1.643-1.736,2.652-4.116,2.652-6.491C219.429,253.621,218.42,251.245,216.777,249.509z"/>
	</g>
</g>
<g>
	<g>
		<path d="M189.348,304.366c-2.563-2.469-6.585-3.384-9.969-1.924c-1.094,0.46-2.103,1.098-3.013,1.924
			c-1.647,1.736-2.652,4.112-2.652,6.491c0,1.187,0.272,2.375,0.728,3.473c0.46,1.188,1.098,2.192,1.924,3.018
			c1.736,1.643,4.112,2.652,6.491,2.652c2.375,0,4.755-1.009,6.491-2.652c0.822-0.826,1.46-1.83,1.92-3.018
			c0.455-1.098,0.732-2.286,0.732-3.473C192,308.478,190.991,306.103,189.348,304.366z"/>
	</g>
</g>
<g>
	<g>
		<path d="M218.696,289.094c-0.46-1.187-1.098-2.103-1.92-3.013c-2.563-2.469-6.585-3.295-9.969-1.924
			c-1.094,0.46-2.103,1.098-3.013,1.924c-0.826,0.911-1.464,1.826-1.924,3.013c-0.456,1.098-0.728,2.286-0.728,3.478
			c0,2.375,1.005,4.755,2.652,6.491c1.736,1.643,4.112,2.652,6.491,2.652c2.375,0,4.755-1.009,6.491-2.652
			c1.643-1.737,2.652-4.116,2.652-6.491C219.429,291.379,219.152,290.192,218.696,289.094z"/>
	</g>
</g>
<g>
	<g>
		<path d="M244.205,121.509c-2.563-2.563-6.674-3.295-9.969-1.924c-1.094,0.46-2.103,1.098-3.013,1.924
			c-1.647,1.736-2.652,4.112-2.652,6.491c0,2.375,1.005,4.755,2.652,6.491c0.911,0.821,1.92,1.46,3.013,1.92
			c1.098,0.455,2.286,0.732,3.478,0.732c2.375,0,4.755-1.009,6.491-2.652c1.643-1.736,2.652-4.116,2.652-6.491
			C246.857,125.621,245.848,123.245,244.205,121.509z"/>
	</g>
</g>
<g>
	<g>
		<path d="M271.634,103.223c-2.563-2.563-6.674-3.384-9.969-1.924c-1.187,0.46-2.103,1.098-3.013,1.924
			c-0.826,0.821-1.464,1.826-1.924,3.013c-0.456,1.098-0.728,2.286-0.728,3.478c0,1.187,0.272,2.375,0.728,3.473
			c0.46,1.188,1.098,2.103,1.924,3.018c0.911,0.821,1.826,1.46,3.013,1.92c1.098,0.455,2.286,0.732,3.478,0.732
			c2.375,0,4.755-1.009,6.491-2.652c1.643-1.736,2.652-4.116,2.652-6.491C274.286,107.335,273.277,104.96,271.634,103.223z"/>
	</g>
</g>
<g>
	<g>
		<path d="M246.125,161.094c-0.46-1.187-1.098-2.103-1.92-3.013c-0.915-0.826-1.83-1.464-3.018-1.924
			c-2.196-0.911-4.754-0.911-6.951,0c-1.187,0.46-2.103,1.098-3.013,1.924c-0.826,0.911-1.464,1.826-1.924,3.013
			c-0.456,1.098-0.728,2.286-0.728,3.478c0,2.375,1.005,4.755,2.652,6.491c0.911,0.822,1.92,1.46,3.013,1.92
			c1.098,0.455,2.286,0.732,3.478,0.732c2.375,0,4.755-1.009,6.491-2.652c1.643-1.736,2.652-4.116,2.652-6.491
			C246.857,163.379,246.674,162.192,246.125,161.094z"/>
	</g>
</g>
<g>
	<g>
		<path d="M271.634,139.795c-2.563-2.563-6.674-3.384-9.969-1.924c-1.187,0.46-2.103,1.098-3.013,1.924
			c-0.826,0.821-1.464,1.826-1.924,3.013c-0.456,1.098-0.728,2.286-0.728,3.478c0,1.187,0.272,2.375,0.728,3.473
			c0.46,1.188,1.098,2.103,1.924,3.018c0.911,0.821,1.826,1.46,3.013,1.92c1.098,0.455,2.286,0.732,3.478,0.732
			c2.375,0,4.755-1.009,6.491-2.652c1.643-1.736,2.652-4.116,2.652-6.491C274.286,143.906,273.277,141.531,271.634,139.795z"/>
	</g>
</g>
<g>
	<g>
		<path d="M246.125,197.665c-0.46-1.094-1.098-2.103-1.92-3.013c-2.563-2.563-6.585-3.384-9.969-1.924
			c-1.094,0.46-2.103,1.098-3.013,1.924c-0.826,0.911-1.464,1.919-1.924,3.013c-0.456,1.098-0.728,2.286-0.728,3.478
			c0,2.375,1.005,4.755,2.652,6.491c0.911,0.821,1.92,1.46,3.013,1.92c1.098,0.549,2.286,0.732,3.478,0.732
			c2.375,0,4.755-1.009,6.491-2.652c1.643-1.736,2.652-4.116,2.652-6.491C246.857,199.951,246.674,198.763,246.125,197.665z"/>
	</g>
</g>
<g>
	<g>
		<path d="M273.554,179.379c-0.46-1.187-1.098-2.103-1.92-3.013c-0.915-0.826-1.83-1.464-3.018-1.924
			c-2.196-0.911-4.754-0.911-6.951,0c-1.187,0.46-2.103,1.098-3.013,1.924c-0.826,0.821-1.464,1.826-1.924,3.013
			c-0.456,1.098-0.728,2.286-0.728,3.478c0,2.469,1.005,4.755,2.652,6.491c0.911,0.821,1.826,1.46,3.013,1.92
			c1.098,0.549,2.286,0.732,3.478,0.732c2.375,0,4.755-1.009,6.491-2.652c1.643-1.736,2.652-4.116,2.652-6.491
			C274.286,181.665,274.103,180.478,273.554,179.379z"/>
	</g>
</g>
<g>
	<g>
		<path d="M244.205,231.223c-2.563-2.563-6.585-3.384-9.969-1.924c-1.094,0.46-2.103,1.098-3.013,1.924
			c-1.647,1.736-2.652,4.112-2.652,6.491c0,0.549,0.089,1.187,0.183,1.826c0.089,0.549,0.272,1.098,0.545,1.647
			c0.183,0.549,0.46,1.098,0.826,1.647c0.366,0.456,0.732,0.911,1.098,1.37c0.911,0.821,1.826,1.46,3.013,1.92
			c1.098,0.455,2.286,0.732,3.478,0.732c2.375,0,4.755-1.009,6.491-2.652c0.366-0.46,0.821-0.915,1.094-1.371
			c0.366-0.549,0.643-1.098,0.826-1.647c0.272-0.549,0.455-1.098,0.549-1.647c0.089-0.638,0.183-1.277,0.183-1.826
			C246.857,235.335,245.848,232.96,244.205,231.223z"/>
	</g>
</g>
<g>
	<g>
		<path d="M273.554,215.951c-0.46-1.187-1.098-2.103-1.92-3.013c-0.915-0.826-1.83-1.464-3.018-1.924
			c-2.196-0.911-4.754-0.911-6.951,0c-1.187,0.46-2.103,1.098-3.013,1.924c-0.826,0.821-1.464,1.826-1.924,3.013
			c-0.456,1.098-0.728,2.286-0.728,3.478c0,2.469,1.005,4.755,2.652,6.491c0.911,0.821,1.826,1.46,3.013,1.92
			c1.098,0.549,2.286,0.732,3.478,0.732c2.375,0,4.755-1.009,6.491-2.652c1.643-1.736,2.652-4.116,2.652-6.491
			C274.286,218.237,274.103,217.049,273.554,215.951z"/>
	</g>
</g>
<g>
	<g>
		<path d="M244.205,267.795c-0.46-0.366-0.915-0.826-1.371-1.098c-0.549-0.366-1.098-0.643-1.647-0.826
			c-0.549-0.272-1.098-0.456-1.647-0.545c-3.018-0.643-6.125,0.366-8.317,2.469c-0.826,0.911-1.464,1.826-1.924,3.013
			c-0.456,1.098-0.728,2.286-0.728,3.478c0,2.375,1.005,4.755,2.652,6.491c1.736,1.643,4.112,2.652,6.491,2.652
			c0.549,0,1.187-0.094,1.826-0.183c0.549-0.094,1.098-0.277,1.647-0.549c0.549-0.183,1.098-0.46,1.647-0.826
			c0.456-0.272,0.911-0.728,1.371-1.094c1.643-1.737,2.652-4.116,2.652-6.491C246.857,271.906,245.848,269.531,244.205,267.795z"/>
	</g>
</g>
<g>
	<g>
		<path d="M273.554,252.522c-0.46-1.187-1.098-2.103-1.92-3.013c-0.915-0.826-1.83-1.464-3.018-1.924
			c-2.196-0.911-4.754-0.911-6.951,0c-1.187,0.46-2.103,1.098-3.013,1.924c-0.826,0.911-1.464,1.826-1.924,3.013
			C256.272,253.621,256,254.808,256,256c0,1.187,0.272,2.375,0.728,3.473c0.46,1.188,1.098,2.103,1.924,3.018
			c0.911,0.821,1.826,1.46,3.013,1.92c1.098,0.549,2.286,0.732,3.478,0.732c2.375,0,4.755-1.009,6.491-2.652
			c1.643-1.736,2.652-4.116,2.652-6.491C274.286,254.808,274.103,253.621,273.554,252.522z"/>
	</g>
</g>
<g>
	<g>
		<path d="M244.205,304.366c-0.915-0.826-1.83-1.464-3.018-1.924c-3.384-1.46-7.406-0.545-9.964,1.924
			c-1.647,1.736-2.652,4.112-2.652,6.491c0,1.187,0.272,2.375,0.728,3.473c0.46,1.188,1.098,2.103,1.924,3.018
			c0.455,0.366,0.911,0.732,1.37,1.094c0.549,0.366,1.098,0.643,1.643,0.826c0.549,0.272,1.098,0.455,1.647,0.549
			c0.638,0.089,1.281,0.183,1.83,0.183c2.375,0,4.755-1.009,6.491-2.652c0.821-0.826,1.46-1.83,1.92-3.018
			c0.549-1.098,0.732-2.286,0.732-3.473C246.857,308.478,245.848,306.103,244.205,304.366z"/>
	</g>
</g>
<g>
	<g>
		<path d="M273.554,289.094c-0.46-1.187-1.098-2.103-1.92-3.013c-0.915-0.826-1.83-1.464-3.018-1.924
			c-2.196-0.911-4.754-0.911-6.951,0c-1.187,0.46-2.103,1.098-3.013,1.924c-0.826,0.911-1.464,1.826-1.924,3.013
			c-0.456,1.098-0.728,2.286-0.728,3.478c0,1.187,0.272,2.375,0.728,3.473c0.46,1.188,1.098,2.103,1.924,3.018
			c0.911,0.821,1.826,1.46,3.013,1.92c1.098,0.549,2.286,0.732,3.478,0.732c2.375,0,4.755-1.009,6.491-2.652
			c1.643-1.737,2.652-4.116,2.652-6.491C274.286,291.379,274.103,290.192,273.554,289.094z"/>
	</g>
</g>
<g>
	<g>
		<path d="M299.062,121.509c-0.826-0.826-1.83-1.464-3.018-1.924c-2.196-0.911-4.754-0.911-6.951,0
			c-1.187,0.46-2.192,1.098-3.013,1.924c-1.647,1.736-2.652,4.112-2.652,6.491c0,0.549,0.089,1.187,0.183,1.737
			c0.089,0.638,0.272,1.187,0.545,1.736c0.183,0.549,0.46,1.098,0.826,1.554c0.272,0.549,0.732,1.005,1.098,1.464
			c0.821,0.821,1.826,1.46,3.013,1.92c1.098,0.455,2.286,0.732,3.478,0.732c2.375,0,4.755-1.009,6.491-2.652
			c0.366-0.46,0.821-0.915,1.094-1.464c0.366-0.455,0.643-1.004,0.826-1.554c0.272-0.549,0.455-1.098,0.549-1.736
			c0.089-0.549,0.183-1.188,0.183-1.737C301.714,125.621,300.705,123.245,299.062,121.509z"/>
	</g>
</g>
<g>
	<g>
		<path d="M326.491,103.223c-2.563-2.469-6.585-3.384-9.969-1.924c-1.094,0.46-2.103,1.098-3.013,1.924
			c-1.647,1.736-2.652,4.112-2.652,6.491c0,2.375,1.005,4.755,2.652,6.491c1.736,1.643,4.112,2.652,6.491,2.652
			c2.375,0,4.755-1.009,6.491-2.652c1.643-1.736,2.652-4.116,2.652-6.491C329.143,107.335,328.134,104.96,326.491,103.223z"/>
	</g>
</g>
<g>
	<g>
		<path d="M300.982,161.094c-0.46-1.187-1.098-2.192-1.92-3.013c-0.826-0.826-1.83-1.464-3.018-1.924
			c-2.196-1.005-4.754-0.911-6.951,0c-1.187,0.46-2.192,1.098-3.013,1.924c-0.826,0.821-1.464,1.826-1.924,3.013
			c-0.456,1.098-0.728,2.286-0.728,3.478c0,1.187,0.272,2.375,0.728,3.473c0.46,1.188,1.098,2.192,1.924,3.018
			c0.821,0.822,1.826,1.46,3.013,1.92c1.098,0.455,2.286,0.732,3.478,0.732c1.187,0,2.375-0.277,3.473-0.732
			c1.188-0.46,2.192-1.098,3.018-1.92c0.821-0.826,1.46-1.83,1.92-3.018c0.455-1.098,0.732-2.286,0.732-3.473
			C301.714,163.379,301.438,162.192,300.982,161.094z"/>
	</g>
</g>
<g>
	<g>
		<path d="M328.96,144.455c-0.094-0.549-0.277-1.098-0.549-1.647c-0.183-0.545-0.46-1.094-0.826-1.643
			c-0.362-0.46-0.728-0.915-1.094-1.371c-3.477-3.384-9.509-3.384-12.982,0c-0.366,0.455-0.732,0.911-1.098,1.371
			c-0.366,0.549-0.643,1.098-0.826,1.643c-0.272,0.549-0.456,1.098-0.545,1.647c-0.094,0.638-0.183,1.281-0.183,1.83
			c0,2.375,1.005,4.755,2.652,6.491c0.911,0.822,1.92,1.46,3.013,1.92c1.098,0.455,2.286,0.732,3.478,0.732
			c2.375,0,4.755-1.009,6.491-2.652c1.643-1.736,2.652-4.116,2.652-6.491C329.143,145.737,329.049,145.094,328.96,144.455z"/>
	</g>
</g>
<g>
	<g>
		<path d="M301.531,199.313c-0.094-0.549-0.277-1.098-0.549-1.647c-0.183-0.545-0.46-1.094-0.826-1.643
			c-0.272-0.46-0.728-0.915-1.094-1.37c-3.478-3.384-9.603-3.384-12.982,0c-0.366,0.455-0.826,0.911-1.098,1.37
			c-0.366,0.549-0.643,1.098-0.826,1.643c-0.272,0.549-0.456,1.098-0.545,1.647c-0.094,0.638-0.183,1.281-0.183,1.83
			c0,1.187,0.272,2.375,0.728,3.473c0.46,1.188,1.098,2.103,1.924,3.018c1.736,1.643,4.112,2.652,6.491,2.652
			c2.375,0,4.755-1.009,6.491-2.652c0.821-0.915,1.46-1.83,1.92-3.018c0.455-1.098,0.732-2.286,0.732-3.473
			C301.714,200.594,301.621,199.951,301.531,199.313z"/>
	</g>
</g>
<g>
	<g>
		<path d="M326.491,176.366c-2.563-2.469-6.585-3.384-9.969-1.924c-1.094,0.46-2.103,1.098-3.013,1.924
			c-1.647,1.736-2.652,4.112-2.652,6.491c0,2.375,1.005,4.755,2.652,6.491c1.736,1.643,4.112,2.652,6.491,2.652
			c2.375,0,4.755-1.009,6.491-2.652c1.643-1.736,2.652-4.116,2.652-6.491C329.143,180.478,328.134,178.103,326.491,176.366z"/>
	</g>
</g>
<g>
	<g>
		<path d="M300.982,234.237c-0.46-1.094-1.098-2.103-1.92-3.013c-3.478-3.384-9.603-3.384-12.982,0
			c-0.826,0.911-1.464,1.92-1.924,3.013c-0.456,1.098-0.728,2.286-0.728,3.478c0,1.187,0.272,2.375,0.728,3.473
			c0.46,1.098,1.098,2.103,1.924,3.018c1.736,1.643,4.112,2.652,6.491,2.652c2.375,0,4.755-1.009,6.491-2.652
			c0.821-0.915,1.46-1.92,1.92-3.018c0.455-1.098,0.732-2.286,0.732-3.473C301.714,236.522,301.438,235.335,300.982,234.237z"/>
	</g>
</g>
<g>
	<g>
		<path d="M328.96,217.598c-0.094-0.549-0.277-1.098-0.549-1.647c-0.183-0.545-0.46-1.094-0.826-1.643
			c-0.362-0.46-0.728-0.915-1.094-1.37c-3.477-3.384-9.509-3.384-12.982,0c-0.366,0.455-0.732,0.911-1.098,1.37
			c-0.366,0.549-0.643,1.098-0.826,1.643c-0.272,0.549-0.456,1.098-0.545,1.647c-0.094,0.638-0.183,1.281-0.183,1.83
			c0,2.375,1.005,4.755,2.652,6.491c0.911,0.821,1.92,1.46,3.013,1.92c1.098,0.455,2.286,0.732,3.478,0.732
			c2.375,0,4.755-1.009,6.491-2.652c1.643-1.736,2.652-4.116,2.652-6.491C329.143,218.88,329.049,218.237,328.96,217.598z"/>
	</g>
</g>
<g>
	<g>
		<path d="M300.982,270.808c-0.46-1.187-1.098-2.103-1.92-3.013c-0.826-0.826-1.83-1.464-3.018-1.924
			c-2.196-0.911-4.754-0.911-6.951,0c-1.187,0.46-2.192,1.098-3.013,1.924c-0.826,0.911-1.464,1.826-1.924,3.013
			c-0.456,1.098-0.728,2.286-0.728,3.478c0,0.549,0.089,1.187,0.183,1.826c0.089,0.549,0.272,1.098,0.545,1.647
			c0.183,0.549,0.46,1.098,0.826,1.647c0.272,0.456,0.732,0.911,1.098,1.371c1.736,1.643,4.112,2.652,6.491,2.652
			c2.375,0,4.755-1.009,6.491-2.652c1.643-1.736,2.652-4.022,2.652-6.491C301.714,273.094,301.438,271.906,300.982,270.808z"/>
	</g>
</g>
<g>
	<g>
		<path d="M326.491,249.509c-2.563-2.469-6.585-3.384-9.969-1.924c-1.094,0.46-2.103,1.098-3.013,1.924
			c-1.647,1.736-2.652,4.112-2.652,6.491c0,2.375,1.005,4.755,2.652,6.491c1.736,1.643,4.112,2.652,6.491,2.652
			c2.375,0,4.755-1.009,6.491-2.652c1.643-1.736,2.652-4.116,2.652-6.491C329.143,253.621,328.134,251.245,326.491,249.509z"/>
	</g>
</g>
<g>
	<g>
		<path d="M300.982,307.379c-0.46-1.187-1.098-2.192-1.92-3.013c-0.826-0.826-1.83-1.464-3.018-1.924
			c-2.196-1.005-4.754-0.911-6.951,0c-1.187,0.46-2.192,1.098-3.013,1.924c-0.826,0.821-1.464,1.826-1.924,3.013
			c-0.456,1.098-0.728,2.286-0.728,3.478c0,1.187,0.272,2.375,0.728,3.473c0.46,1.188,1.098,2.192,1.924,3.018
			c0.821,0.821,1.826,1.46,3.013,1.92c1.098,0.455,2.286,0.732,3.478,0.732c1.187,0,2.375-0.277,3.473-0.732
			c1.188-0.46,2.192-1.098,3.018-1.92c0.821-0.826,1.46-1.83,1.92-3.018c0.455-1.098,0.732-2.286,0.732-3.473
			C301.714,309.665,301.438,308.478,300.982,307.379z"/>
	</g>
</g>
<g>
	<g>
		<path d="M328.96,290.741c-0.094-0.549-0.277-1.098-0.549-1.647c-0.183-0.545-0.46-1.094-0.826-1.643
			c-0.362-0.46-0.728-0.915-1.094-1.371c-3.477-3.384-9.509-3.384-12.982,0c-0.366,0.455-0.732,0.911-1.098,1.371
			c-0.366,0.549-0.643,1.098-0.826,1.643c-0.272,0.549-0.456,1.098-0.545,1.647c-0.094,0.638-0.183,1.281-0.183,1.83
			c0,2.375,1.005,4.755,2.652,6.491c0.911,0.821,1.92,1.46,3.013,1.92c1.098,0.455,2.286,0.732,3.478,0.732
			c2.375,0,4.755-1.009,6.491-2.652c1.643-1.737,2.652-4.116,2.652-6.491C329.143,292.022,329.049,291.379,328.96,290.741z"/>
	</g>
</g>
</svg>
