<svg xmlns="http://www.w3.org/2000/svg" width="88" height="88" data-name="Layer 1" viewBox="0 0 88 88"><path d="M57.72,78.63H30.28a5.59,5.59,0,0,1-5.69-5.47V40.68a5,5,0,0,1,0-.56v0a4,4,0,0,1,.09-.52A1,1,0,0,1,26,38.76,1.06,1.06,0,0,1,26.78,40a2.56,2.56,0,0,0-.05.27v0c0,.11,0,.22,0,.34V73.16a3.47,3.47,0,0,0,3.57,3.35H57.72a3.47,3.47,0,0,0,3.57-3.35V40.68c0-.12,0-.23,0-.34v-.05a2,2,0,0,0-.05-.26,1.07,1.07,0,1,1,2.08-.46c0,.16.06.34.08.52v0c0,.18,0,.36,0,.56V73.16A5.59,5.59,0,0,1,57.72,78.63Zm4.47-41.1a1.06,1.06,0,0,1-1-.94c-1-8.49-6.9-15.37-14.38-16.73a15.62,15.62,0,0,0-5.54,0c-7.46,1.36-13.37,8.24-14.36,16.72a1.05,1.05,0,0,1-1.17.93,1.07,1.07,0,0,1-.94-1.18c1.1-9.4,7.72-17,16.09-18.56a17.78,17.78,0,0,1,6.3,0c8.39,1.53,15,9.17,16.11,18.57a1.07,1.07,0,0,1-.94,1.18Z"/><path d="M62.93,40.86H25.07a2.61,2.61,0,0,1-2.61-2.61V38a2.61,2.61,0,0,1,2.61-2.61H62.93A2.61,2.61,0,0,1,65.54,38v.24A2.61,2.61,0,0,1,62.93,40.86ZM25.07,37.53a.49.49,0,0,0-.49.48v.24a.49.49,0,0,0,.49.48H62.93a.49.49,0,0,0,.49-.48V38a.49.49,0,0,0-.49-.48ZM41,19.88A1,1,0,0,1,40,18.82v-.06a1.12,1.12,0,0,1,.05-.31,7.13,7.13,0,0,0,.32-2.55A6.63,6.63,0,0,0,40,14.08a1.13,1.13,0,0,1-.05-.32,4.7,4.7,0,0,1,1.14-3.06A3.84,3.84,0,0,1,44,9.37a4.23,4.23,0,0,1,4,4.39,1.13,1.13,0,0,1-.05.32,6.63,6.63,0,0,0-.32,1.82A7.13,7.13,0,0,0,48,18.45,1.09,1.09,0,0,1,48,19s0,.06,0,.06a1.06,1.06,0,0,1-1.22.81,15.92,15.92,0,0,0-5.55,0Zm1.07-6.26a9.32,9.32,0,0,1,.29,3.94,19.23,19.23,0,0,1,3.22,0,10.4,10.4,0,0,1-.08-1.77,9.3,9.3,0,0,1,.37-2.17A2.12,2.12,0,0,0,44,11.49a1.73,1.73,0,0,0-1.3.63A2.53,2.53,0,0,0,42.1,13.62ZM61.65,45.91h-5.1a1.06,1.06,0,0,1,0-2.12h5.1a1.06,1.06,0,0,1,0,2.12Zm-10.2,0h-5.1a1.06,1.06,0,0,1,0-2.12h5.1a1.06,1.06,0,1,1,0,2.12Zm-10.19,0h-5.1a1.06,1.06,0,0,1,0-2.12h5.1a1.06,1.06,0,0,1,0,2.12Zm-10.2,0H26a1.06,1.06,0,0,1,0-2.12h5.1a1.06,1.06,0,0,1,0,2.12Z"/></svg>