<svg id="Layer_1" height="512" viewBox="0 0 128 128" width="512" xmlns="http://www.w3.org/2000/svg" data-name="Layer 1"><path d="m99.54 33.68c0-.01-.006-.026-.01-.035l-4.779-8.6v-11.522a1.75 1.75 0 0 0 -2.9-1.317l-3.681 3.219-3.682-3.219a1.75 1.75 0 0 0 -2.3 0l-3.688 3.219-3.681-3.219a1.75 1.75 0 0 0 -2.3 0l-3.682 3.219-3.681-3.219a1.75 1.75 0 0 0 -2.3 0l-3.681 3.219-3.682-3.219a1.75 1.75 0 0 0 -2.3 0l-3.693 3.219-3.681-3.219a1.75 1.75 0 0 0 -2.3 0l-3.682 3.219-3.681-3.219a1.75 1.75 0 0 0 -2.9 1.317v11.524l-4.779 8.6c0 .007 0 .021-.007.029a1.73 1.73 0 0 0 -.213.821v79.981a1.75 1.75 0 0 0 1.75 1.75h67.993a1.75 1.75 0 0 0 1.75-1.75v-79.978a1.731 1.731 0 0 0 -.21-.82zm-13.29 2.565v20.812h-54.5v-20.812zm-54.5 24.312h54.5v28.25h-54.5zm61.25-31.457 2.025 3.643h-4.05zm-56.25-11.722 1.931 1.689a1.75 1.75 0 0 0 2.3 0l3.682-3.219 3.681 3.219a1.75 1.75 0 0 0 2.3 0l3.681-3.219 3.682 3.219a1.75 1.75 0 0 0 2.3 0l3.693-3.219 3.681 3.219a1.75 1.75 0 0 0 2.3 0l3.682-3.219 3.681 3.219a1.75 1.75 0 0 0 2.3 0l3.681-3.219 3.682 3.219a1.75 1.75 0 0 0 2.3 0l1.931-1.689v6.372h-54.488zm-.721 9.872h54l-3.055 5.5h-54zm-4.279 65.057h54.5v20.42h-54.5zm64.5 20.42h-6.5v-76.482h6.5z"/><path d="m47.264 75.432-1.347-5.227h-3.49v8.59h2.174v-6.551l1.671 6.551h1.968l1.675-6.551v6.551h2.174v-8.59h-3.488z"/><path d="m53.888 70.205h2.66v8.59h-2.66z"/><path d="m61.106 70.205h-2.654v8.59h6.797v-2.115h-4.143z"/><path d="m72.298 73.447 3.135-3.242h-3.531l-2.78 3.246v-3.246h-2.654v8.59h2.654v-2.096l1.371-1.437 1.812 3.533h3.268z"/></svg>