<?xml version="1.0" encoding="iso-8859-1"?>
<!-- Generator: Adobe Illustrator 19.0.0, SVG Export Plug-In . SVG Version: 6.00 Build 0)  -->
<svg version="1.1" xmlns="http://www.w3.org/2000/svg" xmlns:xlink="http://www.w3.org/1999/xlink" x="0px" y="0px"
	 viewBox="0 0 512 512" style="enable-background:new 0 0 512 512;" xml:space="preserve">
<g>
	<g>
		<g>
			<path d="M256,0C154.544,0,72,114.84,72,256s82.544,256,184,256s184-114.84,184-256S357.456,0,256,0z M256,496
				c-92.64,0-168-107.664-168-240S163.36,16,256,16s168,107.664,168,240S348.64,496,256,496z"/>
			<path d="M256,56c-79.4,0-144,89.72-144,200s64.6,200,144,200s144-89.72,144-200S335.4,56,256,56z M256,440
				c-70.576,0-128-82.544-128-184S185.424,72,256,72s128,82.544,128,184S326.576,440,256,440z"/>
			<path d="M331.112,268.608c-3.124-3.123-8.188-3.123-11.312,0l-79.2,79.2c-3.178,3.069-3.266,8.134-0.196,11.312
				c3.069,3.178,8.134,3.266,11.312,0.196c0.067-0.064,0.132-0.13,0.196-0.196l79.2-79.2
				C334.235,276.796,334.235,271.732,331.112,268.608z"/>
			<path d="M359.392,296.888c-3.124-3.123-8.188-3.123-11.312,0l-45.248,45.256c-3.178,3.07-3.266,8.134-0.196,11.312
				c3.07,3.178,8.134,3.266,11.312,0.196c0.066-0.064,0.132-0.129,0.196-0.196l45.248-45.256
				C362.402,305.097,362.313,300.078,359.392,296.888z"/>
		</g>
	</g>
</g>
</svg>
