<?xml version="1.0" encoding="iso-8859-1"?>
<!-- Generator: Adobe Illustrator 19.0.0, SVG Export Plug-In . SVG Version: 6.00 Build 0)  -->
<svg version="1.1" id="Layer_1" xmlns="http://www.w3.org/2000/svg" xmlns:xlink="http://www.w3.org/1999/xlink" x="0px" y="0px"
	 viewBox="0 0 512 512" style="enable-background:new 0 0 512 512;" xml:space="preserve">
<g>
	<g>
		<path d="M511.775,421.065c-0.036-0.296,0.068-0.587,0.001-0.88L466.864,222.57c-0.93-4.088-4.566-6.991-8.759-6.991H323.368V35.93
			c0-4.961-4.022-8.982-8.982-8.982H197.614c-4.961,0-8.982,4.022-8.982,8.982v179.649H53.895c-4.193,0-7.829,2.904-8.759,6.991
			L0.224,420.184c-0.066,0.294,0.037,0.584,0.001,0.88C0.175,421.444,0,421.781,0,422.175v26.947
			c0,19.811,16.101,35.93,35.895,35.93h440.21c19.794,0,35.895-16.118,35.895-35.93v-26.947
			C512,421.781,511.825,421.444,511.775,421.065z M206.596,44.912h98.807v287.439h-98.807V44.912z M61.066,233.544h127.566v107.789
			c0,4.961,4.022,8.982,8.982,8.982h116.772c4.961,0,8.982-4.022,8.982-8.982V233.544h127.566l40.829,179.649H20.237L61.066,233.544
			z M494.035,449.123c0,9.908-8.044,17.965-17.93,17.965H35.895c-9.886,0-17.93-8.057-17.93-17.965v-17.965h476.07V449.123z"/>
	</g>
</g>
<g>
	<g>
		<path d="M256,215.579c-22.289,0-40.421,18.132-40.421,40.421s18.132,40.421,40.421,40.421s40.421-18.132,40.421-40.421
			S278.289,215.579,256,215.579z M256,278.456c-12.382,0-22.456-10.074-22.456-22.456c0-12.382,10.074-22.456,22.456-22.456
			s22.456,10.074,22.456,22.456C278.456,268.382,268.382,278.456,256,278.456z"/>
	</g>
</g>
<g>
	<g>
		<path d="M239.921,83.447c-0.899-0.812-1.886-1.439-2.965-1.89c-2.158-0.895-4.671-0.895-6.829,0
			c-1.075,0.452-2.066,1.079-2.96,1.89c-1.618,1.706-2.605,3.952-2.605,6.377s0.987,4.671,2.605,6.377
			c0.895,0.807,1.886,1.434,2.96,1.886c1.079,0.447,2.246,0.719,3.417,0.719c1.167,0,2.333-0.272,3.412-0.719
			c1.079-0.452,2.066-1.079,2.965-1.886c0.36-0.452,0.807-0.899,1.075-1.346c0.359-0.539,0.631-1.079,0.811-1.618
			c0.268-0.539,0.447-1.079,0.539-1.618c0.088-0.627,0.18-1.167,0.18-1.794C242.526,87.487,241.535,85.153,239.921,83.447z"/>
	</g>
</g>
<g>
	<g>
		<path d="M275.851,83.447c-0.452-0.36-0.899-0.719-1.346-1.079c-0.539-0.36-1.079-0.632-1.618-0.811
			c-0.539-0.268-1.079-0.448-1.618-0.535c-2.965-0.54-6.105,0.36-8.171,2.425c-1.618,1.706-2.605,4.039-2.605,6.377
			c0,0.627,0.088,1.167,0.18,1.794c0.088,0.54,0.267,1.079,0.535,1.618c0.18,0.54,0.452,1.079,0.811,1.618
			c0.359,0.448,0.719,0.895,1.079,1.346c1.706,1.614,4.039,2.605,6.377,2.605c0.627,0,1.167-0.092,1.794-0.18
			c0.54-0.092,1.079-0.272,1.618-0.539c0.54-0.18,1.079-0.452,1.618-0.811c0.448-0.355,0.895-0.715,1.346-1.075
			c0.36-0.452,0.719-0.899,1.075-1.346c0.36-0.539,0.631-1.079,0.811-1.618c0.267-0.539,0.447-1.079,0.539-1.618
			c0.088-0.627,0.18-1.167,0.18-1.794C278.456,87.487,277.465,85.153,275.851,83.447z"/>
	</g>
</g>
<g>
	<g>
		<path d="M241.807,113.355c-0.452-1.075-1.079-2.066-1.886-2.96c-2.518-2.518-6.557-3.325-9.794-1.89
			c-1.167,0.452-2.066,1.079-2.96,1.89c-0.812,0.895-1.439,1.886-1.89,2.96c-0.448,1.079-0.715,2.246-0.715,3.417
			c0,1.167,0.267,2.333,0.715,3.412c0.452,1.079,1.079,2.066,1.89,2.965c0.895,0.807,1.886,1.434,2.96,1.886
			c1.079,0.447,2.246,0.719,3.417,0.719c2.333,0,4.671-0.991,6.377-2.605c0.807-0.899,1.434-1.886,1.886-2.965
			c0.447-1.079,0.719-2.246,0.719-3.412C242.526,115.601,242.254,114.434,241.807,113.355z"/>
	</g>
</g>
<g>
	<g>
		<path d="M277.737,113.355c-0.452-1.075-1.079-2.066-1.886-2.96c-0.899-0.812-1.798-1.439-2.965-1.89
			c-3.324-1.434-7.276-0.627-9.789,1.89c-0.812,0.895-1.439,1.886-1.89,2.96c-0.448,1.079-0.715,2.246-0.715,3.417
			c0,1.167,0.267,2.333,0.715,3.412c0.452,1.079,1.079,2.066,1.89,2.965c0.447,0.36,0.895,0.719,1.346,1.075
			c0.539,0.36,1.079,0.631,1.614,0.811c0.539,0.267,1.079,0.447,1.618,0.539c0.627,0.088,1.167,0.18,1.798,0.18
			c1.167,0,2.333-0.272,3.412-0.719c1.079-0.452,2.066-1.079,2.965-1.886c0.807-0.899,1.434-1.886,1.886-2.965
			c0.447-1.079,0.719-2.246,0.719-3.412C278.456,115.601,278.184,114.434,277.737,113.355z"/>
	</g>
</g>
<g>
	<g>
		<path d="M239.921,137.342c-0.899-0.812-1.886-1.439-2.965-1.89c-1.618-0.715-3.412-0.895-5.21-0.535
			c-0.539,0.088-1.079,0.267-1.618,0.535c-0.535,0.18-1.075,0.452-1.614,0.811c-0.452,0.36-0.899,0.719-1.346,1.079
			c-1.618,1.706-2.605,4.039-2.605,6.377c0,1.167,0.267,2.333,0.715,3.412c0.452,1.079,1.079,2.066,1.89,2.965
			c0.447,0.36,0.895,0.72,1.346,1.075c0.539,0.36,1.079,0.631,1.614,0.811c0.539,0.267,1.079,0.447,1.618,0.539
			c0.627,0.088,1.167,0.18,1.798,0.18c1.167,0,2.333-0.272,3.412-0.719c1.079-0.452,2.066-1.079,2.965-1.886
			c0.807-0.899,1.434-1.886,1.886-2.965c0.539-1.079,0.719-2.246,0.719-3.412C242.526,141.382,241.535,139.048,239.921,137.342z"/>
	</g>
</g>
<g>
	<g>
		<path d="M275.851,137.342c-0.899-0.812-1.886-1.439-2.965-1.89c-1.618-0.715-3.412-0.895-5.211-0.535
			c-0.539,0.088-1.079,0.267-1.618,0.535c-0.535,0.18-1.075,0.452-1.614,0.811c-0.452,0.36-0.899,0.719-1.346,1.079
			c-0.36,0.447-0.719,0.895-1.079,1.346c-0.36,0.539-0.632,1.079-0.811,1.614c-0.268,0.539-0.448,1.079-0.535,1.618
			c-0.092,0.627-0.18,1.259-0.18,1.798c0,1.167,0.267,2.333,0.715,3.412c0.452,1.079,1.079,2.066,1.89,2.965
			c1.706,1.614,4.039,2.605,6.377,2.605c1.167,0,2.333-0.272,3.412-0.719c1.079-0.452,2.066-1.079,2.965-1.886
			c0.807-0.899,1.434-1.886,1.886-2.965c0.447-1.079,0.719-2.246,0.719-3.412C278.456,141.382,277.465,139.048,275.851,137.342z"/>
	</g>
</g>
<g>
	<g>
		<path d="M239.921,164.29c-2.518-2.518-6.469-3.325-9.794-1.89c-1.075,0.452-2.066,1.079-2.96,1.89
			c-1.618,1.706-2.605,3.952-2.605,6.377c0,1.167,0.267,2.333,0.715,3.412c0.452,1.167,1.079,2.066,1.89,2.965
			c0.895,0.807,1.886,1.434,2.96,1.886c1.079,0.447,2.246,0.719,3.417,0.719c2.333,0,4.671-0.991,6.377-2.605
			c0.807-0.899,1.434-1.886,1.886-2.965c0.447-1.079,0.719-2.246,0.719-3.412C242.526,168.329,241.535,165.996,239.921,164.29z"/>
	</g>
</g>
<g>
	<g>
		<path d="M275.851,164.29c-0.452-0.36-0.899-0.72-1.346-1.079c-0.539-0.36-1.079-0.632-1.618-0.811
			c-0.539-0.268-1.079-0.448-1.618-0.535c-1.794-0.36-3.592-0.18-5.21,0.535c-1.075,0.452-2.066,1.079-2.96,1.89
			c-1.618,1.706-2.605,4.039-2.605,6.377c0,1.167,0.267,2.333,0.715,3.412c0.452,1.079,1.079,2.066,1.89,2.965
			c0.895,0.807,1.886,1.434,2.96,1.886c1.079,0.447,2.246,0.719,3.417,0.719c0.627,0,1.167-0.092,1.794-0.18
			c0.54-0.092,1.079-0.272,1.618-0.539c0.54-0.18,1.079-0.452,1.618-0.811c0.448-0.355,0.895-0.715,1.346-1.075
			c0.807-0.899,1.434-1.886,1.886-2.965c0.447-1.079,0.719-2.246,0.719-3.412C278.456,168.329,277.465,165.996,275.851,164.29z"/>
	</g>
</g>
</svg>
