<svg xmlns="http://www.w3.org/2000/svg" width="88" height="88" data-name="Layer 1" viewBox="0 0 88 88"><path d="M67.13,32.5a1.18,1.18,0,0,0,0-.37C63.69,21.55,58.31,14,51.93,10.92a15.8,15.8,0,0,0-12.86-.48c-12,4.47-17.89,21-18.14,21.66a1,1,0,0,0-.05.39,56.7,56.7,0,0,0-.74,9.16C20.14,62.08,30.85,78.7,44,78.7S67.86,62.08,67.86,41.65A57.83,57.83,0,0,0,67.13,32.5ZM39.82,12.43A13.71,13.71,0,0,1,51,12.84c5,2.41,9.33,7.89,12.49,15.63a30.61,30.61,0,0,0-19.3-7.23H44a30.46,30.46,0,0,0-19,6.81C27.63,22.92,32.59,15.12,39.82,12.43ZM22.34,39c1.46.25,2.92.54,4.37.88a1,1,0,0,0,.24,0,1.06,1.06,0,0,0,.25-2.1c-1.56-.37-3.14-.68-4.72-.94.11-1.35.28-2.69.49-4,1.85-2.07,9.3-9.52,21-9.52h.18a29,29,0,0,1,20.7,9.35l.15.17c.26,1.59.44,3.2.56,4.83A65.35,65.35,0,0,0,44.7,44.79c-1-.55-1.93-1.08-2.9-1.58a1.07,1.07,0,1,0-1,1.9c.57.29,1.14.6,1.7.91-.28.17-.57.33-.85.51a64.85,64.85,0,0,0-16,13.83,51.25,51.25,0,0,1-3.39-18.71C22.27,40.77,22.3,39.9,22.34,39ZM44,76.57c-7.1,0-13.42-5.51-17.39-14A63.07,63.07,0,0,1,65.7,39.86c0,.6,0,1.19,0,1.79C65.73,60.9,56,76.57,44,76.57Z"/><path d="M31.55,41.27q2.39.78,4.71,1.74a1.24,1.24,0,0,0,.41.08A1.07,1.07,0,0,0,37.08,41q-2.4-1-4.88-1.79a1.05,1.05,0,0,0-1.34.68A1.07,1.07,0,0,0,31.55,41.27Z"/></svg>