<svg id="Layer_1" height="512" viewBox="0 0 128 128" width="512" xmlns="http://www.w3.org/2000/svg" data-name="Layer 1"><path d="m114.477 58.823h-9.977l-34.992-33.511a5.566 5.566 0 0 0 -11.015 0l-34.993 33.511h-9.977a1.75 1.75 0 0 0 -1.75 1.75v45.127a1.75 1.75 0 0 0 1.75 1.75h100.954a1.75 1.75 0 0 0 1.75-1.75v-45.127a1.75 1.75 0 0 0 -1.75-1.75zm-50.477-34.775a2.073 2.073 0 1 1 -2.073 2.073 2.075 2.075 0 0 1 2.073-2.073zm-4.589 5.229a5.564 5.564 0 0 0 9.178 0l30.853 29.546h-70.884zm53.315 74.675h-97.453v-41.629h97.453z"/><path d="m24.2 64.558a1.75 1.75 0 0 0 -1.75 1.75 3.129 3.129 0 0 1 -3.125 3.125 1.75 1.75 0 0 0 -1.75 1.75v23.909a1.75 1.75 0 0 0 1.75 1.75 3.129 3.129 0 0 1 3.125 3.125 1.75 1.75 0 0 0 1.75 1.75h79.6a1.75 1.75 0 0 0 1.75-1.75 3.129 3.129 0 0 1 3.125-3.125 1.75 1.75 0 0 0 1.75-1.75v-23.909a1.75 1.75 0 0 0 -1.75-1.75 3.129 3.129 0 0 1 -3.125-3.125 1.75 1.75 0 0 0 -1.75-1.75zm82.724 8.142v20.876a6.654 6.654 0 0 0 -4.641 4.641h-76.566a6.654 6.654 0 0 0 -4.641-4.641v-20.876a6.654 6.654 0 0 0 4.641-4.641h76.566a6.654 6.654 0 0 0 4.641 4.641z"/><path d="m41.375 75.936a6.81 6.81 0 0 0 -7.428 7.447 8.151 8.151 0 0 0 .991 4.2 6.064 6.064 0 0 0 2.586 2.452 9.186 9.186 0 0 0 4.027.775 8.1 8.1 0 0 0 4-.9 6.055 6.055 0 0 0 2.449-2.51 8.862 8.862 0 0 0 .849-4.136 7.271 7.271 0 0 0 -1.942-5.4 7.522 7.522 0 0 0 -5.532-1.928zm2.247 10.616a3.065 3.065 0 0 1 -4.42-.02 4.82 4.82 0 0 1 -.81-3.13 4.835 4.835 0 0 1 .814-3.149 2.7 2.7 0 0 1 2.158-.952 2.8 2.8 0 0 1 2.223.937 4.448 4.448 0 0 1 .819 2.969 5.323 5.323 0 0 1 -.784 3.345z"/><path d="m58.613 76.181h-7.388v14.383h4.464v-5.337h2.434a5.672 5.672 0 0 0 4-1.227 4.436 4.436 0 0 0 1.311-3.4 4.308 4.308 0 0 0 -1.2-3.268 5.061 5.061 0 0 0 -3.621-1.151zm-.029 5.686a2.8 2.8 0 0 1 -1.8.446h-1.09v-3.213h1.266a2.346 2.346 0 0 1 1.7.471 1.6 1.6 0 0 1 .451 1.148 1.438 1.438 0 0 1 -.528 1.147z"/><path d="m70.201 84.472h6.918v-2.934h-6.918v-2.286h7.457v-3.071h-11.911v14.383h12.127v-3.257h-7.673z"/><path d="m89.864 84.139-5.416-7.958h-4.151v14.383h4.18v-7.897l5.387 7.897h4.189v-14.383h-4.189z"/></svg>