<svg xmlns="http://www.w3.org/2000/svg" width="88" height="88" data-name="Layer 1" viewBox="0 0 88 88"><path d="M68.53,45.87h0C66.81,34.44,58.84,25.21,48.72,23a10.32,10.32,0,0,1-.3-2.93,9.78,9.78,0,0,1,.44-2.45,1.13,1.13,0,0,0,0-.32A5.18,5.18,0,0,0,44,11.9a4.64,4.64,0,0,0-3.51,1.64,5.94,5.94,0,0,0-1.4,3.77,1.13,1.13,0,0,0,0,.32,9.78,9.78,0,0,1,.44,2.45,10.32,10.32,0,0,1-.3,2.93C29.16,25.21,21.19,34.44,19.5,45.87h0a3.08,3.08,0,0,0-3.07,3.07v.33a3.08,3.08,0,0,0,3.07,3.07h6.75A14,14,0,0,0,24,59.81c0,9,8.87,16.29,19.78,16.29S63.59,68.79,63.6,59.81a14,14,0,0,0-2.2-7.47h7.13a3.08,3.08,0,0,0,3.07-3.07v-.33A3.08,3.08,0,0,0,68.53,45.87ZM42.08,15A2.55,2.55,0,0,1,44,14a3,3,0,0,1,2.78,3.13,12.07,12.07,0,0,0-.32,5.47h-.23c-.21,0-.43,0-.64-.06l-.51,0-.67,0h-.78l-.74,0-.49,0-.65.06h-.21A12.35,12.35,0,0,0,41.7,20a12.07,12.07,0,0,0-.48-2.81A3.79,3.79,0,0,1,42.08,15ZM40.34,25h0a20.52,20.52,0,0,1,7.29,0h0c9.47,1.74,17,10.26,18.71,20.92H21.65C23.34,35.22,30.89,26.7,40.34,25ZM61.47,59.81C61.47,67.62,53.55,74,43.81,74S26.16,67.62,26.16,59.81a12.09,12.09,0,0,1,2.65-7.47h2.75a11.34,11.34,0,0,0-2.94,7.47c0,7,6.9,12.71,15.38,12.71s15.38-5.7,15.38-12.71a11.34,11.34,0,0,0-2.94-7.47h2.37A12.13,12.13,0,0,1,61.47,59.81Zm-8.1-7.47a9.56,9.56,0,0,1,3.88,7.47c0,5.83-5.94,10.58-13.25,10.58S30.75,65.64,30.75,59.81a9.53,9.53,0,0,1,3.88-7.47Zm16.11-3.07a1,1,0,0,1-1,.95H19.47a1,1,0,0,1-.95-.95v-.33a1,1,0,0,1,.95-.95H68.53a1,1,0,0,1,1,.95Z"/></svg>