<svg xmlns="http://www.w3.org/2000/svg" width="88" height="88" data-name="Layer 1" viewBox="0 0 88 88"><path d="M62.49,11.9H25.31c-5.37.16-9.85,6.77-11.19,16.56a41.63,41.63,0,0,0-.39,5.72,42.37,42.37,0,0,0,.38,5.66V69.5a6.43,6.43,0,0,0,6.22,6.6H47a6.43,6.43,0,0,0,6.22-6.6v-13h9.27c6.61,0,11.78-9.79,11.78-22.28S69.1,11.9,62.49,11.9ZM51.1,69.5A4.3,4.3,0,0,1,47,74H20.33a4.3,4.3,0,0,1-4.1-4.47V39.85a1.93,1.93,0,0,0,0-.24,41.06,41.06,0,0,1,0-10.85C17.39,20.23,21.28,14,25.49,14h31.9c-4,3.53-6.67,11.14-6.67,20.16a42,42,0,0,0,.38,5.71Zm2.12-15.15V48.07a17.26,17.26,0,0,0,4.17,6.28Zm9.27,0c-5.23,0-9.64-9.23-9.64-20.16S57.26,14,62.49,14s9.65,9.23,9.65,20.16S67.72,54.35,62.49,54.35Z"/><path d="M62.49,27c-2.37,0-4.17,3.11-4.17,7.23s1.8,7.22,4.17,7.22,4.18-3.1,4.18-7.22S64.87,27,62.49,27Zm0,12.33c-.81,0-2-2-2-5.1s1.23-5.1,2-5.1,2.05,2,2.05,5.1S63.31,39.29,62.49,39.29Z"/></svg>