<svg id="Layer_1" height="512" viewBox="0 0 128 128" width="512" xmlns="http://www.w3.org/2000/svg" data-name="Layer 1"><path d="m96.373 76.009a15.927 15.927 0 0 0 -1.189-11.046l-11.7-23.405v-28.035a1.75 1.75 0 0 0 -1.75-1.75h-48.848a1.75 1.75 0 0 0 -1.75 1.75v75.213a1.75 1.75 0 0 0 1.75 1.75h33.022l2.116 6.214v8.645h-1.239a1.75 1.75 0 0 0 -1.75 1.75v7.378a1.75 1.75 0 0 0 1.75 1.75h24.725a1.75 1.75 0 0 0 1.75-1.75v-7.373a1.75 1.75 0 0 0 -1.75-1.75h-.91v-6.682zm-61.737 10.977v-71.713h45.345v62.038l-2.605-3.53v-48.936a1.75 1.75 0 0 0 -1.75-1.75 3.47 3.47 0 0 1 -3.466-3.466 1.75 1.75 0 0 0 -1.75-1.75h-26.2a1.75 1.75 0 0 0 -1.75 1.75 3.47 3.47 0 0 1 -3.465 3.466 1.75 1.75 0 0 0 -1.75 1.75v52.57a1.75 1.75 0 0 0 1.75 1.75 3.469 3.469 0 0 1 3.465 3.465 1.75 1.75 0 0 0 1.75 1.75h19.62l.887 2.606zm25.206-14.324 2.8 8.218h-16.9a6.992 6.992 0 0 0 -4.993-4.992v-18.532c3.586 2.846 9.607 4.683 16.567 4.683s12.974-1.839 16.56-4.683v11.682l-1.976-2.681a6.884 6.884 0 0 0 -12.056 6.3zm14.034-27.762c-3.586-2.847-9.607-4.683-16.567-4.683s-12.982 1.84-16.568 4.683v-18.528a6.99 6.99 0 0 0 4.993-4.993h23.149a6.991 6.991 0 0 0 4.993 4.993zm0 6.226c0 3.5-6.8 7.408-16.567 7.408s-16.567-3.9-16.567-7.408 6.8-7.409 16.567-7.409 16.567 3.908 16.567 7.413zm15.884 61.6h-21.225v-3.878h21.225zm-18.235-7.378v-8.934a1.731 1.731 0 0 0 -.094-.563l-8.276-24.317a3.384 3.384 0 0 1 5.926-3.1l11.242 15.235a1.745 1.745 0 0 0 3.153-1.037h.005v-33.248l8.571 17.144a12.42 12.42 0 0 1 .928 8.617l-5.822 22.873a1.784 1.784 0 0 0 -.054.432v6.9z"/></svg>