<?xml version="1.0" encoding="iso-8859-1"?>
<!-- Generator: Adobe Illustrator 19.0.0, SVG Export Plug-In . SVG Version: 6.00 Build 0)  -->
<svg xmlns="http://www.w3.org/2000/svg" xmlns:xlink="http://www.w3.org/1999/xlink" version="1.1" x="0px" y="0px" viewBox="0 0 405.504 405.504" style="enable-background:new 0 0 405.504 405.504;" xml:space="preserve">
<g>
	<g>
		<path d="M358.513,176.64c-2.048-4.096-4.608-6.656-7.68-8.704c1.024-6.656,1.024-11.776,1.024-18.944    C351.857,66.56,284.785,0,202.865,0S53.873,67.072,53.873,148.992c0,5.632,0.512,11.264,1.024,17.408    c-3.072,2.048-5.632,4.608-7.68,8.192c-3.072,5.632-4.096,11.776-2.048,17.92c1.536,6.144,5.632,11.264,11.264,14.336    c3.584,2.048,7.68,3.072,11.776,3.072c1.024,0,2.048,0,3.072,0c-8.704,7.68-10.752,20.992-4.096,30.72    c4.608,6.656,12.288,10.24,19.456,10.24c3.584,0,7.168-1.024,10.24-2.56c-2.56,4.608-3.584,9.728-3.072,14.848    c1.024,6.144,4.096,11.776,9.216,15.872c4.096,3.072,9.216,5.12,14.336,5.12c5.632,0,10.752-2.048,15.36-5.632    c16.896,9.216,35.84,14.848,54.784,16.384l-22.528,13.824c-0.512,0.512-1.024,0.512-1.024,1.024    c-0.512,0.512-0.512,1.024-0.512,1.536v0.512v0.512v65.536v0.512v0.512c0,0.512,0.512,1.024,0.512,1.536c0,0,0,0,0.512,0.512    l0.512,0.512l0.512,0.512c0,0,0,0,0.512,0.512l36.352,22.528h0.512h0.512c0.512,0,1.024,0.512,1.536,0.512    c0.512,0,1.024,0,1.536-0.512h0.512h0.512l36.352-22.528c0,0,0,0,0.512-0.512l0.512-0.512l0.512-0.512c0,0,0,0,0.512-0.512    c0.512-0.512,0.512-1.024,0.512-1.536v-0.512v-0.512v-65.024v-0.512v-0.512c0-0.512-0.512-1.024-0.512-1.536    c-0.512-0.512-0.512-1.024-1.024-1.024l-23.04-14.336c17.408-2.048,34.816-7.68,50.176-15.36c4.608,3.584,9.728,5.632,15.36,5.632    c5.12,0,9.728-1.536,14.336-4.608c9.728-7.168,12.288-20.48,6.144-30.208c3.584,1.536,7.168,2.56,10.752,2.56    c7.68,0,14.848-3.584,19.456-10.24c3.584-5.12,5.12-11.264,3.584-17.92c-1.024-5.12-3.584-9.728-7.168-13.312    c1.024,0,2.048,0.512,3.584,0.512c4.096,0,7.68-1.024,11.264-3.072c5.632-3.072,9.728-8.192,11.264-14.336    S361.585,182.272,358.513,176.64z M61.553,197.632c-3.072-1.536-5.12-4.608-6.144-8.192c-1.024-3.584-0.512-7.168,1.024-10.24    c1.536-3.072,4.608-5.12,8.192-6.144c1.024-0.512,2.56-0.512,3.584-0.512c2.048,0,4.608,0.512,6.656,1.536    c3.072,1.536,5.12,4.608,6.144,8.192s0.512,7.168-1.536,10.24c-1.536,3.072-4.608,5.12-8.192,6.144    C68.209,199.68,64.625,199.168,61.553,197.632z M99.953,229.888c-0.512,3.072-2.56,6.144-5.632,8.192    c-3.072,2.048-6.656,2.56-10.24,2.048c-3.584-0.512-6.656-2.56-8.704-5.632c-4.096-6.144-2.56-14.336,3.584-18.432    c2.048-1.536,4.608-2.048,7.68-2.048c1.024,0,1.536,0,2.56,0c3.584,0.512,6.656,2.56,8.704,5.632    C99.953,222.72,100.465,226.304,99.953,229.888z M128.625,268.288c-4.608,5.632-13.312,6.656-18.944,2.048    c-3.072-2.048-4.608-5.12-5.12-8.704s0.512-7.168,2.56-9.728c2.56-3.584,6.656-5.12,10.752-5.12c3.072,0,5.632,1.024,8.192,2.56    C131.697,253.952,133.233,262.144,128.625,268.288z M199.793,299.52v9.728l-14.336,8.192l-7.168-4.608L199.793,299.52z     M173.681,322.048l6.144,4.096v38.4l-6.144,4.096V322.048z M199.281,391.68l-21.504-13.312l7.168-4.608l14.336,8.192V391.68z     M204.913,373.248l-14.848-8.192v-38.4l14.848-8.192l14.848,8.192v38.4L204.913,373.248z M210.033,391.68v-9.728l14.336-8.192    l7.168,4.608L210.033,391.68z M236.145,369.152l-6.144-4.096v-38.4l6.144-4.096V369.152z M231.537,312.832l-7.168,4.608    l-14.336-8.192v-9.728L231.537,312.832z M295.025,271.36c-6.144,4.608-14.336,3.072-18.944-2.56    c-2.048-3.072-3.072-6.656-2.56-9.728c0.512-3.584,2.56-6.656,5.12-8.704c2.56-1.536,5.12-2.56,8.192-2.56    c0.512,0,1.536,0,2.048,0c3.584,0.512,6.656,2.56,8.704,5.12C302.193,258.56,300.657,267.264,295.025,271.36z M298.609,214.528    c-3.584,5.12-5.12,11.264-3.584,17.92c0.512,2.56,1.536,5.12,2.56,7.168c-7.68-4.096-17.408-3.584-25.088,2.048    c-5.12,3.584-8.192,9.216-9.216,15.36c-0.512,4.608,0,8.704,2.048,12.8c-19.456,9.728-40.448,14.848-62.464,14.848    s-44.032-5.632-63.488-15.36c4.608-9.728,1.536-21.504-7.168-28.672c-7.168-5.632-16.896-6.144-25.088-2.56    c4.608-7.68,4.608-17.408-1.024-25.088c-3.584-5.12-8.704-8.704-14.848-10.24c-2.56-0.512-5.12-0.512-7.68,0    c2.048-1.536,3.584-3.584,5.12-6.144c3.072-5.632,4.096-11.776,2.048-17.92c-2.048-6.144-5.632-11.264-11.264-14.336    c-4.608-2.56-9.728-3.584-14.848-2.56c-0.512-4.608-0.512-9.216-0.512-13.312c0-75.776,62.464-138.24,138.752-138.24    c76.8,0,138.752,62.464,138.752,138.752c0,6.144,0,10.24-0.512,14.848c-5.12-1.024-10.24,0-15.36,2.56    c-5.632,3.072-9.728,8.192-11.264,14.336s-1.024,12.288,2.048,17.92c1.536,2.56,3.072,4.096,5.12,6.144    C312.945,203.776,303.729,206.848,298.609,214.528z M329.329,236.032c-4.096,6.144-12.8,7.68-18.944,3.584    c-3.072-2.048-5.12-5.12-5.632-8.704c-0.512-3.584,0-7.168,2.048-10.24c2.048-3.072,5.12-5.12,8.704-5.632c1.024,0,1.536,0,2.56,0    c2.56,0,5.12,1.024,7.68,2.56c3.072,2.048,5.12,5.12,5.632,8.704C331.889,229.376,331.377,232.96,329.329,236.032z     M350.321,190.976c-2.048,7.168-9.728,11.264-16.384,9.216c-7.168-2.048-11.264-9.728-9.216-16.384    c1.024-3.584,3.072-6.144,6.144-8.192c2.048-1.024,4.096-1.536,6.656-1.536c1.024,0,2.56,0,3.584,0.512    c3.584,1.024,6.144,3.072,8.192,6.144C350.833,183.808,351.345,187.392,350.321,190.976z"/>
	</g>
</g>
</svg>
