<?xml version="1.0" encoding="iso-8859-1"?>
<!-- Generator: Adobe Illustrator 19.0.0, SVG Export Plug-In . SVG Version: 6.00 Build 0)  -->
<svg xmlns="http://www.w3.org/2000/svg" xmlns:xlink="http://www.w3.org/1999/xlink" version="1.1" x="0px" y="0px" viewBox="0 0 376.452 376.452" style="enable-background:new 0 0 376.452 376.452;" xml:space="preserve">
<g>
	<g>
		<path d="M371.778,5.219c-3.072-0.512-5.12,2.048-5.632,4.608c0,1.536-15.872,157.184-178.176,224.768    C26.178,167.011,10.306,11.363,10.306,9.827c0-2.56-2.56-5.12-5.632-4.608c-2.56,0-5.12,2.56-4.608,5.632    c0,1.536,16.384,160.768,180.736,231.424l-69.12,69.632c-0.512,0.512-0.512,1.024-1.024,1.536v0.512c0,0.512,0,1.024-0.512,1.536    c0,0,0,0,0,0.512c0,0,0,0,0,0.512c0,0.512,0,1.024,0,1.024v0.512c0,0,0,0,0,0.512l28.16,50.176c1.024,1.536,2.56,2.56,4.608,2.56    h90.112c2.048,0,3.584-1.024,4.608-2.56l28.16-50.176c0,0,0,0,0-0.512v-0.512c0-0.512,0-1.024,0-1.024s0,0,0-0.512    c0,0,0,0,0-0.512c0-0.512,0-1.024-0.512-1.536v-0.512c0-0.512-0.512-1.024-1.024-1.536l-68.608-69.632    C360.002,171.619,376.386,12.387,376.386,10.851C376.898,7.779,374.338,5.219,371.778,5.219z M177.218,260.195l-18.944,50.176    h-30.72L177.218,260.195z M145.986,360.547l-22.016-39.936h34.816l22.016,39.936H145.986z M170.562,320.611h36.864l-18.432,33.792    L170.562,320.611z M230.466,360.547h-33.28l22.016-39.936h33.28L230.466,360.547z M248.898,310.371h-29.184l-17.92-47.616    L248.898,310.371z M208.962,310.371h-39.936l19.968-52.736L208.962,310.371z"/>
	</g>
</g>
</svg>
