<?xml version="1.0" encoding="iso-8859-1"?>
<!-- Generator: Adobe Illustrator 19.0.0, SVG Export Plug-In . SVG Version: 6.00 Build 0)  -->
<svg xmlns="http://www.w3.org/2000/svg" xmlns:xlink="http://www.w3.org/1999/xlink" version="1.1" x="0px" y="0px" viewBox="0 0 382.591 382.591" style="enable-background:new 0 0 382.591 382.591;" xml:space="preserve">
<g>
	<g>
		<path d="M357.441,208.018c14.336,0,26.112-12.8,25.088-27.648c-0.512-14.848-13.312-26.112-28.16-25.6    c13.824-5.632,20.48-20.992,15.36-34.816c-5.12-13.824-20.992-20.48-34.816-15.36c11.264-9.728,12.8-26.624,3.584-37.888    c-9.216-11.264-26.112-12.8-37.888-3.584c7.68-12.8,3.584-29.184-8.704-36.864c-12.8-7.68-29.184-4.096-36.864,8.704    c1.536-7.168,0.512-13.824-3.584-19.968c-3.584-6.144-9.728-10.24-16.896-11.776c-7.168-1.536-14.336-0.512-20.48,3.584    c-5.632,3.584-9.728,8.704-11.264,15.36h-20.992C177.729,8.85,164.417,0.146,150.081,3.218s-23.552,17.408-20.48,31.744    c-7.68-12.8-24.064-16.896-36.864-9.216c-6.144,3.584-10.752,9.728-12.288,16.384s-0.512,13.824,3.072,19.968    c-11.264-9.728-28.16-8.192-37.888,3.072c-4.608,5.632-6.656,12.288-6.144,19.456c0.512,7.168,4.096,13.312,9.216,18.432    c-6.656-2.56-13.824-2.56-20.48,0.512c-6.656,3.072-11.776,8.192-14.336,14.848s-2.56,13.824,0,20.48s8.192,11.776,14.336,14.336    c-14.848-0.512-27.136,10.752-28.16,25.088c-1.024,14.848,10.24,27.648,25.088,28.16c-6.656,2.048-12.8,6.144-15.872,12.8    c-3.584,6.144-4.608,13.312-2.56,20.48c3.072,11.776,14.336,19.968,26.112,19.968c2.048,0,4.608-0.512,7.168-1.024    c-12.288,8.192-15.36,25.088-7.168,37.376c5.12,7.68,13.824,11.776,22.528,11.776c5.12,0,10.24-1.536,14.848-4.608    c-8.704,11.776-6.656,28.672,5.12,37.376c5.12,3.584,10.752,5.632,16.384,5.632c8.192,0,15.872-3.584,20.992-10.24    c-4.608,13.824,2.56,29.184,16.896,33.792c3.072,1.024,5.632,1.536,8.704,1.536c11.264,0,21.504-7.168,25.6-17.92    c0,14.848,11.776,26.624,26.624,26.624c7.168,0,13.824-2.56,18.944-7.68s7.68-11.776,8.192-18.944    c2.048,6.656,7.168,12.288,13.312,15.36c3.584,2.048,7.68,3.072,12.288,3.072c3.072,0,5.632-0.512,8.704-1.536    c13.824-4.608,21.504-19.968,16.896-33.792c5.12,7.168,13.312,10.752,21.504,10.752c5.632,0,11.264-1.536,15.872-5.12    c5.632-4.096,9.216-10.752,10.24-17.92c1.024-7.168-1.024-13.824-5.12-19.968c5.12,3.072,10.24,4.608,15.872,4.608    c1.536,0,3.072,0,5.12-0.512c7.168-1.536,13.312-5.12,17.408-11.264c8.192-12.288,5.12-28.672-6.656-37.376    c2.56,0.512,4.608,1.024,7.168,1.024c4.608,0,8.704-1.024,12.8-3.584c6.144-3.584,10.752-9.216,12.8-15.872    C379.969,226.962,371.777,212.114,357.441,208.018z M354.881,165.522c9.216-0.512,16.896,6.656,17.408,15.872    c0.512,4.096-1.024,8.192-4.096,11.776c-3.072,3.072-7.168,5.12-11.776,5.632c-4.608,0-8.704-1.536-11.776-4.096    c-3.072-3.072-5.12-7.168-5.632-11.776c0-4.608,1.536-8.704,4.096-11.776C346.177,168.082,350.273,166.034,354.881,165.522z     M339.009,114.322c2.048-0.512,4.096-1.024,6.144-1.024c2.048,0,4.608,0.512,6.656,1.536c4.096,2.048,7.168,5.12,8.704,9.216    c1.536,4.096,1.536,8.704-0.512,12.8c-2.048,4.096-5.12,7.168-9.216,8.704c-4.096,1.536-8.704,1.536-12.8-0.512    s-7.168-5.12-8.704-9.216c-1.536-4.096-1.536-8.704,0.512-12.8C331.841,118.93,334.913,115.858,339.009,114.322z M307.265,71.314    c3.072-2.56,6.656-4.096,10.752-4.096c4.608,0,9.728,2.048,12.8,6.144c5.632,7.168,5.12,17.408-2.048,23.552    c-7.168,5.632-17.408,5.12-23.552-2.048C299.585,87.698,300.097,77.458,307.265,71.314z M263.745,40.594    c3.072-5.12,8.704-7.68,14.336-7.68c3.072,0,6.144,1.024,8.704,2.56c7.68,4.608,10.24,14.848,5.632,23.04    c-4.608,7.68-14.848,10.24-23.04,5.632c-3.584-2.56-6.656-6.144-7.68-10.24C260.673,49.298,261.697,44.69,263.745,40.594z     M213.057,25.746c1.024-4.096,3.584-8.192,7.168-10.24c2.56-1.536,5.632-2.56,8.704-2.56c1.024,0,2.56,0,3.584,0.512    c4.096,1.024,8.192,3.584,10.24,7.168c2.56,3.584,3.072,8.192,2.048,12.8c-2.048,8.704-11.264,14.336-19.968,12.288    C216.129,43.666,211.009,34.45,213.057,25.746z M153.153,12.946c8.704-2.048,17.92,3.584,19.968,12.8    c1.024,4.096,0,8.704-2.048,12.288c-2.56,3.584-6.144,6.144-10.24,7.168c-8.704,2.048-17.92-3.584-19.968-12.8    C138.305,23.698,144.449,14.994,153.153,12.946z M91.201,44.69c1.024-4.096,3.584-8.192,7.68-10.24    c7.68-4.608,17.92-2.048,23.04,5.632c4.608,7.68,2.048,17.92-5.632,23.04c-7.68,4.608-17.92,2.048-23.04-5.632    C91.201,53.394,90.177,48.786,91.201,44.69z M54.337,72.338c3.072-4.096,8.192-5.632,12.8-5.632c3.584,0,7.68,1.536,10.752,4.096    c3.584,3.072,5.632,6.656,5.632,11.264c0.512,4.608-1.024,8.704-4.096,12.288c-6.144,7.168-16.384,7.68-23.552,2.048    c-3.584-3.072-5.632-6.656-5.632-11.264C50.241,80.018,51.777,75.41,54.337,72.338z M24.641,134.802    c-1.536-4.096-2.048-8.704,0-12.8c1.536-4.096,4.608-7.168,8.704-9.216c2.048-1.024,4.096-1.536,6.656-1.536    c2.048,0,4.096,0.512,6.144,1.024c8.704,3.584,12.8,13.312,9.216,21.504c-3.584,8.704-13.312,12.8-21.504,9.216    C29.249,141.97,26.177,138.898,24.641,134.802z M11.841,178.834c0.512-8.704,7.68-15.872,16.384-15.872c0.512,0,0.512,0,1.024,0    c9.216,0.512,16.384,8.192,15.872,17.408c0,4.608-2.048,8.704-5.632,11.264c-3.072,3.072-7.68,4.608-11.776,4.096    C17.985,196.242,11.329,188.05,11.841,178.834z M38.465,248.978c-9.216,2.048-18.432-3.072-20.48-11.776    c-1.024-4.096-0.512-8.704,1.536-12.8c2.048-4.096,5.632-6.656,10.24-7.68c1.536-0.512,3.072-0.512,4.608-0.512    c7.168,0,13.824,4.608,15.872,12.288C52.801,237.202,47.681,246.418,38.465,248.978z M72.257,283.794    c-1.024,4.608-3.584,8.192-7.168,10.752c-7.68,5.12-17.92,3.072-23.04-4.608s-3.072-17.92,4.608-23.04    c2.56-2.048,6.144-3.072,9.216-3.072c1.024,0,2.048,0,3.072,0.512c4.608,1.024,8.192,3.584,10.752,7.168    C72.257,275.09,73.281,279.698,72.257,283.794z M105.537,329.362c-5.632,7.168-15.872,8.704-23.552,3.072    c-7.168-5.632-8.704-15.872-3.072-23.552c3.072-4.096,8.192-6.656,13.312-6.656c3.584,0,7.168,1.024,10.24,3.584    C109.633,311.954,111.169,322.194,105.537,329.362z M154.689,349.842c-3.072,8.704-12.288,13.312-20.992,10.24    c-8.704-3.072-13.312-12.288-10.24-20.992c2.56-6.656,8.704-11.264,15.872-11.264c1.536,0,3.584,0.512,5.12,1.024    c4.096,1.536,7.68,4.608,9.728,8.192C155.713,341.138,156.225,345.746,154.689,349.842z M202.817,365.202    c-3.072,3.072-7.168,4.608-11.776,4.608c-9.216,0-16.384-7.68-16.384-16.896s7.68-16.384,16.384-16.384    c9.216,0,16.384,7.68,16.384,16.896C207.937,357.522,205.889,362.13,202.817,365.202z M248.897,360.594    c-4.096,1.536-8.704,1.024-12.8-1.024c-4.096-2.048-7.168-5.632-8.192-9.728c-3.072-8.704,2.048-17.92,10.752-20.992    c1.536-0.512,3.584-1.024,5.12-1.024c7.168,0,13.312,4.608,15.872,11.264C262.209,348.306,257.601,358.034,248.897,360.594z     M306.753,322.706c-0.512,4.608-3.072,8.192-6.656,10.752c-3.584,2.56-7.68,3.584-12.288,3.072    c-4.608-0.512-8.192-3.072-10.752-6.656c-5.632-7.168-4.096-17.92,3.584-23.04c3.072-2.048,6.144-3.584,9.728-3.584    c1.024,0,1.536,0,2.56,0c4.608,0.512,8.192,3.072,10.752,6.656C306.241,314.002,307.265,318.61,306.753,322.706z M304.193,267.922    c-4.096,6.144-5.632,13.312-4.096,19.968c1.024,4.096,2.56,8.192,5.12,11.776c-3.584-2.56-7.168-4.096-11.776-4.608    c-7.168-1.024-14.336,1.024-19.968,5.12c-8.704,6.144-12.288,18.432-8.192,29.184c-6.656-9.216-18.944-13.824-30.208-9.728    c-11.264,3.584-18.432,14.336-18.432,26.112c-1.024-4.096-3.584-7.68-6.656-10.752c-5.12-5.12-11.776-7.68-18.944-8.192    c-11.776,0-22.016,7.68-25.6,18.432c0-4.096-0.512-8.704-2.56-12.288c-3.072-6.656-8.704-11.264-15.36-13.824    c-11.264-4.096-23.552,0.512-30.208,9.728c4.096-10.752,0.512-23.04-8.704-30.72c-9.728-7.168-22.528-7.168-31.744-0.512    c2.56-3.584,4.608-7.168,5.632-11.264c1.536-7.168,0-14.336-4.096-19.968c-4.096-6.144-10.24-10.24-16.896-11.264    c-4.096-1.024-8.704-0.512-12.8,0.512c9.728-6.144,14.336-17.92,11.264-29.696c-3.072-11.776-13.312-18.944-24.576-19.456    c4.096-1.024,8.192-3.072,11.264-6.144c5.12-4.608,8.704-11.264,8.704-18.432c0.512-11.776-6.656-22.528-17.408-26.624    c0.512,0,1.536,0,2.048,0c10.752,0,20.992-6.144,25.088-16.896c2.56-6.656,2.56-13.824,0-20.48    c-1.536-4.096-4.096-7.168-7.68-9.728c3.072,1.536,6.656,2.048,10.24,2.048c0.512,0,1.536,0,2.048,0    c7.168-0.512,13.824-4.096,18.432-9.216c4.608-5.632,6.656-12.288,6.144-19.456c-0.512-4.096-1.536-8.192-4.096-11.776    c5.12,4.096,11.264,6.656,17.408,6.656c4.608,0,9.728-1.024,13.824-3.584c10.24-6.144,14.848-17.92,12.288-29.184    c2.048,3.584,5.12,7.168,8.704,9.216c4.608,2.56,9.216,4.096,14.336,4.096c2.048,0,4.096,0,5.632-0.512    c7.168-1.536,12.8-5.632,16.896-11.776c2.048-3.584,3.584-7.68,4.096-11.776h18.944c1.024,11.264,9.216,20.992,20.48,23.552    c2.048,0.512,4.096,0.512,6.144,0.512c9.216,0,17.92-5.12,23.04-13.312c-2.56,10.752,1.536,23.04,11.776,29.184    c4.608,2.56,9.216,4.096,13.824,4.096c6.144,0,12.288-2.048,17.408-6.144c-2.048,3.584-3.584,7.68-4.096,11.776    c-0.512,7.168,1.536,14.336,6.144,19.456c4.608,5.632,11.264,8.704,18.432,9.728c1.024,0,1.536,0,2.56,0    c3.584,0,6.656-0.512,9.728-2.048c-3.072,2.56-5.632,6.144-7.68,9.728c-3.072,6.656-3.072,13.824-0.512,20.48    c4.096,10.752,14.336,17.408,25.088,17.408c0.512,0,1.024,0,1.536,0c-4.096,1.536-7.68,3.584-10.752,7.168    c-4.608,5.12-7.168,12.288-7.168,19.456c0.512,11.776,8.704,21.504,19.968,24.576c-11.264,0.512-22.016,7.68-25.088,19.456    c-2.048,6.656-1.024,14.336,2.56,20.48c2.048,3.584,5.12,6.656,8.704,9.216c-4.096-1.024-8.192-1.536-12.8-1.024    C314.433,258.194,308.289,261.778,304.193,267.922z M340.545,291.474c-2.56,3.584-6.144,6.144-10.752,7.168    c-4.608,1.024-8.704,0-12.288-2.56c-7.68-5.12-9.216-15.36-4.096-23.04c3.072-4.608,8.192-7.168,13.824-7.168    c3.072,0,6.656,1.024,9.216,3.072C344.129,273.554,346.177,284.306,340.545,291.474z M365.633,238.738    c-1.024,4.096-4.096,7.68-7.68,9.728c-4.096,2.048-8.192,2.56-12.8,1.536c-4.096-1.024-7.68-4.096-9.728-7.68    c-2.048-4.096-2.56-8.192-1.536-12.8c2.048-7.168,8.704-12.288,15.872-12.288c1.536,0,3.072,0,4.608,0.512    C363.073,220.818,368.193,230.034,365.633,238.738z"/>
	</g>
</g>
</svg>
