<?xml version="1.0" encoding="iso-8859-1"?>
<!-- Generator: Adobe Illustrator 19.0.0, SVG Export Plug-In . SVG Version: 6.00 Build 0)  -->
<svg xmlns="http://www.w3.org/2000/svg" xmlns:xlink="http://www.w3.org/1999/xlink" version="1.1" x="0px" y="0px" viewBox="0 0 393.794 393.794" style="enable-background:new 0 0 393.794 393.794;" xml:space="preserve">
<g>
	<g>
		<path d="M203.586,288.322c-2.048-2.56-5.632-3.072-7.68-1.536l-15.872,10.752c-1.536,1.024-2.56,2.56-2.048,4.608l0.512,17.408    c0,2.56,2.56,5.12,5.12,5.12c3.072,0,5.12-2.56,5.12-5.12l-0.512-14.848l13.824-9.216    C204.61,293.954,205.122,290.882,203.586,288.322z"/>
	</g>
</g>
<g>
	<g>
		<path d="M385.346,5.698c0-2.56-2.048-5.12-4.608-5.632c-3.072-0.512-5.12,2.048-5.632,4.608    c0,1.536-15.872,157.184-178.176,224.768C35.138,161.858,19.266,6.21,18.754,4.674c0-2.56-2.56-5.12-5.632-4.608    c-2.56,0-5.12,2.56-4.608,5.632c0,1.536,16.384,159.232,177.664,230.4l-53.248,35.328c-0.512,0.512-1.024,0.512-1.024,1.024    c-0.512,0.512-0.512,1.024-0.512,1.536v0.512v0.512l2.048,76.8v0.512v0.512c0,0.512,0.512,1.024,0.512,1.536    c0.512,0.512,1.024,1.024,1.536,1.536l64.512,37.376h0.512h0.512c0.512,0,1.024,0.512,1.536,0.512c0.512,0,1.024,0,1.536-0.512    h0.512h0.512l61.952-40.96c0,0,0,0,0.512-0.512l0.512-0.512l0.512-0.512c0,0,0,0,0.512-0.512c0.512-0.512,0.512-1.024,0.512-1.536    v-0.512v-0.512l-2.048-76.8v-0.512v-0.512c0-0.512-0.512-1.024-0.512-1.536c-0.512-0.512-0.512-1.024-1.024-1.024l-55.808-32.256    C368.962,163.394,384.834,7.234,385.346,5.698z M193.346,243.778l0.512,26.112l-28.672,17.408l-19.968-12.288L193.346,243.778z     M141.634,284.738l18.944,11.776l1.024,33.792l-18.432,12.8L141.634,284.738z M147.778,351.81l18.944-13.312l29.696,15.872    l0.512,26.112L147.778,351.81z M201.538,345.666l-29.696-15.872l-1.024-33.792l28.672-17.92l29.696,15.872l1.024,33.792    L201.538,345.666z M207.682,380.482l-0.512-26.112l28.672-17.408l19.968,12.288L207.682,380.482z M259.394,339.522l-18.944-11.776    l-1.024-33.792l18.432-12.8L259.394,339.522z M252.738,271.938l-18.944,13.312l-29.696-15.872l-0.512-26.112L252.738,271.938z"/>
	</g>
</g>
</svg>
