<?xml version="1.0" encoding="iso-8859-1"?>
<!-- Generator: Adobe Illustrator 19.0.0, SVG Export Plug-In . SVG Version: 6.00 Build 0)  -->
<svg xmlns="http://www.w3.org/2000/svg" xmlns:xlink="http://www.w3.org/1999/xlink" version="1.1" x="0px" y="0px" viewBox="0 0 382.976 382.976" style="enable-background:new 0 0 382.976 382.976;" xml:space="preserve">
<g>
	<g>
		<path d="M339.318,167.936c1.024-6.656,1.024-11.776,1.024-18.944C340.342,66.56,273.27,0,191.35,0    C108.918,0,42.358,67.072,42.358,148.992c0,5.632,0.512,11.264,1.024,17.408c-3.072,2.048-5.632,4.608-7.68,7.68    c-3.072,5.632-4.096,11.776-2.048,17.92c1.536,6.144,5.632,11.264,11.264,14.336c3.584,2.048,7.68,3.072,11.776,3.072    c1.024,0,2.048,0,3.072,0c-3.584,3.584-6.656,7.68-7.68,12.8c-1.024,6.144,0,12.288,3.584,17.92    c3.584,5.12,8.704,8.704,14.848,10.24c1.536,0.512,3.072,0.512,4.608,0.512c3.584,0,7.168-1.024,10.24-2.56    c-5.632,10.24-3.584,23.04,6.144,30.72c4.096,3.072,9.216,5.12,14.336,5.12c1.024,0,2.048,0,3.072,0    c4.608-0.512,8.704-2.56,12.288-5.632c10.752,5.632,22.016,10.24,33.792,12.8c-13.824,3.584-32.768,9.216-38.912,14.336    c-5.12,4.096-8.192,10.24-8.704,16.896c-0.512,6.656,1.536,12.8,5.632,17.92s10.24,8.192,16.896,8.704c1.024,0,1.536,0,2.048,0    c5.632,0,11.264-2.048,15.872-5.632c8.704-7.168,24.064-41.472,27.136-48.64c3.072,0.512,6.656,0.512,9.728,0.512    c-6.656,14.336-21.504,46.08-21.504,57.856c0,16.384,13.312,29.696,29.696,29.696c16.384,0,29.696-13.312,29.696-29.696    c0-11.776-14.848-43.52-21.504-57.856c3.072,0,6.144-0.512,9.216-1.024c0,0,0,0,0,0.512c3.072,6.656,17.92,40.96,27.136,48.64    c4.608,3.584,10.24,5.632,15.872,5.632c7.168,0,14.336-3.072,18.944-8.704c4.096-5.12,6.144-11.264,5.632-17.92    c-0.512-6.656-3.584-12.288-8.704-16.896c-6.144-5.12-25.6-10.752-39.424-14.336c10.752-2.56,21.504-6.656,31.744-12.288    c4.608,3.584,9.728,5.632,15.36,5.632c5.12,0,9.728-1.536,14.336-4.608c9.728-7.168,12.288-20.48,6.144-30.208    c3.072,1.536,7.168,2.56,10.752,2.56c1.536,0,3.072,0,4.096-0.512c6.144-1.024,11.776-4.608,15.36-9.728    c6.656-9.728,5.12-23.04-3.584-30.72c1.024,0,2.048,0.512,3.584,0.512c10.24,0,19.968-6.656,22.528-17.408    C351.606,183.808,347.51,173.568,339.318,167.936z M50.038,197.632c-3.072-1.536-5.12-4.608-6.144-8.192s-0.512-7.168,1.536-10.24    c1.536-3.072,4.608-5.12,8.192-6.144c1.024-0.512,2.56-0.512,3.584-0.512c2.048,0,4.608,0.512,6.656,1.536    c3.072,1.536,5.12,4.608,6.144,8.192c2.048,7.168-2.048,14.336-9.216,16.384C56.694,199.68,53.11,199.168,50.038,197.632z     M88.438,229.888c-0.512,3.072-2.56,6.144-5.632,8.192c-3.072,2.048-6.656,2.56-10.24,2.048c-3.584-0.512-6.656-2.56-8.704-5.632    c-2.048-3.072-2.56-6.656-2.048-10.24c0.512-3.584,2.56-6.656,5.632-8.704c2.048-1.536,5.12-2.048,7.68-2.048    c4.096,0,8.704,2.048,11.264,6.144C88.438,222.72,88.95,226.304,88.438,229.888z M117.622,267.776    c-2.56,3.072-5.632,4.608-9.216,5.12c-3.584,0.512-7.168-0.512-9.728-2.56c-5.632-4.608-7.168-12.8-2.56-18.944    c2.56-3.584,6.656-5.12,10.752-5.12c3.072,0,5.632,1.024,8.192,2.56C120.694,253.44,122.23,261.632,117.622,267.776z     M141.686,334.848c-3.072,2.56-6.656,3.584-10.24,3.072c-3.584-0.512-7.168-2.048-9.728-5.12c-2.56-3.072-3.584-6.656-3.072-10.24    c0.512-3.584,2.048-7.168,5.12-9.728c4.096-3.584,23.04-9.216,38.4-13.312C154.998,314.368,145.782,331.264,141.686,334.848z     M212.342,352.256c-0.512,10.752-9.216,19.456-19.456,19.456c-10.752,0-19.456-8.704-19.456-19.456    c0-7.68,10.24-31.744,19.456-50.176C201.59,320.512,212.342,344.576,212.342,352.256z M262.006,312.832    c2.56,2.56,4.096,6.144,4.608,9.728c0.512,3.584-1.024,7.68-3.072,10.24c-5.12,6.144-14.336,7.168-19.968,2.048    c-4.096-3.584-13.312-20.992-19.968-35.328C238.966,303.616,257.398,308.736,262.006,312.832z M283.51,271.36    c-6.144,4.608-14.336,3.072-18.944-2.56c-4.608-6.144-3.072-14.336,2.56-18.944c2.56-2.048,5.12-2.56,8.192-2.56    c4.096,0,8.192,2.048,10.752,5.12C290.678,258.56,289.654,266.752,283.51,271.36z M287.606,214.528    c-5.12,7.68-5.12,17.408-1.024,25.088c-7.68-4.096-17.408-3.584-25.088,2.048c-9.216,6.656-11.776,18.432-7.168,28.672    c-19.456,9.728-40.448,14.848-62.464,14.848s-44.032-5.632-63.488-15.36c4.608-9.728,1.536-21.504-7.168-28.672    c-7.168-5.632-16.896-6.144-25.088-2.56c1.536-2.048,2.048-4.608,2.56-7.168c1.024-6.144,0-12.288-3.584-17.92    c-5.12-7.68-14.336-11.264-23.04-10.24c6.656-5.632,9.728-14.848,7.168-24.064c-1.536-6.144-5.632-11.264-11.264-14.336    c-4.608-2.56-9.728-3.584-14.848-2.56c-0.512-4.608-0.512-9.216-0.512-13.312c0-76.8,62.464-138.752,139.264-138.752    s138.752,62.464,138.752,138.752c0,6.144,0,10.24-0.512,14.848c-11.776-2.048-23.04,5.12-26.624,16.896    c-2.56,9.216,0.512,17.92,7.168,24.064c-2.56-0.512-5.12-0.512-7.68,0C296.822,205.824,291.19,209.408,287.606,214.528z     M317.814,235.52c-2.048,3.072-5.12,5.12-8.704,5.632c-3.584,0.512-7.168,0-10.24-2.048c-3.072-2.048-5.12-5.12-5.632-8.704    c-0.512-3.584,0-7.168,2.048-10.24c2.048-3.072,5.12-5.12,8.704-5.632c1.024,0,1.536,0,2.56,0c2.56,0,5.12,1.024,7.68,2.56    c3.072,2.048,5.12,5.12,5.632,8.704C320.886,229.376,319.862,232.96,317.814,235.52z M338.806,190.976    c-2.048,7.168-9.728,11.264-16.384,9.216c-7.168-2.048-11.264-9.728-9.216-16.384c1.536-6.144,7.168-9.728,12.8-9.728    c1.024,0,2.56,0,3.584,0.512C336.758,176.128,340.854,183.808,338.806,190.976z"/>
	</g>
</g>
</svg>
