<?xml version="1.0" encoding="iso-8859-1"?>
<!-- Generator: Adobe Illustrator 19.0.0, SVG Export Plug-In . SVG Version: 6.00 Build 0)  -->
<svg version="1.1" id="Layer_1" xmlns="http://www.w3.org/2000/svg" xmlns:xlink="http://www.w3.org/1999/xlink" x="0px" y="0px"
	 viewBox="0 0 512 512" style="enable-background:new 0 0 512 512;" xml:space="preserve">
<g>
	<g>
		<path d="M493.382,134.982H333.284l-16.998-76.491c-0.946-4.259-4.723-7.291-9.086-7.291H204.8c-4.364,0-8.141,3.032-9.086,7.291
			l-16.998,76.491h-57.698v-18.618c0-5.141-4.168-9.309-9.309-9.309H46.545c-5.141,0-9.309,4.168-9.309,9.309v18.618H18.618
			C8.35,134.982,0,143.359,0,153.654v288.473C0,452.423,8.35,460.8,18.618,460.8h474.764c10.268,0,18.618-8.377,18.618-18.673
			V153.654C512,143.359,503.65,134.982,493.382,134.982z M212.268,69.818h87.464l14.482,65.164H197.786L212.268,69.818z
			 M55.855,125.673H102.4v9.309H55.855V125.673z M493.382,442.182l-474.764-0.055V228.073h125.927
			c-14.782,21.133-23.527,46.783-23.527,74.473c0,71.864,58.464,130.327,130.327,130.327c71.864,0,130.327-58.464,130.327-130.327
			c0-27.69-8.745-53.34-23.527-74.473h135.236V442.182z M251.345,190.836c61.595,0,111.709,50.114,111.709,111.709
			s-50.114,111.709-111.709,111.709s-111.709-50.114-111.709-111.709S189.75,190.836,251.345,190.836z M493.382,209.455h-151
			c-23.511-22.998-55.626-37.236-91.036-37.236s-67.525,14.239-91.036,37.236H18.618V153.6l474.764,0.054V209.455z"/>
	</g>
</g>
<g>
	<g>
		<path d="M251.345,209.455c-51.332,0-93.091,41.759-93.091,93.091s41.759,93.091,93.091,93.091s93.091-41.759,93.091-93.091
			S302.677,209.455,251.345,209.455z M251.345,377.018c-41.064,0-74.473-33.409-74.473-74.473c0-41.064,33.409-74.473,74.473-74.473
			s74.473,33.409,74.473,74.473C325.818,343.609,292.409,377.018,251.345,377.018z"/>
	</g>
</g>
<g>
	<g>
		<rect x="418.909" y="172.218" width="46.545" height="18.618"/>
	</g>
</g>
<g>
	<g>
		<rect x="37.236" y="172.218" width="27.927" height="18.618"/>
	</g>
</g>
<g>
	<g>
		<rect x="74.473" y="172.218" width="27.927" height="18.618"/>
	</g>
</g>
<g>
	<g>
		<path d="M288.359,114.345l-6.205-27.927c-0.946-4.259-4.723-7.291-9.086-7.291h-34.136c-4.364,0-8.141,3.032-9.086,7.291
			l-6.204,27.927c-0.614,2.755,0.059,5.641,1.823,7.845c1.768,2.2,4.441,3.482,7.264,3.482h46.545c2.823,0,5.495-1.282,7.264-3.482
			C288.3,119.986,288.973,117.1,288.359,114.345z M244.332,107.055l2.068-9.309h19.2l2.068,9.309H244.332z"/>
	</g>
</g>
</svg>
