<?xml version="1.0" encoding="iso-8859-1"?>
<!-- Generator: Adobe Illustrator 19.0.0, SVG Export Plug-In . SVG Version: 6.00 Build 0)  -->
<svg version="1.1" id="Layer_1" xmlns="http://www.w3.org/2000/svg" xmlns:xlink="http://www.w3.org/1999/xlink" x="0px" y="0px"
	 viewBox="0 0 512 512" style="enable-background:new 0 0 512 512;" xml:space="preserve">
<g>
	<g>
		<path d="M265.143,96c-90.746,0-164.571,73.826-164.571,164.571s73.826,164.571,164.571,164.571s164.571-73.826,164.571-164.571
			S355.888,96,265.143,96z M265.143,406.857c-80.661,0-146.286-65.625-146.286-146.286s65.625-146.286,146.286-146.286
			s146.286,65.625,146.286,146.286S345.804,406.857,265.143,406.857z"/>
	</g>
</g>
<g>
	<g>
		<path d="M73.143,260.571c0-48.768,18.304-95.259,51.545-130.906c2.482-2.665,3.147-6.545,1.696-9.884
			c-1.451-3.335-4.746-5.496-8.384-5.496H9.143c-5.049,0-9.143,4.094-9.143,9.143v274.286c0,5.049,4.094,9.143,9.143,9.143H118
			c3.638,0,6.933-2.161,8.384-5.495c1.451-3.339,0.786-7.219-1.696-9.884C91.446,355.83,73.143,309.339,73.143,260.571z
			 M18.286,388.571v-256h79.995c-28.129,36.598-43.424,81.348-43.424,128c0,46.652,15.295,91.402,43.424,128H18.286z"/>
	</g>
</g>
<g>
	<g>
		<path d="M502.857,114.286h-90.571c-3.638,0-6.933,2.161-8.384,5.496c-1.451,3.339-0.786,7.219,1.696,9.884
			c33.241,35.647,51.545,82.138,51.545,130.906s-18.304,95.259-51.545,130.906c-2.482,2.665-3.147,6.545-1.696,9.884
			c1.451,3.335,4.746,5.495,8.384,5.495h90.571c5.049,0,9.143-4.094,9.143-9.143V123.429
			C512,118.379,507.906,114.286,502.857,114.286z M493.714,388.571h-61.71c28.129-36.598,43.424-81.348,43.424-128
			c0-46.652-15.295-91.402-43.424-128h61.71V388.571z"/>
	</g>
</g>
<g>
	<g>
		<path d="M265.143,141.714c-5.049,0-9.143,4.094-9.143,9.143s4.094,9.143,9.143,9.143c55.455,0,100.571,45.116,100.571,100.571
			c0,5.049,4.094,9.143,9.143,9.143s9.143-4.094,9.143-9.143C384,195.031,330.683,141.714,265.143,141.714z"/>
	</g>
</g>
<g>
	<g>
		<rect x="36.571" y="86.857" width="82.286" height="18.286"/>
	</g>
</g>
</svg>
