<?xml version="1.0" encoding="iso-8859-1"?>
<!-- Generator: Adobe Illustrator 19.0.0, SVG Export Plug-In . SVG Version: 6.00 Build 0)  -->
<svg version="1.1" id="Layer_1" xmlns="http://www.w3.org/2000/svg" xmlns:xlink="http://www.w3.org/1999/xlink" x="0px" y="0px"
	 viewBox="0 0 512 512" style="enable-background:new 0 0 512 512;" xml:space="preserve">
<g>
	<g>
		<path d="M491.912,125.49H334.887l-13.872-62.412c-1.02-4.593-5.093-7.863-9.799-7.863H200.784c-4.706,0-8.779,3.27-9.799,7.863
			l-13.872,62.412H20.088C9.01,125.49,0,134.48,0,145.53v291.216c0,11.049,9.01,20.039,20.088,20.039h471.824
			c11.079,0,20.088-8.99,20.088-20.039V145.53C512,134.48,502.99,125.49,491.912,125.49z M491.912,436.706l-471.833,0.039
			l0.01-291.176h165.078c4.706,0,8.78-3.269,9.799-7.863l13.873-62.412h94.323l13.873,62.412c1.019,4.593,5.093,7.863,9.799,7.863
			l165.088-0.039L491.912,436.706z"/>
	</g>
</g>
<g>
	<g>
		<path d="M250.98,165.647c-71.966,0-130.51,58.544-130.51,130.51s58.544,130.51,130.51,130.51s130.51-58.544,130.51-130.51
			S322.946,165.647,250.98,165.647z M250.98,406.588c-60.892,0-110.431-49.539-110.431-110.431s49.539-110.431,110.431-110.431
			c60.892,0,110.431,49.539,110.431,110.431S311.872,406.588,250.98,406.588z"/>
	</g>
</g>
<g>
	<g>
		<path d="M431.686,185.726c-16.608,0-30.118,13.51-30.118,30.118c0,16.608,13.51,30.118,30.118,30.118
			c16.608,0,30.118-13.51,30.118-30.118C461.804,199.235,448.294,185.726,431.686,185.726z M431.686,225.882
			c-5.534,0-10.039-4.505-10.039-10.039s4.505-10.039,10.039-10.039s10.039,4.505,10.039,10.039S437.221,225.882,431.686,225.882z"
			/>
	</g>
</g>
<g>
	<g>
		<rect x="40.157" y="95.373" width="100.392" height="20.078"/>
	</g>
</g>
</svg>
