<?xml version="1.0" encoding="iso-8859-1"?>
<!-- Generator: Adobe Illustrator 19.0.0, SVG Export Plug-In . SVG Version: 6.00 Build 0)  -->
<svg version="1.1" id="Layer_1" xmlns="http://www.w3.org/2000/svg" xmlns:xlink="http://www.w3.org/1999/xlink" x="0px" y="0px"
	 viewBox="0 0 512 512" style="enable-background:new 0 0 512 512;" xml:space="preserve">
<g>
	<g>
		<path d="M256,246.519c-57.509,0-104.296,46.787-104.296,104.296S198.491,455.111,256,455.111s104.296-46.787,104.296-104.296
			S313.509,246.519,256,246.519z M256,436.148c-47.051,0-85.333-38.282-85.333-85.333s38.282-85.333,85.333-85.333
			s85.333,38.282,85.333,85.333S303.051,436.148,256,436.148z"/>
	</g>
</g>
<g>
	<g>
		<path d="M512,151.704v-19c0-10.435-8.472-18.926-18.889-18.926H350.815V71.13c0-28.764-23.393-52.167-52.143-52.167h-85.343
			c-28.75,0-52.143,23.403-52.143,52.167v42.648h-18.963V85.333c0-5.236-4.245-9.481-9.482-9.481H47.407
			c-5.236,0-9.482,4.245-9.482,9.481v28.444H18.889C8.472,113.778,0,122.268,0,132.704v19v18.963v237.074
			c0,10.435,8.537,18.926,19.028,18.926h113.713c1,0,1.913-0.281,2.818-0.569c25.172,40.124,69.68,66.94,120.441,66.94
			c50.523,0,94.86-26.559,120.095-66.37h116.859c10.5,0,19.046-8.491,19.046-18.926V170.667L512,151.704L512,151.704z
			 M180.148,71.13c0-18.31,14.884-33.204,33.18-33.204h85.343c18.296,0,33.18,14.894,33.18,33.204v42.648h-9.482V71.13
			c0-13.079-10.63-23.722-23.699-23.722h-85.343c-13.069,0-23.699,10.643-23.699,23.722v42.648h-9.482V71.13z M303.407,71.13v42.648
			h-94.815V71.13c0-2.625,2.125-4.759,4.736-4.759h85.343C301.329,66.37,303.407,68.463,303.407,71.13z M56.889,94.815h66.37v18.963
			h-66.37V94.815z M256,474.074c-67.968,0-123.259-55.292-123.259-123.259S188.032,227.556,256,227.556
			s123.259,55.292,123.259,123.259S323.968,474.074,256,474.074z M492.954,407.704h-106.69c7.647-17.44,11.958-36.66,11.958-56.889
			c0-78.421-63.801-142.222-142.222-142.222s-142.222,63.801-142.222,142.222c0,20.23,4.311,39.45,11.958,56.891l-106.773,0.035
			l-0.064-237.074h474.126L492.954,407.704z M493.031,151.704H18.963v-18.963h28.433h0.012h85.333c0.015,0,0.028-0.008,0.044-0.008
			l360.252-0.029L493.031,151.704z"/>
	</g>
</g>
<g>
	<g>
		<rect x="407.704" y="208.593" width="56.889" height="18.963"/>
	</g>
</g>
</svg>
