<?xml version="1.0" encoding="iso-8859-1"?>
<!-- Generator: Adobe Illustrator 19.0.0, SVG Export Plug-In . SVG Version: 6.00 Build 0)  -->
<svg version="1.1" id="Layer_1" xmlns="http://www.w3.org/2000/svg" xmlns:xlink="http://www.w3.org/1999/xlink" x="0px" y="0px"
	 viewBox="0 0 512 512" style="enable-background:new 0 0 512 512;" xml:space="preserve">
<g>
	<g>
		<path d="M493.382,111.709H130.327V93.091c0-5.141-4.168-9.309-9.309-9.309H46.545c-5.141,0-9.309,4.168-9.309,9.309v18.618H18.618
			C8.35,111.709,0,120.032,0,130.259v279.409c0,10.227,8.35,18.55,18.618,18.55h474.764c10.268,0,18.618-8.323,18.618-18.55V130.259
			C512,120.032,503.65,111.709,493.382,111.709z M55.855,102.4h55.855v9.309H55.855V102.4z M493.382,409.6l-474.764,0.068V130.327
			h27.908c0.006,0,0.013,0,0.019,0h74.473c0.025,0,0.048-0.015,0.073-0.015l372.291-0.054V409.6z"/>
	</g>
</g>
<g>
	<g>
		<rect x="55.855" y="167.564" width="102.4" height="18.618"/>
	</g>
</g>
<g>
	<g>
		<rect x="55.855" y="195.491" width="102.4" height="18.618"/>
	</g>
</g>
<g>
	<g>
		<rect x="55.855" y="223.418" width="102.4" height="18.618"/>
	</g>
</g>
<g>
	<g>
		<rect x="55.855" y="251.345" width="102.4" height="18.618"/>
	</g>
</g>
<g>
	<g>
		<path d="M446.836,176.873H279.273c-5.141,0-9.309,4.168-9.309,9.309v167.564c0,5.141,4.168,9.309,9.309,9.309h167.564
			c5.141,0,9.309-4.168,9.309-9.309V186.182C456.145,181.041,451.977,176.873,446.836,176.873z M437.527,344.436H288.582V195.491
			h148.945V344.436z"/>
	</g>
</g>
<g>
	<g>
		<path d="M363.055,223.418c-5.141,0-9.309,4.168-9.309,9.309s4.168,9.309,9.309,9.309c20.532,0,37.236,16.704,37.236,37.236
			c0,5.141,4.168,9.309,9.309,9.309c5.141,0,9.309-4.168,9.309-9.309C418.909,248.473,393.855,223.418,363.055,223.418z"/>
	</g>
</g>
</svg>
