<svg id="Layer_1" height="512" viewBox="0 0 128 128" width="512" xmlns="http://www.w3.org/2000/svg" data-name="Layer 1"><path d="m101.78 58.731a1.749 1.749 0 0 0 -1.28-.557h-.892l2.634-27.727a1.751 1.751 0 0 0 -1.742-1.916h-5.206a10.916 10.916 0 1 0 -18.736-11.193 14.831 14.831 0 0 0 -13.342.762 12.452 12.452 0 0 0 -22.4 1.5q-.442-.043-.88-.043a9.473 9.473 0 0 0 -9.445 8.973h-2.991a1.751 1.751 0 0 0 -1.742 1.916l2.634 27.727h-.892a1.75 1.75 0 0 0 -1.746 1.874l2 28.25a1.75 1.75 0 0 0 1.746 1.627h1.909l1.879 19.776a7.182 7.182 0 0 0 7.179 6.53h47.066a7.182 7.182 0 0 0 7.179-6.53l1.879-19.773h1.909a1.75 1.75 0 0 0 1.746-1.626l2-28.25a1.75 1.75 0 0 0 -.466-1.32zm-60.248-35.448a1.75 1.75 0 0 0 2.168-1.255 8.953 8.953 0 0 1 17.137-.738 1.75 1.75 0 0 0 2.741.793 11.334 11.334 0 0 1 12.921-.85 1.75 1.75 0 0 0 2.556-.935 7.418 7.418 0 1 1 12.663 7.209 1.736 1.736 0 0 0 -.408 1.024h-16.224a1.75 1.75 0 0 0 -1.75 1.745 9.336 9.336 0 0 1 -18.673 0 1.75 1.75 0 0 0 -1.75-1.745h-18.921a5.973 5.973 0 0 1 7.54-5.248zm-12.108 8.749h21.863a12.837 12.837 0 0 0 25.426 0h21.863l-2.484 26.142h-22.11c-2.614-4.174-6.21-6.542-9.982-6.542s-7.368 2.368-9.982 6.542h-22.11zm61.8 77.334a3.7 3.7 0 0 1 -3.695 3.361h-47.062a3.7 3.7 0 0 1 -3.695-3.361l-1.847-19.442h19.093c2.615 4.172 6.21 6.542 9.982 6.542s7.367-2.37 9.982-6.542h19.093zm5.646-22.942h-23.884a1.75 1.75 0 0 0 -1.527.9c-2.01 3.589-4.729 5.647-7.459 5.647s-5.449-2.058-7.459-5.647a1.75 1.75 0 0 0 -1.527-.9h-23.884l-1.752-24.75h25.636a1.75 1.75 0 0 0 1.527-.9c2.01-3.588 4.729-5.646 7.459-5.646s5.449 2.058 7.459 5.646a1.75 1.75 0 0 0 1.527.9h25.636z"/></svg>