<?xml version="1.0" encoding="iso-8859-1"?>
<!-- Generator: Adobe Illustrator 19.0.0, SVG Export Plug-In . SVG Version: 6.00 Build 0)  -->
<svg version="1.1" id="Layer_1" xmlns="http://www.w3.org/2000/svg" xmlns:xlink="http://www.w3.org/1999/xlink" x="0px" y="0px"
	 viewBox="0 0 512 512" style="enable-background:new 0 0 512 512;" xml:space="preserve">
<g>
	<g>
		<path d="M379.42,100.571H132.58c-6.694,0-12.891,1.941-18.295,5.098V0H96v137.143c0,0.021,0,0.041,0,0.062v338.161
			C96,495.567,112.411,512,132.58,512H379.42c20.17,0,36.58-16.433,36.58-36.634V137.205
			C416,117.005,399.589,100.571,379.42,100.571z M397.714,475.366c0,10.116-8.205,18.348-18.295,18.348H132.58
			c-10.089,0-18.295-8.232-18.295-18.348V137.205c0-10.116,8.205-18.348,18.295-18.348H379.42c10.089,0,18.295,8.232,18.295,18.348
			V475.366z"/>
	</g>
</g>
<g>
	<g>
		<path d="M361.143,146.286H150.857c-5.053,0-9.143,4.094-9.143,9.143v109.714c0,5.049,4.089,9.143,9.143,9.143h210.286
			c5.053,0,9.143-4.094,9.143-9.143V155.429C370.286,150.379,366.196,146.286,361.143,146.286z M352,256H160v-91.429h192V256z"/>
	</g>
</g>
<g>
	<g>
		<rect x="160" y="310.857" width="192" height="18.286"/>
	</g>
</g>
<g>
	<g>
		<rect x="160" y="356.571" width="192" height="18.286"/>
	</g>
</g>
<g>
	<g>
		<rect x="160" y="402.286" width="192" height="18.286"/>
	</g>
</g>
</svg>
