<svg id="Layer_1" height="512" viewBox="0 0 128 128" width="512" xmlns="http://www.w3.org/2000/svg" data-name="Layer 1"><path d="m106.5 47.728h-15.931v-34.2a1.75 1.75 0 0 0 -2.9-1.317l-4.458 3.9-4.458-3.9a1.75 1.75 0 0 0 -2.3 0l-4.457 3.9-4.458-3.9a1.75 1.75 0 0 0 -2.3 0l-4.458 3.9-4.458-3.9a1.749 1.749 0 0 0 -2.3 0l-4.458 3.9-4.458-3.9a1.749 1.749 0 0 0 -2.3 0l-4.458 3.9-4.458-3.9a1.749 1.749 0 0 0 -2.3 0l-4.458 3.9-4.458-3.9a1.75 1.75 0 0 0 -2.9 1.317v90.635a12.082 12.082 0 0 0 12.068 12.068h65.818a10.6 10.6 0 0 0 10.591-10.591v-56.162a1.75 1.75 0 0 0 -1.751-1.75zm-83.251 56.43v-86.78l2.708 2.368a1.749 1.749 0 0 0 2.3 0l4.458-3.9 4.458 3.9a1.749 1.749 0 0 0 2.3 0l4.458-3.9 4.458 3.9a1.749 1.749 0 0 0 2.3 0l4.458-3.9 4.458 3.9a1.749 1.749 0 0 0 2.3 0l4.458-3.9 4.458 3.9a1.75 1.75 0 0 0 2.3 0l4.457-3.9 4.458 3.9a1.75 1.75 0 0 0 2.3 0l2.708-2.368v88.257a10.537 10.537 0 0 0 2.747 7.091h-58a8.578 8.578 0 0 1 -8.542-8.568zm81.5 1.477a7.091 7.091 0 1 1 -14.182 0v-54.407h14.182z"/><path d="m55.125 60.75a16.875 16.875 0 1 0 -16.875-16.875 16.894 16.894 0 0 0 16.875 16.875zm0-30.25a13.375 13.375 0 1 1 -13.375 13.375 13.39 13.39 0 0 1 13.375-13.375z"/><path d="m75.5 68.455h-40.75a1.75 1.75 0 0 0 0 3.5h40.75a1.75 1.75 0 0 0 0-3.5z"/><path d="m34.75 80.75h20.375a1.75 1.75 0 0 0 0-3.5h-20.375a1.75 1.75 0 0 0 0 3.5z"/><path d="m75.5 86.045h-40.75a1.75 1.75 0 0 0 0 3.5h40.75a1.75 1.75 0 0 0 0-3.5z"/><path d="m34.75 98.34h20.375a1.75 1.75 0 0 0 0-3.5h-20.375a1.75 1.75 0 0 0 0 3.5z"/><path d="m75.5 103.635h-40.75a1.75 1.75 0 1 0 0 3.5h40.75a1.75 1.75 0 0 0 0-3.5z"/><path d="m52.885 47.865a1.75 1.75 0 0 0 -3.5 0 5.749 5.749 0 0 0 3.99 5.465v.92a1.75 1.75 0 0 0 3.5 0v-.92a5.738 5.738 0 0 0 0-10.93v-3.9a2.218 2.218 0 0 1 .49 1.381 1.75 1.75 0 0 0 3.5 0 5.749 5.749 0 0 0 -3.99-5.465v-1.103a1.75 1.75 0 0 0 -3.5 0v1.107a5.738 5.738 0 0 0 0 10.93v3.9a2.218 2.218 0 0 1 -.49-1.385zm3.99 1.381v-2.762a2.192 2.192 0 0 1 0 2.763zm-3.5-10.746v2.763a2.192 2.192 0 0 1 0-2.763z"/></svg>