<?xml version="1.0" encoding="iso-8859-1"?>
<!-- Generator: Adobe Illustrator 19.0.0, SVG Export Plug-In . SVG Version: 6.00 Build 0)  -->
<svg version="1.1" id="Layer_1" xmlns="http://www.w3.org/2000/svg" xmlns:xlink="http://www.w3.org/1999/xlink" x="0px" y="0px"
	 viewBox="0 0 512 512" style="enable-background:new 0 0 512 512;" xml:space="preserve">
<g>
	<g>
		<path d="M462.702,206.769H384V68.923h-19.692v137.846H49.298C22.115,206.769,0,228.856,0,256v68.923
			c0,27.144,22.115,49.231,49.298,49.231h147.625v59.077c0,5.438,4.404,9.846,9.846,9.846h88.615c5.442,0,9.846-4.409,9.846-9.846
			v-59.077h157.471c27.183,0,49.298-22.087,49.298-49.231V256C512,228.856,489.885,206.769,462.702,206.769z M285.538,423.385
			h-68.923v-49.231h68.923V423.385z M492.308,324.923c0,16.288-13.279,29.538-29.606,29.538H295.385h-88.615H49.298
			c-16.327,0-29.606-13.25-29.606-29.538V256c0-16.289,13.279-29.538,29.606-29.538h315.01H384h78.702
			c16.327,0,29.606,13.25,29.606,29.538V324.923z"/>
	</g>
</g>
<g>
	<g>
		<rect x="147.692" y="256" width="206.769" height="19.692"/>
	</g>
</g>
</svg>
