<svg id="Layer_1" height="512" viewBox="0 0 128 128" width="512" xmlns="http://www.w3.org/2000/svg" data-name="Layer 1"><path d="m64 11.773c-16.073 0-32.344 3.745-32.344 10.9v47.527a32.4 32.4 0 0 0 24.228 31.312c-2.583 1.179-5.1 2.834-6.307 5.1a6.458 6.458 0 0 0 -.153 5.779 6.311 6.311 0 0 0 4.555 3.6 9.517 9.517 0 0 0 2.135.235 11.4 11.4 0 0 0 7.231-2.619 1.05 1.05 0 0 1 1.31 0 11.217 11.217 0 0 0 9.366 2.393 6.311 6.311 0 0 0 4.555-3.6 6.458 6.458 0 0 0 -.153-5.779c-1.209-2.261-3.725-3.917-6.307-5.1a32.4 32.4 0 0 0 24.228-31.321v-47.524c0-7.157-16.271-10.903-32.344-10.903zm0 3.5c18.937 0 28.844 4.819 28.844 7.4s-9.906 7.4-28.844 7.4-28.844-4.819-28.844-7.4 9.906-7.4 28.844-7.4zm11.336 92.988a2.958 2.958 0 0 1 .026 2.739 2.833 2.833 0 0 1 -2.13 1.581 7.769 7.769 0 0 1 -6.3-1.634 4.642 4.642 0 0 0 -5.862 0 7.774 7.774 0 0 1 -6.3 1.633 2.833 2.833 0 0 1 -2.132-1.58 2.957 2.957 0 0 1 .025-2.74c1.681-3.148 8.469-5.105 11.337-5.684 2.732.558 9.66 2.551 11.336 5.686zm-11.336-9.213a28.877 28.877 0 0 1 -28.844-28.848v-42.3c5.644 3.745 17.295 5.678 28.844 5.678s23.2-1.933 28.844-5.678v42.3a28.877 28.877 0 0 1 -28.844 28.848z"/><path d="m60.093 22.581c1.458 0 4.493 0 4.493-2.208s-3.035-2.207-4.493-2.207-4.494 0-4.494 2.207 3.035 2.208 4.494 2.208z"/><path d="m76.787 26.055c2.726 0 5.975-.482 5.975-2.78s-3.249-2.78-5.975-2.78-5.974.482-5.974 2.78 3.249 2.78 5.974 2.78z"/><path d="m47.151 25.878c2.776 0 3.191-1.3 3.191-2.068s-.415-2.068-3.191-2.068-3.191 1.3-3.191 2.068.415 2.068 3.191 2.068z"/><path d="m86.577 72.968a1.752 1.752 0 0 0 -2.112 1.288c-.027.11-2.815 11.089-13.526 15.985a1.75 1.75 0 0 0 1.455 3.184c12.306-5.625 15.351-17.833 15.474-18.351a1.748 1.748 0 0 0 -1.291-2.106z"/></svg>