<svg xmlns="http://www.w3.org/2000/svg" width="88" height="88" data-name="Layer 1" viewBox="0 0 88 88"><path d="M61.77,14c-.46-.43-3-2.64-5.23-1.56A2.73,2.73,0,0,0,55,14.32c-.25,1.14.28,2.39,1.56,3.74,4.19,4.4,6.14,8.46,6.14,12.77,0,9.54-8.48,17.3-18.9,17.3s-18.89-7.76-18.89-17.3c0-5.21,3.19-9.38,6-12.43l.75-.81c1.33-1.4,2-3.47.47-4.94s-3.78-.37-4.85.59c-8.34,6.4-13.32,17.06-13.32,28.52C13.87,60.69,27.38,76.1,44,76.1S74.13,60.69,74.13,41.76C74.13,30.79,69.52,20.47,61.77,14ZM44,74c-15,0-27.34-13.7-28-30.82.55.54,1.2,1.15,1.95,1.8a1,1,0,0,0,.7.26,1.06,1.06,0,0,0,.69-1.86A34.34,34.34,0,0,1,16,40.06c.46-10.16,5.06-19.47,12.49-25.16l.07-.06a3.28,3.28,0,0,1,1.6-.8.54.54,0,0,1,.38.14c.67.65-.49,1.9-.54,1.95l-.78.84c-3,3.33-6.51,7.92-6.51,13.86,0,10.71,9.43,19.42,21,19.42s21-8.71,21-19.42c0-4.83-2.2-9.48-6.72-14.23-1.06-1.12-1-1.67-1-1.82s.34-.38.33-.38l.08,0c.62-.3,1.64.23,2.35.75l.11.11.46.37a.27.27,0,0,0,.08.07C67.32,21.42,71.55,30.43,72,40.14a32.49,32.49,0,0,1-2.79,2.8,1.06,1.06,0,0,0-.09,1.5,1.08,1.08,0,0,0,1.51.08c.51-.46,1-.89,1.38-1.3C71.31,60.31,59,74,44,74Z"/><path d="M27.61 48.86a41 41 0 0 1-4.29-2.5 1.06 1.06 0 0 0-1.48.29 1.08 1.08 0 0 0 .29 1.48 42 42 0 0 0 4.53 2.63 1.12 1.12 0 0 0 .47.11h0a1.06 1.06 0 0 0 .48-2zM37 52.07a37.91 37.91 0 0 1-4.78-1.29 1.06 1.06 0 1 0-.69 2 38.54 38.54 0 0 0 5.06 1.36l.2 0a1.06 1.06 0 0 0 .21-2.1zM56.48 50.57a34.46 34.46 0 0 1-4.76 1.37 1.06 1.06 0 0 0-.81 1.26 1 1 0 0 0 1 .84.9.9 0 0 0 .23 0 37.55 37.55 0 0 0 5-1.45 1.06 1.06 0 0 0 .63-1.36A1.07 1.07 0 0 0 56.48 50.57zM65.27 46A39.91 39.91 0 0 1 61 48.58a1.07 1.07 0 0 0 .49 2 1 1 0 0 0 .49-.12 40.71 40.71 0 0 0 4.48-2.71A1.06 1.06 0 1 0 65.27 46zM46.82 52.65c-.85.06-1.71.1-2.57.1H44c-.73 0-1.46 0-2.17-.06a1.06 1.06 0 0 0-.12 2.12c.75 0 1.52.07 2.29.07h.22c.91 0 1.82 0 2.72-.11a1.06 1.06 0 1 0-.16-2.12z"/></svg>