<svg id="Layer_1" height="512" viewBox="0 0 128 128" width="512" xmlns="http://www.w3.org/2000/svg" data-name="Layer 1"><path d="m71.965 11.773h-15.93a44.185 44.185 0 0 0 -44.135 44.135v15.931a43.906 43.906 0 0 0 42.844 44.106l8.38.242a1.777 1.777 0 0 0 .371.04h.051l.455-.013.455.013a1.854 1.854 0 0 0 .405-.039l8.4-.243a43.906 43.906 0 0 0 42.839-44.106v-15.931a44.185 44.185 0 0 0 -44.135-44.135zm40.635 60.066a40.423 40.423 0 0 1 -39.445 40.607l-8.7.251a1.794 1.794 0 0 0 -.219.021h-.185-.1-.182a1.842 1.842 0 0 0 -.222-.021l-8.7-.251a40.423 40.423 0 0 1 -39.447-40.607v-15.931a40.681 40.681 0 0 1 40.635-40.635h15.93a40.681 40.681 0 0 1 40.635 40.635z"/><path d="m71.965 21.211h-15.93a34.736 34.736 0 0 0 -34.7 34.7v15.93a34.514 34.514 0 0 0 33.679 34.672 1.77 1.77 0 0 0 1.27-.494 1.75 1.75 0 0 0 .531-1.255v-24.2a7.182 7.182 0 1 1 14.364 0v24.2a1.75 1.75 0 0 0 1.75 1.75h.051a34.514 34.514 0 0 0 33.679-34.672v-15.933a34.736 34.736 0 0 0 -34.694-34.698zm-7.965 23.304a8.868 8.868 0 1 1 -8.868 8.868 8.878 8.878 0 0 1 8.868-8.868zm39.162 27.324a31.02 31.02 0 0 1 -28.48 31.071v-22.351a10.682 10.682 0 1 0 -21.364 0v22.351a31.02 31.02 0 0 1 -28.48-31.071v-15.93a31.233 31.233 0 0 1 31.2-31.2h6.212v2.341a26.424 26.424 0 0 0 -24.645 26.33 1.75 1.75 0 0 0 3.5 0 22.92 22.92 0 0 1 21.145-22.819v3.733a19.2 19.2 0 0 0 -17.426 19.088 1.75 1.75 0 0 0 3.5 0 15.694 15.694 0 0 1 13.926-15.572v3.343a12.368 12.368 0 1 0 3.5 0v-3.343a15.694 15.694 0 0 1 13.926 15.572 1.75 1.75 0 0 0 3.5 0 19.2 19.2 0 0 0 -17.426-19.087v-3.734a22.92 22.92 0 0 1 21.145 22.821 1.75 1.75 0 0 0 3.5 0 26.424 26.424 0 0 0 -24.645-26.33v-2.341h6.215a31.233 31.233 0 0 1 31.2 31.2z"/></svg>