<?xml version="1.0" encoding="iso-8859-1"?>
<!-- Generator: Adobe Illustrator 19.0.0, SVG Export Plug-In . SVG Version: 6.00 Build 0)  -->
<svg version="1.1" id="Layer_1" xmlns="http://www.w3.org/2000/svg" xmlns:xlink="http://www.w3.org/1999/xlink" x="0px" y="0px"
	 viewBox="0 0 512 512" style="enable-background:new 0 0 512 512;" xml:space="preserve">
<g>
	<g>
		<path d="M412.472,0H184.889c-2.519,0-4.926,1-6.704,2.778L73.889,107.074c-1.778,1.778-2.778,4.19-2.778,6.704v369.727
			C71.111,499.218,83.88,512,99.574,512h312.852c15.694,0,28.463-12.787,28.463-28.509V28.509C440.889,12.787,428.139,0,412.472,0z
			 M421.926,483.491c0,5.264-4.259,9.546-9.5,9.546H99.574c-5.241,0-9.5-4.278-9.5-9.532V117.704l98.741-98.741h223.657
			c5.213,0,9.454,4.282,9.454,9.546V483.491z"/>
	</g>
</g>
<g>
	<g>
		<rect x="184.889" y="47.407" width="18.963" height="151.704"/>
	</g>
</g>
<g>
	<g>
		<rect x="222.815" y="47.407" width="18.963" height="151.704"/>
	</g>
</g>
<g>
	<g>
		<rect x="260.741" y="47.407" width="18.963" height="151.704"/>
	</g>
</g>
<g>
	<g>
		<rect x="298.667" y="47.407" width="18.963" height="151.704"/>
	</g>
</g>
<g>
	<g>
		<rect x="336.593" y="47.407" width="18.963" height="151.704"/>
	</g>
</g>
<g>
	<g>
		<rect x="374.519" y="47.407" width="18.963" height="151.704"/>
	</g>
</g>
</svg>
