<?xml version="1.0" encoding="iso-8859-1"?>
<!-- Generator: Adobe Illustrator 19.0.0, SVG Export Plug-In . SVG Version: 6.00 Build 0)  -->
<svg version="1.1" id="Layer_1" xmlns="http://www.w3.org/2000/svg" xmlns:xlink="http://www.w3.org/1999/xlink" x="0px" y="0px"
	 viewBox="0 0 512 512" style="enable-background:new 0 0 512 512;" xml:space="preserve">
<g>
	<g>
		<path d="M486.429,21.333H25.571C11.471,21.333,0,32.842,0,46.983v85.233c0,14.142,11.471,25.65,25.571,25.65h460.858
			c14.1,0,25.571-11.508,25.571-25.65V46.983C512,32.842,500.529,21.333,486.429,21.333z M494.933,132.217
			c0,4.733-3.817,8.583-8.504,8.583H25.571c-4.687,0-8.504-3.85-8.504-8.583V46.983c0-4.733,3.817-8.583,8.504-8.583h460.858
			c4.687,0,8.504,3.85,8.504,8.583V132.217z"/>
	</g>
</g>
<g>
	<g>
		<path d="M486.429,166.4H25.571C11.471,166.4,0,177.908,0,192.05v85.234c0,14.142,11.471,25.65,25.571,25.65h460.858
			c14.1,0,25.571-11.508,25.571-25.65V192.05C512,177.908,500.529,166.4,486.429,166.4z M494.933,277.283
			c0,4.733-3.817,8.583-8.504,8.583H25.571c-4.687,0-8.504-3.85-8.504-8.583V192.05c0-4.733,3.817-8.583,8.504-8.583h460.858
			c4.687,0,8.504,3.85,8.504,8.583V277.283z"/>
	</g>
</g>
<g>
	<g>
		<path d="M68.267,64c-14.117,0-25.6,11.483-25.6,25.6s11.483,25.6,25.6,25.6s25.6-11.483,25.6-25.6S82.383,64,68.267,64z
			 M68.267,98.133c-4.704,0-8.533-3.825-8.533-8.533c0-4.708,3.829-8.533,8.533-8.533S76.8,84.892,76.8,89.6
			C76.8,94.308,72.971,98.133,68.267,98.133z"/>
	</g>
</g>
<g>
	<g>
		<path d="M68.267,209.067c-14.117,0-25.6,11.483-25.6,25.6s11.483,25.6,25.6,25.6s25.6-11.483,25.6-25.6
			S82.383,209.067,68.267,209.067z M68.267,243.2c-4.704,0-8.533-3.825-8.533-8.533c0-4.708,3.829-8.533,8.533-8.533
			s8.533,3.825,8.533,8.533C76.8,239.375,72.971,243.2,68.267,243.2z"/>
	</g>
</g>
<g>
	<g>
		<path d="M128,64c-14.117,0-25.6,11.483-25.6,25.6s11.483,25.6,25.6,25.6s25.6-11.483,25.6-25.6S142.117,64,128,64z M128,98.133
			c-4.704,0-8.533-3.825-8.533-8.533c0-4.708,3.829-8.533,8.533-8.533s8.533,3.825,8.533,8.533
			C136.533,94.308,132.704,98.133,128,98.133z"/>
	</g>
</g>
<g>
	<g>
		<path d="M128,209.067c-14.117,0-25.6,11.483-25.6,25.6s11.483,25.6,25.6,25.6s25.6-11.483,25.6-25.6S142.117,209.067,128,209.067z
			 M128,243.2c-4.704,0-8.533-3.825-8.533-8.533c0-4.708,3.829-8.533,8.533-8.533s8.533,3.825,8.533,8.533
			C136.533,239.375,132.704,243.2,128,243.2z"/>
	</g>
</g>
<g>
	<g>
		<path d="M187.733,64c-14.117,0-25.6,11.483-25.6,25.6s11.483,25.6,25.6,25.6s25.6-11.483,25.6-25.6S201.85,64,187.733,64z
			 M187.733,98.133c-4.704,0-8.533-3.825-8.533-8.533c0-4.708,3.829-8.533,8.533-8.533s8.533,3.825,8.533,8.533
			C196.267,94.308,192.438,98.133,187.733,98.133z"/>
	</g>
</g>
<g>
	<g>
		<path d="M187.733,209.067c-14.117,0-25.6,11.483-25.6,25.6s11.483,25.6,25.6,25.6s25.6-11.483,25.6-25.6
			S201.85,209.067,187.733,209.067z M187.733,243.2c-4.704,0-8.533-3.825-8.533-8.533c0-4.708,3.829-8.533,8.533-8.533
			s8.533,3.825,8.533,8.533C196.267,239.375,192.438,243.2,187.733,243.2z"/>
	</g>
</g>
<g>
	<g>
		<path d="M443.733,55.467c-18.821,0-34.133,15.308-34.133,34.133c0,18.825,15.312,34.133,34.133,34.133
			c18.821,0,34.133-15.308,34.133-34.133C477.867,70.775,462.554,55.467,443.733,55.467z M443.733,106.667
			c-9.412,0-17.067-7.658-17.067-17.067c0-9.408,7.654-17.067,17.067-17.067S460.8,80.192,460.8,89.6
			C460.8,99.008,453.146,106.667,443.733,106.667z"/>
	</g>
</g>
<g>
	<g>
		<path d="M443.733,200.533c-18.821,0-34.133,15.308-34.133,34.133c0,18.825,15.312,34.133,34.133,34.133
			c18.821,0,34.133-15.308,34.133-34.133C477.867,215.842,462.554,200.533,443.733,200.533z M443.733,251.733
			c-9.412,0-17.067-7.658-17.067-17.067s7.654-17.067,17.067-17.067s17.067,7.658,17.067,17.067S453.146,251.733,443.733,251.733z"
			/>
	</g>
</g>
<g>
	<g>
		<path d="M486.429,311.467H25.571c-14.1,0-25.571,11.508-25.571,25.65v85.233C0,436.492,11.483,448,25.596,448h306.7
			c4.713,0,8.533-3.817,8.533-8.533s-3.821-8.533-8.533-8.533h-306.7c-4.704,0-8.529-3.85-8.529-8.583v-85.234
			c0-4.733,3.817-8.583,8.504-8.583h460.858c4.687,0,8.504,3.8,8.504,8.467v9.142c0,4.717,3.821,8.533,8.533,8.533
			s8.533-3.817,8.533-8.533V337C512,322.925,500.529,311.467,486.429,311.467z"/>
	</g>
</g>
<g>
	<g>
		<path d="M503.467,396.8h-34.133v-34.133c0-4.717-3.821-8.533-8.533-8.533h-34.133c-4.713,0-8.533,3.817-8.533,8.533V396.8H384
			c-4.713,0-8.533,3.817-8.533,8.533v34.133c0,4.717,3.821,8.533,8.533,8.533h34.133v34.133c0,4.717,3.821,8.533,8.533,8.533H460.8
			c4.713,0,8.533-3.817,8.533-8.533V448h34.133c4.713,0,8.533-3.817,8.533-8.533v-34.133C512,400.617,508.179,396.8,503.467,396.8z
			 M494.933,430.933H460.8c-4.713,0-8.533,3.817-8.533,8.533V473.6H435.2v-34.133c0-4.717-3.821-8.533-8.533-8.533h-34.133v-17.067
			h34.133c4.713,0,8.533-3.817,8.533-8.533V371.2h17.067v34.133c0,4.717,3.821,8.533,8.533,8.533h34.133V430.933z"/>
	</g>
</g>
<g>
	<g>
		<path d="M68.267,354.133c-14.117,0-25.6,11.483-25.6,25.6s11.483,25.6,25.6,25.6s25.6-11.483,25.6-25.6
			S82.383,354.133,68.267,354.133z M68.267,388.267c-4.704,0-8.533-3.825-8.533-8.533s3.829-8.533,8.533-8.533
			s8.533,3.825,8.533,8.533S72.971,388.267,68.267,388.267z"/>
	</g>
</g>
<g>
	<g>
		<path d="M128,354.133c-14.117,0-25.6,11.483-25.6,25.6s11.483,25.6,25.6,25.6s25.6-11.483,25.6-25.6S142.117,354.133,128,354.133z
			 M128,388.267c-4.704,0-8.533-3.825-8.533-8.533s3.829-8.533,8.533-8.533s8.533,3.825,8.533,8.533S132.704,388.267,128,388.267z"
			/>
	</g>
</g>
<g>
	<g>
		<path d="M187.733,354.133c-14.117,0-25.6,11.483-25.6,25.6s11.483,25.6,25.6,25.6s25.6-11.483,25.6-25.6
			S201.85,354.133,187.733,354.133z M187.733,388.267c-4.704,0-8.533-3.825-8.533-8.533s3.829-8.533,8.533-8.533
			s8.533,3.825,8.533,8.533S192.438,388.267,187.733,388.267z"/>
	</g>
</g>
</svg>
