<?xml version="1.0" encoding="iso-8859-1"?>
<!-- Generator: Adobe Illustrator 19.0.0, SVG Export Plug-In . SVG Version: 6.00 Build 0)  -->
<svg version="1.1" id="Layer_1" xmlns="http://www.w3.org/2000/svg" xmlns:xlink="http://www.w3.org/1999/xlink" x="0px" y="0px"
	 viewBox="0 0 512 512" style="enable-background:new 0 0 512 512;" xml:space="preserve">
<g>
	<g>
		<path d="M486.429,17.067H25.571C11.471,17.067,0,28.575,0,42.717v85.234c0,14.142,11.471,25.65,25.571,25.65h460.858
			c14.1,0,25.571-11.508,25.571-25.65V42.717C512,28.575,500.529,17.067,486.429,17.067z M494.933,127.95
			c0,4.733-3.817,8.583-8.504,8.583H25.571c-4.687,0-8.504-3.85-8.504-8.583V42.717c0-4.733,3.817-8.583,8.504-8.583h460.858
			c4.687,0,8.504,3.85,8.504,8.583V127.95z"/>
	</g>
</g>
<g>
	<g>
		<path d="M486.429,162.133H25.571c-14.1,0-25.571,11.508-25.571,25.65v85.233c0,14.142,11.471,25.65,25.571,25.65h460.858
			c14.1,0,25.571-11.508,25.571-25.65v-85.233C512,173.642,500.529,162.133,486.429,162.133z M494.933,273.017
			c0,4.733-3.817,8.583-8.504,8.583H25.571c-4.687,0-8.504-3.85-8.504-8.583v-85.233c0-4.733,3.817-8.583,8.504-8.583h460.858
			c4.687,0,8.504,3.85,8.504,8.583V273.017z"/>
	</g>
</g>
<g>
	<g>
		<path d="M68.267,59.733c-14.117,0-25.6,11.483-25.6,25.6s11.483,25.6,25.6,25.6s25.6-11.483,25.6-25.6
			S82.383,59.733,68.267,59.733z M68.267,93.867c-4.704,0-8.533-3.825-8.533-8.533s3.829-8.533,8.533-8.533s8.533,3.825,8.533,8.533
			S72.971,93.867,68.267,93.867z"/>
	</g>
</g>
<g>
	<g>
		<path d="M68.267,204.8c-14.117,0-25.6,11.483-25.6,25.6S54.15,256,68.267,256s25.6-11.483,25.6-25.6S82.383,204.8,68.267,204.8z
			 M68.267,238.933c-4.704,0-8.533-3.825-8.533-8.533c0-4.708,3.829-8.533,8.533-8.533s8.533,3.825,8.533,8.533
			C76.8,235.108,72.971,238.933,68.267,238.933z"/>
	</g>
</g>
<g>
	<g>
		<path d="M128,59.733c-14.117,0-25.6,11.483-25.6,25.6s11.483,25.6,25.6,25.6s25.6-11.483,25.6-25.6S142.117,59.733,128,59.733z
			 M128,93.867c-4.704,0-8.533-3.825-8.533-8.533S123.296,76.8,128,76.8s8.533,3.825,8.533,8.533S132.704,93.867,128,93.867z"/>
	</g>
</g>
<g>
	<g>
		<path d="M128,204.8c-14.117,0-25.6,11.483-25.6,25.6S113.883,256,128,256s25.6-11.483,25.6-25.6S142.117,204.8,128,204.8z
			 M128,238.933c-4.704,0-8.533-3.825-8.533-8.533c0-4.708,3.829-8.533,8.533-8.533s8.533,3.825,8.533,8.533
			C136.533,235.108,132.704,238.933,128,238.933z"/>
	</g>
</g>
<g>
	<g>
		<path d="M187.733,59.733c-14.117,0-25.6,11.483-25.6,25.6s11.483,25.6,25.6,25.6s25.6-11.483,25.6-25.6
			S201.85,59.733,187.733,59.733z M187.733,93.867c-4.704,0-8.533-3.825-8.533-8.533s3.829-8.533,8.533-8.533
			s8.533,3.825,8.533,8.533S192.438,93.867,187.733,93.867z"/>
	</g>
</g>
<g>
	<g>
		<path d="M187.733,204.8c-14.117,0-25.6,11.483-25.6,25.6s11.483,25.6,25.6,25.6s25.6-11.483,25.6-25.6S201.85,204.8,187.733,204.8
			z M187.733,238.933c-4.704,0-8.533-3.825-8.533-8.533c0-4.708,3.829-8.533,8.533-8.533s8.533,3.825,8.533,8.533
			C196.267,235.108,192.438,238.933,187.733,238.933z"/>
	</g>
</g>
<g>
	<g>
		<path d="M443.733,51.2c-18.821,0-34.133,15.308-34.133,34.133s15.312,34.133,34.133,34.133c18.821,0,34.133-15.308,34.133-34.133
			S462.554,51.2,443.733,51.2z M443.733,102.4c-9.412,0-17.067-7.658-17.067-17.067s7.654-17.067,17.067-17.067
			S460.8,75.925,460.8,85.333S453.146,102.4,443.733,102.4z"/>
	</g>
</g>
<g>
	<g>
		<path d="M443.733,196.267c-18.821,0-34.133,15.308-34.133,34.133c0,18.825,15.312,34.133,34.133,34.133
			c18.821,0,34.133-15.308,34.133-34.133C477.867,211.575,462.554,196.267,443.733,196.267z M443.733,247.467
			c-9.412,0-17.067-7.658-17.067-17.067c0-9.408,7.654-17.067,17.067-17.067S460.8,220.992,460.8,230.4
			C460.8,239.808,453.146,247.467,443.733,247.467z"/>
	</g>
</g>
<g>
	<g>
		<path d="M486.429,307.2H25.571C11.471,307.2,0,318.708,0,332.85v85.234c0,14.142,11.483,25.65,25.596,25.65h306.7
			c4.713,0,8.533-3.817,8.533-8.533s-3.821-8.533-8.533-8.533h-306.7c-4.704,0-8.529-3.85-8.529-8.583V332.85
			c0-4.733,3.817-8.583,8.504-8.583h460.858c4.687,0,8.504,3.8,8.504,8.467v9.141c0,4.717,3.821,8.533,8.533,8.533
			s8.533-3.817,8.533-8.533v-9.141C512,318.658,500.529,307.2,486.429,307.2z"/>
	</g>
</g>
<g>
	<g>
		<path d="M68.267,349.867c-14.117,0-25.6,11.483-25.6,25.6s11.483,25.6,25.6,25.6s25.6-11.483,25.6-25.6
			S82.383,349.867,68.267,349.867z M68.267,384c-4.704,0-8.533-3.825-8.533-8.533s3.829-8.533,8.533-8.533s8.533,3.825,8.533,8.533
			S72.971,384,68.267,384z"/>
	</g>
</g>
<g>
	<g>
		<path d="M128,349.867c-14.117,0-25.6,11.483-25.6,25.6s11.483,25.6,25.6,25.6s25.6-11.483,25.6-25.6S142.117,349.867,128,349.867z
			 M128,384c-4.704,0-8.533-3.825-8.533-8.533s3.829-8.533,8.533-8.533s8.533,3.825,8.533,8.533S132.704,384,128,384z"/>
	</g>
</g>
<g>
	<g>
		<path d="M187.733,349.867c-14.117,0-25.6,11.483-25.6,25.6s11.483,25.6,25.6,25.6s25.6-11.483,25.6-25.6
			S201.85,349.867,187.733,349.867z M187.733,384c-4.704,0-8.533-3.825-8.533-8.533s3.829-8.533,8.533-8.533
			s8.533,3.825,8.533,8.533S192.438,384,187.733,384z"/>
	</g>
</g>
<g>
	<g>
		<path d="M430.933,332.8c-44.7,0-81.067,36.367-81.067,81.067c0,44.7,36.367,81.067,81.067,81.067S512,458.567,512,413.867
			C512,369.167,475.633,332.8,430.933,332.8z M430.933,477.867c-35.292,0-64-28.708-64-64c0-35.292,28.708-64,64-64s64,28.708,64,64
			C494.933,449.158,466.225,477.867,430.933,477.867z"/>
	</g>
</g>
<g>
	<g>
		<path d="M435.2,358.4c-18.821,0-34.133,15.308-34.133,34.133c0,4.717,3.821,8.533,8.533,8.533s8.533-3.817,8.533-8.533
			c0-9.408,7.654-17.067,17.067-17.067s17.067,7.658,17.067,17.067S444.612,409.6,435.2,409.6c-4.713,0-8.533,3.817-8.533,8.533
			V435.2c0,4.717,3.821,8.533,8.533,8.533s8.533-3.817,8.533-8.533v-9.617c14.704-3.792,25.6-17.175,25.6-33.05
			C469.333,373.708,454.021,358.4,435.2,358.4z"/>
	</g>
</g>
<g>
	<g>
		<path d="M441.258,454.742c-3.246-3.158-8.962-3.158-12.116,0c-1.537,1.617-2.475,3.841-2.475,6.058c0,2.3,0.85,4.433,2.475,6.058
			c1.621,1.617,3.754,2.475,6.058,2.475s4.438-0.858,6.058-2.475c0.767-0.858,1.363-1.792,1.792-2.817
			c0.512-1.025,0.683-2.133,0.683-3.242C443.733,458.583,442.792,456.358,441.258,454.742z"/>
	</g>
</g>
</svg>
