<?xml version="1.0" encoding="iso-8859-1"?>
<!-- Generator: Adobe Illustrator 19.0.0, SVG Export Plug-In . SVG Version: 6.00 Build 0)  -->
<svg version="1.1" id="Layer_1" xmlns="http://www.w3.org/2000/svg" xmlns:xlink="http://www.w3.org/1999/xlink" x="0px" y="0px"
	 viewBox="0 0 512 512" style="enable-background:new 0 0 512 512;" xml:space="preserve">
<g>
	<g>
		<path d="M470.739,24.774H24.746C11.101,24.774,0,35.911,0,49.596v82.484c0,13.686,11.101,24.823,24.746,24.823h445.993
			c13.645,0,24.746-11.137,24.746-24.823V49.596C495.485,35.911,484.384,24.774,470.739,24.774z M478.969,132.081
			c0,4.581-3.694,8.306-8.23,8.306H24.746c-4.536,0-8.23-3.726-8.23-8.306V49.596c0-4.581,3.694-8.306,8.23-8.306h445.993
			c4.536,0,8.23,3.726,8.23,8.306V132.081z"/>
	</g>
</g>
<g>
	<g>
		<path d="M470.739,165.161H24.746C11.101,165.161,0,176.298,0,189.984v82.484c0,13.685,11.101,24.823,24.746,24.823h445.993
			c13.645,0,24.746-11.137,24.746-24.823v-82.484C495.485,176.298,484.384,165.161,470.739,165.161z M478.969,272.468
			c0,4.581-3.694,8.306-8.23,8.306H24.746c-4.536,0-8.23-3.726-8.23-8.306v-82.484c0-4.581,3.694-8.306,8.23-8.306h445.993
			c4.536,0,8.23,3.726,8.23,8.306V272.468z"/>
	</g>
</g>
<g>
	<g>
		<path d="M66.065,66.064c-13.661,0-24.774,11.113-24.774,24.774c0,13.661,11.113,24.774,24.774,24.774
			c13.661,0,24.774-11.113,24.774-24.774C90.839,77.177,79.726,66.064,66.065,66.064z M66.065,99.097
			c-4.552,0-8.258-3.702-8.258-8.258s3.706-8.258,8.258-8.258c4.552,0,8.258,3.702,8.258,8.258S70.617,99.097,66.065,99.097z"/>
	</g>
</g>
<g>
	<g>
		<path d="M66.065,206.452c-13.661,0-24.774,11.113-24.774,24.774C41.29,244.887,52.403,256,66.065,256
			c13.661,0,24.774-11.113,24.774-24.774C90.839,217.564,79.726,206.452,66.065,206.452z M66.065,239.484
			c-4.552,0-8.258-3.702-8.258-8.258s3.706-8.258,8.258-8.258c4.552,0,8.258,3.702,8.258,8.258S70.617,239.484,66.065,239.484z"/>
	</g>
</g>
<g>
	<g>
		<path d="M123.871,66.064c-13.661,0-24.774,11.113-24.774,24.774c0,13.661,11.113,24.774,24.774,24.774
			c13.661,0,24.774-11.113,24.774-24.774C148.645,77.177,137.533,66.064,123.871,66.064z M123.871,99.097
			c-4.552,0-8.258-3.702-8.258-8.258s3.706-8.258,8.258-8.258s8.258,3.702,8.258,8.258S128.424,99.097,123.871,99.097z"/>
	</g>
</g>
<g>
	<g>
		<path d="M123.871,206.452c-13.661,0-24.774,11.113-24.774,24.774c0,13.661,11.113,24.774,24.774,24.774
			c13.661,0,24.774-11.113,24.774-24.774C148.645,217.564,137.533,206.452,123.871,206.452z M123.871,239.484
			c-4.552,0-8.258-3.702-8.258-8.258s3.706-8.258,8.258-8.258s8.258,3.702,8.258,8.258S128.424,239.484,123.871,239.484z"/>
	</g>
</g>
<g>
	<g>
		<path d="M181.678,66.064c-13.661,0-24.774,11.113-24.774,24.774c0,13.661,11.113,24.774,24.774,24.774
			c13.661,0,24.774-11.113,24.774-24.774C206.452,77.177,195.339,66.064,181.678,66.064z M181.678,99.097
			c-4.552,0-8.258-3.702-8.258-8.258s3.706-8.258,8.258-8.258c4.552,0,8.258,3.702,8.258,8.258S186.23,99.097,181.678,99.097z"/>
	</g>
</g>
<g>
	<g>
		<path d="M181.678,206.452c-13.661,0-24.774,11.113-24.774,24.774c0,13.661,11.113,24.774,24.774,24.774
			c13.661,0,24.774-11.113,24.774-24.774C206.452,217.564,195.339,206.452,181.678,206.452z M181.678,239.484
			c-4.552,0-8.258-3.702-8.258-8.258s3.706-8.258,8.258-8.258c4.552,0,8.258,3.702,8.258,8.258S186.23,239.484,181.678,239.484z"/>
	</g>
</g>
<g>
	<g>
		<path d="M429.42,57.806c-18.214,0-33.032,14.815-33.032,33.032c0,18.218,14.818,33.032,33.032,33.032s33.032-14.815,33.032-33.032
			C462.452,72.621,447.634,57.806,429.42,57.806z M429.42,107.355c-9.109,0-16.516-7.411-16.516-16.516
			c0-9.105,7.407-16.516,16.516-16.516c9.109,0,16.516,7.411,16.516,16.516C445.936,99.943,438.529,107.355,429.42,107.355z"/>
	</g>
</g>
<g>
	<g>
		<path d="M429.42,198.193c-18.214,0-33.032,14.815-33.032,33.032c0,18.218,14.818,33.032,33.032,33.032
			s33.032-14.815,33.032-33.032C462.452,213.008,447.634,198.193,429.42,198.193z M429.42,247.742
			c-9.109,0-16.516-7.411-16.516-16.516c0-9.105,7.407-16.516,16.516-16.516c9.109,0,16.516,7.411,16.516,16.516
			C445.936,240.331,438.529,247.742,429.42,247.742z"/>
	</g>
</g>
<g>
	<g>
		<path d="M470.739,305.548H24.746C11.101,305.548,0,316.686,0,330.371v82.484c0,13.685,11.113,24.823,24.77,24.823h296.807
			c4.56,0,8.258-3.694,8.258-8.258s-3.698-8.258-8.258-8.258H24.77c-4.552,0-8.254-3.726-8.254-8.306v-82.484
			c0-4.581,3.694-8.306,8.23-8.306h445.993c4.536,0,8.23,3.677,8.23,8.194v8.847c0,4.565,3.698,8.258,8.258,8.258
			c4.561,0,8.258-3.694,8.258-8.258v-8.847C495.485,316.637,484.384,305.548,470.739,305.548z"/>
	</g>
</g>
<g>
	<g>
		<path d="M66.065,346.839c-13.661,0-24.774,11.113-24.774,24.774c0,13.661,11.113,24.774,24.774,24.774
			c13.661,0,24.774-11.113,24.774-24.774C90.839,357.952,79.726,346.839,66.065,346.839z M66.065,379.871
			c-4.552,0-8.258-3.702-8.258-8.258s3.706-8.258,8.258-8.258c4.552,0,8.258,3.702,8.258,8.258S70.617,379.871,66.065,379.871z"/>
	</g>
</g>
<g>
	<g>
		<path d="M123.871,346.839c-13.661,0-24.774,11.113-24.774,24.774c0,13.661,11.113,24.774,24.774,24.774
			c13.661,0,24.774-11.113,24.774-24.774C148.645,357.952,137.533,346.839,123.871,346.839z M123.871,379.871
			c-4.552,0-8.258-3.702-8.258-8.258s3.706-8.258,8.258-8.258s8.258,3.702,8.258,8.258S128.424,379.871,123.871,379.871z"/>
	</g>
</g>
<g>
	<g>
		<path d="M181.678,346.839c-13.661,0-24.774,11.113-24.774,24.774c0,13.661,11.113,24.774,24.774,24.774
			c13.661,0,24.774-11.113,24.774-24.774C206.452,357.952,195.339,346.839,181.678,346.839z M181.678,379.871
			c-4.552,0-8.258-3.702-8.258-8.258s3.706-8.258,8.258-8.258c4.552,0,8.258,3.702,8.258,8.258S186.23,379.871,181.678,379.871z"/>
	</g>
</g>
<g>
	<g>
		<path d="M510.747,474.589L428.166,342.46c-3.024-4.823-10.984-4.823-14.008,0l-82.581,132.129
			c-1.589,2.548-1.673,5.758-0.218,8.379c1.456,2.629,4.218,4.258,7.222,4.258h165.162c3.004,0,5.766-1.629,7.222-4.258
			C512.42,480.347,512.335,477.138,510.747,474.589z M353.48,470.71l67.682-108.29l67.682,108.29H353.48z"/>
	</g>
</g>
<g>
	<g>
		<path d="M421.162,379.871c-4.561,0-8.258,3.694-8.258,8.258v41.29c0,4.564,3.698,8.258,8.258,8.258
			c4.56,0,8.258-3.694,8.258-8.258v-41.29C429.42,383.565,425.722,379.871,421.162,379.871z"/>
	</g>
</g>
<g>
	<g>
		<path d="M427.025,448.331c-3.141-3.057-8.589-3.057-11.726,0c-1.488,1.565-2.395,3.718-2.395,5.863
			c0,2.226,0.823,4.29,2.395,5.863c0.823,0.742,1.734,1.323,2.722,1.734c0.992,0.411,2.065,0.661,3.141,0.661
			c2.23,0,4.294-0.831,5.863-2.395c1.569-1.573,2.395-3.637,2.395-5.863C429.42,452.049,428.509,449.896,427.025,448.331z"/>
	</g>
</g>
</svg>
