<svg id="Layer_1" height="512" viewBox="0 0 128 128" width="512" xmlns="http://www.w3.org/2000/svg" data-name="Layer 1"><path d="m113.855 55.807-3.508-4.3v-.006l-8.721-10.683a22.531 22.531 0 0 0 -17.526-8.318h-7.82l-10.53-6.942v-1.452a1.771 1.771 0 0 1 .9-1.571 5.747 5.747 0 0 0 2.908-6.377 5.655 5.655 0 0 0 -4.234-4.234 5.713 5.713 0 0 0 -7.028 5.556 1.75 1.75 0 1 0 3.5 0 2.214 2.214 0 0 1 2.75-2.144 2.167 2.167 0 0 1 1.6 1.6 2.218 2.218 0 0 1 -1.122 2.5 5.237 5.237 0 0 0 -2.771 4.671v1.451l-10.528 6.942h-7.825a22.535 22.535 0 0 0 -17.523 8.316l-8.715 10.684-.006.006-.005.008-3.506 4.295a1.75 1.75 0 0 0 .237 2.453l13.223 10.98a1.754 1.754 0 0 0 2.335-.089l5.81-5.623v50.946a1.75 1.75 0 0 0 1.75 1.75h53a1.75 1.75 0 0 0 1.75-1.75v-50.946l5.81 5.623a1.751 1.751 0 0 0 2.335.089l13.223-10.982a1.75 1.75 0 0 0 .237-2.453zm-49.855-27.207 5.918 3.9h-11.836zm9.837 7.4a9.989 9.989 0 0 1 -19.673 0zm-45.2 29.547-10.684-8.871 1.293-1.584 10.881 9.008zm63.083-7.4a1.75 1.75 0 0 0 -2.97 1.253v53.325h-49.5v-53.325a1.75 1.75 0 0 0 -2.967-1.258l-3.625 3.509-11.2-9.272 7.633-9.352a19.05 19.05 0 0 1 14.809-7.027h6.722a13.485 13.485 0 0 0 26.747 0h6.731a19.048 19.048 0 0 1 14.812 7.029l7.634 9.352-11.2 9.272zm7.648 7.4-1.495-1.447 10.882-9.01 1.293 1.584z"/><path d="m83.25 57h-11.25a1.75 1.75 0 0 0 -1.75 1.75v11.25a1.749 1.749 0 0 0 .909 1.534l5.625 3.083a1.746 1.746 0 0 0 1.682 0l5.625-3.083a1.749 1.749 0 0 0 .909-1.534v-11.25a1.75 1.75 0 0 0 -1.75-1.75zm-1.75 11.964-3.875 2.123-3.875-2.123v-8.464h7.75z"/></svg>