<svg id="Layer_1" height="512" viewBox="0 0 128 128" width="512" xmlns="http://www.w3.org/2000/svg" data-name="Layer 1"><path d="m97.957 107.941-4.606-75.048a1.75 1.75 0 0 0 -1.751-1.643h-9.4v-1.274a18.2 18.2 0 0 0 -36.405 0v1.274h-9.395a1.75 1.75 0 0 0 -1.747 1.643l-4.606 75.049a7.807 7.807 0 0 0 7.792 8.285h52.326a7.807 7.807 0 0 0 7.792-8.285zm-61.634-45.191h55.354l1.15 18.75h-57.654zm12.977-32.774a14.7 14.7 0 0 1 29.405 0v1.274h-29.405zm-3.5 4.774v6.907a5 5 0 1 0 3.5 0v-6.907h29.4v6.907a5 5 0 1 0 3.5 0v-6.907h7.755l1.5 24.5h-54.917l1.5-24.5zm1.75 10.074a1.5 1.5 0 1 1 -1.5 1.5 1.5 1.5 0 0 1 1.497-1.5zm32.905 0a1.5 1.5 0 1 1 -1.5 1.5 1.5 1.5 0 0 1 1.498-1.5zm12.845 66.547a4.266 4.266 0 0 1 -3.137 1.355h-52.328a4.307 4.307 0 0 1 -4.3-4.57l1.423-23.156h58.084l1.421 23.156a4.268 4.268 0 0 1 -1.163 3.215z"/></svg>