<svg id="Layer_1" height="512" viewBox="0 0 128 128" width="512" xmlns="http://www.w3.org/2000/svg" data-name="Layer 1"><path d="m114.477 47.122h-38.477l22.269-22.271a4.583 4.583 0 1 0 -6.482-6.481l-25.534 25.53a9.887 9.887 0 0 0 -4.505 0l-25.534-25.531a4.583 4.583 0 0 0 -6.482 6.481l22.268 22.272h-38.477a1.75 1.75 0 0 0 -1.75 1.75v9.875a1.75 1.75 0 0 0 1.75 1.75h2.786l6.026 43.457a8.171 8.171 0 0 0 8.061 7.02h67.204a8.171 8.171 0 0 0 8.061-7.02l6.03-43.454h2.786a1.75 1.75 0 0 0 1.75-1.75v-9.878a1.75 1.75 0 0 0 -1.75-1.75zm-20.216-26.278a1.11 1.11 0 0 1 1.533 0 1.086 1.086 0 0 1 0 1.532l-24.437 24.436a10.236 10.236 0 0 0 -1.652-1.412zm-23.594 32.966a6.667 6.667 0 1 1 -6.667-6.667 6.675 6.675 0 0 1 6.667 6.667zm-38.46-32.966a1.109 1.109 0 0 1 1.532 0l24.561 24.556a10.238 10.238 0 0 0 -1.652 1.412l-24.441-24.436a1.084 1.084 0 0 1 0-1.532zm-16.934 29.778h39.08a10.042 10.042 0 0 0 0 6.375h-39.08zm86.927 52.851a4.657 4.657 0 0 1 -4.594 4h-67.206a4.657 4.657 0 0 1 -4.594-4l-5.963-42.973h36.519a10.125 10.125 0 0 0 15.281 0h.045 36.47zm10.527-46.473h-39.079a10.042 10.042 0 0 0 0-6.375h39.079z"/><path d="m63.55 66.5a5.807 5.807 0 0 0 -5.8 5.8v23.449a5.8 5.8 0 0 0 11.6 0v-23.449a5.807 5.807 0 0 0 -5.8-5.8zm2.3 29.252a2.3 2.3 0 0 1 -2.3 2.3 2.3 2.3 0 0 1 -2.3-2.3v-23.452a2.3 2.3 0 1 1 4.6 0z"/><path d="m48.6 71.7a5.8 5.8 0 1 0 -11.521 1.349l2.721 23.294a5.8 5.8 0 0 0 5.749 5.127 5.9 5.9 0 0 0 .686-.04 5.8 5.8 0 0 0 5.086-6.436zm-1.233 25.4a2.3 2.3 0 0 1 -4.088-1.159l-2.727-23.297a2.3 2.3 0 1 1 4.568-.535l2.727 23.291a2.281 2.281 0 0 1 -.48 1.7z"/><path d="m81.764 101.43a5.893 5.893 0 0 0 .686.04 5.8 5.8 0 0 0 5.75-5.126l2.727-23.293a5.8 5.8 0 0 0 -11.527-1.351l-2.723 23.3a5.808 5.808 0 0 0 5.087 6.43zm-1.611-6.03 2.727-23.291a2.3 2.3 0 0 1 4.568.535l-2.726 23.293a2.3 2.3 0 0 1 -4.568-.535z"/></svg>