<svg id="Layer_1" height="512" viewBox="0 0 128 128" width="512" xmlns="http://www.w3.org/2000/svg" data-name="Layer 1"><path d="m75.923 69.975a4.327 4.327 0 0 0 4.322-4.322v-18.603a4.322 4.322 0 0 0 -8.644 0v18.6a4.326 4.326 0 0 0 4.322 4.325zm-.823-22.925a.822.822 0 0 1 1.644 0v18.6a.822.822 0 1 1 -1.644 0z"/><path d="m52.379 47.613 2.571 18.65a4.3 4.3 0 1 0 8.514-1.174l-2.571-18.65a4.3 4.3 0 1 0 -8.514 1.174zm3.656-1.113a.788.788 0 0 1 .6-.273.8.8 0 0 1 .79.689l2.575 18.652a.8.8 0 0 1 -.79.906.8.8 0 0 1 -.791-.689l-2.571-18.65a.79.79 0 0 1 .187-.635z"/><path d="m92.516 69.975a4.315 4.315 0 0 0 4.257-3.711l2.571-18.65a4.3 4.3 0 1 0 -8.515-1.174l-2.57 18.65a4.3 4.3 0 0 0 4.257 4.885zm-.79-4.406 2.57-18.65a.8.8 0 0 1 .79-.689.8.8 0 0 1 .791.906l-2.571 18.65a.8.8 0 0 1 -.79.689.8.8 0 0 1 -.79-.906z"/><path d="m114.477 98.8h-2.577a7.176 7.176 0 0 0 -.04-7.554 5.011 5.011 0 0 0 -.655-9.98h-63.805l-.8-3.06 59.784.054a1.749 1.749 0 0 0 1.726-1.461l6.681-39.86a1.749 1.749 0 0 0 -1.726-2.039h-77.745l-1.42-5.443a5.025 5.025 0 0 0 -4.859-3.757h-12.241a5.023 5.023 0 1 0 0 10.046h8.36l13.5 51.806a5.024 5.024 0 0 0 4.86 3.756h4.351a7.175 7.175 0 0 0 0 7.488h-34.348a1.75 1.75 0 0 0 0 3.5h100.954a1.75 1.75 0 0 0 0-3.5zm-12.511-3.744a3.744 3.744 0 1 1 3.743 3.744 3.748 3.748 0 0 1 -3.743-3.746zm-2.446 3.744h-39.266a7.175 7.175 0 0 0 0-7.488h39.266a7.176 7.176 0 0 0 0 7.488zm11.487-60.4-6.094 36.359-59.218-.059-9.463-36.3zm-68.958 48.271-13.843-53.114a1.75 1.75 0 0 0 -1.693-1.309h-9.713a1.523 1.523 0 1 1 0-3.046h12.241a1.524 1.524 0 0 1 1.474 1.139l13.844 53.114a1.75 1.75 0 0 0 1.693 1.309h65.148a1.523 1.523 0 1 1 0 3.046h-67.677a1.523 1.523 0 0 1 -1.474-1.139zm8.271 8.383a3.744 3.744 0 1 1 3.744 3.746 3.748 3.748 0 0 1 -3.744-3.746z"/></svg>