<svg id="Layer_1" height="512" viewBox="0 0 128 128" width="512" xmlns="http://www.w3.org/2000/svg" data-name="Layer 1"><path d="m75.477 46.236a2.543 2.543 0 1 0 -2.543-2.543 2.546 2.546 0 0 0 2.543 2.543z"/><path d="m100.572 105.015h-7.58a12.7 12.7 0 0 0 -12.555-10.941h-23.629a14.838 14.838 0 0 1 -14.823-15.511c.32-7.251 6.277-13.238 13.623-14.059v6.2a1.75 1.75 0 0 0 3.5 0v-6.304h5.757c.634 0 1.264-.022 1.891-.055l1.229 5.792a1.75 1.75 0 0 0 3.424-.727l-1.151-5.424a35.389 35.389 0 0 0 7.042-1.825l2.889 6.289a1.75 1.75 0 1 0 3.18-1.461l-2.852-6.207a35.381 35.381 0 0 0 18.82-23.482 1.749 1.749 0 0 0 -1.7-2.163h-4.5a23.354 23.354 0 0 0 -23.252-21.58h-21.954a1.75 1.75 0 0 0 0 3.5h21.954a19.847 19.847 0 0 1 19.74 18.078h-4.574a14.972 14.972 0 0 0 -14.846-13.207h-30.325a1.75 1.75 0 0 0 0 3.5h30.325a11.464 11.464 0 0 1 11.309 9.707h-25.076a36.519 36.519 0 0 0 -12.546 2.211 1.753 1.753 0 0 0 -.169.064 36.828 36.828 0 0 0 -23.01 26.09c-.007.026-.013.053-.018.08a36.586 36.586 0 0 0 12.818 36.862c.033.032.061.068.1.1s.064.031.093.052a36.5 36.5 0 0 0 22.736 7.926h44.134a4.184 4.184 0 0 1 4.179 4.179 1.75 1.75 0 1 0 3.5 0 7.687 7.687 0 0 0 -7.683-7.684zm-5.241-66.38a31.868 31.868 0 0 1 -17.762 19.64c-.038.014-.077.022-.114.039s-.079.048-.12.07a32.018 32.018 0 0 1 -12.47 2.516h-6.472l-11.471-20.868a33.073 33.073 0 0 1 9.516-1.4zm-51.747 2.591 10.937 19.894a18.768 18.768 0 0 0 -13.855 9.52l-16.211-7.66a33.336 33.336 0 0 1 19.129-21.754zm-20.336 30.6a33.265 33.265 0 0 1 .435-5.338l15.617 7.378a17.88 17.88 0 0 0 -.813 4.542 18.207 18.207 0 0 0 2.589 10.238l-6.584 8.047a33.112 33.112 0 0 1 -11.243-24.868zm13.987 27.043 6-7.331c.111.122.209.254.324.374a18.182 18.182 0 0 0 13.251 5.662h2.586v7.441h-2.958a33 33 0 0 1 -19.203-6.146zm25.659 6.145v-7.44h17.543a9.206 9.206 0 0 1 9.023 7.441z"/></svg>