<?xml version="1.0" encoding="iso-8859-1"?>
<!-- Generator: Adobe Illustrator 19.0.0, SVG Export Plug-In . SVG Version: 6.00 Build 0)  -->
<svg version="1.1" id="Layer_1" xmlns="http://www.w3.org/2000/svg" xmlns:xlink="http://www.w3.org/1999/xlink" x="0px" y="0px"
	 viewBox="0 0 512 512" style="enable-background:new 0 0 512 512;" xml:space="preserve">
<g>
	<g>
		<path d="M396.076,164.226h-28.981v-19.274c0-20.163-12.419-37.441-29.989-44.684L318.604,7.764C317.703,3.255,313.736,0,309.132,0
			H164.226c-4.604,0-8.571,3.255-9.472,7.764l-18.501,92.505c-17.571,7.243-29.989,24.521-29.989,44.684v222.094
			c0,20.163,12.419,37.441,29.989,44.684l18.501,92.505c0.901,4.509,4.868,7.764,9.472,7.764h144.906
			c4.604,0,8.571-3.255,9.472-7.764l18.501-92.505c17.571-7.243,29.989-24.521,29.989-44.684v-20.646
			c16.619-4.318,28.981-19.313,28.981-37.269c0-17.955-12.362-32.951-28.981-37.269V251.17h28.981c5.335,0,9.66-4.321,9.66-9.66
			v-67.623C405.736,168.547,401.41,164.226,396.076,164.226z M172.146,19.321h129.066l15.458,77.283H156.689L172.146,19.321z
			 M301.212,492.679H172.146l-15.458-77.283H316.67L301.212,492.679z M347.774,173.887v67.623v125.538
			c0,16.009-13.014,29.028-29.009,29.028h-164.17c-15.995,0-29.009-13.019-29.009-29.028V144.953
			c0-16.009,13.014-29.028,29.009-29.028h164.17c15.995,0,29.009,13.019,29.009,29.028V173.887z M376.755,309.132
			c0,7.118-3.914,13.281-9.66,16.632V292.5C372.841,295.852,376.755,302.014,376.755,309.132z M386.415,231.849h-19.321v-48.302
			h19.321V231.849z"/>
	</g>
</g>
<g>
	<g>
		<path d="M193.226,164.226h-19.358c-15.972,0-28.962,12.991-28.962,28.962v19.358c0,15.972,12.991,28.962,28.962,28.962h19.358
			c15.972,0,28.962-12.991,28.962-28.962v-19.358C222.189,177.217,209.198,164.226,193.226,164.226z M202.868,212.547
			c0,5.321-4.325,9.642-9.642,9.642h-19.358c-5.316,0-9.642-4.321-9.642-9.642v-19.358c0-5.321,4.325-9.642,9.642-9.642h19.358
			c5.316,0,9.642,4.321,9.642,9.642V212.547z"/>
	</g>
</g>
<g>
	<g>
		<path d="M193.226,270.491h-19.358c-15.972,0-28.962,12.991-28.962,28.962v19.358c0,15.972,12.991,28.962,28.962,28.962h19.358
			c15.972,0,28.962-12.991,28.962-28.962v-19.358C222.189,283.481,209.198,270.491,193.226,270.491z M202.868,318.811
			c0,5.321-4.325,9.642-9.642,9.642h-19.358c-5.316,0-9.642-4.321-9.642-9.642v-19.358c0-5.321,4.325-9.642,9.642-9.642h19.358
			c5.316,0,9.642,4.321,9.642,9.642V318.811z"/>
	</g>
</g>
<g>
	<g>
		<path d="M299.491,164.226h-19.358c-15.972,0-28.962,12.991-28.962,28.962v19.358c0,15.972,12.991,28.962,28.962,28.962h19.358
			c15.972,0,28.962-12.991,28.962-28.962v-19.358C328.453,177.217,315.462,164.226,299.491,164.226z M309.132,212.547
			c0,5.321-4.325,9.642-9.642,9.642h-19.358c-5.316,0-9.642-4.321-9.642-9.642v-19.358c0-5.321,4.325-9.642,9.642-9.642h19.358
			c5.316,0,9.642,4.321,9.642,9.642V212.547z"/>
	</g>
</g>
<g>
	<g>
		<path d="M299.491,270.491h-19.358c-15.972,0-28.962,12.991-28.962,28.962v19.358c0,15.972,12.991,28.962,28.962,28.962h19.358
			c15.972,0,28.962-12.991,28.962-28.962v-19.358C328.453,283.481,315.462,270.491,299.491,270.491z M309.132,318.811
			c0,5.321-4.325,9.642-9.642,9.642h-19.358c-5.316,0-9.642-4.321-9.642-9.642v-19.358c0-5.321,4.325-9.642,9.642-9.642h19.358
			c5.316,0,9.642,4.321,9.642,9.642V318.811z"/>
	</g>
</g>
</svg>
