<?xml version="1.0" encoding="iso-8859-1"?>
<!-- Generator: Adobe Illustrator 19.0.0, SVG Export Plug-In . SVG Version: 6.00 Build 0)  -->
<svg version="1.1" id="Layer_1" xmlns="http://www.w3.org/2000/svg" xmlns:xlink="http://www.w3.org/1999/xlink" x="0px" y="0px"
	 viewBox="0 0 512 512" style="enable-background:new 0 0 512 512;" xml:space="preserve">
<g>
	<g>
		<path d="M396.076,164.226h-28.981v-19.274c0-20.163-12.42-37.441-29.991-44.684l-18.5-92.505C317.698,3.255,313.736,0,309.132,0
			H164.226c-4.604,0-8.566,3.255-9.472,7.764l-18.5,92.505c-17.573,7.243-29.991,24.521-29.991,44.684v222.094
			c0,20.163,12.417,37.441,29.991,44.684l18.5,92.505c0.906,4.509,4.868,7.764,9.472,7.764h144.906c4.604,0,8.566-3.255,9.472-7.764
			l18.5-92.505c17.571-7.243,29.991-24.521,29.991-44.684v-20.646c16.62-4.318,28.981-19.313,28.981-37.269
			c0-17.955-12.361-32.951-28.981-37.269V251.17h28.981c5.339,0,9.66-4.321,9.66-9.66v-67.623
			C405.736,168.547,401.415,164.226,396.076,164.226z M172.141,19.321h129.076l15.453,77.283H156.689L172.141,19.321z
			 M301.217,492.679H172.141l-15.453-77.283H316.67L301.217,492.679z M347.774,173.887v67.623v125.538
			c0,16.009-13.009,29.028-29.009,29.028h-164.17c-16,0-29.009-13.019-29.009-29.028V144.953c0-16.009,13.009-29.028,29.009-29.028
			h164.17c16,0,29.009,13.019,29.009,29.028V173.887z M376.755,309.132c0,7.118-3.915,13.281-9.66,16.632V292.5
			C372.84,295.852,376.755,302.014,376.755,309.132z M386.415,231.849h-19.321v-48.302h19.321V231.849z"/>
	</g>
</g>
<g>
	<g>
		<path d="M231.849,212.528c-5.34,0-9.66,4.321-9.66,9.66v48.302c0,5.34,4.321,9.66,9.66,9.66s9.66-4.321,9.66-9.66v-48.302
			C241.509,216.849,237.189,212.528,231.849,212.528z"/>
	</g>
</g>
<g>
	<g>
		<path d="M240.736,295.802c-0.481-1.16-1.16-2.226-2.028-3.189c-0.481-0.387-0.972-0.868-1.453-1.16
			c-0.576-0.387-1.16-0.679-1.736-0.868c-0.585-0.292-1.16-0.481-1.84-0.585c-1.16-0.283-2.415-0.283-3.764,0
			c-0.576,0.104-1.16,0.292-1.736,0.585c-0.585,0.189-1.16,0.481-1.745,0.868c-0.481,0.292-0.962,0.774-1.443,1.16
			c-0.868,0.962-1.547,2.028-2.028,3.189c-0.585,1.16-0.774,2.415-0.774,3.67s0.189,2.51,0.774,3.67
			c0.481,1.16,1.16,2.217,2.028,3.189c0.962,0.868,1.934,1.547,3.189,2.028c1.16,0.481,2.415,0.774,3.67,0.774
			c2.604,0,5.019-0.972,6.858-2.802c0.868-0.972,1.547-2.028,2.028-3.189c0.481-1.16,0.774-2.415,0.774-3.67
			S241.217,296.962,240.736,295.802z"/>
	</g>
</g>
<g>
	<g>
		<path d="M327.208,323.717l-86.943-154.566c-3.415-6.076-13.415-6.076-16.83,0L136.49,323.717c-1.689,2.99-1.66,6.651,0.076,9.613
			c1.736,2.962,4.906,4.783,8.34,4.783h173.887c3.434,0,6.604-1.821,8.34-4.783C328.868,330.368,328.896,326.707,327.208,323.717z
			 M161.424,318.792l70.425-125.198l70.425,125.198H161.424z"/>
	</g>
</g>
</svg>
