<?xml version="1.0" encoding="iso-8859-1"?>
<!-- Generator: Adobe Illustrator 19.0.0, SVG Export Plug-In . SVG Version: 6.00 Build 0)  -->
<svg version="1.1" id="Layer_1" xmlns="http://www.w3.org/2000/svg" xmlns:xlink="http://www.w3.org/1999/xlink" x="0px" y="0px"
	 viewBox="0 0 512 512" style="enable-background:new 0 0 512 512;" xml:space="preserve">
<g>
	<g>
		<path d="M396.076,164.226h-28.981v-19.274c0-20.163-12.42-37.441-29.991-44.684l-18.5-92.505C317.698,3.255,313.736,0,309.132,0
			H164.226c-4.604,0-8.566,3.255-9.472,7.764l-18.5,92.505c-17.573,7.243-29.991,24.521-29.991,44.684v222.094
			c0,20.163,12.417,37.441,29.991,44.684l18.5,92.505c0.906,4.509,4.868,7.764,9.472,7.764h144.906c4.604,0,8.566-3.255,9.472-7.764
			l18.5-92.505c17.571-7.243,29.991-24.521,29.991-44.684v-20.646c16.62-4.318,28.981-19.313,28.981-37.269
			c0-17.955-12.361-32.951-28.981-37.269V251.17h28.981c5.339,0,9.66-4.321,9.66-9.66v-67.623
			C405.736,168.547,401.415,164.226,396.076,164.226z M172.141,19.321h129.076l15.453,77.283H156.689L172.141,19.321z
			 M301.217,492.679H172.141l-15.453-77.283H316.67L301.217,492.679z M347.774,173.887v67.623v125.538
			c0,16.009-13.009,29.028-29.009,29.028h-164.17c-16,0-29.009-13.019-29.009-29.028V144.953c0-16.009,13.009-29.028,29.009-29.028
			h164.17c16,0,29.009,13.019,29.009,29.028V173.887z M376.755,309.132c0,7.118-3.915,13.281-9.66,16.632V292.5
			C372.84,295.852,376.755,302.014,376.755,309.132z M386.415,231.849h-19.321v-48.302h19.321V231.849z"/>
	</g>
</g>
<g>
	<g>
		<path d="M231.849,164.226c-47.943,0-86.943,39-86.943,86.943s39,86.943,86.943,86.943s86.943-39,86.943-86.943
			S279.793,164.226,231.849,164.226z M231.849,318.792c-37.283,0-67.623-30.34-67.623-67.623s30.34-67.623,67.623-67.623
			s67.623,30.34,67.623,67.623S269.132,318.792,231.849,318.792z"/>
	</g>
</g>
<g>
	<g>
		<path d="M245.91,251.571l22.552-22.552c3.774-3.774,3.774-9.887,0-13.66c-3.774-3.774-9.887-3.774-13.66,0L232.25,237.91
			l-22.552-22.552c-3.774-3.774-9.887-3.774-13.66,0c-3.774,3.774-3.774,9.887,0,13.66l22.552,22.552l-22.552,22.552
			c-3.774,3.774-3.774,9.887,0,13.661c1.887,1.887,4.359,2.83,6.83,2.83s4.943-0.943,6.83-2.83l22.552-22.552l22.552,22.552
			c1.887,1.887,4.359,2.83,6.83,2.83c2.472,0,4.943-0.943,6.83-2.83c3.774-3.774,3.774-9.887,0-13.661L245.91,251.571z"/>
	</g>
</g>
</svg>
