<?xml version="1.0" encoding="iso-8859-1"?>
<!-- Generator: Adobe Illustrator 19.0.0, SVG Export Plug-In . SVG Version: 6.00 Build 0)  -->
<svg version="1.1" id="Layer_1" xmlns="http://www.w3.org/2000/svg" xmlns:xlink="http://www.w3.org/1999/xlink" x="0px" y="0px"
	 viewBox="0 0 512 512" style="enable-background:new 0 0 512 512;" xml:space="preserve">
<g>
	<g>
		<path d="M396.076,164.226h-28.981v-19.274c0-20.163-12.419-37.441-29.989-44.684L318.604,7.764C317.703,3.255,313.736,0,309.132,0
			H164.226c-4.604,0-8.571,3.255-9.472,7.764l-18.501,92.505c-17.571,7.243-29.989,24.521-29.989,44.684v222.094
			c0,20.163,12.419,37.441,29.989,44.684l18.501,92.505c0.901,4.509,4.868,7.764,9.472,7.764h144.906
			c4.604,0,8.571-3.255,9.472-7.764l18.501-92.505c17.571-7.243,29.989-24.521,29.989-44.684v-20.646
			c16.619-4.318,28.981-19.313,28.981-37.269c0-17.955-12.362-32.951-28.981-37.269V251.17h28.981c5.335,0,9.66-4.321,9.66-9.66
			v-67.623C405.736,168.547,401.41,164.226,396.076,164.226z M172.146,19.321h129.066l15.458,77.283H156.689L172.146,19.321z
			 M301.212,492.679H172.146l-15.458-77.283H316.67L301.212,492.679z M347.774,173.887v67.623v125.538
			c0,16.009-13.014,29.028-29.009,29.028h-164.17c-15.995,0-29.009-13.019-29.009-29.028V144.953
			c0-16.009,13.014-29.028,29.009-29.028h164.17c15.995,0,29.009,13.019,29.009,29.028V173.887z M376.755,309.132
			c0,7.118-3.913,13.281-9.66,16.632V292.5C372.842,295.852,376.755,302.014,376.755,309.132z M386.415,231.849h-19.321v-48.302
			h19.321V231.849z"/>
	</g>
</g>
<g>
	<g>
		<path d="M323.962,227.642c-1.137-3.5-4.16-6.047-7.802-6.575l-48.934-7.113l-21.882-44.339c-3.264-6.604-14.066-6.604-17.33,0
			l-21.882,44.339l-48.934,7.113c-3.641,0.528-6.665,3.075-7.802,6.575c-1.137,3.491-0.189,7.33,2.443,9.896l35.41,34.519
			l-8.358,48.745c-0.618,3.623,0.873,7.283,3.844,9.443c2.981,2.17,6.929,2.462,10.175,0.736l43.769-23.01l43.769,23.01
			c1.415,0.745,2.958,1.113,4.495,1.113c2,0,3.995-0.623,5.679-1.849c2.972-2.16,4.462-5.821,3.844-9.443l-8.358-48.745
			l35.41-34.519C324.151,234.972,325.099,231.132,323.962,227.642z M268.981,261.774c-2.274,2.217-3.311,5.415-2.778,8.547
			l5.91,34.453l-30.939-16.264c-1.406-0.745-2.953-1.113-4.495-1.113c-1.543,0-3.09,0.368-4.495,1.113l-30.939,16.264l5.91-34.453
			c0.533-3.132-0.505-6.33-2.778-8.547l-25.033-24.405l34.589-5.028c3.151-0.453,5.868-2.434,7.278-5.283l15.467-31.339
			l15.467,31.339c1.41,2.849,4.127,4.83,7.278,5.283l34.589,5.028L268.981,261.774z"/>
	</g>
</g>
</svg>
