<?xml version="1.0" encoding="iso-8859-1"?>
<!-- Generator: Adobe Illustrator 19.0.0, SVG Export Plug-In . SVG Version: 6.00 Build 0)  -->
<svg version="1.1" id="Layer_1" xmlns="http://www.w3.org/2000/svg" xmlns:xlink="http://www.w3.org/1999/xlink" x="0px" y="0px"
	 viewBox="0 0 512 512" style="enable-background:new 0 0 512 512;" xml:space="preserve">
<g>
	<g>
		<path d="M317.667,0H109C88.111,0,71.111,17.019,71.111,37.944v47.389v388.676c0,20.944,17.028,37.991,37.954,37.991h153.759
			c5.241,0,9.481-4.241,9.481-9.482c0-5.241-4.241-9.481-9.482-9.481H109.065c-10.472,0-18.991-8.537-18.991-19.028V94.815h246.518
			v257.759c0,5.241,4.241,9.482,9.482,9.482s9.481-4.241,9.481-9.482V85.333V37.944C355.556,17.019,338.555,0,317.667,0z
			 M336.593,75.852H90.074V37.944c0-10.463,8.491-18.981,18.926-18.981h208.667c10.435,0,18.926,8.519,18.926,18.981V75.852z"/>
	</g>
</g>
<g>
	<g>
		<path d="M213.333,398.222c-20.917,0-37.926,17.009-37.926,37.926s17.009,37.926,37.926,37.926s37.926-17.009,37.926-37.926
			S234.25,398.222,213.333,398.222z M213.333,455.111c-10.454,0-18.963-8.509-18.963-18.963c0-10.454,8.509-18.963,18.963-18.963
			c10.454,0,18.963,8.509,18.963,18.963C232.296,446.602,223.787,455.111,213.333,455.111z"/>
	</g>
</g>
<g>
	<g>
		<rect x="165.926" y="37.926" width="56.889" height="18.963"/>
	</g>
</g>
<g>
	<g>
		<rect x="241.778" y="37.926" width="28.444" height="18.963"/>
	</g>
</g>
<g>
	<g>
		<path d="M431.407,436.148H298.667c-5.241,0-9.482,4.241-9.482,9.482v37.926c0,5.241,4.241,9.482,9.482,9.482h132.741
			c5.241,0,9.482-4.241,9.482-9.482V445.63C440.889,440.389,436.648,436.148,431.407,436.148z M421.926,474.074H308.148v-18.963
			h113.778V474.074z"/>
	</g>
</g>
</svg>
