<?xml version="1.0" encoding="iso-8859-1"?>
<!-- Generator: Adobe Illustrator 19.0.0, SVG Export Plug-In . SVG Version: 6.00 Build 0)  -->
<svg version="1.1" id="Layer_1" xmlns="http://www.w3.org/2000/svg" xmlns:xlink="http://www.w3.org/1999/xlink" x="0px" y="0px"
	 viewBox="0 0 512 512" style="enable-background:new 0 0 512 512;" xml:space="preserve">
<g>
	<g>
		<path d="M396.076,164.226h-28.981v-19.274c0-20.163-12.419-37.441-29.989-44.684L318.604,7.764C317.703,3.255,313.736,0,309.132,0
			H164.226c-4.604,0-8.571,3.255-9.472,7.764l-18.501,92.505c-17.571,7.243-29.989,24.521-29.989,44.684v222.094
			c0,20.163,12.419,37.441,29.989,44.684l18.501,92.505c0.901,4.509,4.868,7.764,9.472,7.764h144.906
			c4.604,0,8.571-3.255,9.472-7.764l18.501-92.505c17.571-7.243,29.989-24.521,29.989-44.684v-20.646
			c16.618-4.318,28.981-19.313,28.981-37.269c0-17.955-12.363-32.951-28.981-37.269V251.17h28.981c5.335,0,9.66-4.321,9.66-9.66
			v-67.623C405.736,168.547,401.41,164.226,396.076,164.226z M172.146,19.321h129.066l15.458,77.283H156.689L172.146,19.321z
			 M301.212,492.679H172.146l-15.458-77.283H316.67L301.212,492.679z M347.774,173.887v67.623v125.538
			c0,16.009-13.014,29.028-29.009,29.028h-164.17c-15.995,0-29.009-13.019-29.009-29.028V144.953
			c0-16.009,13.014-29.028,29.009-29.028h164.17c15.995,0,29.009,13.019,29.009,29.028V173.887z M376.755,309.132
			c0,7.118-3.913,13.281-9.66,16.632V292.5C372.842,295.852,376.755,302.014,376.755,309.132z M386.415,231.849h-19.321v-48.302
			h19.321V231.849z"/>
	</g>
</g>
<g>
	<g>
		<path d="M231.849,164.226c-47.939,0-86.943,39-86.943,86.943s39.005,86.943,86.943,86.943s86.943-39,86.943-86.943
			S279.788,164.226,231.849,164.226z M231.849,318.792c-37.288,0-67.623-30.34-67.623-67.623s30.335-67.623,67.623-67.623
			s67.623,30.34,67.623,67.623S269.137,318.792,231.849,318.792z"/>
	</g>
</g>
<g>
	<g>
		<path d="M266.189,214.151c-4.448-2.962-10.438-1.764-13.396,2.679l-32.104,48.16l-20.651-20.651c-3.774-3.774-9.887-3.774-13.66,0
			c-3.774,3.774-3.774,9.887,0,13.66l28.981,28.981c1.821,1.821,4.278,2.83,6.83,2.83c0.316,0,0.632-0.019,0.953-0.047
			c2.877-0.283,5.481-1.849,7.085-4.255l38.641-57.962C271.825,223.104,270.627,217.113,266.189,214.151z"/>
	</g>
</g>
</svg>
