<?xml version="1.0" encoding="iso-8859-1"?>
<!-- Generator: Adobe Illustrator 19.0.0, SVG Export Plug-In . SVG Version: 6.00 Build 0)  -->
<svg version="1.1" id="Layer_1" xmlns="http://www.w3.org/2000/svg" xmlns:xlink="http://www.w3.org/1999/xlink" x="0px" y="0px"
	 viewBox="0 0 512 512" style="enable-background:new 0 0 512 512;" xml:space="preserve">
<g>
	<g>
		<path d="M396.076,164.226h-28.981v-19.274c0-20.163-12.419-37.441-29.989-44.684L318.604,7.764C317.703,3.255,313.736,0,309.132,0
			H164.226c-4.604,0-8.571,3.255-9.472,7.764l-18.501,92.505c-17.571,7.243-29.989,24.521-29.989,44.684v222.094
			c0,20.163,12.419,37.441,29.989,44.684l18.501,92.505c0.901,4.509,4.868,7.764,9.472,7.764h144.906
			c4.604,0,8.571-3.255,9.472-7.764l18.501-92.505c17.571-7.243,29.989-24.521,29.989-44.684v-20.646
			c16.619-4.318,28.981-19.313,28.981-37.269c0-17.955-12.362-32.951-28.981-37.269V251.17h28.981c5.335,0,9.66-4.321,9.66-9.66
			v-67.623C405.736,168.547,401.41,164.226,396.076,164.226z M172.146,19.321h129.066l15.458,77.283H156.689L172.146,19.321z
			 M301.212,492.679H172.146l-15.458-77.283H316.67L301.212,492.679z M347.774,173.887v67.623v125.538
			c0,16.009-13.014,29.028-29.009,29.028h-164.17c-15.995,0-29.009-13.019-29.009-29.028V144.953
			c0-16.009,13.014-29.028,29.009-29.028h164.17c15.995,0,29.009,13.019,29.009,29.028V173.887z M376.755,309.132
			c0,7.118-3.913,13.281-9.66,16.632V292.5C372.842,295.852,376.755,302.014,376.755,309.132z M386.415,231.849h-19.321v-48.302
			h19.321V231.849z"/>
	</g>
</g>
<g>
	<g>
		<path d="M176.684,183.962c-4.052-1.245-8.472,0.34-10.835,3.887l-19.321,28.981c-2.958,4.443-1.759,10.434,2.679,13.396
			c4.439,2.953,10.434,1.755,13.396-2.679l1.623-2.434v74.359c0,5.34,4.325,9.66,9.66,9.66s9.66-4.321,9.66-9.66V193.208
			C183.547,188.953,180.759,185.198,176.684,183.962z"/>
	</g>
</g>
<g>
	<g>
		<path d="M331.25,183.962c-4.066-1.245-8.472,0.34-10.835,3.887l-19.321,28.981c-2.958,4.443-1.759,10.434,2.679,13.396
			c4.439,2.953,10.434,1.755,13.396-2.679l1.623-2.434v74.359c0,5.34,4.325,9.66,9.66,9.66s9.66-4.321,9.66-9.66V193.208
			C338.113,188.953,335.325,185.198,331.25,183.962z"/>
	</g>
</g>
<g>
	<g>
		<path d="M272.722,183.811c-4.391-1.038-8.854,1.057-10.859,5.056c-2.528,5.019-10.604,19.566-17.523,26.491
			c-3.774,3.774-3.774,9.887,0,13.66c3.774,3.774,9.887,3.774,13.66,0c0.948-0.943,1.896-1.972,2.83-3.057v73.509
			c0,5.34,4.325,9.66,9.66,9.66c5.335,0,9.66-4.321,9.66-9.66V193.208C280.151,188.736,277.076,184.84,272.722,183.811z"/>
	</g>
</g>
</svg>
