<?xml version="1.0" encoding="iso-8859-1"?>
<!-- Generator: Adobe Illustrator 19.0.0, SVG Export Plug-In . SVG Version: 6.00 Build 0)  -->
<svg version="1.1" id="Layer_1" xmlns="http://www.w3.org/2000/svg" xmlns:xlink="http://www.w3.org/1999/xlink" x="0px" y="0px"
	 viewBox="0 0 512 512" style="enable-background:new 0 0 512 512;" xml:space="preserve">
<g>
	<g>
		<path d="M271.868,259.859l27.321-27.321c3.774-3.774,3.774-9.887,0-13.661l-27.325-27.33c-3.623-3.623-10.038-3.623-13.66,0
			l-27.325,27.33l-27.326-27.33c-3.623-3.623-10.038-3.623-13.66,0l-27.321,27.33c-3.774,3.774-3.774,9.887,0,13.661l27.321,27.321
			l-27.321,27.321c-3.774,3.774-3.774,9.887,0,13.66l27.321,27.33c1.811,1.811,4.269,2.83,6.83,2.83c2.561,0,5.019-1.019,6.83-2.83
			l27.326-27.33l27.325,27.33c1.811,1.811,4.269,2.83,6.83,2.83c2.561,0,5.019-1.019,6.83-2.83l27.325-27.33
			c3.774-3.774,3.774-9.887,0-13.66L271.868,259.859z M265.033,307.679l-27.325-27.33c-1.811-1.811-4.269-2.83-6.83-2.83
			c-2.561,0-5.019,1.019-6.83,2.83l-27.325,27.33l-13.66-13.67l27.326-27.321c1.811-1.811,2.83-4.264,2.83-6.83
			s-1.019-5.019-2.83-6.83l-27.326-27.321l13.661-13.67l27.325,27.33c3.623,3.623,10.038,3.623,13.66,0l27.325-27.33l13.665,13.67
			l-27.325,27.321c-1.811,1.811-2.83,4.264-2.83,6.83s1.019,5.019,2.83,6.83l27.325,27.321L265.033,307.679z"/>
	</g>
</g>
<g>
	<g>
		<path d="M396.076,164.226h-28.981v-19.274c0-20.163-12.419-37.441-29.989-44.684L318.604,7.764C317.703,3.255,313.736,0,309.132,0
			H164.226c-4.604,0-8.571,3.255-9.472,7.764l-18.501,92.505c-17.571,7.243-29.989,24.521-29.989,44.684v222.094
			c0,20.163,12.419,37.441,29.989,44.684l18.501,92.505c0.901,4.509,4.868,7.764,9.472,7.764h144.906
			c4.604,0,8.571-3.255,9.472-7.764l18.501-92.505c17.571-7.243,29.989-24.521,29.989-44.684v-20.646
			c16.619-4.318,28.981-19.313,28.981-37.269c0-17.955-12.362-32.951-28.981-37.269V251.17h28.981c5.335,0,9.66-4.321,9.66-9.66
			v-67.623C405.736,168.547,401.41,164.226,396.076,164.226z M172.146,19.321h129.066l15.458,77.283H156.689L172.146,19.321z
			 M301.212,492.679H172.146l-15.458-77.283H316.67L301.212,492.679z M347.774,173.887v67.623v125.538
			c0,16.009-13.014,29.028-29.009,29.028h-164.17c-15.995,0-29.009-13.019-29.009-29.028V144.953
			c0-16.009,13.014-29.028,29.009-29.028h164.17c15.995,0,29.009,13.019,29.009,29.028V173.887z M376.755,309.132
			c0,7.118-3.914,13.281-9.66,16.632V292.5C372.841,295.852,376.755,302.014,376.755,309.132z M386.415,231.849h-19.321v-48.302
			h19.321V231.849z"/>
	</g>
</g>
</svg>
