<?xml version="1.0" encoding="iso-8859-1"?>
<!-- Generator: Adobe Illustrator 19.0.0, SVG Export Plug-In . SVG Version: 6.00 Build 0)  -->
<svg version="1.1" id="Layer_1" xmlns="http://www.w3.org/2000/svg" xmlns:xlink="http://www.w3.org/1999/xlink" x="0px" y="0px"
	 viewBox="0 0 512 512" style="enable-background:new 0 0 512 512;" xml:space="preserve">
<g>
	<g>
		<path d="M396.076,164.226h-28.981v-19.274c0-20.163-12.42-37.441-29.991-44.684l-18.5-92.505C317.698,3.255,313.736,0,309.132,0
			H164.226c-4.604,0-8.566,3.255-9.472,7.764l-18.5,92.505c-17.573,7.243-29.991,24.521-29.991,44.684v222.094
			c0,20.163,12.417,37.441,29.991,44.684l18.5,92.505c0.906,4.509,4.868,7.764,9.472,7.764h144.906c4.604,0,8.566-3.255,9.472-7.764
			l18.5-92.505c17.571-7.243,29.991-24.521,29.991-44.684v-20.646c16.62-4.318,28.981-19.313,28.981-37.269
			c0-17.955-12.361-32.951-28.981-37.269V251.17h28.981c5.339,0,9.66-4.321,9.66-9.66v-67.623
			C405.736,168.547,401.415,164.226,396.076,164.226z M172.141,19.321h129.076l15.453,77.283H156.689L172.141,19.321z
			 M301.217,492.679H172.141l-15.453-77.283H316.67L301.217,492.679z M347.774,173.887v67.623v125.538
			c0,16.009-13.009,29.028-29.009,29.028h-164.17c-16,0-29.009-13.019-29.009-29.028V144.953c0-16.009,13.009-29.028,29.009-29.028
			h164.17c16,0,29.009,13.019,29.009,29.028V173.887z M376.755,309.132c0,7.118-3.915,13.281-9.66,16.632V292.5
			C372.84,295.852,376.755,302.014,376.755,309.132z M386.415,231.849h-19.321v-48.302h19.321V231.849z"/>
	</g>
</g>
<g>
	<g>
		<path d="M242.726,242.368c-19.292-8.377-30.198-13.896-30.198-29.84c0-9.047,3.377-12.443,5.924-14.208
			c12.17-8.434,42.236-2.076,58.312,3.934c4.991,1.858,10.566-0.67,12.434-5.661c1.868-5-0.66-10.556-5.651-12.434
			c-2.698-1.014-16.408-5.915-32.377-8.123v-21.472c0-5.34-4.321-9.66-9.66-9.66c-5.34,0-9.66,4.321-9.66,9.66v20.566
			c-8.939,0.517-17.547,2.554-24.396,7.302c-6.5,4.5-14.245,13.377-14.245,30.094c0,29.387,23.189,39.462,41.811,47.557
			c21.991,9.566,35.472,16.576,35.472,39.387c0,9.594-2.821,16.292-8.623,20.481c-16.396,11.849-52.934,3.538-65.613-0.67
			c-5.104-1.679-10.538,1.075-12.208,6.123c-1.689,5.057,1.047,10.528,6.104,12.208c3.266,1.089,21.58,6.84,41.698,7.644v21.837
			c0,5.34,4.321,9.66,9.66,9.66s9.66-4.321,9.66-9.66v-23.009c7.981-1.356,15.623-3.859,21.981-8.443
			c7.604-5.481,16.66-16.198,16.66-36.17C289.811,262.84,263.698,251.491,242.726,242.368z"/>
	</g>
</g>
</svg>
