<?xml version="1.0" encoding="iso-8859-1"?>
<!-- Generator: Adobe Illustrator 19.0.0, SVG Export Plug-In . SVG Version: 6.00 Build 0)  -->
<svg version="1.1" id="Layer_1" xmlns="http://www.w3.org/2000/svg" xmlns:xlink="http://www.w3.org/1999/xlink" x="0px" y="0px"
	 viewBox="0 0 512 512" style="enable-background:new 0 0 512 512;" xml:space="preserve">
<g>
	<g>
		<path d="M396.076,164.226h-28.981v-19.274c0-20.163-12.42-37.441-29.991-44.684l-18.5-92.505C317.698,3.255,313.736,0,309.132,0
			H164.226c-4.604,0-8.566,3.255-9.472,7.764l-18.5,92.505c-17.573,7.243-29.991,24.521-29.991,44.684v222.094
			c0,20.163,12.417,37.441,29.991,44.684l18.5,92.505c0.906,4.509,4.868,7.764,9.472,7.764h144.906c4.604,0,8.566-3.255,9.472-7.764
			l18.5-92.505c17.571-7.243,29.991-24.521,29.991-44.684v-20.646c16.62-4.318,28.981-19.313,28.981-37.269
			c0-17.955-12.361-32.951-28.981-37.269V251.17h28.981c5.339,0,9.66-4.321,9.66-9.66v-67.623
			C405.736,168.547,401.415,164.226,396.076,164.226z M172.141,19.321h129.076l15.453,77.283H156.689L172.141,19.321z
			 M301.217,492.679H172.141l-15.453-77.283H316.67L301.217,492.679z M347.774,173.887v67.623v125.538
			c0,16.009-13.009,29.028-29.009,29.028h-164.17c-16,0-29.009-13.019-29.009-29.028V144.953c0-16.009,13.009-29.028,29.009-29.028
			h164.17c16,0,29.009,13.019,29.009,29.028V173.887z M376.755,309.132c0,7.118-3.915,13.281-9.66,16.632V292.5
			C372.84,295.852,376.755,302.014,376.755,309.132z M386.415,231.849h-19.321v-48.302h19.321V231.849z"/>
	</g>
</g>
<g>
	<g>
		<path d="M309.132,222.189h-0.245c-2.502-37.698-33.884-67.623-72.207-67.623c-38.323,0-69.705,29.924-72.207,67.623h-0.245
			c-5.34,0-9.66,4.321-9.66,9.66v115.924c0,5.34,4.321,9.66,9.66,9.66h144.906c5.34,0,9.66-4.321,9.66-9.66V231.849
			C318.792,226.51,314.472,222.189,309.132,222.189z M236.679,173.887c27.663,0,50.434,21.267,52.887,48.302H183.793
			C186.245,195.153,209.016,173.887,236.679,173.887z M299.472,338.113H173.887v-96.604h125.585V338.113z"/>
	</g>
</g>
</svg>
