<?xml version="1.0" encoding="iso-8859-1"?>
<!-- Generator: Adobe Illustrator 19.0.0, SVG Export Plug-In . SVG Version: 6.00 Build 0)  -->
<svg version="1.1" id="Layer_1" xmlns="http://www.w3.org/2000/svg" xmlns:xlink="http://www.w3.org/1999/xlink" x="0px" y="0px"
	 viewBox="0 0 512 512" style="enable-background:new 0 0 512 512;" xml:space="preserve">
<g>
	<g>
		<path d="M467.888,497.491l-94.815-151.704c-3.463-5.537-12.611-5.537-16.074,0l-94.815,151.704
			c-1.833,2.926-1.926,6.611-0.259,9.62c1.676,3.018,4.852,4.889,8.296,4.889h189.63c3.444,0,6.62-1.87,8.296-4.889
			C469.814,504.102,469.722,500.417,467.888,497.491z M287.333,493.037l77.704-124.333l77.704,124.333H287.333z"/>
	</g>
</g>
<g>
	<g>
		<path d="M365.037,388.741c-5.241,0-9.481,4.241-9.481,9.482v47.407c0,5.241,4.241,9.481,9.481,9.481s9.482-4.241,9.482-9.481
			v-47.407C374.518,392.982,370.277,388.741,365.037,388.741z"/>
	</g>
</g>
<g>
	<g>
		<path d="M373.759,470.472c-0.472-1.139-1.139-2.185-1.991-3.13c-0.954-0.852-1.991-1.519-3.13-1.991
			c-3.509-1.518-7.685-0.667-10.333,1.991c-0.852,0.944-1.519,1.991-1.991,3.13c-0.472,1.139-0.759,2.37-0.759,3.602
			c0,2.555,0.944,4.926,2.75,6.731c0.944,0.852,1.991,1.519,3.13,1.991c1.139,0.472,2.37,0.759,3.602,0.759
			c2.555,0,4.926-0.954,6.731-2.75c1.797-1.806,2.75-4.176,2.75-6.731C374.518,472.843,374.231,471.611,373.759,470.472z"/>
	</g>
</g>
<g>
	<g>
		<path d="M289.222,0H80.555C59.666,0,42.666,17.019,42.666,37.944v47.389v388.676C42.666,494.954,59.694,512,80.62,512h153.759
			c5.241,0,9.482-4.241,9.482-9.482c0-5.241-4.241-9.481-9.482-9.481H80.62c-10.472,0-18.991-8.537-18.991-19.028V94.815h246.519
			v257.759c0,5.241,4.241,9.482,9.481,9.482s9.482-4.241,9.482-9.482V85.333V37.944C327.111,17.019,310.111,0,289.222,0z
			 M308.148,75.852H61.629V37.944c0-10.463,8.491-18.981,18.926-18.981h208.667c10.435,0,18.926,8.519,18.926,18.981V75.852z"/>
	</g>
</g>
<g>
	<g>
		<path d="M184.888,398.222c-20.917,0-37.926,17.009-37.926,37.926s17.009,37.926,37.926,37.926s37.926-17.009,37.926-37.926
			S205.805,398.222,184.888,398.222z M184.888,455.111c-10.454,0-18.963-8.509-18.963-18.963c0-10.454,8.509-18.963,18.963-18.963
			s18.963,8.509,18.963,18.963C203.851,446.602,195.342,455.111,184.888,455.111z"/>
	</g>
</g>
<g>
	<g>
		<rect x="137.481" y="37.926" width="56.889" height="18.963"/>
	</g>
</g>
<g>
	<g>
		<rect x="213.333" y="37.926" width="28.444" height="18.963"/>
	</g>
</g>
</svg>
