<svg xmlns="http://www.w3.org/2000/svg" width="88" height="88" data-name="Layer 1" viewBox="0 0 88 88"><path d="M29.68 63.58a1.06 1.06 0 0 0 1.06 1h0a1.06 1.06 0 0 0 1-1.1 8 8 0 0 0-1.05-3.74 1.06 1.06 0 0 0-1.84 1.06A6 6 0 0 1 29.68 63.58zM52.64 49.59l.23 0a1 1 0 0 0 1-.84 6.62 6.62 0 0 1 2.25-3.68 1.07 1.07 0 1 0-1.36-1.64 8.8 8.8 0 0 0-3 4.87A1.06 1.06 0 0 0 52.64 49.59z"/><path d="M68.06,55a11,11,0,0,0,1.27-5.42v-.05c0-.33,0-.6-.06-.8h0c0-.2,0-.35-.07-.45v-31a1.06,1.06,0,0,0-1.06-1.06H63.23V13a1.06,1.06,0,0,0-1.06-1.06h-14A1.07,1.07,0,0,0,47.07,13V40.61a.41.41,0,0,0,0,.11,4,4,0,0,1-1.89,3.64c-2,1.22-14.1,7.54-21.18,11.22a7.72,7.72,0,0,0-2.46,1.29,7.48,7.48,0,0,0-2.88,5.89,7.57,7.57,0,0,0,5,7.06,7.81,7.81,0,0,0,7.78,6.28,8.05,8.05,0,0,0,2.3-.34,1.11,1.11,0,0,0,.51-.14l.15-.09,0,0L36,74.63h0L62.78,60.06h0l.78-.42.16-.09.07,0c.41-.27.79-.54,1.14-.82l.06,0c.16-.13.33-.27.48-.41l0,0A11.54,11.54,0,0,0,68.05,55v0ZM20.79,62.76a5.36,5.36,0,0,1,2.08-4.22,6.26,6.26,0,0,1,.92-.59,1,1,0,0,0,.35.09,6.69,6.69,0,0,1,2.77.82,1,1,0,0,0,.53.14,1,1,0,0,0,.92-.54A1.06,1.06,0,0,0,28,57a8.37,8.37,0,0,0-1.1-.52C34,52.75,44.42,47.32,46.29,46.18a6.09,6.09,0,0,0,2.91-5.62V28.7h4.13a1.07,1.07,0,0,0,0-2.13H49.2V24.44h4.34a1.06,1.06,0,1,0,0-2.12H49.2V14H61.11v8.29H58.65a1.06,1.06,0,1,0,0,2.12h2.46v2.13H58.43a1.07,1.07,0,0,0,0,2.13h2.68V41.49c-.26,0-.51,0-.76,0h-.21a1.06,1.06,0,0,0,0,2.12h.19a7,7,0,0,1,.8.05,7.21,7.21,0,0,1,.08,1.11c0,.16,0,.32,0,.47h0c0,.16,0,.31,0,.47A8.62,8.62,0,0,1,59.39,50a3.47,3.47,0,0,1-.3.37l-.19.22-.47.48-.17.15c-.18.17-.38.33-.58.49l-.15.11c-.22.17-.46.34-.7.5l-2.16,1.17c-.09-.15-.17-.31-.25-.47a1.06,1.06,0,0,0-1.91.94,5.86,5.86,0,0,0,.3.55L33,65.31h0l-2,1.08a1.05,1.05,0,0,0-.53-.51,1.07,1.07,0,0,0-1.4.56,5.59,5.59,0,0,1-.32.65,1.07,1.07,0,0,0-.13.6l-.28.15a5.92,5.92,0,0,1-3,.26L25,68a1,1,0,0,0-.37-.1A5.47,5.47,0,0,1,20.79,62.76ZM26,70.3l.43,0A7.85,7.85,0,0,0,28.67,70a1.15,1.15,0,0,0,.48-.13l.19-.11h0l1.55-.84.05,0h0l2.53-1.37.1.1a4.23,4.23,0,0,1,1,1.63,1.05,1.05,0,0,0,1,.71,1,1,0,0,0,.34-.06,1.06,1.06,0,0,0,.66-1.35,6.09,6.09,0,0,0-1.24-2.08L57.88,54.2l.07,0,.15-.1.36-.25.34-.25.13-.1.41-.33h0a10.62,10.62,0,0,0,3.87-9.95V18.28h3.84V29.12H64.81a1.07,1.07,0,0,0,0,2.13h2.26v2.12H64.81a1.07,1.07,0,0,0,0,2.13h2.26V48a9,9,0,0,0-3.42,2,1.07,1.07,0,0,0,.72,1.85,1,1,0,0,0,.72-.28,6.82,6.82,0,0,1,2.11-1.32,8.78,8.78,0,0,1-2,5.28l0,.05a6.14,6.14,0,0,1-.42.47l-.14.15-.17.17-.23.21L64,56.7l-.3.26-.11.08c-.15.12-.3.24-.46.35h0L63,57.5a6,6,0,0,1-.07-1,7.06,7.06,0,0,1,.1-1.21A1.06,1.06,0,1,0,60.91,55a9.28,9.28,0,0,0-.14,1.58A8.78,8.78,0,0,0,61,58.6L36.61,71.9a1.1,1.1,0,0,0-.66-.69,1.07,1.07,0,0,0-1.36.66,5.06,5.06,0,0,1-.6,1.18.58.58,0,0,0-.08.12.84.84,0,0,0-.13.27l-.3.16a5.83,5.83,0,0,1-2.07.37A5.73,5.73,0,0,1,26,70.3Z"/></svg>