<svg id="Layer_1" height="512" viewBox="0 0 128 128" width="512" xmlns="http://www.w3.org/2000/svg" data-name="Layer 1"><path d="m77.356 41.536a11.155 11.155 0 0 1 -3.981-8.554v-10.4h.458a1.75 1.75 0 0 0 1.75-1.75v-7.31a1.75 1.75 0 0 0 -1.75-1.75h-19.666a1.75 1.75 0 0 0 -1.75 1.75v7.31a1.75 1.75 0 0 0 1.75 1.75h.458v10.4a11.155 11.155 0 0 1 -3.981 8.554 14.65 14.65 0 0 0 -5.227 11.231v57.376a6.089 6.089 0 0 0 6.082 6.083h25a6.089 6.089 0 0 0 6.082-6.083v-57.375a14.65 14.65 0 0 0 -5.225-11.232zm-28.439 25.079h30.166v20.25h-30.166zm7-51.341h16.166v3.81h-16.166zm13.958 7.31v2.823a13.927 13.927 0 0 0 -7.951 1.676 15.372 15.372 0 0 1 -3.8 1.435v-5.935zm-16.975 21.63a14.647 14.647 0 0 0 5.228-11.231v-.883a18.59 18.59 0 0 0 5.451-1.932 10.512 10.512 0 0 1 6.3-1.243v4.058a14.647 14.647 0 0 0 5.221 11.231 11.158 11.158 0 0 1 3.98 8.554v10.347h-30.163v-10.347a11.158 11.158 0 0 1 3.983-8.554zm23.6 68.513h-25a2.585 2.585 0 0 1 -2.582-2.583v-19.779h30.165v19.779a2.585 2.585 0 0 1 -2.583 2.583z"/><path d="m57.823 60.146a3.2 3.2 0 1 0 -3.2-3.2 3.2 3.2 0 0 0 3.2 3.2zm0-3.5a.3.3 0 1 1 -.3.3.3.3 0 0 1 .3-.3z"/><path d="m67.542 51.667a3.792 3.792 0 1 0 -3.792-3.792 3.8 3.8 0 0 0 3.792 3.792zm0-4.083a.292.292 0 1 1 -.292.292.292.292 0 0 1 .292-.293z"/><path d="m58.167 97.408a4.917 4.917 0 1 0 4.916 4.917 4.923 4.923 0 0 0 -4.916-4.917zm0 6.333a1.417 1.417 0 1 1 1.416-1.417 1.418 1.418 0 0 1 -1.416 1.417z"/><path d="m72.729 95.583a2.854 2.854 0 1 0 2.854 2.854 2.857 2.857 0 0 0 -2.854-2.854zm0 3.5a.646.646 0 1 1 .646-.646.647.647 0 0 1 -.646.646z"/></svg>