<svg id="Layer_1" height="512" viewBox="0 0 128 128" width="512" xmlns="http://www.w3.org/2000/svg" data-name="Layer 1"><path d="m88.027 26.664v-4a1.75 1.75 0 0 0 -1.75-1.75h-6.383v-2.814a6.322 6.322 0 1 0 -12.644 0v2.821h-25.527a1.75 1.75 0 0 0 -1.75 1.75v4a9.982 9.982 0 0 0 -8.223 9.809v64.2a9.982 9.982 0 0 0 8.223 9.809v4a1.75 1.75 0 0 0 1.75 1.75h44.554a1.75 1.75 0 0 0 1.75-1.75v-4a9.982 9.982 0 0 0 8.223-9.809v-64.2a9.982 9.982 0 0 0 -8.223-9.816zm-52.777 28.736h9.635a25.2 25.2 0 0 0 11.336-2.5 17.508 17.508 0 0 1 15.559 0 25.2 25.2 0 0 0 11.335 2.5h9.635v26.338h-9.635a25.188 25.188 0 0 0 -11.335 2.51 17.508 17.508 0 0 1 -15.561 0 25.188 25.188 0 0 0 -11.335-2.51h-9.634zm35.5-37.3a2.822 2.822 0 1 1 5.644 0v2.821h-5.644zm13.777 6.321v2.079h-41.054v-2.083zm-42.804 5.579h44.554a6.48 6.48 0 0 1 6.473 6.473v15.427h-9.635a21.737 21.737 0 0 1 -9.775-2.143 21.007 21.007 0 0 0 -18.68 0 21.737 21.737 0 0 1 -9.775 2.143h-9.635v-15.427a6.48 6.48 0 0 1 6.473-6.473zm1.75 82.727v-2.083h41.054v2.083zm42.8-5.583h-44.55a6.479 6.479 0 0 1 -6.473-6.472v-15.434h9.635a21.73 21.73 0 0 1 9.774 2.143 21.007 21.007 0 0 0 18.682 0 21.73 21.73 0 0 1 9.774-2.143h9.635v15.433a6.479 6.479 0 0 1 -6.473 6.472z"/></svg>