<?xml version="1.0" encoding="iso-8859-1"?>
<!-- Generator: Adobe Illustrator 19.0.0, SVG Export Plug-In . SVG Version: 6.00 Build 0)  -->
<svg version="1.1" xmlns="http://www.w3.org/2000/svg" xmlns:xlink="http://www.w3.org/1999/xlink" x="0px" y="0px"
	 viewBox="0 0 512.002 512.002" style="enable-background:new 0 0 512.002 512.002;" xml:space="preserve">
<g>
	<g>
		<g>
			<path d="M478.986,304.001h-6.984v-64c-0.026-22.08-17.92-39.974-40-40h-88c-12.64,0.035-24.513,6.064-32,16.248
				c-7.487-10.184-19.36-16.213-32-16.248h-88c-22.08,0.026-39.974,17.92-40,40v64h-6.984
				c-18.225,0.022-32.994,14.791-33.016,33.016v37.968c0.049,14.711,9.842,27.609,24,31.608v41.408c0,4.418,3.582,8,8,8h24
				c4.418,0,8-3.582,8-8v-40h272v40c0,4.418,3.582,8,8,8h24c4.418,0,8-3.582,8-8v-41.408c14.158-3.999,23.951-16.897,24-31.608
				v-37.968C511.98,318.792,497.211,304.023,478.986,304.001z M320.002,240.001c0-13.255,10.745-24,24-24h88
				c13.255,0,24,10.745,24,24v64h-136V240.001z M168.002,240.001c0-13.255,10.745-24,24-24h88c13.255,0,24,10.745,24,24v64h-136
				V240.001z M160.002,440.001h-8v-32h8V440.001z M472.002,440.001h-8v-32h8V440.001z M478.986,392.001H145.018
				c-5.859-0.003-11.302-3.027-14.4-8h362.744C490.269,388.967,484.837,391.99,478.986,392.001z M496.002,368.001h-368v-30.984
				c0.009-9.394,7.622-17.007,17.016-17.016h333.968c9.394,0.009,17.007,7.622,17.016,17.016V368.001z"/>
			<path d="M232.002,240.001c-13.255,0-24,10.745-24,24s10.745,24,24,24s24-10.745,24-24S245.257,240.001,232.002,240.001z
				 M232.002,272.001c-4.418,0-8-3.582-8-8s3.582-8,8-8s8,3.582,8,8S236.421,272.001,232.002,272.001z"/>
			<path d="M392.002,240.001c-13.255,0-24,10.745-24,24s10.745,24,24,24s24-10.745,24-24S405.257,240.001,392.002,240.001z
				 M392.002,272.001c-4.418,0-8-3.582-8-8s3.582-8,8-8s8,3.582,8,8S396.421,272.001,392.002,272.001z"/>
			<path d="M112.002,416.001h-24v-232h40c4.418,0,8-3.581,8.001-7.999c0-0.562-0.059-1.123-0.177-1.673l-24-112
				c-0.789-3.691-4.05-6.328-7.824-6.328h-72c-3.774,0-7.035,2.637-7.824,6.328l-24,112c-0.923,4.321,1.831,8.572,6.151,9.495
				c0.55,0.117,1.11,0.177,1.673,0.177h40v232h-24c-4.418,0-8,3.582-8,8v24c0,4.418,3.582,8,8,8h88c4.418,0,8-3.582,8-8v-24
				C120.002,419.583,116.421,416.001,112.002,416.001z M17.898,168.001l20.576-96H97.53l20.576,96H17.898z M72.002,184.001v232h-8
				v-232H72.002z M104.002,440.001h-72v-8h72V440.001z"/>
		</g>
	</g>
</g>
</svg>
