<?xml version="1.0" encoding="iso-8859-1"?>
<!-- Generator: Adobe Illustrator 19.0.0, SVG Export Plug-In . SVG Version: 6.00 Build 0)  -->
<svg version="1.1" xmlns="http://www.w3.org/2000/svg" xmlns:xlink="http://www.w3.org/1999/xlink" x="0px" y="0px"
	 viewBox="0 0 512 512" style="enable-background:new 0 0 512 512;" xml:space="preserve">
<g>
	<g>
		<g>
			<path d="M486.288,100H460c-0.36-53.091-43.476-95.953-96.568-96H148.568C95.476,4.047,52.36,46.909,52,100H25.712
				C11.519,100.018,0.018,111.519,0,125.712v276.576C0.018,416.481,11.519,427.982,25.712,428H32v72c0,4.418,3.582,8,8,8h32
				c4.418,0,8-3.582,8-8v-72h368v72c0,4.418,3.582,8,8,8h32c4.418,0,8-3.582,8-8v-73.936c9.662-3.946,15.983-13.339,16-23.776
				V125.712C511.982,111.519,500.481,100.018,486.288,100z M148.568,20h214.864c44.259,0.038,80.217,35.742,80.568,80h-10.288
				c-14.193,0.018-25.694,11.519-25.712,25.712V252H112V125.712c-0.018-14.193-11.519-25.694-25.712-25.712H68
				C68.351,55.742,104.309,20.038,148.568,20z M408,268v56H112v-56H408z M64,492H48v-64h16V492z M480,492h-16v-64h16V492z
				 M496,402.288c-0.009,5.36-4.352,9.703-9.712,9.712H25.712c-5.36-0.009-9.703-4.352-9.712-9.712V125.712
				c0.009-5.36,4.352-9.703,9.712-9.712h60.576c5.36,0.009,9.703,4.352,9.712,9.712V332c0,4.418,3.582,8,8,8h312
				c4.418,0,8-3.582,8-8V125.712c0.009-5.36,4.352-9.703,9.712-9.712h52.576c5.36,0.009,9.703,4.352,9.712,9.712V402.288z"/>
			<path d="M256,140c19.882,0,36-16.118,36-36s-16.118-36-36-36s-36,16.118-36,36C220.022,123.873,236.127,139.978,256,140z M256,84
				c11.046,0,20,8.954,20,20s-8.954,20-20,20s-20-8.954-20-20S244.954,84,256,84z"/>
		</g>
	</g>
</g>
</svg>
