<?xml version="1.0" encoding="iso-8859-1"?>
<!-- Generator: Adobe Illustrator 19.0.0, SVG Export Plug-In . SVG Version: 6.00 Build 0)  -->
<svg version="1.1" id="Layer_1" xmlns="http://www.w3.org/2000/svg" xmlns:xlink="http://www.w3.org/1999/xlink" x="0px" y="0px"
	 viewBox="0 0 512 512" style="enable-background:new 0 0 512 512;" xml:space="preserve">
<g>
	<g>
		<path d="M404.945,0H107.055c-5.141,0-9.309,4.168-9.309,9.309v493.382c0,5.141,4.168,9.309,9.309,9.309h297.891
			c5.141,0,9.309-4.168,9.309-9.309V9.309C414.255,4.168,410.086,0,404.945,0z M395.636,493.382H116.364V18.618h279.273V493.382z"/>
	</g>
</g>
<g>
	<g>
		<path d="M256,37.236c-51.332,0-93.091,41.759-93.091,93.091s41.759,93.091,93.091,93.091s93.091-41.759,93.091-93.091
			S307.332,37.236,256,37.236z M256,204.8c-41.064,0-74.473-33.409-74.473-74.473c0-41.064,33.409-74.473,74.473-74.473
			c41.064,0,74.473,33.409,74.473,74.473C330.473,171.391,297.064,204.8,256,204.8z"/>
	</g>
</g>
<g>
	<g>
		<path d="M256,242.036c-66.732,0-121.018,54.286-121.018,121.018S189.268,484.073,256,484.073s121.018-54.286,121.018-121.018
			S322.732,242.036,256,242.036z M256,465.455c-56.464,0-102.4-45.936-102.4-102.4c0-56.464,45.936-102.4,102.4-102.4
			c56.464,0,102.4,45.936,102.4,102.4C358.4,419.518,312.464,465.455,256,465.455z"/>
	</g>
</g>
<g>
	<g>
		<path d="M256,74.473c-30.8,0-55.855,25.055-55.855,55.855c0,30.8,25.055,55.855,55.855,55.855s55.855-25.055,55.855-55.855
			S286.8,74.473,256,74.473z M256,167.564c-20.532,0-37.236-16.704-37.236-37.236c0-20.532,16.704-37.236,37.236-37.236
			c20.532,0,37.236,16.704,37.236,37.236C293.236,150.859,276.532,167.564,256,167.564z"/>
	</g>
</g>
<g>
	<g>
		<path d="M256,288.582c-41.064,0-74.473,33.409-74.473,74.473c0,41.064,33.409,74.473,74.473,74.473
			c41.064,0,74.473-33.409,74.473-74.473C330.473,321.991,297.064,288.582,256,288.582z M256,418.909
			c-30.8,0-55.855-25.055-55.855-55.855c0-30.8,25.055-55.855,55.855-55.855s55.855,25.054,55.855,55.855
			C311.855,393.855,286.8,418.909,256,418.909z"/>
	</g>
</g>
<g>
	<g>
		<circle cx="256" cy="130.327" r="18.618"/>
	</g>
</g>
<g>
	<g>
		<circle cx="256" cy="363.055" r="18.618"/>
	</g>
</g>
</svg>
