<svg id="Layer_1" height="512" viewBox="0 0 128 128" width="512" xmlns="http://www.w3.org/2000/svg" data-name="Layer 1"><path d="m116.227 52.134v-10.72a1.734 1.734 0 0 0 -.171-.743s0-.014 0-.019l-12-24.819a1.749 1.749 0 0 0 -1.575-.988h-76.958a1.749 1.749 0 0 0 -1.575.988l-12 24.819s0 .014 0 .019a1.734 1.734 0 0 0 -.171.743v10.72a8.974 8.974 0 0 0 7.211 8.787v48.734h-5.465a1.75 1.75 0 0 0 0 3.5h100.954a1.75 1.75 0 0 0 0-3.5h-5.461v-48.734a8.974 8.974 0 0 0 7.211-8.787zm-3.5 0a5.467 5.467 0 0 1 -5.458 5.461h-.006a5.467 5.467 0 0 1 -5.458-5.461v-8.97h10.922zm-14.422 0a5.461 5.461 0 0 1 -10.922 0v-8.97h10.917zm-14.422 0a5.461 5.461 0 0 1 -10.922 0v-8.97h10.922zm-14.422 0a5.461 5.461 0 0 1 -10.922 0v-8.97h10.922zm-14.422 0a5.461 5.461 0 0 1 -10.922 0v-8.97h10.922zm-14.422 0a5.461 5.461 0 0 1 -10.922 0v-8.97h10.922zm-14-33.789h74.758l10.308 21.319h-95.37zm-11.344 33.789v-8.97h10.927v8.97a5.467 5.467 0 0 1 -5.462 5.466h-.006a5.467 5.467 0 0 1 -5.459-5.466zm41.293 18.366v39.152h-10.921v-39.152zm-14.421 39.155h-10.922v-39.155h10.922zm17.922 0v-40.9a1.75 1.75 0 0 0 -1.751-1.755h-28.843a1.75 1.75 0 0 0 -1.75 1.75v40.9h-5.239v-48.729a8.966 8.966 0 0 0 5.461-3.489 8.928 8.928 0 0 0 14.422 0 8.928 8.928 0 0 0 14.422 0 8.928 8.928 0 0 0 14.422 0 8.928 8.928 0 0 0 14.422 0 8.928 8.928 0 0 0 14.422 0 8.966 8.966 0 0 0 5.461 3.489v48.734z"/><path d="m98.527 67h-31a1.75 1.75 0 0 0 -1.75 1.75v34.94a1.75 1.75 0 0 0 1.75 1.75h31a1.75 1.75 0 0 0 1.75-1.75v-34.937a1.75 1.75 0 0 0 -1.75-1.753zm-14.315 34.94 8.1-31.44h1.053l-8.1 31.44zm-5.318 0 8.1-31.44h1.7l-8.1 31.44zm-6.667 0 8.1-31.44h3.053l-8.1 31.44zm4.485-31.44-7.435 28.867v-28.867zm12.167 31.44 7.9-30.661v30.661z"/></svg>