<?xml version="1.0"?>
<svg xmlns="http://www.w3.org/2000/svg" id="Layer_1" data-name="Layer 1" viewBox="0 0 128 128" width="512" height="512"><title>SUPERMARKET</title><path d="M111.583,61.936h2.893a1.75,1.75,0,0,0,1.75-1.75V51.5a1.75,1.75,0,0,0-1.75-1.75h-3.185l-2.672-14.532A8.813,8.813,0,0,0,99.951,28H81.36V24.5H84.4a1.75,1.75,0,0,0,1.75-1.75V13.523a1.75,1.75,0,0,0-1.75-1.75H43.6a1.75,1.75,0,0,0-1.75,1.75V22.75A1.75,1.75,0,0,0,43.6,24.5H46.64V28H28.049a8.813,8.813,0,0,0-8.668,7.219L16.709,49.751H13.523a1.75,1.75,0,0,0-1.75,1.75v8.685a1.75,1.75,0,0,0,1.75,1.75h2.893v50.791H13.523a1.75,1.75,0,0,0,0,3.5H114.477a1.75,1.75,0,0,0,0-3.5h-2.893Zm-3.5,8.579a4.208,4.208,0,0,1-4.2,4.2h-1.19a4.208,4.208,0,0,1-4.2-4.2V61.936h9.6Zm-13.1,0a4.208,4.208,0,0,1-4.2,4.2H89.6a4.208,4.208,0,0,1-4.2-4.2V61.936h9.6Zm-13.1,0a4.208,4.208,0,0,1-4.2,4.2H76.5a4.208,4.208,0,0,1-4.2-4.2V61.936h9.6Zm-13.1,0a4.208,4.208,0,0,1-4.2,4.2H63.4a4.208,4.208,0,0,1-4.2-4.2V61.936h9.6Zm-13.1,0a4.208,4.208,0,0,1-4.2,4.2H50.31a4.208,4.208,0,0,1-4.2-4.2V61.936h9.6Zm-13.1,0a4.208,4.208,0,0,1-4.2,4.2h-1.19a4.208,4.208,0,0,1-4.2-4.2V61.936h9.6Zm2.747-55.241H82.646V21H45.354ZM50.14,24.5H77.86V28H50.14ZM22.824,35.852A5.313,5.313,0,0,1,28.049,31.5h71.9a5.313,5.313,0,0,1,5.226,4.352l2.556,13.9H20.268Zm-7.55,17.4h97.453v5.185H15.273Zm14.238,8.685v8.579a4.208,4.208,0,0,1-4.2,4.2h-1.19a4.208,4.208,0,0,1-4.2-4.2V61.936Zm25.315,24.25v26.541H44.6V86.186ZM41.1,112.727H30.875V86.186H41.1Zm17.226,0V84.436a1.75,1.75,0,0,0-1.75-1.75H29.125a1.75,1.75,0,0,0-1.75,1.75v28.291H19.917V76.962a7.652,7.652,0,0,0,4.2,1.256h1.19A7.689,7.689,0,0,0,31.262,75.4a7.69,7.69,0,0,0,5.953,2.821H38.4A7.689,7.689,0,0,0,44.357,75.4a7.69,7.69,0,0,0,5.953,2.821H51.5A7.689,7.689,0,0,0,57.452,75.4,7.69,7.69,0,0,0,63.4,78.218H64.6A7.69,7.69,0,0,0,70.548,75.4,7.689,7.689,0,0,0,76.5,78.218h1.19A7.69,7.69,0,0,0,83.643,75.4,7.689,7.689,0,0,0,89.6,78.218h1.19A7.69,7.69,0,0,0,96.738,75.4a7.689,7.689,0,0,0,5.952,2.821h1.19a7.652,7.652,0,0,0,4.2-1.256v35.765Z"/><path d="M98.875,82.686H66.625a1.75,1.75,0,0,0-1.75,1.75V107a1.75,1.75,0,0,0,1.75,1.75h32.25a1.75,1.75,0,0,0,1.75-1.75V84.436A1.75,1.75,0,0,0,98.875,82.686ZM85.77,105.25l3.741-19.064h1.862L87.631,105.25Zm-4.548,0,3.742-19.064h.981L82.2,105.25Zm-6.429,0,3.742-19.064H81.4L77.655,105.25ZM68.375,86.186h6.593L71.227,105.25H68.375Zm28.75,19.064H91.2L94.94,86.186h2.185Z"/></svg>
