<?xml version="1.0" encoding="iso-8859-1"?>
<!-- Generator: Adobe Illustrator 19.0.0, SVG Export Plug-In . SVG Version: 6.00 Build 0)  -->
<svg version="1.1" id="Layer_1" xmlns="http://www.w3.org/2000/svg" xmlns:xlink="http://www.w3.org/1999/xlink" x="0px" y="0px"
	 viewBox="0 0 512 512" style="enable-background:new 0 0 512 512;" xml:space="preserve">
<g>
	<g>
		<path d="M436.157,0H75.843C34.019,0,0,34.023,0,75.847v360.306C0,477.977,34.019,512,75.843,512h360.315
			C477.981,512,512,477.977,512,436.153V75.847C512,34.023,477.981,0,436.157,0z M493.037,436.153
			c0,31.366-25.518,56.884-56.88,56.884H75.843c-31.361,0-56.88-25.518-56.88-56.884V75.847c0-31.366,25.518-56.884,56.88-56.884
			h360.315c31.361,0,56.88,25.518,56.88,56.884V436.153z"/>
	</g>
</g>
<g>
	<g>
		<path d="M312.963,37.926H199.037c-31.324,0-56.815,25.537-56.815,56.931v56.847v56.88v208.56
			c0,31.394,25.491,56.931,56.815,56.931h113.926c31.324,0,56.815-25.537,56.815-56.931v-208.56v-56.88V94.857
			C369.778,63.463,344.287,37.926,312.963,37.926z M161.185,151.704V94.857c0-20.935,16.982-37.968,37.852-37.968h113.926
			c20.87,0,37.852,17.032,37.852,37.968v56.847v56.88c0,20.917-16.982,37.935-37.852,37.935H199.037
			c-20.87,0-37.852-17.019-37.852-37.935V151.704z M350.815,417.143c0,20.935-16.982,37.968-37.852,37.968H199.037
			c-20.87,0-37.852-17.032-37.852-37.968v-166.25c10.06,9.037,23.305,14.588,37.852,14.588h113.926
			c14.546,0,27.789-5.551,37.852-14.588V417.143z"/>
	</g>
</g>
<g>
	<g>
		<rect x="218.074" y="94.815" width="75.852" height="18.963"/>
	</g>
</g>
<g>
	<g>
		<rect x="218.074" y="142.222" width="75.852" height="18.963"/>
	</g>
</g>
<g>
	<g>
		<rect x="218.074" y="189.63" width="75.852" height="18.963"/>
	</g>
</g>
<g>
	<g>
		<path d="M85.333,56.889c-15.685,0-28.444,12.759-28.444,28.444c0,15.685,12.759,28.444,28.444,28.444
			c15.685,0,28.444-12.759,28.444-28.444C113.778,69.648,101.019,56.889,85.333,56.889z M85.333,94.815
			c-5.231,0-9.481-4.255-9.481-9.482c0-5.227,4.25-9.481,9.481-9.481c5.231,0,9.482,4.255,9.482,9.481
			C94.815,90.56,90.565,94.815,85.333,94.815z"/>
	</g>
</g>
<g>
	<g>
		<path d="M85.333,398.222c-15.685,0-28.444,12.759-28.444,28.444c0,15.685,12.759,28.444,28.444,28.444
			c15.685,0,28.444-12.759,28.444-28.444C113.778,410.981,101.019,398.222,85.333,398.222z M85.333,436.148
			c-5.231,0-9.481-4.255-9.481-9.481c0-5.227,4.25-9.482,9.481-9.482c5.231,0,9.482,4.255,9.482,9.482
			C94.815,431.894,90.565,436.148,85.333,436.148z"/>
	</g>
</g>
<g>
	<g>
		<path d="M436.148,56.889c-15.685,0-28.444,12.759-28.444,28.444c0,15.685,12.759,28.444,28.444,28.444
			c15.685,0,28.444-12.759,28.444-28.444C464.593,69.648,451.833,56.889,436.148,56.889z M436.148,94.815
			c-5.231,0-9.481-4.255-9.481-9.482c0-5.227,4.25-9.481,9.481-9.481c5.231,0,9.482,4.255,9.482,9.481
			C445.63,90.56,441.38,94.815,436.148,94.815z"/>
	</g>
</g>
<g>
	<g>
		<path d="M436.148,398.222c-15.685,0-28.444,12.759-28.444,28.444c0,15.685,12.759,28.444,28.444,28.444
			c15.685,0,28.444-12.759,28.444-28.444C464.593,410.981,451.833,398.222,436.148,398.222z M436.148,436.148
			c-5.231,0-9.481-4.255-9.481-9.481c0-5.227,4.25-9.482,9.481-9.482c5.231,0,9.482,4.255,9.482,9.482
			C445.63,431.894,441.38,436.148,436.148,436.148z"/>
	</g>
</g>
</svg>
