<?xml version="1.0" encoding="iso-8859-1"?>
<!-- Generator: Adobe Illustrator 19.0.0, SVG Export Plug-In . SVG Version: 6.00 Build 0)  -->
<svg version="1.1" id="Layer_1" xmlns="http://www.w3.org/2000/svg" xmlns:xlink="http://www.w3.org/1999/xlink" x="0px" y="0px"
	 viewBox="0 0 512 512" style="enable-background:new 0 0 512 512;" xml:space="preserve">
<g>
	<g>
		<path d="M371.573,0H66.105C52.419,0,41.29,11.105,41.29,24.75v454.242c0,13.645,11.129,24.75,24.814,24.75h248.097
			c4.564,0,8.258-3.694,8.258-8.258c0-4.564-3.694-8.258-8.258-8.258H66.105c-4.573,0-8.298-3.694-8.298-8.234V24.75
			c0-4.54,3.726-8.234,8.298-8.234h305.468c4.573,0,8.298,3.71,8.298,8.274v271.734c0,4.564,3.694,8.258,8.258,8.258
			s8.258-3.694,8.258-8.258V24.79C396.387,11.121,385.258,0,371.573,0z"/>
	</g>
</g>
<g>
	<g>
		<path d="M218.839,388.129c-20.492,0-37.161,16.669-37.161,37.161c0,20.492,16.669,37.161,37.161,37.161
			c20.492,0,37.161-16.669,37.161-37.161C256,404.798,239.331,388.129,218.839,388.129z M218.839,445.935
			c-11.387,0-20.645-9.258-20.645-20.645c0-11.387,9.258-20.645,20.645-20.645c11.387,0,20.645,9.258,20.645,20.645
			C239.484,436.677,230.226,445.935,218.839,445.935z"/>
	</g>
</g>
<g>
	<g>
		<path d="M305.532,57.806H132.145c-22.774,0-41.306,18.484-41.306,41.21v264.339c0,4.564,3.694,8.258,8.258,8.258h239.484
			c4.564,0,8.258-3.694,8.258-8.258V99.016C346.839,76.29,328.306,57.806,305.532,57.806z M330.323,355.097H107.355V99.016
			c0-13.613,11.121-24.693,24.79-24.693h173.387c13.669,0,24.79,11.081,24.79,24.693V355.097z"/>
	</g>
</g>
<g>
	<g>
		<path d="M189.935,99.097h-57.806c-4.564,0-8.258,3.694-8.258,8.258v57.806c0,4.564,3.694,8.258,8.258,8.258h57.806
			c4.564,0,8.258-3.694,8.258-8.258v-57.806C198.194,102.79,194.5,99.097,189.935,99.097z M181.677,156.903h-41.29v-41.29h41.29
			V156.903z"/>
	</g>
</g>
<g>
	<g>
		<path d="M189.935,198.194h-57.806c-4.564,0-8.258,3.694-8.258,8.258v57.806c0,4.564,3.694,8.258,8.258,8.258h57.806
			c4.564,0,8.258-3.694,8.258-8.258v-57.806C198.194,201.887,194.5,198.194,189.935,198.194z M181.677,256h-41.29v-41.29h41.29V256z
			"/>
	</g>
</g>
<g>
	<g>
		<path d="M305.548,99.097h-57.806c-4.564,0-8.258,3.694-8.258,8.258v57.806c0,4.564,3.694,8.258,8.258,8.258h57.806
			c4.564,0,8.258-3.694,8.258-8.258v-57.806C313.806,102.79,310.113,99.097,305.548,99.097z M297.29,156.903H256v-41.29h41.29
			V156.903z"/>
	</g>
</g>
<g>
	<g>
		<path d="M305.548,198.194h-57.806c-4.564,0-8.258,3.694-8.258,8.258v57.806c0,4.564,3.694,8.258,8.258,8.258h57.806
			c4.564,0,8.258-3.694,8.258-8.258v-57.806C313.806,201.887,310.113,198.194,305.548,198.194z M297.29,256H256v-41.29h41.29V256z"
			/>
	</g>
</g>
<g>
	<g>
		<rect x="206.452" y="33.032" width="24.774" height="16.516"/>
	</g>
</g>
<g>
	<g>
		<path d="M396.387,363.355c-40.984,0-74.323,33.339-74.323,74.323c0,40.984,33.339,74.323,74.323,74.323
			s74.323-33.339,74.323-74.323C470.71,396.693,437.371,363.355,396.387,363.355z M396.387,495.484
			c-31.871,0-57.806-25.935-57.806-57.806s25.935-57.806,57.806-57.806s57.806,25.935,57.806,57.806
			S428.258,495.484,396.387,495.484z"/>
	</g>
</g>
<g>
	<g>
		<polygon points="424.581,420.331 412.903,408.653 395.972,425.585 378.452,408.065 366.774,419.742 384.294,437.262 
			366.774,454.782 378.452,466.46 395.972,448.94 412.903,465.871 424.581,454.194 407.649,437.262 		"/>
	</g>
</g>
</svg>
