<?xml version="1.0" encoding="iso-8859-1"?>
<!-- Generator: Adobe Illustrator 19.0.0, SVG Export Plug-In . SVG Version: 6.00 Build 0)  -->
<svg version="1.1" id="Layer_1" xmlns="http://www.w3.org/2000/svg" xmlns:xlink="http://www.w3.org/1999/xlink" x="0px" y="0px"
	 viewBox="0 0 512 512" style="enable-background:new 0 0 512 512;" xml:space="preserve">
<g>
	<g>
		<path d="M402.885,352.525c-43.967,0-79.738,35.771-79.738,79.738c0,43.967,35.771,79.738,79.738,79.738
			c43.967,0,79.738-35.771,79.738-79.738C482.623,388.295,446.852,352.525,402.885,352.525z M402.885,495.213
			c-34.713,0-62.951-28.238-62.951-62.951c0-34.713,28.238-62.951,62.951-62.951c34.713,0,62.951,28.238,62.951,62.951
			C465.836,466.975,437.598,495.213,402.885,495.213z"/>
	</g>
</g>
<g>
	<g>
		<path d="M407.082,377.705c-18.516,0-33.574,15.057-33.574,33.574c0,4.639,3.754,8.393,8.393,8.393s8.393-3.754,8.393-8.393
			c0-9.254,7.533-16.787,16.787-16.787c9.254,0,16.787,7.533,16.787,16.787s-7.533,16.787-16.787,16.787
			c-4.639,0-8.393,3.754-8.393,8.393v16.787c0,4.639,3.754,8.393,8.393,8.393s8.393-3.754,8.393-8.393v-9.459
			c14.467-3.73,25.18-16.893,25.18-32.508C440.656,392.762,425.598,377.705,407.082,377.705z"/>
	</g>
</g>
<g>
	<g>
		<path d="M414.803,475.238c-0.418-1.008-1.008-1.934-1.762-2.77c-3.188-3.107-8.811-3.107-11.918,0
			c-0.754,0.836-1.344,1.762-1.762,2.77c-0.508,1.008-0.672,2.098-0.672,3.188s0.164,2.18,0.672,3.188
			c0.418,1.008,1.008,1.926,1.762,2.77c1.59,1.59,3.688,2.435,5.959,2.435c1.09,0,2.18-0.254,3.188-0.672
			c1.008-0.418,1.926-1.008,2.77-1.762c0.754-0.844,1.344-1.762,1.762-2.77c0.418-1.008,0.672-2.098,0.672-3.188
			S415.221,476.246,414.803,475.238z"/>
	</g>
</g>
<g>
	<g>
		<path d="M365.074,0H54.598c-13.91,0-25.221,11.287-25.221,25.156v461.688c0,13.869,11.311,25.156,25.221,25.156h252.164
			c4.639,0,8.393-3.754,8.393-8.393s-3.754-8.393-8.393-8.393H54.598c-4.647,0-8.434-3.754-8.434-8.369V25.156
			c0-4.615,3.787-8.369,8.434-8.369h310.476c4.647,0,8.434,3.771,8.434,8.41v276.188c0,4.639,3.754,8.393,8.393,8.393
			s8.393-3.754,8.393-8.393V25.197C390.295,11.303,378.984,0,365.074,0z"/>
	</g>
</g>
<g>
	<g>
		<path d="M209.836,394.492c-20.828,0-37.771,16.943-37.771,37.77c0,20.828,16.943,37.771,37.771,37.771
			s37.771-16.943,37.771-37.771C247.607,411.434,230.664,394.492,209.836,394.492z M209.836,453.246
			c-11.574,0-20.984-9.41-20.984-20.984c0-11.574,9.41-20.984,20.984-20.984s20.984,9.41,20.984,20.984
			C230.82,443.836,221.41,453.246,209.836,453.246z"/>
	</g>
</g>
<g>
	<g>
		<path d="M297.951,58.754h-176.23c-23.147,0-41.984,18.787-41.984,41.885v268.672c0,4.639,3.754,8.393,8.393,8.393h243.41
			c4.639,0,8.393-3.754,8.393-8.393V100.639C339.934,77.541,321.098,58.754,297.951,58.754z M323.148,360.918H96.525V100.639
			c0-13.836,11.303-25.098,25.197-25.098h176.23c13.893,0,25.197,11.262,25.197,25.098V360.918z"/>
	</g>
</g>
<g>
	<g>
		<path d="M180.459,100.721h-58.754c-4.639,0-8.393,3.754-8.393,8.393v58.754c0,4.639,3.754,8.393,8.393,8.393h58.754
			c4.639,0,8.393-3.754,8.393-8.393v-58.754C188.852,104.476,185.098,100.721,180.459,100.721z M172.066,159.475h-41.967v-41.967
			h41.967V159.475z"/>
	</g>
</g>
<g>
	<g>
		<path d="M180.459,201.443h-58.754c-4.639,0-8.393,3.754-8.393,8.393v58.754c0,4.639,3.754,8.393,8.393,8.393h58.754
			c4.639,0,8.393-3.754,8.393-8.393v-58.754C188.852,205.197,185.098,201.443,180.459,201.443z M172.066,260.197h-41.967v-41.967
			h41.967V260.197z"/>
	</g>
</g>
<g>
	<g>
		<path d="M297.967,100.721h-58.754c-4.639,0-8.393,3.754-8.393,8.393v58.754c0,4.639,3.754,8.393,8.393,8.393h58.754
			c4.639,0,8.393-3.754,8.393-8.393v-58.754C306.361,104.476,302.607,100.721,297.967,100.721z M289.574,159.475h-41.967v-41.967
			h41.967V159.475z"/>
	</g>
</g>
<g>
	<g>
		<path d="M297.967,201.443h-58.754c-4.639,0-8.393,3.754-8.393,8.393v58.754c0,4.639,3.754,8.393,8.393,8.393h58.754
			c4.639,0,8.393-3.754,8.393-8.393v-58.754C306.361,205.197,302.607,201.443,297.967,201.443z M289.574,260.197h-41.967v-41.967
			h41.967V260.197z"/>
	</g>
</g>
<g>
	<g>
		<rect x="197.246" y="33.574" width="25.18" height="16.787"/>
	</g>
</g>
</svg>
