<?xml version="1.0" encoding="iso-8859-1"?>
<!-- Generator: Adobe Illustrator 19.0.0, SVG Export Plug-In . SVG Version: 6.00 Build 0)  -->
<svg version="1.1" id="Layer_1" xmlns="http://www.w3.org/2000/svg" xmlns:xlink="http://www.w3.org/1999/xlink" x="0px" y="0px"
	 viewBox="0 0 512 512" style="enable-background:new 0 0 512 512;" xml:space="preserve">
<g>
	<g>
		<path d="M373.467,0H62.992c-13.91,0-25.221,11.287-25.221,25.156v461.688c0,13.869,11.311,25.156,25.221,25.156h252.164
			c4.639,0,8.393-3.754,8.393-8.393s-3.754-8.393-8.393-8.393H62.992c-4.647,0-8.434-3.754-8.434-8.369V25.156
			c0-4.615,3.787-8.369,8.434-8.369h310.476c4.647,0,8.434,3.771,8.434,8.41v276.188c0,4.639,3.754,8.393,8.393,8.393
			s8.393-3.754,8.393-8.393V25.197C398.689,11.303,387.377,0,373.467,0z"/>
	</g>
</g>
<g>
	<g>
		<path d="M218.229,394.492c-20.828,0-37.77,16.943-37.77,37.77c0,20.828,16.943,37.771,37.77,37.771
			c20.828,0,37.771-16.943,37.771-37.771C256,411.434,239.057,394.492,218.229,394.492z M218.229,453.246
			c-11.574,0-20.984-9.41-20.984-20.984c0-11.574,9.41-20.984,20.984-20.984c11.574,0,20.984,9.41,20.984,20.984
			C239.213,443.836,229.803,453.246,218.229,453.246z"/>
	</g>
</g>
<g>
	<g>
		<path d="M306.344,58.754h-176.23c-23.147,0-41.984,18.787-41.984,41.885v268.672c0,4.639,3.754,8.393,8.393,8.393h243.41
			c4.639,0,8.393-3.754,8.393-8.393V100.639C348.328,77.541,329.492,58.754,306.344,58.754z M331.541,360.918H104.918V100.639
			c0-13.836,11.303-25.098,25.197-25.098h176.23c13.893,0,25.197,11.262,25.197,25.098V360.918z"/>
	</g>
</g>
<g>
	<g>
		<path d="M188.852,100.721h-58.754c-4.639,0-8.393,3.754-8.393,8.393v58.754c0,4.639,3.754,8.393,8.393,8.393h58.754
			c4.639,0,8.393-3.754,8.393-8.393v-58.754C197.246,104.476,193.492,100.721,188.852,100.721z M180.459,159.475h-41.967v-41.967
			h41.967V159.475z"/>
	</g>
</g>
<g>
	<g>
		<path d="M188.852,201.443h-58.754c-4.639,0-8.393,3.754-8.393,8.393v58.754c0,4.639,3.754,8.393,8.393,8.393h58.754
			c4.639,0,8.393-3.754,8.393-8.393v-58.754C197.246,205.197,193.492,201.443,188.852,201.443z M180.459,260.197h-41.967v-41.967
			h41.967V260.197z"/>
	</g>
</g>
<g>
	<g>
		<path d="M306.361,100.721h-58.754c-4.639,0-8.393,3.754-8.393,8.393v58.754c0,4.639,3.754,8.393,8.393,8.393h58.754
			c4.639,0,8.393-3.754,8.393-8.393v-58.754C314.754,104.476,311,100.721,306.361,100.721z M297.967,159.475H256v-41.967h41.967
			V159.475z"/>
	</g>
</g>
<g>
	<g>
		<path d="M306.361,201.443h-58.754c-4.639,0-8.393,3.754-8.393,8.393v58.754c0,4.639,3.754,8.393,8.393,8.393h58.754
			c4.639,0,8.393-3.754,8.393-8.393v-58.754C314.754,205.197,311,201.443,306.361,201.443z M297.967,260.197H256v-41.967h41.967
			V260.197z"/>
	</g>
</g>
<g>
	<g>
		<rect x="205.639" y="33.574" width="25.18" height="16.787"/>
	</g>
</g>
<g>
	<g>
		<path d="M474.229,402.885H358.185l38.479-44.902c3.025-3.516,2.615-8.812-0.91-11.828c-3.508-3.016-8.803-2.615-11.828,0.91
			l-50.361,58.754c-2.697,3.139-2.697,7.779,0,10.918l50.361,58.754c1.656,1.942,4.008,2.934,6.369,2.934
			c1.934,0,3.877-0.664,5.459-2.024c3.525-3.016,3.934-8.312,0.91-11.828l-38.479-44.902h116.045V402.885z"/>
	</g>
</g>
</svg>
