<?xml version="1.0" encoding="iso-8859-1"?>
<!-- Generator: Adobe Illustrator 19.0.0, SVG Export Plug-In . SVG Version: 6.00 Build 0)  -->
<svg version="1.1" id="Layer_1" xmlns="http://www.w3.org/2000/svg" xmlns:xlink="http://www.w3.org/1999/xlink" x="0px" y="0px"
	 viewBox="0 0 512 512" style="enable-background:new 0 0 512 512;" xml:space="preserve">
<g>
	<g>
		<path d="M379.098,0H68.631c-13.91,0-25.225,11.287-25.225,25.156v461.688c0,13.869,11.316,25.156,25.221,25.156h252.16
			c4.635,0,8.393-3.754,8.393-8.393s-3.758-8.393-8.393-8.393H68.626c-4.652,0-8.434-3.754-8.434-8.369V25.156
			c0-4.615,3.787-8.369,8.439-8.369h310.467c4.652,0,8.439,3.771,8.439,8.41v276.188c0,4.639,3.758,8.393,8.393,8.393
			c4.635,0,8.393-3.754,8.393-8.393V25.197C404.323,11.303,393.007,0,379.098,0z"/>
	</g>
</g>
<g>
	<g>
		<path d="M468.184,407.32c-0.988-3.041-3.615-5.254-6.775-5.713l-34.246-4.984l-15.312-31.024c-2.836-5.738-12.221-5.738-15.057,0
			l-15.312,31.024l-34.246,4.984c-3.16,0.459-5.787,2.672-6.775,5.713c-0.988,3.033-0.164,6.369,2.123,8.598l24.783,24.156
			l-5.852,34.107c-0.537,3.148,0.758,6.328,3.34,8.205c2.59,1.894,6.02,2.131,8.84,0.639l30.627-16.098l30.627,16.098
			c1.229,0.648,2.57,0.967,3.906,0.967c1.738,0,3.471-0.541,4.935-1.606c2.582-1.877,3.877-5.057,3.34-8.205l-5.853-34.107
			l24.783-24.156C468.348,413.688,469.171,410.352,468.184,407.32z M426.401,431.139c-1.975,1.926-2.877,4.705-2.414,7.426
			l3.721,21.688l-19.48-10.238c-1.221-0.648-2.565-0.967-3.906-0.967c-1.34,0-2.684,0.32-3.906,0.967l-19.479,10.238l3.721-21.688
			c0.463-2.721-0.439-5.5-2.414-7.426l-15.766-15.369l21.787-3.172c2.734-0.393,5.094-2.115,6.32-4.59l9.738-19.729l9.738,19.729
			c1.225,2.475,3.586,4.197,6.32,4.59l21.787,3.172L426.401,431.139z"/>
	</g>
</g>
<g>
	<g>
		<path d="M223.864,394.492c-20.828,0-37.77,16.943-37.77,37.77c0,20.828,16.943,37.771,37.77,37.771
			c20.828,0,37.77-16.943,37.77-37.771C261.635,411.434,244.692,394.492,223.864,394.492z M223.864,453.246
			c-11.57,0-20.984-9.41-20.984-20.984c0-11.574,9.414-20.984,20.984-20.984c11.57,0,20.984,9.41,20.984,20.984
			C244.848,443.836,235.434,453.246,223.864,453.246z"/>
	</g>
</g>
<g>
	<g>
		<path d="M311.979,58.754h-176.23c-23.152,0-41.984,18.787-41.984,41.885v268.672c0,4.639,3.758,8.393,8.393,8.393h243.41
			c4.635,0,8.393-3.754,8.393-8.393V100.639C353.962,77.541,335.13,58.754,311.979,58.754z M337.175,360.918H110.553V100.639
			c0-13.836,11.303-25.098,25.197-25.098h176.23c13.893,0,25.197,11.262,25.197,25.098V360.918z"/>
	</g>
</g>
<g>
	<g>
		<path d="M194.487,100.721h-58.754c-4.635,0-8.393,3.754-8.393,8.393v58.754c0,4.639,3.758,8.393,8.393,8.393h58.754
			c4.635,0,8.393-3.754,8.393-8.393v-58.754C202.88,104.476,199.122,100.721,194.487,100.721z M186.094,159.475h-41.967v-41.967
			h41.967V159.475z"/>
	</g>
</g>
<g>
	<g>
		<path d="M194.487,201.443h-58.754c-4.635,0-8.393,3.754-8.393,8.393v58.754c0,4.639,3.758,8.393,8.393,8.393h58.754
			c4.635,0,8.393-3.754,8.393-8.393v-58.754C202.88,205.197,199.122,201.443,194.487,201.443z M186.094,260.197h-41.967v-41.967
			h41.967V260.197z"/>
	</g>
</g>
<g>
	<g>
		<path d="M311.995,100.721h-58.754c-4.635,0-8.393,3.754-8.393,8.393v58.754c0,4.639,3.758,8.393,8.393,8.393h58.754
			c4.635,0,8.393-3.754,8.393-8.393v-58.754C320.389,104.476,316.63,100.721,311.995,100.721z M303.602,159.475h-41.967v-41.967
			h41.967V159.475z"/>
	</g>
</g>
<g>
	<g>
		<path d="M311.995,201.443h-58.754c-4.635,0-8.393,3.754-8.393,8.393v58.754c0,4.639,3.758,8.393,8.393,8.393h58.754
			c4.635,0,8.393-3.754,8.393-8.393v-58.754C320.389,205.197,316.63,201.443,311.995,201.443z M303.602,260.197h-41.967v-41.967
			h41.967V260.197z"/>
	</g>
</g>
<g>
	<g>
		<rect x="211.274" y="33.574" width="25.18" height="16.787"/>
	</g>
</g>
</svg>
