<?xml version="1.0" encoding="iso-8859-1"?>
<!-- Generator: Adobe Illustrator 19.0.0, SVG Export Plug-In . SVG Version: 6.00 Build 0)  -->
<svg version="1.1" id="Layer_1" xmlns="http://www.w3.org/2000/svg" xmlns:xlink="http://www.w3.org/1999/xlink" x="0px" y="0px"
	 viewBox="0 0 512 512" style="enable-background:new 0 0 512 512;" xml:space="preserve">
<g>
	<g>
		<path d="M440.746,427.221l23.738-23.738c3.279-3.279,3.279-8.59,0-11.869l-23.742-23.746c-3.148-3.148-8.721-3.148-11.869,0
			l-23.742,23.746l-23.742-23.746c-3.148-3.148-8.721-3.148-11.869,0l-23.738,23.746c-3.279,3.279-3.279,8.59,0,11.869
			l23.738,23.738l-23.738,23.738c-3.279,3.279-3.279,8.59,0,11.869l23.738,23.746c1.574,1.574,3.709,2.459,5.934,2.459
			c2.225,0,4.361-0.885,5.934-2.459l23.742-23.746l23.742,23.746c1.574,1.574,3.709,2.459,5.934,2.459
			c2.225,0,4.361-0.885,5.935-2.459l23.742-23.746c3.279-3.279,3.279-8.59,0-11.869L440.746,427.221z M434.807,468.77
			l-23.742-23.746c-1.574-1.574-3.709-2.459-5.934-2.459c-2.225,0-4.361,0.885-5.935,2.459l-23.742,23.746l-11.869-11.877
			l23.742-23.738c1.574-1.574,2.459-3.705,2.459-5.934s-0.885-4.361-2.459-5.935l-23.742-23.738l11.869-11.877l23.742,23.746
			c3.148,3.148,8.721,3.148,11.869,0l23.742-23.746l11.873,11.877l-23.742,23.738c-1.574,1.574-2.459,3.705-2.459,5.935
			s0.885,4.361,2.459,5.934l23.742,23.738L434.807,468.77z"/>
	</g>
</g>
<g>
	<g>
		<path d="M380.75,0H70.283c-13.91,0-25.225,11.287-25.225,25.156v461.688c0,13.869,11.316,25.156,25.221,25.156h252.16
			c4.635,0,8.393-3.754,8.393-8.393s-3.758-8.393-8.393-8.393H70.279c-4.652,0-8.434-3.754-8.434-8.369V25.156
			c0-4.615,3.787-8.369,8.439-8.369H380.75c4.652,0,8.439,3.771,8.439,8.41v276.188c0,4.639,3.758,8.393,8.393,8.393
			c4.635,0,8.393-3.754,8.393-8.393V25.197C405.975,11.303,394.66,0,380.75,0z"/>
	</g>
</g>
<g>
	<g>
		<path d="M225.516,394.492c-20.828,0-37.77,16.943-37.77,37.77c0,20.828,16.943,37.771,37.77,37.771
			c20.828,0,37.771-16.943,37.771-37.771C263.287,411.434,246.344,394.492,225.516,394.492z M225.516,453.246
			c-11.57,0-20.984-9.41-20.984-20.984c0-11.574,9.414-20.984,20.984-20.984c11.57,0,20.984,9.41,20.984,20.984
			C246.5,443.836,237.086,453.246,225.516,453.246z"/>
	</g>
</g>
<g>
	<g>
		<path d="M313.631,58.754h-176.23c-23.152,0-41.984,18.787-41.984,41.885v268.672c0,4.639,3.758,8.393,8.393,8.393h243.41
			c4.635,0,8.393-3.754,8.393-8.393V100.639C355.615,77.541,336.783,58.754,313.631,58.754z M338.828,360.918H112.205V100.639
			c0-13.836,11.303-25.098,25.197-25.098h176.23c13.893,0,25.197,11.262,25.197,25.098V360.918z"/>
	</g>
</g>
<g>
	<g>
		<path d="M196.139,100.721h-58.754c-4.635,0-8.393,3.754-8.393,8.393v58.754c0,4.639,3.758,8.393,8.393,8.393h58.754
			c4.635,0,8.393-3.754,8.393-8.393v-58.754C204.533,104.476,200.775,100.721,196.139,100.721z M187.746,159.475h-41.967v-41.967
			h41.967V159.475z"/>
	</g>
</g>
<g>
	<g>
		<path d="M196.139,201.443h-58.754c-4.635,0-8.393,3.754-8.393,8.393v58.754c0,4.639,3.758,8.393,8.393,8.393h58.754
			c4.635,0,8.393-3.754,8.393-8.393v-58.754C204.533,205.197,200.775,201.443,196.139,201.443z M187.746,260.197h-41.967v-41.967
			h41.967V260.197z"/>
	</g>
</g>
<g>
	<g>
		<path d="M313.648,100.721h-58.754c-4.635,0-8.393,3.754-8.393,8.393v58.754c0,4.639,3.758,8.393,8.393,8.393h58.754
			c4.635,0,8.393-3.754,8.393-8.393v-58.754C322.041,104.476,318.283,100.721,313.648,100.721z M305.254,159.475h-41.967v-41.967
			h41.967V159.475z"/>
	</g>
</g>
<g>
	<g>
		<path d="M313.648,201.443h-58.754c-4.635,0-8.393,3.754-8.393,8.393v58.754c0,4.639,3.758,8.393,8.393,8.393h58.754
			c4.635,0,8.393-3.754,8.393-8.393v-58.754C322.041,205.197,318.283,201.443,313.648,201.443z M305.254,260.197h-41.967v-41.967
			h41.967V260.197z"/>
	</g>
</g>
<g>
	<g>
		<rect x="212.926" y="33.574" width="25.18" height="16.787"/>
	</g>
</g>
</svg>
