<?xml version="1.0" encoding="iso-8859-1"?>
<!-- Generator: Adobe Illustrator 19.0.0, SVG Export Plug-In . SVG Version: 6.00 Build 0)  -->
<svg version="1.1" id="Layer_1" xmlns="http://www.w3.org/2000/svg" xmlns:xlink="http://www.w3.org/1999/xlink" x="0px" y="0px"
	 viewBox="0 0 512 512" style="enable-background:new 0 0 512 512;" xml:space="preserve">
<g>
	<g>
		<path d="M411.234,0H100.766c-13.91,0-25.225,11.287-25.225,25.156v461.688c0,13.869,11.316,25.156,25.225,25.156h310.467
			c13.91,0,25.225-11.287,25.225-25.156V25.156C436.459,11.287,425.143,0,411.234,0z M419.672,486.844
			c0,4.615-3.787,8.369-8.439,8.369H100.766c-4.652,0-8.439-3.754-8.439-8.369V25.156c0-4.615,3.787-8.369,8.439-8.369h310.467
			c4.652,0,8.439,3.754,8.439,8.369V486.844z"/>
	</g>
</g>
<g>
	<g>
		<path d="M256,394.492c-20.828,0-37.77,16.943-37.77,37.77c0,20.828,16.943,37.771,37.77,37.771s37.771-16.943,37.771-37.771
			C293.771,411.434,276.828,394.492,256,394.492z M256,453.246c-11.57,0-20.984-9.41-20.984-20.984
			c0-11.574,9.414-20.984,20.984-20.984c11.57,0,20.984,9.41,20.984,20.984C276.984,443.836,267.57,453.246,256,453.246z"/>
	</g>
</g>
<g>
	<g>
		<path d="M344.115,58.754h-176.23c-23.152,0-41.984,18.787-41.984,41.885v268.672c0,4.639,3.758,8.393,8.393,8.393h243.41
			c4.635,0,8.393-3.754,8.393-8.393V100.639C386.098,77.541,367.266,58.754,344.115,58.754z M369.311,360.918H142.689V100.639
			c0-13.836,11.303-25.098,25.197-25.098h176.23c13.893,0,25.197,11.262,25.197,25.098V360.918z"/>
	</g>
</g>
<g>
	<g>
		<path d="M226.623,100.721h-58.754c-4.635,0-8.393,3.754-8.393,8.393v58.754c0,4.639,3.758,8.393,8.393,8.393h58.754
			c4.635,0,8.393-3.754,8.393-8.393v-58.754C235.016,104.476,231.258,100.721,226.623,100.721z M218.23,159.475h-41.967v-41.967
			h41.967V159.475z"/>
	</g>
</g>
<g>
	<g>
		<path d="M226.623,201.443h-58.754c-4.635,0-8.393,3.754-8.393,8.393v58.754c0,4.639,3.758,8.393,8.393,8.393h58.754
			c4.635,0,8.393-3.754,8.393-8.393v-58.754C235.016,205.197,231.258,201.443,226.623,201.443z M218.23,260.197h-41.967v-41.967
			h41.967V260.197z"/>
	</g>
</g>
<g>
	<g>
		<path d="M344.131,100.721h-58.754c-4.635,0-8.393,3.754-8.393,8.393v58.754c0,4.639,3.758,8.393,8.393,8.393h58.754
			c4.635,0,8.393-3.754,8.393-8.393v-58.754C352.525,104.476,348.766,100.721,344.131,100.721z M335.738,159.475h-41.967v-41.967
			h41.967V159.475z"/>
	</g>
</g>
<g>
	<g>
		<path d="M344.131,201.443h-58.754c-4.635,0-8.393,3.754-8.393,8.393v58.754c0,4.639,3.758,8.393,8.393,8.393h58.754
			c4.635,0,8.393-3.754,8.393-8.393v-58.754C352.525,205.197,348.766,201.443,344.131,201.443z M335.738,260.197h-41.967v-41.967
			h41.967V260.197z"/>
	</g>
</g>
<g>
	<g>
		<rect x="243.41" y="33.574" width="25.18" height="16.787"/>
	</g>
</g>
</svg>
