<?xml version="1.0" encoding="iso-8859-1"?>
<!-- Generator: Adobe Illustrator 19.0.0, SVG Export Plug-In . SVG Version: 6.00 Build 0)  -->
<svg version="1.1" xmlns="http://www.w3.org/2000/svg" xmlns:xlink="http://www.w3.org/1999/xlink" x="0px" y="0px"
	 viewBox="0 0 512 512" style="enable-background:new 0 0 512 512;" xml:space="preserve">
<g>
	<g>
		<g>
			<path d="M336,164c0-4.418-3.582-8-8-8H8c-4.418,0-8,3.582-8,8v24c0,4.418,3.582,8,8,8h16v216c0,4.418,3.582,8,8,8h8
				c4.418,0,8-3.582,8-8V196h240v216c0,4.418,3.582,8,8,8h8c4.418,0,8-3.582,8-8V196h16c4.418,0,8-3.582,8-8V164z M320,180H16v-8
				h304V180z"/>
			<path d="M512,188v-88c0-4.418-3.582-8-8-8h-24c-4.418,0-8,3.582-8,8v88c0,4.418,3.582,8,8,8v32H344c-4.418,0-8,3.582-8,8v24
				c0,4.418,3.582,8,8,8v144c0,4.418,3.582,8,8,8h8c4.418,0,8-3.582,8-8V268h112v144c0,4.418,3.582,8,8,8h8c4.418,0,8-3.582,8-8V268
				c4.418,0,8-3.582,8-8v-24c0-4.418-3.582-8-8-8v-32C508.418,196,512,192.418,512,188z M496,252H352v-8h144V252z M496,180h-8v-72h8
				V180z"/>
		</g>
	</g>
</g>
</svg>
