<svg id="Layer_1" height="512" viewBox="0 0 128 128" width="512" xmlns="http://www.w3.org/2000/svg" data-name="Layer 1"><path d="m39.417 69.573a18.5 18.5 0 1 0 18.5-18.5 18.521 18.521 0 0 0 -18.5 18.5zm33.5 0a15 15 0 1 1 -15-15 15.017 15.017 0 0 1 15 15z"/><path d="m56.167 57.875v1.366a6.165 6.165 0 0 0 0 11.825v4.924a2.652 2.652 0 0 1 -.919-2 1.75 1.75 0 0 0 -3.5 0 6.178 6.178 0 0 0 4.419 5.91v1.158a1.75 1.75 0 0 0 3.5 0v-1.158a6.165 6.165 0 0 0 0-11.825v-4.92a2.652 2.652 0 0 1 .919 2 1.75 1.75 0 0 0 3.5 0 6.178 6.178 0 0 0 -4.419-5.912v-1.368a1.75 1.75 0 0 0 -3.5 0zm-.919 7.278a2.652 2.652 0 0 1 .919-2v4a2.652 2.652 0 0 1 -.919-1.999zm5.338 8.838a2.652 2.652 0 0 1 -.919 2v-4a2.652 2.652 0 0 1 .918 2.001z"/><path d="m76.643 11.773a20.465 20.465 0 0 0 -17.121 9.277l-.892-.4a1.752 1.752 0 0 0 -1.426 0l-26.333 11.75a1.75 1.75 0 0 0 -1.038 1.6v80.477a1.75 1.75 0 0 0 1.75 1.75h52.667a1.75 1.75 0 0 0 1.75-1.75v-80.477a1.75 1.75 0 0 0 -1.037-1.6l-22.194-9.9a16.957 16.957 0 0 1 13.874-7.225 18.044 18.044 0 0 1 18.024 18.025v42.7a1.75 1.75 0 0 0 3.5 0v-42.7a21.548 21.548 0 0 0 -21.524-21.527zm-18.726 22.227a2.25 2.25 0 1 1 -2.25 2.25 2.252 2.252 0 0 1 2.25-2.25zm24.583 1.135v77.591h-49.167v-77.591l24.481-10.923a20.327 20.327 0 0 0 -1.572 6.538 5.755 5.755 0 1 0 3.5.051 16.844 16.844 0 0 1 1.3-5.239z"/><path d="m74.667 93.75h-33.5a1.75 1.75 0 0 0 0 3.5h33.5a1.75 1.75 0 1 0 0-3.5z"/><path d="m74.667 102.927h-33.5a1.75 1.75 0 0 0 0 3.5h33.5a1.75 1.75 0 0 0 0-3.5z"/></svg>