<svg id="Layer_1" height="512" viewBox="0 0 128 128" width="512" xmlns="http://www.w3.org/2000/svg" data-name="Layer 1"><path d="m77.143 11.773a20.494 20.494 0 0 0 -19.3 13.69 11.011 11.011 0 0 0 -10.328 9.474h-16.432a1.75 1.75 0 0 0 -1.75 1.75v77.789a1.75 1.75 0 0 0 1.75 1.75h54.667a1.75 1.75 0 0 0 1.75-1.75v-77.788a1.75 1.75 0 0 0 -1.75-1.75h-16.436a11.031 11.031 0 0 0 -7.888-9.081 17 17 0 0 1 15.717-10.584 18.044 18.044 0 0 1 18.024 18.027v42.7a1.75 1.75 0 0 0 3.5 0v-42.7a21.548 21.548 0 0 0 -21.524-21.527zm-18.726 22.227a2.25 2.25 0 1 1 -2.25 2.25 2.253 2.253 0 0 1 2.25-2.25zm7.5 2.457-.009.18a1.749 1.749 0 0 0 1.749 1.8h16.343v74.289h-51.167v-74.288h16.346a1.75 1.75 0 0 0 1.75-1.791l-.012-.209a7.511 7.511 0 0 1 6.02-7.352c-.086.549-.153 1.1-.194 1.665a5.755 5.755 0 1 0 3.5.051c.045-.533.118-1.057.212-1.575a7.512 7.512 0 0 1 5.459 7.23z"/><path d="m37.417 47.5v59.708a1.75 1.75 0 0 0 1.75 1.75h38.5a1.75 1.75 0 0 0 1.75-1.75v-59.708a1.75 1.75 0 0 0 -1.75-1.75h-38.5a1.75 1.75 0 0 0 -1.75 1.75zm3.5 1.75h35v56.208h-35z"/></svg>