<svg id="Layer_1" height="512" viewBox="0 0 128 128" width="512" xmlns="http://www.w3.org/2000/svg" data-name="Layer 1"><path d="m65.75 30.757v-.732a14.769 14.769 0 0 1 14.75-14.752h3.75a1.75 1.75 0 0 0 0-3.5h-3.75a18.272 18.272 0 0 0 -18.25 18.252v.732a42.757 42.757 0 1 0 3.5 0zm-.6 10.11a1.147 1.147 0 1 1 -1.15-1.147 1.148 1.148 0 0 1 1.147 1.147zm-1.15 71.86a39.254 39.254 0 0 1 -1.75-78.469v2.31a4.647 4.647 0 1 0 3.5 0v-2.31a39.254 39.254 0 0 1 -1.75 78.469z"/><path d="m55.465 63.789a7.6 7.6 0 1 0 -7.6-7.595 7.6 7.6 0 0 0 7.6 7.595zm0-11.69a4.1 4.1 0 1 1 -4.1 4.1 4.1 4.1 0 0 1 4.1-4.099z"/><path d="m72.535 83.15a7.6 7.6 0 1 0 7.6 7.6 7.6 7.6 0 0 0 -7.6-7.6zm0 11.691a4.1 4.1 0 1 1 4.1-4.1 4.1 4.1 0 0 1 -4.1 4.101z"/><path d="m78.236 51.629-36.077 36.076a5.378 5.378 0 0 0 7.6 7.606l36.082-36.077a5.378 5.378 0 0 0 -7.605-7.605zm5.131 5.131-36.077 36.077a1.878 1.878 0 1 1 -2.656-2.656l36.076-36.081a1.878 1.878 0 0 1 2.656 2.656z"/></svg>