<?xml version="1.0" encoding="iso-8859-1"?>
<!-- Generator: Adobe Illustrator 19.0.0, SVG Export Plug-In . SVG Version: 6.00 Build 0)  -->
<svg version="1.1" id="Layer_1" xmlns="http://www.w3.org/2000/svg" xmlns:xlink="http://www.w3.org/1999/xlink" x="0px" y="0px"
	 viewBox="0 0 512 512" style="enable-background:new 0 0 512 512;" xml:space="preserve">
<g>
	<g>
		<path d="M443.101,0H68.899C52.625,0,39.385,13.274,39.385,29.586v393.75c0,16.312,13.24,29.586,29.514,29.586h0.024v29.558
			c0,16.279,13.25,29.519,29.534,29.519h315.087c16.284,0,29.534-13.24,29.534-29.519v-29.558h0.024
			c16.274,0,29.514-13.274,29.514-29.586V29.586C472.615,13.274,459.375,0,443.101,0z M423.385,482.481
			c0,5.418-4.414,9.827-9.841,9.827H98.457c-5.428,0-9.841-4.409-9.841-9.827v-29.558h334.769V482.481z M452.923,423.337
			c0,5.457-4.404,9.894-9.822,9.894h-9.87H78.769h-9.87c-5.418,0-9.822-4.437-9.822-9.894V29.586c0-5.457,4.404-9.894,9.822-9.894
			h374.202c5.418,0,9.822,4.437,9.822,9.894V423.337z"/>
	</g>
</g>
<g>
	<g>
		<path d="M423.385,39.385H88.615c-5.438,0-9.846,4.409-9.846,9.846v256c0,5.438,4.409,9.846,9.846,9.846h334.769
			c5.438,0,9.846-4.409,9.846-9.846v-256C433.231,43.793,428.822,39.385,423.385,39.385z M413.538,295.385H98.462V59.077h315.077
			V295.385z"/>
	</g>
</g>
<g>
	<g>
		<path d="M169.774,86.226c-3.846-3.846-10.077-3.846-13.923,0l-34.813,34.813c-3.846,3.846-3.846,10.077,0,13.923
			c1.923,1.923,4.442,2.885,6.961,2.885s5.039-0.961,6.961-2.885l34.813-34.813C173.62,96.303,173.62,90.072,169.774,86.226z"/>
	</g>
</g>
<g>
	<g>
		<path d="M249.149,85.616c-3.846-3.846-10.077-3.846-13.923,0L121.039,199.808c-3.846,3.846-3.846,10.077,0,13.923
			c1.923,1.923,4.442,2.885,6.961,2.885s5.039-0.961,6.961-2.885L249.149,99.538C252.995,95.692,252.995,89.462,249.149,85.616z"/>
	</g>
</g>
<g>
	<g>
		<path d="M118.154,334.769c-21.716,0-39.385,17.668-39.385,39.385s17.668,39.385,39.385,39.385s39.385-17.668,39.385-39.385
			S139.87,334.769,118.154,334.769z M118.154,393.846c-10.861,0-19.692-8.832-19.692-19.692s8.832-19.692,19.692-19.692
			c10.861,0,19.692,8.832,19.692,19.692S129.014,393.846,118.154,393.846z"/>
	</g>
</g>
<g>
	<g>
		<rect x="265.846" y="364.308" width="167.385" height="19.692"/>
	</g>
</g>
</svg>
