<?xml version="1.0" encoding="iso-8859-1"?>
<!-- Generator: Adobe Illustrator 19.0.0, SVG Export Plug-In . SVG Version: 6.00 Build 0)  -->
<svg version="1.1" id="Layer_1" xmlns="http://www.w3.org/2000/svg" xmlns:xlink="http://www.w3.org/1999/xlink" x="0px" y="0px"
	 viewBox="0 0 512 512" style="enable-background:new 0 0 512 512;" xml:space="preserve">
<g>
	<g>
		<path d="M502.857,50.286H9.143C4.089,50.286,0,54.379,0,59.429v329.143c0,5.049,4.089,9.143,9.143,9.143h198.161l-14.955,52.344
			c-0.786,2.759-0.232,5.728,1.491,8.018c1.732,2.29,4.438,3.638,7.304,3.638h109.714c2.866,0,5.571-1.348,7.304-3.638
			c1.723-2.29,2.277-5.259,1.491-8.018l-14.955-52.344h198.161c5.053,0,9.143-4.094,9.143-9.143V59.429
			C512,54.379,507.911,50.286,502.857,50.286z M213.268,443.429l13.054-45.714h59.357l13.053,45.714H213.268z M493.714,379.429
			H292.571h-73.143H18.286V68.571h475.429V379.429z"/>
	</g>
</g>
<g>
	<g>
		<path d="M466.286,86.857H45.714c-5.053,0-9.143,4.094-9.143,9.143v256c0,5.049,4.089,9.143,9.143,9.143h420.571
			c5.054,0,9.143-4.094,9.143-9.143V96C475.429,90.951,471.339,86.857,466.286,86.857z M457.143,342.857H54.857V105.143h402.286
			V342.857z"/>
	</g>
</g>
<g>
	<g>
		<path d="M134.464,135.25c-3.571-3.571-9.357-3.571-12.928,0l-36.571,36.571c-3.571,3.571-3.571,9.357,0,12.928
			c1.786,1.786,4.125,2.679,6.464,2.679c2.339,0,4.679-0.893,6.464-2.679l36.571-36.571
			C138.036,144.607,138.036,138.821,134.464,135.25z"/>
	</g>
</g>
<g>
	<g>
		<path d="M221.402,130.594c-3.571-3.571-9.357-3.571-12.929,0L84.964,254.107c-3.571,3.571-3.571,9.357,0,12.928
			c1.786,1.786,4.125,2.679,6.464,2.679c2.339,0,4.679-0.893,6.464-2.679l123.509-123.513
			C224.973,139.951,224.973,134.165,221.402,130.594z"/>
	</g>
</g>
</svg>
