<?xml version="1.0" encoding="iso-8859-1"?>
<!-- Generator: Adobe Illustrator 19.0.0, SVG Export Plug-In . SVG Version: 6.00 Build 0)  -->
<svg version="1.1" id="Layer_1" xmlns="http://www.w3.org/2000/svg" xmlns:xlink="http://www.w3.org/1999/xlink" x="0px" y="0px"
	 viewBox="0 0 512 512" style="enable-background:new 0 0 512 512;" xml:space="preserve">
<g>
	<g>
		<path d="M503.671,85.355L9.636,49.425c-2.553-0.167-4.943,0.688-6.772,2.381C1.039,53.508,0,55.89,0,58.385v332.351
			c0,2.496,1.039,4.877,2.864,6.579c1.671,1.548,3.855,2.403,6.118,2.403c0.215,0,0.434-0.009,0.653-0.022l241.873-17.591v55.162
			l-37.693,7.538c-4.864,0.974-8.018,5.706-7.044,10.57c0.851,4.267,4.605,7.219,8.798,7.219c0.583,0,1.175-0.057,1.772-0.175
			l89.825-17.965c4.864-0.974,8.018-5.706,7.044-10.57c-0.969-4.864-5.676-8.026-10.57-7.044l-34.167,6.833v-52.876l234.197-17.032
			c4.693-0.342,8.329-4.254,8.329-8.96V94.315C512,89.609,508.364,85.697,503.671,85.355z M494.035,346.455l-238.337,17.333h-4.19
			v0.305L17.965,381.078V68.043l476.07,34.623V346.455z"/>
	</g>
</g>
<g>
	<g>
		<path d="M115.588,107.824c-2.461-4.311-7.947-5.803-12.255-3.342l-62.877,35.93c-4.307,2.461-5.803,7.947-3.342,12.255
			c1.658,2.903,4.689,4.526,7.807,4.526c1.509,0,3.044-0.382,4.447-1.184l62.877-35.93
			C116.553,117.618,118.048,112.131,115.588,107.824z"/>
	</g>
</g>
<g>
	<g>
		<path d="M187.351,116.64c-2.557-4.254-8.079-5.636-12.325-3.079L40.289,194.403c-4.254,2.553-5.632,8.07-3.079,12.325
			c1.684,2.807,4.658,4.36,7.711,4.36c1.575,0,3.167-0.412,4.614-1.281l134.737-80.842
			C188.526,126.412,189.904,120.894,187.351,116.64z"/>
	</g>
</g>
</svg>
