<svg xmlns="http://www.w3.org/2000/svg" width="88" height="88" data-name="Layer 1" viewBox="0 0 88 88"><path d="M72.13,35.44H62.38A58.2,58.2,0,0,0,63.23,29a20.32,20.32,0,0,0-.9-7.67c-.7-2.3-1.84-4.61-4-5.88a5.84,5.84,0,0,0-3.22-.86,7,7,0,0,0-3.35,1.31A6.51,6.51,0,0,1,49.05,17,13.88,13.88,0,0,1,46,16.94c-2.2-.23-4.39-.64-6.59-.18a10,10,0,0,0-3.18,1.38,19.82,19.82,0,0,1-2.94,1.75,3.65,3.65,0,0,1-2.74.22c-.43-.19-.77-.56-1.21-.76a2.36,2.36,0,0,0-2.15.07,5,5,0,0,0-2.2,3.3,13.69,13.69,0,0,0-.19,4c.2,2.8.82,5.71.09,8.48a1.13,1.13,0,0,0,0,.25h-9a6.41,6.41,0,0,0-6.41,6.4V67a6.42,6.42,0,0,0,6.41,6.41H72.13A6.42,6.42,0,0,0,78.54,67V41.84A6.41,6.41,0,0,0,72.13,35.44ZM27.23,28.5A30.54,30.54,0,0,1,27,24.93a5.84,5.84,0,0,1,.58-2.73c.13-.23.4-.73.7-.78,0,0,.11,0,.17.08.22.14.42.32.64.45a4.89,4.89,0,0,0,3.37.54c2.26-.35,3.93-1.93,5.89-2.94s3.81-.76,5.79-.52a17.34,17.34,0,0,0,6.22.06,9.94,9.94,0,0,0,2.84-1.37,3.88,3.88,0,0,1,2.49-.82c1.89.21,3.19,1.92,3.89,3.59A18,18,0,0,1,61,28.19c0,1.14-.23,2.28-.35,3.41a29.25,29.25,0,0,1-.55,3.6,1,1,0,0,0,0,.24H27.16A21.54,21.54,0,0,0,27.23,28.5Zm44.9,43H15.87A4.5,4.5,0,0,1,11.38,67V49.76h1.34a1,1,0,0,0,0-1.92H11.38v-6a4.5,4.5,0,0,1,4.49-4.49H72.13a4.5,4.5,0,0,1,4.49,4.49v6H75.28a1,1,0,1,0,0,1.92h1.34V67A4.5,4.5,0,0,1,72.13,71.5Z"/><path d="M22.35 47.84H17.54a1 1 0 0 0 0 1.92h4.81a1 1 0 1 0 0-1.92zM32 47.84H27.16a1 1 0 0 0 0 1.92H32a1 1 0 0 0 0-1.92zM70.46 47.84H65.65a1 1 0 1 0 0 1.92h4.81a1 1 0 1 0 0-1.92zM60.84 47.84H56a1 1 0 0 0 0 1.92h4.81a1 1 0 0 0 0-1.92zM51.22 47.84H46.41a1 1 0 0 0 0 1.92h4.81a1 1 0 0 0 0-1.92zM41.59 47.84H36.78a1 1 0 0 0 0 1.92h4.81a1 1 0 0 0 0-1.92z"/></svg>