<svg id="Layer_1" height="512" viewBox="0 0 128 128" width="512" xmlns="http://www.w3.org/2000/svg" data-name="Layer 1"><path d="m58.8 30.392a20.479 20.479 0 0 0 -11.453-18.436 1.75 1.75 0 0 0 -2.529 1.567v15.119h-13.218v-15.119a1.75 1.75 0 0 0 -2.528-1.567 20.576 20.576 0 0 0 -.092 36.844v38.589a16.578 16.578 0 0 0 1.856 28.655 1.75 1.75 0 0 0 2.528-1.567v-11.549h9.683v11.548a1.75 1.75 0 0 0 2.528 1.567 16.578 16.578 0 0 0 1.857-28.655v-38.588a20.587 20.587 0 0 0 11.368-18.408zm-14 59.475a13.159 13.159 0 0 1 6.512 11.312 13 13 0 0 1 -4.764 10.1v-10.1a1.75 1.75 0 0 0 -1.75-1.75h-13.183a1.75 1.75 0 0 0 -1.75 1.75v10.1a13 13 0 0 1 -4.764-10.1 13.159 13.159 0 0 1 6.512-11.312 1.749 1.749 0 0 0 .867-1.511v-40.669a1.75 1.75 0 0 0 -1.055-1.606 17.078 17.078 0 0 1 -3.325-29.456v13.767a1.75 1.75 0 0 0 1.75 1.75h16.718a1.75 1.75 0 0 0 1.75-1.75v-13.767a17.078 17.078 0 0 1 -3.33 29.456 1.75 1.75 0 0 0 -1.055 1.606v40.669a1.749 1.749 0 0 0 .867 1.511z"/><path d="m79.8 69.929h-4.576v-41.429h1.036a1.75 1.75 0 0 0 1.73-2.012l-2-13.227a1.75 1.75 0 0 0 -1.73-1.488h-6.75a1.75 1.75 0 0 0 -1.73 1.488l-2 13.227a1.75 1.75 0 0 0 1.73 2.012h1.036v41.429h-4.575a1.75 1.75 0 0 0 -1.75 1.75v33.884a10.664 10.664 0 0 0 21.329 0v-33.884a1.75 1.75 0 0 0 -1.75-1.75zm-10.785-54.656h3.739l1.471 9.727h-6.681zm1.03 13.227h1.679v41.429h-1.679zm8 77.063a7.164 7.164 0 0 1 -14.329 0v-32.134h14.333z"/><path d="m91.5 59.7a1.75 1.75 0 0 0 1.516.875h10.417a1.75 1.75 0 0 0 1.516-.875l5.208-9.021a1.751 1.751 0 0 0 0-1.75l-5.208-9.021a1.75 1.75 0 0 0 -1.516-.875h-10.421a1.75 1.75 0 0 0 -1.516.875l-5.208 9.021a1.751 1.751 0 0 0 0 1.75zm2.526-17.167h8.4l4.2 7.271-4.2 7.271h-8.4l-4.2-7.271z"/><path d="m98.221 55.191a5.389 5.389 0 1 0 -5.389-5.391 5.4 5.4 0 0 0 5.389 5.391zm0-7.278a1.889 1.889 0 1 1 -1.889 1.887 1.892 1.892 0 0 1 1.889-1.887z"/><path d="m104.945 68.3a1.75 1.75 0 0 0 -1.516-.875h-10.417a1.75 1.75 0 0 0 -1.512.875l-5.208 9.021a1.751 1.751 0 0 0 0 1.75l5.208 9.023a1.75 1.75 0 0 0 1.516.875h10.417a1.75 1.75 0 0 0 1.516-.875l5.208-9.021a1.751 1.751 0 0 0 0-1.75zm-2.526 17.167h-8.4l-4.2-7.271 4.2-7.271h8.4l4.2 7.271z"/><path d="m98.221 72.809a5.389 5.389 0 1 0 5.389 5.391 5.4 5.4 0 0 0 -5.389-5.391zm0 7.278a1.889 1.889 0 1 1 1.889-1.887 1.892 1.892 0 0 1 -1.889 1.887z"/></svg>