<svg xmlns="http://www.w3.org/2000/svg" width="88" height="88" data-name="Layer 1" viewBox="0 0 88 88"><path d="M69,20.14v-1a.41.41,0,0,0,0-.11c-.52-5.36-3.82-6.62-5.66-6.91a1.18,1.18,0,0,0-.27,0,5.06,5.06,0,0,0-.87,0H26.57A7.78,7.78,0,0,0,19,20V54.66a7.78,7.78,0,0,0,7.61,7.92h1.3v5.68a7.6,7.6,0,0,0,7.48,7.68H61.56A7.6,7.6,0,0,0,69,68.26V20.15Zm-48,34.52V52H26a1,1,0,1,0,0-2.06h-4.9V20a5.66,5.66,0,0,1,5.49-5.79H59.14A8.62,8.62,0,0,0,58,19.33V54.66a5.65,5.65,0,0,1-5.49,5.8H26.57A5.66,5.66,0,0,1,21.08,54.66ZM61.56,73.81H35.36A5.46,5.46,0,0,1,30,68.26V62.58H52.51a7.78,7.78,0,0,0,7.62-7.92V21.47h0V19.28s0-.07,0-.11-.26-2.6,1-4a2.71,2.71,0,0,1,2-.92c1.2.18,3.39,1.06,3.8,5v4.86h0V68.26A5.47,5.47,0,0,1,61.56,73.81Z"/><path d="M50.71 52h4.95a1 1 0 0 0 0-2.06H50.71a1 1 0 0 0 0 2.06zM40.82 52h5a1 1 0 0 0 0-2.06h-5a1 1 0 1 0 0 2.06zM30.93 52h4.94a1 1 0 1 0 0-2.06H30.93a1 1 0 0 0 0 2.06z"/></svg>