<svg id="Layer_1" height="512" viewBox="0 0 128 128" width="512" xmlns="http://www.w3.org/2000/svg" data-name="Layer 1"><path d="m32.772 80.182-6 15.96h5.035l.778-2.635h5.6l.8 2.635h5.164l-6-15.96zm.886 9.875 1.742-5.738 1.762 5.738z"/><path d="m50.991 49.875a21.561 21.561 0 0 0 2.174-.454 5.2 5.2 0 0 0 1.806-.72 4.243 4.243 0 0 0 1.4-1.728 4.346 4.346 0 0 0 .335-2.28 3.912 3.912 0 0 0 -1.077-2.43 4.475 4.475 0 0 0 -2.669-1.141 3.917 3.917 0 0 0 1.6-1.245 3.572 3.572 0 0 0 .617-2.509 3.7 3.7 0 0 0 -1.532-2.682 5.032 5.032 0 0 0 -3.645-.757l-9.179.989 1.71 15.868zm.106-6.28a1.408 1.408 0 0 1 .636 1.076 1.526 1.526 0 0 1 -.389 1.263 2.773 2.773 0 0 1 -1.738.641l-2.5.269-.346-3.215 2.49-.268a2.894 2.894 0 0 1 1.85.233zm-2.823-6.227a2.424 2.424 0 0 1 1.605.221 1.366 1.366 0 0 1 .567 1.034 1.448 1.448 0 0 1 -.327 1.191 2.46 2.46 0 0 1 -1.554.568l-2.132.23-.324-3.01z"/><path d="m116.1 93.074-16.371-40.706a1.753 1.753 0 0 0 -2.277-.971l-22.635 9.103-4.611-42.787a1.752 1.752 0 0 0 -1.928-1.553l-43.623 4.7a1.751 1.751 0 0 0 -1.555 1.929l4.492 41.686h-14.069a1.75 1.75 0 0 0 -1.75 1.75v43.875a1.75 1.75 0 0 0 1.75 1.75h43.877a1.75 1.75 0 0 0 1.75-1.75v-31.664l13 32.317a1.752 1.752 0 0 0 2.277.971l40.703-16.372a1.751 1.751 0 0 0 .97-2.278zm-49.187-73.246 4.326 40.143-40.139 4.329-4.329-40.146zm-51.64 88.522v-40.375h40.375v40.375zm43.216-43.484 7.48-.806-6.821 2.74v-.578a1.739 1.739 0 0 0 -.659-1.356zm16.252 42.958-15.066-37.46 37.459-15.064 15.066 37.457z"/><path d="m89.669 81.62a4.911 4.911 0 0 1 -.113 2.533 3.18 3.18 0 0 1 -4.156 1.468 5.973 5.973 0 0 1 -2.1-3.075 5.722 5.722 0 0 1 -.546-3.167 3.113 3.113 0 0 1 3.237-2.427 2.847 2.847 0 0 1 1.264.43 3.729 3.729 0 0 1 .843.812l3.678-2.524a7.162 7.162 0 0 0 -3.776-2.517 8.1 8.1 0 0 0 -4.854.638 8.017 8.017 0 0 0 -4.736 4.2 8.286 8.286 0 0 0 .317 6.434 9.012 9.012 0 0 0 2.93 4.075 6.744 6.744 0 0 0 3.628 1.4 10.264 10.264 0 0 0 4.227-.886 8.7 8.7 0 0 0 3.046-1.894 5.939 5.939 0 0 0 1.469-2.574 7.971 7.971 0 0 0 .14-3.33z"/></svg>