<svg xmlns="http://www.w3.org/2000/svg" width="88" height="88" data-name="Layer 1" viewBox="0 0 88 88"><path d="M71.87,73.59,64.38,16.53A3.67,3.67,0,0,0,64,12.21a1.1,1.1,0,0,0-.75-.31H24.72a1.06,1.06,0,0,0-.75.31,3.66,3.66,0,0,0-.35,4.32L16.13,73.59a1.06,1.06,0,0,0,.81,1.17A57.22,57.22,0,0,0,28.57,76.1a23.61,23.61,0,0,0,8.71-1.39,1.06,1.06,0,0,0,.64-.81L44,37.8l6.08,36.1a1,1,0,0,0,.64.81,23.61,23.61,0,0,0,8.71,1.39,57.22,57.22,0,0,0,11.63-1.34A1.06,1.06,0,0,0,71.87,73.59ZM52.07,73l-7-41.72s0,0,0,0l0-.1,0-.1,0-.09a.41.41,0,0,0,0-.09l-.06-.08-.07-.08-.08-.07-.07,0-.11-.06-.07,0-.12,0-.08,0H43.8l-.14,0-.06,0-.13.07,0,0-.12.09,0,0a.52.52,0,0,0-.1.11l0,0a.75.75,0,0,0-.07.12L43,31a.56.56,0,0,0,0,.12l0,.09s0,0,0,0L35.93,73c-5.68,2-14.66.51-17.57-.06l7.18-54.66h4.28a1.06,1.06,0,1,0,0-2.12H25.76a1,1,0,0,0-.12-.34A2,2,0,0,1,25.3,14H62.69a2,2,0,0,1-.33,1.74,1.11,1.11,0,0,0-.14.69l7.42,56.43C66.73,73.46,57.75,75,52.07,73Z"/><path d="M50.23 16.11h-5.1a1.06 1.06 0 0 0 0 2.12h5.1a1.06 1.06 0 1 0 0-2.12zM40 16.11h-5.1a1.06 1.06 0 1 0 0 2.12H40a1.06 1.06 0 0 0 0-2.12zM60.43 16.11h-5.1a1.06 1.06 0 1 0 0 2.12h5.1a1.06 1.06 0 1 0 0-2.12z"/></svg>