<?xml version="1.0" encoding="iso-8859-1"?>
<!-- Generator: Adobe Illustrator 19.0.0, SVG Export Plug-In . SVG Version: 6.00 Build 0)  -->
<svg version="1.1" id="Layer_1" xmlns="http://www.w3.org/2000/svg" xmlns:xlink="http://www.w3.org/1999/xlink" x="0px" y="0px"
	 viewBox="0 0 512 512" style="enable-background:new 0 0 512 512;" xml:space="preserve">
<g>
	<g>
		<path d="M503.172,57.379H8.828C3.953,57.379,0,61.332,0,66.207v379.586c0,4.875,3.953,8.828,8.828,8.828h494.345
			c4.875,0,8.828-3.953,8.828-8.828V66.207C512,61.332,508.047,57.379,503.172,57.379z M494.345,436.966H17.655V75.035h476.69
			V436.966z"/>
	</g>
</g>
<g>
	<g>
		<circle cx="467.862" cy="101.517" r="17.655"/>
	</g>
</g>
<g>
	<g>
		<circle cx="467.862" cy="410.483" r="17.655"/>
	</g>
</g>
<g>
	<g>
		<path d="M326.621,110.345c-65.783,0-121.681,42.606-141.892,101.624l-50.841-50.839c4.625-6.978,7.353-15.321,7.353-24.302
			c0-24.336-19.802-44.138-44.138-44.138s-44.138,19.802-44.138,44.138s19.802,44.138,44.138,44.138
			c8.981,0,17.323-2.727,24.302-7.353l57.987,57.987c-1.823,9.335-2.841,18.955-2.841,28.815
			c0,82.75,67.319,150.069,150.069,150.069S476.69,343.164,476.69,260.414S409.371,110.345,326.621,110.345z M120.933,148.173
			l-17.589-17.587c-3.448-3.448-9.034-3.448-12.483,0c-3.448,3.448-3.448,9.034,0,12.483l17.587,17.587
			c-3.453,1.652-7.27,2.654-11.346,2.654c-14.603,0-26.483-11.879-26.483-26.483c0-14.603,11.879-26.483,26.483-26.483
			s26.483,11.879,26.483,26.483C123.586,140.903,122.584,144.721,120.933,148.173z M326.621,392.828
			c-73.013,0-132.414-59.401-132.414-132.414c0-4.498,0.235-8.942,0.675-13.325l34.636,34.636v31.655
			c0,4.875,3.953,8.828,8.828,8.828c4.875,0,8.828-3.953,8.828-8.828v-35.31c0-2.34-0.931-4.586-2.586-6.241l-45.713-45.713
			C214.041,169.704,265.486,128,326.621,128c73.013,0,132.414,59.401,132.414,132.414S399.634,392.828,326.621,392.828z"/>
	</g>
</g>
<g>
	<g>
		<path d="M97.103,331.034c-24.336,0-44.138,19.802-44.138,44.138s19.802,44.138,44.138,44.138s44.138-19.802,44.138-44.138
			S121.44,331.034,97.103,331.034z M97.103,401.655c-14.603,0-26.483-11.879-26.483-26.483c0-14.604,11.879-26.483,26.483-26.483
			s26.483,11.879,26.483,26.483C123.586,389.776,111.707,401.655,97.103,401.655z"/>
	</g>
</g>
<g>
	<g>
		<polygon points="105.931,278.069 105.931,198.621 88.276,198.621 88.276,278.069 61.793,278.069 61.793,295.724 88.276,295.724 
			88.276,313.379 105.931,313.379 105.931,295.724 132.414,295.724 132.414,278.069 		"/>
	</g>
</g>
<g>
	<g>
		<rect x="44.138" y="198.621" width="35.31" height="17.655"/>
	</g>
</g>
<g>
	<g>
		<rect x="44.138" y="225.103" width="35.31" height="17.655"/>
	</g>
</g>
<g>
	<g>
		<rect x="44.138" y="251.586" width="35.31" height="17.655"/>
	</g>
</g>
<g>
	<g>
		<path d="M326.621,216.276c-24.336,0-44.138,19.802-44.138,44.138c0,24.336,19.802,44.138,44.138,44.138
			c24.336,0,44.138-19.802,44.138-44.138C370.759,236.078,350.957,216.276,326.621,216.276z M326.621,286.897
			c-14.603,0-26.483-11.879-26.483-26.483c0-14.604,11.879-26.483,26.483-26.483c14.604,0,26.483,11.879,26.483,26.483
			C353.103,275.017,341.224,286.897,326.621,286.897z"/>
	</g>
</g>
</svg>
