<?xml version="1.0" encoding="iso-8859-1"?>
<!-- Generator: Adobe Illustrator 19.0.0, SVG Export Plug-In . SVG Version: 6.00 Build 0)  -->
<svg version="1.1" id="Layer_1" xmlns="http://www.w3.org/2000/svg" xmlns:xlink="http://www.w3.org/1999/xlink" x="0px" y="0px"
	 viewBox="0 0 512 512" style="enable-background:new 0 0 512 512;" xml:space="preserve">
<g>
	<g>
		<path d="M511.947,331.591c-0.029-1.102-0.238-2.183-0.649-3.22c-0.094-0.236-0.234-0.432-0.345-0.66
			c-0.227-0.463-0.412-0.942-0.716-1.37l-94.815-132.741c-1.782-2.495-4.658-3.972-7.718-3.972H274.963
			c-5.236,0-9.481,4.245-9.481,9.482c0,5.236,4.245,9.481,9.481,9.481h127.861l81.269,113.778H27.907l81.269-113.778h108.898
			c5.236,0,9.481-4.245,9.481-9.481c0-5.236-4.245-9.482-9.481-9.482H104.296c-3.06,0-5.935,1.477-7.718,3.972L1.764,326.341
			c-0.304,0.428-0.49,0.907-0.716,1.37c-0.111,0.228-0.251,0.424-0.345,0.66c-0.411,1.037-0.62,2.118-0.649,3.22
			C0.05,331.683,0,331.759,0,331.851v151.704c0,5.236,4.245,9.481,9.482,9.481h493.037c5.236,0,9.482-4.245,9.482-9.481V331.851
			C512,331.759,511.95,331.683,511.947,331.591z M493.037,474.073H18.963V341.332h474.074V474.073z"/>
	</g>
</g>
<g>
	<g>
		<path d="M256,369.777c-20.912,0-37.926,17.014-37.926,37.926c0,20.912,17.014,37.926,37.926,37.926s37.926-17.014,37.926-37.926
			S276.912,369.777,256,369.777z M256,426.665c-10.458,0-18.963-8.505-18.963-18.963S245.542,388.74,256,388.74
			s18.963,8.505,18.963,18.963S266.458,426.665,256,426.665z"/>
	</g>
</g>
<g>
	<g>
		<path d="M290.134,49.304L252.208,20.86c-3.37-2.528-8.009-2.528-11.38,0l-37.926,28.444c-4.19,3.139-5.037,9.083-1.893,13.273
			c3.139,4.19,9.074,5.051,13.273,1.893l22.755-17.066v208.594H256V47.405l22.755,17.066c1.708,1.282,3.704,1.898,5.681,1.898
			c2.884,0,5.732-1.31,7.593-3.792C295.171,58.388,294.324,52.443,290.134,49.304z"/>
	</g>
</g>
<g>
	<g>
		<rect x="417.185" y="360.297" width="28.444" height="18.963"/>
	</g>
</g>
<g>
	<g>
		<rect x="417.185" y="398.223" width="28.444" height="18.963"/>
	</g>
</g>
<g>
	<g>
		<rect x="417.185" y="436.149" width="28.444" height="18.963"/>
	</g>
</g>
</svg>
