<?xml version="1.0" encoding="iso-8859-1"?>
<!-- Generator: Adobe Illustrator 19.0.0, SVG Export Plug-In . SVG Version: 6.00 Build 0)  -->
<svg version="1.1" id="Layer_1" xmlns="http://www.w3.org/2000/svg" xmlns:xlink="http://www.w3.org/1999/xlink" x="0px" y="0px"
	 viewBox="0 0 512 512" style="enable-background:new 0 0 512 512;" xml:space="preserve">
<g>
	<g>
		<path d="M453.614,494.035H251.566c-12.412,0-22.513-10.075-22.513-22.456v-22.456h152.702c4.961,0,8.982-4.022,8.982-8.982
			V206.596c0-4.961-4.022-8.982-8.982-8.982h-17.965V8.982c0-4.961-4.022-8.982-8.982-8.982H85.333
			c-4.961,0-8.982,4.022-8.982,8.982v188.632H58.386c-4.961,0-8.982,4.022-8.982,8.982V440.14c0,4.961,4.022,8.982,8.982,8.982
			h152.702v22.456c0,22.289,18.158,40.421,40.478,40.421h202.048c4.961,0,8.982-4.022,8.982-8.982
			C462.596,498.057,458.575,494.035,453.614,494.035z M220.07,17.965h125.754v179.649H220.07v-26.947h17.965
			c4.961,0,8.982-4.022,8.982-8.982v-35.93c0-4.961-4.022-8.982-8.982-8.982H220.07V98.807h17.965c4.961,0,8.982-4.022,8.982-8.982
			v-35.93c0-4.961-4.022-8.982-8.982-8.982H220.07V17.965z M94.316,17.965h107.789v35.93c0,4.961,4.022,8.982,8.982,8.982h17.965
			v17.965h-17.965c-4.961,0-8.982,4.022-8.982,8.982v35.93c0,4.961,4.022,8.982,8.982,8.982h17.965v17.965h-17.965
			c-4.961,0-8.982,4.022-8.982,8.982v35.93H94.316V17.965z M67.368,431.158V215.579h17.965h269.474h17.965v215.579H67.368z"/>
	</g>
</g>
<g>
	<g>
		<path d="M175.158,71.86h-44.912c-4.961,0-8.982,4.022-8.982,8.982v53.895c0,4.961,4.022,8.982,8.982,8.982h44.912
			c4.961,0,8.982-4.022,8.982-8.982V80.842C184.14,75.882,180.118,71.86,175.158,71.86z M166.175,125.754h-26.947v-35.93h26.947
			V125.754z"/>
	</g>
</g>
<g>
	<g>
		<path d="M309.895,71.86h-44.912c-4.961,0-8.982,4.022-8.982,8.982v53.895c0,4.961,4.022,8.982,8.982,8.982h44.912
			c4.961,0,8.982-4.022,8.982-8.982V80.842C318.877,75.882,314.855,71.86,309.895,71.86z M300.912,125.754h-26.947v-35.93h26.947
			V125.754z"/>
	</g>
</g>
</svg>
