<svg id="Layer_1" height="512" viewBox="0 0 128 128" width="512" xmlns="http://www.w3.org/2000/svg" data-name="Layer 1"><path d="m114.477 32.557h-11.852v-12.106a1.75 1.75 0 0 0 -1.75-1.75h-73.75a1.75 1.75 0 0 0 -1.75 1.75v12.106h-6.519a7.092 7.092 0 0 0 -7.083 7.083v61.438a8.229 8.229 0 0 0 8.22 8.22h94.483a1.75 1.75 0 0 0 1.75-1.75v-73.241a1.75 1.75 0 0 0 -1.749-1.75zm-1.75 54.77h-20.583a9.873 9.873 0 1 1 0-19.746h20.583zm-83.852-65.127h70.25v16.159h-4.082v-6.026a1.75 1.75 0 0 0 -1.75-1.75 3.492 3.492 0 0 1 -3.493-3.488 1.75 1.75 0 0 0 -1.75-1.75h-48.105a1.75 1.75 0 0 0 -1.75 1.75 3.492 3.492 0 0 1 -3.488 3.488 1.75 1.75 0 0 0 -1.75 1.75v6.026h-4.082zm62.668 16.159h-55.086v-4.5a7.016 7.016 0 0 0 5.017-5.017h45.052a7.016 7.016 0 0 0 5.017 5.017zm-76.27 1.282a3.587 3.587 0 0 1 3.583-3.583h6.519v2.3h-3.208a1.75 1.75 0 0 0 0 3.5h83.666a1.75 1.75 0 0 0 0-3.5h-3.208v-2.3h10.1v8.1h-93.869a3.587 3.587 0 0 1 -3.583-3.583v-.936zm4.72 66.158a4.725 4.725 0 0 1 -4.72-4.72v-54.4a7.029 7.029 0 0 0 3.583.984h93.87v16.419h-20.582a13.373 13.373 0 1 0 0 26.746h20.583v14.972z"/><path d="m86.787 77.522a6.033 6.033 0 1 0 6.032-6.033 6.039 6.039 0 0 0 -6.032 6.033zm6.032-2.533a2.533 2.533 0 1 1 -2.532 2.533 2.536 2.536 0 0 1 2.532-2.533z"/></svg>