<?xml version="1.0" encoding="iso-8859-1"?>
<!-- Generator: Adobe Illustrator 19.0.0, SVG Export Plug-In . SVG Version: 6.00 Build 0)  -->
<svg version="1.1" id="Layer_1" xmlns="http://www.w3.org/2000/svg" xmlns:xlink="http://www.w3.org/1999/xlink" x="0px" y="0px"
	 viewBox="0 0 512 512" style="enable-background:new 0 0 512 512;" xml:space="preserve">
<g>
	<g>
		<path d="M251.17,213.901v-59.335c0-5.34-4.321-9.66-9.66-9.66c-5.34,0-9.66,4.321-9.66,9.66v59.335
			c-16.62,4.318-28.981,19.313-28.981,37.269c0,9.446,3.538,17.995,9.184,24.712l-44.203,35.363
			c-4.161,3.34-4.84,9.415-1.509,13.585c1.915,2.387,4.717,3.623,7.557,3.623c2.113,0,4.245-0.689,6.028-2.113l48.302-38.641
			c0.108-0.087,0.151-0.215,0.255-0.307c4.089,1.479,8.436,2.42,13.028,2.42c21.311,0,38.641-17.33,38.641-38.642
			C280.151,233.215,267.79,218.219,251.17,213.901z M241.509,270.491c-10.651,0-19.321-8.67-19.321-19.321
			s8.67-19.321,19.321-19.321c10.651,0,19.321,8.67,19.321,19.321S252.16,270.491,241.509,270.491z"/>
	</g>
</g>
<g>
	<g>
		<path d="M396.076,164.226h-28.981v-19.274c0-20.163-12.42-37.441-29.991-44.684l-18.5-92.505C317.698,3.255,313.736,0,309.132,0
			H164.226c-4.604,0-8.566,3.255-9.472,7.764l-18.5,92.505c-17.573,7.243-29.991,24.521-29.991,44.684v222.094
			c0,20.163,12.417,37.441,29.991,44.684l18.5,92.505c0.906,4.509,4.868,7.764,9.472,7.764h144.906c4.604,0,8.566-3.255,9.472-7.764
			l18.5-92.505c17.571-7.243,29.991-24.521,29.991-44.684v-20.646c16.62-4.318,28.981-19.313,28.981-37.269
			c0-17.955-12.361-32.951-28.981-37.269V251.17h28.981c5.339,0,9.66-4.321,9.66-9.66v-67.623
			C405.736,168.547,401.415,164.226,396.076,164.226z M172.141,19.321h129.076l15.453,77.283H156.689L172.141,19.321z
			 M301.217,492.679H172.141l-15.453-77.283H316.67L301.217,492.679z M347.774,173.887v67.623v125.538
			c0,16.009-13.009,29.028-29.009,29.028h-164.17c-16,0-29.009-13.019-29.009-29.028V144.953c0-16.009,13.009-29.028,29.009-29.028
			h164.17c16,0,29.009,13.019,29.009,29.028V173.887z M376.755,309.132c0,7.118-3.915,13.281-9.66,16.632V292.5
			C372.84,295.852,376.755,302.014,376.755,309.132z M386.415,231.849h-19.321v-48.302h19.321V231.849z"/>
	</g>
</g>
</svg>
