<?xml version="1.0" encoding="iso-8859-1"?>
<!-- Generator: Adobe Illustrator 19.0.0, SVG Export Plug-In . SVG Version: 6.00 Build 0)  -->
<svg version="1.1" id="Layer_1" xmlns="http://www.w3.org/2000/svg" xmlns:xlink="http://www.w3.org/1999/xlink" x="0px" y="0px"
	 viewBox="0 0 512 512" style="enable-background:new 0 0 512 512;" xml:space="preserve">
<g>
	<g>
		<path d="M256,0C137.43,0,40.96,96.465,40.96,215.04S137.43,430.08,256,430.08s215.04-96.465,215.04-215.04S374.57,0,256,0z
			 M256,409.6c-107.28,0-194.56-87.28-194.56-194.56c0-107.28,87.28-194.56,194.56-194.56c107.28,0,194.56,87.28,194.56,194.56
			C450.56,322.32,363.28,409.6,256,409.6z"/>
	</g>
</g>
<g>
	<g>
		<path d="M256,102.4c-62.11,0-112.64,50.53-112.64,112.64S193.89,327.68,256,327.68c62.11,0,112.64-50.53,112.64-112.64
			S318.11,102.4,256,102.4z M256,307.2c-50.82,0-92.16-41.345-92.16-92.16c0-50.815,41.34-92.16,92.16-92.16
			s92.16,41.345,92.16,92.16C348.16,265.855,306.82,307.2,256,307.2z"/>
	</g>
</g>
<g>
	<g>
		<path d="M256,143.36c-39.52,0-71.68,32.155-71.68,71.68c0,39.525,32.16,71.68,71.68,71.68s71.68-32.155,71.68-71.68
			C327.68,175.515,295.52,143.36,256,143.36z M256,266.24c-28.23,0-51.2-22.97-51.2-51.2c0-28.23,22.97-51.2,51.2-51.2
			s51.2,22.97,51.2,51.2C307.2,243.27,284.23,266.24,256,266.24z"/>
	</g>
</g>
<g>
	<g>
		<path d="M256,184.32c-16.94,0-30.72,13.78-30.72,30.72c0,16.94,13.78,30.72,30.72,30.72s30.72-13.78,30.72-30.72
			C286.72,198.1,272.94,184.32,256,184.32z M256,225.28c-5.65,0-10.24-4.595-10.24-10.24c0-5.645,4.59-10.24,10.24-10.24
			c5.65,0,10.24,4.595,10.24,10.24C266.24,220.685,261.65,225.28,256,225.28z"/>
	</g>
</g>
<g>
	<g>
		<rect x="235.52" y="348.16" width="40.96" height="20.48"/>
	</g>
</g>
<g>
	<g>
		<rect x="245.76" y="51.2" width="20.48" height="30.72"/>
	</g>
</g>
<g>
	<g>
		<polygon points="266.24,491.52 266.24,450.56 245.76,450.56 245.76,491.52 215.04,491.52 215.04,512 296.96,512 296.96,491.52 		
			"/>
	</g>
</g>
</svg>
