<svg id="Layer_1" height="512" viewBox="0 0 128 128" width="512" xmlns="http://www.w3.org/2000/svg" data-name="Layer 1"><path d="m104.029 98.385-.886-.592a6.236 6.236 0 0 1 -2.771-5.189c0-.039 0-.079 0-.118l-3.082-45.506h1.721a1.75 1.75 0 0 0 1.75-1.75v-11.4a1.75 1.75 0 0 0 -1.75-1.75h-6.1a14.556 14.556 0 0 0 .085-1.5 15.292 15.292 0 0 0 -24.101-12.499 13.038 13.038 0 0 0 -23.695 3.119 9.819 9.819 0 0 0 -10.2 9.834 9.615 9.615 0 0 0 .064 1.05h-6.076a1.75 1.75 0 0 0 -1.75 1.75v11.4a1.75 1.75 0 0 0 1.75 1.75h1.722l-3.079 45.5v.118a6.235 6.235 0 0 1 -2.77 5.188l-.888.594a9.743 9.743 0 0 0 5.42 17.841h69.217a9.744 9.744 0 0 0 5.419-17.842zm-65.529-67.351a6.353 6.353 0 0 1 6.346-6.346 6.442 6.442 0 0 1 1.349.146 1.751 1.751 0 0 0 2.1-1.447 9.544 9.544 0 0 1 18.369-1.93 1.75 1.75 0 0 0 2.852.641 11.791 11.791 0 0 1 19.984 8.489 11.226 11.226 0 0 1 -.109 1.5h-50.791a6.155 6.155 0 0 1 -.1-1.053zm-7.762 4.55h66.524v7.9h-66.524zm67.872 77.143h-69.22a6.243 6.243 0 0 1 -3.474-11.432l.888-.594a9.729 9.729 0 0 0 4.323-8.035l3.091-45.686h59.564l3.091 45.686a9.731 9.731 0 0 0 4.327 8.034l.886.592a6.244 6.244 0 0 1 -3.473 11.433z"/><path d="m64.417 97.5h-27.5a1.75 1.75 0 1 0 0 3.5h27.5a1.75 1.75 0 1 0 0-3.5z"/><path d="m78.833 97.5h-7.324a1.75 1.75 0 1 0 0 3.5h7.324a1.75 1.75 0 1 0 0-3.5z"/><path d="m77.818 67.871a1.75 1.75 0 0 0 -1.843-1.85 42.931 42.931 0 0 0 .522-4.364 1.751 1.751 0 0 0 -1.851-1.851l-.213.014a36.371 36.371 0 0 0 .635-4.726 1.751 1.751 0 0 0 -1.85-1.851 25.374 25.374 0 0 0 -7.469 1.462v-.671a1.75 1.75 0 0 0 -3.5 0v.671a25.382 25.382 0 0 0 -7.469-1.462 1.751 1.751 0 0 0 -1.85 1.851 36.377 36.377 0 0 0 .635 4.726l-.213-.014a1.728 1.728 0 0 0 -1.341.51 1.752 1.752 0 0 0 -.51 1.341 42.911 42.911 0 0 0 .522 4.364 1.727 1.727 0 0 0 -1.333.509 1.752 1.752 0 0 0 -.51 1.341c.089 1.5.656 9.089 3.156 11.589a7.264 7.264 0 0 0 8.912 1.067v8.821a1.75 1.75 0 0 0 3.5 0v-8.821a7.264 7.264 0 0 0 8.912-1.067c2.502-2.5 3.069-10.093 3.158-11.589zm-11.962.294a3.132 3.132 0 0 1 -.1-.717c0-.073 0-.146 0-.219a3.153 3.153 0 0 1 .921-2.081c.689-.689 3.41-1.33 6.132-1.66-.1.863-.257 1.9-.471 2.907a22.292 22.292 0 0 0 -6.482 1.77zm-10.194-1.77c-.214-1.007-.367-2.044-.471-2.907 2.722.33 5.442.971 6.132 1.66a3.152 3.152 0 0 1 .921 2.083v.215a3.134 3.134 0 0 1 -.1.719 22.294 22.294 0 0 0 -6.482-1.77zm10.826-8.123c.531-.532 2.688-1.047 4.885-1.335a23.431 23.431 0 0 1 -.639 3.3 20.389 20.389 0 0 0 -4.557 1.209 2.516 2.516 0 0 1 .31-3.175zm-9.858-1.335c2.2.286 4.351.8 4.885 1.335a2.517 2.517 0 0 1 .31 3.174 20.386 20.386 0 0 0 -4.557-1.209 23.529 23.529 0 0 1 -.639-3.3zm4.517 20.049a3.775 3.775 0 0 1 -5.333 0c-.854-.854-1.6-4.119-1.96-7.294l.1.013c.044.008.088.013.133.017 3.1.369 6.224 1.1 7.059 1.931a3.771 3.771 0 0 1 0 5.333zm11.042 0a3.771 3.771 0 0 1 -5.333-5.333c.831-.831 3.945-1.557 7.039-1.928a1.723 1.723 0 0 0 .174-.022l.081-.01c-.361 3.172-1.107 6.437-1.963 7.292z"/></svg>